  0
SECTION
  2
BLOCKS
  0
ENDSEC
  0
SECTION
  2
ENTITIES
  0
LINE
  8
0
 10
0
 11
0
 20
17.002
 21
237.002
  0
LINE
  8
0
 10
0
 11
17
 20
237.002
 21
237.002
  0
LINE
  8
0
 10
17
 11
17
 20
237.002
 21
17.002
  0
LINE
  8
0
 10
17
 11
0
 20
17.002
 21
17.002
  0
LINE
  8
0
 10
17.002
 11
17.002
 20
0
 21
17
  0
LINE
  8
0
 10
17.002
 11
187.002
 20
17
 21
17
  0
LINE
  8
0
 10
187.002
 11
187.002
 20
17
 21
0
  0
LINE
  8
0
 10
187.002
 11
17.002
 20
0
 21
0
  0
LINE
  8
0
 10
17.002
 11
17.002
 20
17.002
 21
237.002
  0
LINE
  8
0
 10
17.002
 11
187.002
 20
237.002
 21
237.002
  0
LINE
  8
0
 10
187.002
 11
187.002
 20
237.002
 21
17.002
  0
LINE
  8
0
 10
187.002
 11
17.002
 20
17.002
 21
17.002
  0
LINE
  8
0
 10
17.002
 11
17.002
 20
237.004
 21
254.004
  0
LINE
  8
0
 10
17.002
 11
187.002
 20
254.004
 21
254.004
  0
LINE
  8
0
 10
187.002
 11
187.002
 20
254.004
 21
237.004
  0
LINE
  8
0
 10
187.002
 11
17.002
 20
237.004
 21
237.004
  0
LINE
  8
0
 10
187.004
 11
187.004
 20
17.002
 21
237.002
  0
LINE
  8
0
 10
187.004
 11
204.004
 20
237.002
 21
237.002
  0
LINE
  8
0
 10
204.004
 11
204.004
 20
237.002
 21
17.002
  0
LINE
  8
0
 10
204.004
 11
187.004
 20
17.002
 21
17.002
  0
LINE
  8
0
 10
204.006
 11
204.006
 20
0
 21
17
  0
LINE
  8
0
 10
204.006
 11
374.006
 20
17
 21
17
  0
LINE
  8
0
 10
374.006
 11
374.006
 20
17
 21
0
  0
LINE
  8
0
 10
374.006
 11
204.006
 20
0
 21
0
  0
LINE
  8
0
 10
204.006
 11
204.006
 20
17.002
 21
237.002
  0
LINE
  8
0
 10
204.006
 11
374.006
 20
237.002
 21
237.002
  0
LINE
  8
0
 10
374.006
 11
374.006
 20
237.002
 21
17.002
  0
LINE
  8
0
 10
374.006
 11
204.006
 20
17.002
 21
17.002
  0
LINE
  8
0
 10
204.006
 11
204.006
 20
237.004
 21
254.004
  0
LINE
  8
0
 10
204.006
 11
374.006
 20
254.004
 21
254.004
  0
LINE
  8
0
 10
374.006
 11
374.006
 20
254.004
 21
237.004
  0
LINE
  8
0
 10
374.006
 11
204.006
 20
237.004
 21
237.004
  0
LINE
  8
0
 10
374.008
 11
374.008
 20
17.002
 21
237.002
  0
LINE
  8
0
 10
374.008
 11
391.008
 20
237.002
 21
237.002
  0
LINE
  8
0
 10
391.008
 11
391.008
 20
237.002
 21
17.002
  0
LINE
  8
0
 10
391.008
 11
374.008
 20
17.002
 21
17.002
  0
ENDSEC
  0
SECTION
  2
OBJECTS
  0
DICTIONARY
  0
ENDSEC
  0
EOF
