  0
SECTION
  2
BLOCKS
  0
ENDSEC
  0
SECTION
  2
ENTITIES
  0
LINE
  8
0
 10
0
 11
0
 20
9.502
 21
149.502
  0
LINE
  8
0
 10
0
 11
9.5
 20
149.502
 21
149.502
  0
LINE
  8
0
 10
9.5
 11
9.5
 20
149.502
 21
9.502
  0
LINE
  8
0
 10
9.5
 11
0
 20
9.502
 21
9.502
  0
LINE
  8
0
 10
9.502
 11
9.502
 20
0
 21
9.5
  0
LINE
  8
0
 10
9.502
 11
99.502
 20
9.5
 21
9.5
  0
LINE
  8
0
 10
99.502
 11
99.502
 20
9.5
 21
0
  0
LINE
  8
0
 10
99.502
 11
9.502
 20
0
 21
0
  0
LINE
  8
0
 10
9.502
 11
9.502
 20
9.502
 21
149.502
  0
LINE
  8
0
 10
9.502
 11
99.502
 20
149.502
 21
149.502
  0
LINE
  8
0
 10
99.502
 11
99.502
 20
149.502
 21
9.502
  0
LINE
  8
0
 10
99.502
 11
9.502
 20
9.502
 21
9.502
  0
LINE
  8
0
 10
9.502
 11
9.502
 20
149.504
 21
159.004
  0
LINE
  8
0
 10
9.502
 11
99.502
 20
159.004
 21
159.004
  0
LINE
  8
0
 10
99.502
 11
99.502
 20
159.004
 21
149.504
  0
LINE
  8
0
 10
99.502
 11
9.502
 20
149.504
 21
149.504
  0
LINE
  8
0
 10
99.504
 11
99.504
 20
9.502
 21
149.502
  0
LINE
  8
0
 10
99.504
 11
109.004
 20
149.502
 21
149.502
  0
LINE
  8
0
 10
109.004
 11
109.004
 20
149.502
 21
9.502
  0
LINE
  8
0
 10
109.004
 11
99.504
 20
9.502
 21
9.502
  0
LINE
  8
0
 10
109.006
 11
109.006
 20
0
 21
9.5
  0
LINE
  8
0
 10
109.006
 11
199.006
 20
9.5
 21
9.5
  0
LINE
  8
0
 10
199.006
 11
199.006
 20
9.5
 21
0
  0
LINE
  8
0
 10
199.006
 11
109.006
 20
0
 21
0
  0
LINE
  8
0
 10
109.006
 11
109.006
 20
9.502
 21
149.502
  0
LINE
  8
0
 10
109.006
 11
199.006
 20
149.502
 21
149.502
  0
LINE
  8
0
 10
199.006
 11
199.006
 20
149.502
 21
9.502
  0
LINE
  8
0
 10
199.006
 11
109.006
 20
9.502
 21
9.502
  0
LINE
  8
0
 10
109.006
 11
109.006
 20
149.504
 21
159.004
  0
LINE
  8
0
 10
109.006
 11
199.006
 20
159.004
 21
159.004
  0
LINE
  8
0
 10
199.006
 11
199.006
 20
159.004
 21
149.504
  0
LINE
  8
0
 10
199.006
 11
109.006
 20
149.504
 21
149.504
  0
LINE
  8
0
 10
199.008
 11
199.008
 20
9.502
 21
149.502
  0
LINE
  8
0
 10
199.008
 11
208.508
 20
149.502
 21
149.502
  0
LINE
  8
0
 10
208.508
 11
208.508
 20
149.502
 21
9.502
  0
LINE
  8
0
 10
208.508
 11
199.008
 20
9.502
 21
9.502
  0
ENDSEC
  0
SECTION
  2
OBJECTS
  0
DICTIONARY
  0
ENDSEC
  0
EOF
