  0
SECTION
  2
HEADER
  9
$ACADVER
  1
AC1014
  9
$HANDSEED
  5
FFFF
  9
$MEASUREMENT
 70
     1
  0
ENDSEC
  0
SECTION
  2
TABLES
  0
TABLE
  2
VPORT
  5
8
330
0
100
AcDbSymbolTable
 70
     4
  0
VPORT
  5
2E
330
8
100
AcDbSymbolTableRecord
100
AcDbViewportTableRecord
  2
*ACTIVE
 70
     0
 10
0.0
 20
0.0
 11
1.0
 21
1.0
 12
210.0
 22
148.5
 13
0.0
 23
0.0
 14
10.0
 24
10.0
 15
10.0
 25
10.0
 16
0.0
 26
0.0
 36
1.0
 17
0.0
 27
0.0
 37
0.0
 40
341.0
 41
1.24
 42
50.0
 43
0.0
 44
0.0
 50
0.0
 51
0.0
 71
     0
 72
   100
 73
     1
 74
     3
 75
     0
 76
     0
 77
     0
 78
     0
  0
ENDTAB
  0
TABLE
  2
LTYPE
  5
5
330
0
100
AcDbSymbolTable
 70
     1
  0
LTYPE
  5
14
330
5
100
AcDbSymbolTableRecord
100
AcDbLinetypeTableRecord
  2
BYBLOCK
 70
     0
  3

 72
    65
 73
     0
 40
0.0
  0
LTYPE
  5
15
330
5
100
AcDbSymbolTableRecord
100
AcDbLinetypeTableRecord
  2
BYLAYER
 70
     0
  3

 72
    65
 73
     0
 40
0.0
  0
LTYPE
  5
16
330
5
100
AcDbSymbolTableRecord
100
AcDbLinetypeTableRecord
  2
CONTINUOUS
 70
     0
  3
Solid line
 72
    65
 73
     0
 40
0.0
  0
ENDTAB
  0
TABLE
  2
LAYER
  5
2
100
AcDbSymbolTable
 70
1
  0
LAYER
  5
50
100
AcDbSymbolTableRecord
100
AcDbLayerTableRecord
  2
0
 70
0
  6
CONTINUOUS
  0
ENDTAB
  0
TABLE
  2
STYLE
  5
3
330
0
100
AcDbSymbolTable
 70
     1
  0
STYLE
  5
11
330
3
100
AcDbSymbolTableRecord
100
AcDbTextStyleTableRecord
  2
STANDARD
 70
     0
 40
0.0
 41
1.0
 50
0.0
 71
     0
 42
2.5
  3
txt
  4

  0
ENDTAB
  0
TABLE
  2
VIEW
  5
6
330
0
100
AcDbSymbolTable
 70
     0
  0
ENDTAB
  0
TABLE
  2
UCS
  5
7
330
0
100
AcDbSymbolTable
 70
     0
  0
ENDTAB
  0
TABLE
  2
APPID
  5
9
330
0
100
AcDbSymbolTable
 70
     2
  0
APPID
  5
12
330
9
100
AcDbSymbolTableRecord
100
AcDbRegAppTableRecord
  2
ACAD
 70
     0
  0
ENDTAB
  0
TABLE
  2
DIMSTYLE
  5
A
330
0
100
AcDbSymbolTable
 70
     1
  0
DIMSTYLE
105
27
330
A
100
AcDbSymbolTableRecord
100
AcDbDimStyleTableRecord
  2
ISO-25
 70
     0
  3

  4

  5

  6

  7

 40
1.0
 41
2.5
 42
0.625
 43
3.75
 44
1.25
 45
0.0
 46
0.0
 47
0.0
 48
0.0
140
2.5
141
2.5
142
0.0
143
0.03937007874016
144
1.0
145
0.0
146
1.0
147
0.625
 71
     0
 72
     0
 73
     0
 74
     0
 75
     0
 76
     0
 77
     1
 78
     8
170
     0
171
     3
172
     1
173
     0
174
     0
175
     0
176
     0
177
     0
178
     0
270
     2
271
     2
272
     2
273
     2
274
     3
340
11
275
     0
280
     0
281
     0
282
     0
283
     0
284
     8
285
     0
286
     0
287
     3
288
     0
  0
ENDTAB
  0
TABLE
  2
BLOCK_RECORD
  5
1
330
0
100
AcDbSymbolTable
 70
     1
  0
BLOCK_RECORD
  5
1F
330
1
100
AcDbSymbolTableRecord
100
AcDbBlockTableRecord
  2
*MODEL_SPACE
  0
BLOCK_RECORD
  5
1B
330
1
100
AcDbSymbolTableRecord
100
AcDbBlockTableRecord
  2
*PAPER_SPACE
  0
ENDTAB
  0
ENDSEC
  0
SECTION
  2
BLOCKS
  0
BLOCK
  5
20
330
1F
100
AcDbEntity
  8
0
100
AcDbBlockBegin
  2
*MODEL_SPACE
 70
     0
 10
0.0
 20
0.0
 30
0.0
  3
*MODEL_SPACE
  1

  0
ENDBLK
  5
21
330
1F
100
AcDbEntity
  8
0
100
AcDbBlockEnd
  0
BLOCK
  5
1C
330
1B
100
AcDbEntity
 67
     1
  8
0
100
AcDbBlockBegin
  2
*PAPER_SPACE
  1

  0
ENDBLK
  5
1D
330
1B
100
AcDbEntity
 67
     1
  8
0
100
AcDbBlockEnd
  0
ENDSEC
  0
SECTION
  2
ENTITIES
  0
LWPOLYLINE
  5
100
100
AcDbEntity
  8
0
 62
7
100
AcDbPolyline
 90
93
 70
0
 10
2.113346
 20
40.230968
 30
0.0
 10
2.140355
 20
41.018969
 30
0.0
 10
2.221347
 20
41.803968
 30
0.0
 10
2.355346
 20
42.580968
 30
0.0
 10
2.541347
 20
43.346970
 30
0.0
 10
2.780347
 20
44.098968
 30
0.0
 10
3.069348
 20
44.832968
 30
0.0
 10
3.408348
 20
45.544970
 30
0.0
 10
3.794346
 20
46.231969
 30
0.0
 10
4.227349
 20
46.891969
 30
0.0
 10
4.704346
 20
47.519970
 30
0.0
 10
5.222348
 20
48.113968
 30
0.0
 10
5.780347
 20
48.671970
 30
0.0
 10
6.374348
 20
49.189969
 30
0.0
 10
7.002347
 20
49.666969
 30
0.0
 10
7.662349
 20
50.099969
 30
0.0
 10
8.349348
 20
50.485970
 30
0.0
 10
9.061347
 20
50.824970
 30
0.0
 10
9.795347
 20
51.113968
 30
0.0
 10
10.547348
 20
51.352968
 30
0.0
 10
11.313347
 20
51.538969
 30
0.0
 10
12.090348
 20
51.672968
 30
0.0
 10
12.875349
 20
51.753969
 30
0.0
 10
13.663347
 20
51.780978
 30
0.0
 10
14.451348
 20
51.753960
 30
0.0
 10
15.236346
 20
51.672968
 30
0.0
 10
16.013346
 20
51.538969
 30
0.0
 10
16.779348
 20
51.352968
 30
0.0
 10
17.531346
 20
51.113968
 30
0.0
 10
18.265347
 20
50.824970
 30
0.0
 10
18.977349
 20
50.485970
 30
0.0
 10
19.664348
 20
50.099969
 30
0.0
 10
20.324347
 20
49.666969
 30
0.0
 10
20.952348
 20
49.189969
 30
0.0
 10
21.546347
 20
48.671970
 30
0.0
 10
22.104348
 20
48.113968
 30
0.0
 10
22.622347
 20
47.519970
 30
0.0
 10
23.099348
 20
46.891969
 30
0.0
 10
23.532348
 20
46.231969
 30
0.0
 10
23.918349
 20
45.544970
 30
0.0
 10
24.257348
 20
44.832968
 30
0.0
 10
24.546347
 20
44.098968
 30
0.0
 10
24.785347
 20
43.346970
 30
0.0
 10
24.971348
 20
42.580968
 30
0.0
 10
25.105347
 20
41.803968
 30
0.0
 10
25.186348
 20
41.018969
 30
0.0
 10
25.213356
 20
40.230968
 30
0.0
 10
25.186339
 20
39.442970
 30
0.0
 10
25.105347
 20
38.657969
 30
0.0
 10
24.971348
 20
37.880969
 30
0.0
 10
24.785347
 20
37.114970
 30
0.0
 10
24.546347
 20
36.362969
 30
0.0
 10
24.257348
 20
35.628968
 30
0.0
 10
23.918349
 20
34.916969
 30
0.0
 10
23.532348
 20
34.229970
 30
0.0
 10
23.099348
 20
33.569968
 30
0.0
 10
22.622347
 20
32.941970
 30
0.0
 10
22.104348
 20
32.347968
 30
0.0
 10
21.546347
 20
31.789970
 30
0.0
 10
20.952348
 20
31.271968
 30
0.0
 10
20.324347
 20
30.794970
 30
0.0
 10
19.664348
 20
30.361968
 30
0.0
 10
18.977349
 20
29.975969
 30
0.0
 10
18.265347
 20
29.636970
 30
0.0
 10
17.531346
 20
29.347968
 30
0.0
 10
16.779348
 20
29.108969
 30
0.0
 10
16.013346
 20
28.922970
 30
0.0
 10
15.236346
 20
28.788968
 30
0.0
 10
14.451348
 20
28.707968
 30
0.0
 10
13.663347
 20
28.680959
 30
0.0
 10
12.875349
 20
28.707976
 30
0.0
 10
12.090348
 20
28.788968
 30
0.0
 10
11.313347
 20
28.922970
 30
0.0
 10
10.547348
 20
29.108969
 30
0.0
 10
9.795347
 20
29.347968
 30
0.0
 10
9.061347
 20
29.636970
 30
0.0
 10
8.349348
 20
29.975969
 30
0.0
 10
7.662349
 20
30.361968
 30
0.0
 10
7.002347
 20
30.794970
 30
0.0
 10
6.374348
 20
31.271968
 30
0.0
 10
5.780347
 20
31.789970
 30
0.0
 10
5.222348
 20
32.347968
 30
0.0
 10
4.704346
 20
32.941970
 30
0.0
 10
4.227349
 20
33.569968
 30
0.0
 10
3.794346
 20
34.229970
 30
0.0
 10
3.408348
 20
34.916969
 30
0.0
 10
3.069348
 20
35.628968
 30
0.0
 10
2.780347
 20
36.362969
 30
0.0
 10
2.541347
 20
37.114970
 30
0.0
 10
2.355346
 20
37.880969
 30
0.0
 10
2.221347
 20
38.657969
 30
0.0
 10
2.140346
 20
39.442970
 30
0.0
 10
2.113337
 20
40.230968
 30
0.0
  0
LWPOLYLINE
  5
101
100
AcDbEntity
  8
0
 62
7
100
AcDbPolyline
 90
113
 70
0
 10
4.113348
 20
40.230968
 30
0.0
 10
4.135361
 20
40.882969
 30
0.0
 10
4.202346
 20
41.530968
 30
0.0
 10
4.232347
 20
41.705969
 30
0.0
 10
6.113347
 20
41.705969
 30
0.0
 10
6.113347
 20
43.705968
 30
0.0
 10
4.774346
 20
43.705968
 30
0.0
 10
4.904346
 20
44.035970
 30
0.0
 10
5.184347
 20
44.624968
 30
0.0
 10
5.503349
 20
45.192968
 30
0.0
 10
5.861347
 20
45.737968
 30
0.0
 10
6.255347
 20
46.257968
 30
0.0
 10
6.684347
 20
46.748969
 30
0.0
 10
7.145349
 20
47.209968
 30
0.0
 10
7.636347
 20
47.638969
 30
0.0
 10
8.156348
 20
48.032968
 30
0.0
 10
8.701347
 20
48.390969
 30
0.0
 10
9.269347
 20
48.709968
 30
0.0
 10
9.858348
 20
48.989969
 30
0.0
 10
10.133348
 20
49.098969
 30
0.0
 10
10.133348
 20
40.230968
 30
0.0
 10
11.585348
 20
40.230968
 30
0.0
 10
11.952346
 20
40.417969
 30
0.0
 10
12.363347
 20
40.575968
 30
0.0
 10
12.523347
 20
40.618967
 30
0.0
 10
12.523347
 20
41.130969
 30
0.0
 10
11.383347
 20
41.130969
 30
0.0
 10
11.383347
 20
45.690969
 30
0.0
 10
15.943347
 20
45.690969
 30
0.0
 10
15.943347
 20
41.130969
 30
0.0
 10
14.803347
 20
41.130969
 30
0.0
 10
14.803347
 20
40.618967
 30
0.0
 10
14.965348
 20
40.575968
 30
0.0
 10
15.376348
 20
40.417969
 30
0.0
 10
15.743347
 20
40.230968
 30
0.0
 10
17.193349
 20
40.230968
 30
0.0
 10
17.193349
 20
49.098969
 30
0.0
 10
17.468346
 20
48.989969
 30
0.0
 10
18.057347
 20
48.709968
 30
0.0
 10
18.625347
 20
48.390969
 30
0.0
 10
19.170346
 20
48.032968
 30
0.0
 10
19.690346
 20
47.638969
 30
0.0
 10
20.181348
 20
47.209968
 30
0.0
 10
20.642347
 20
46.748969
 30
0.0
 10
21.071347
 20
46.257968
 30
0.0
 10
21.465346
 20
45.737968
 30
0.0
 10
21.823348
 20
45.192968
 30
0.0
 10
22.142347
 20
44.624968
 30
0.0
 10
22.422348
 20
44.035970
 30
0.0
 10
22.552348
 20
43.705968
 30
0.0
 10
21.213347
 20
43.705968
 30
0.0
 10
21.213347
 20
41.705969
 30
0.0
 10
23.094347
 20
41.705969
 30
0.0
 10
23.124347
 20
41.530968
 30
0.0
 10
23.191347
 20
40.882969
 30
0.0
 10
23.213332
 20
40.230968
 30
0.0
 10
23.191361
 20
39.578970
 30
0.0
 10
23.124347
 20
38.930968
 30
0.0
 10
23.094347
 20
38.755968
 30
0.0
 10
21.213347
 20
38.755968
 30
0.0
 10
21.213347
 20
36.755969
 30
0.0
 10
22.552348
 20
36.755969
 30
0.0
 10
22.422348
 20
36.425969
 30
0.0
 10
22.142347
 20
35.836969
 30
0.0
 10
21.823348
 20
35.268968
 30
0.0
 10
21.465346
 20
34.723969
 30
0.0
 10
21.071347
 20
34.203969
 30
0.0
 10
20.642347
 20
33.712970
 30
0.0
 10
20.181348
 20
33.251968
 30
0.0
 10
19.690346
 20
32.822968
 30
0.0
 10
19.170346
 20
32.428969
 30
0.0
 10
18.625347
 20
32.070970
 30
0.0
 10
18.057347
 20
31.751968
 30
0.0
 10
17.468346
 20
31.471970
 30
0.0
 10
17.193349
 20
31.362967
 30
0.0
 10
17.193349
 20
36.405968
 30
0.0
 10
15.942348
 20
36.405968
 30
0.0
 10
15.769348
 20
36.293968
 30
0.0
 10
15.376348
 20
36.093969
 30
0.0
 10
14.965348
 20
35.935969
 30
0.0
 10
14.803347
 20
35.892970
 30
0.0
 10
14.803347
 20
35.380968
 30
0.0
 10
15.943347
 20
35.380968
 30
0.0
 10
15.943347
 20
30.820968
 30
0.0
 10
11.383347
 20
30.820968
 30
0.0
 10
11.383347
 20
35.380968
 30
0.0
 10
12.523347
 20
35.380968
 30
0.0
 10
12.523347
 20
35.892970
 30
0.0
 10
12.363347
 20
35.935969
 30
0.0
 10
11.952346
 20
36.093969
 30
0.0
 10
11.559346
 20
36.293968
 30
0.0
 10
11.386347
 20
36.405968
 30
0.0
 10
10.133348
 20
36.405968
 30
0.0
 10
10.133348
 20
31.362967
 30
0.0
 10
9.858348
 20
31.471970
 30
0.0
 10
9.269347
 20
31.751968
 30
0.0
 10
8.701347
 20
32.070970
 30
0.0
 10
8.156348
 20
32.428969
 30
0.0
 10
7.636347
 20
32.822968
 30
0.0
 10
7.145349
 20
33.251968
 30
0.0
 10
6.684347
 20
33.712970
 30
0.0
 10
6.255347
 20
34.203969
 30
0.0
 10
5.861347
 20
34.723969
 30
0.0
 10
5.503349
 20
35.268968
 30
0.0
 10
5.184347
 20
35.836969
 30
0.0
 10
4.904346
 20
36.425969
 30
0.0
 10
4.774346
 20
36.755969
 30
0.0
 10
6.113347
 20
36.755969
 30
0.0
 10
6.113347
 20
38.755968
 30
0.0
 10
4.232347
 20
38.755968
 30
0.0
 10
4.202346
 20
38.930968
 30
0.0
 10
4.135347
 20
39.578970
 30
0.0
 10
4.113334
 20
40.230968
 30
0.0
  0
LWPOLYLINE
  5
102
100
AcDbEntity
  8
0
 62
7
100
AcDbPolyline
 90
90
 70
0
 10
29.693067
 20
40.037829
 30
0.0
 10
29.720067
 20
40.825822
 30
0.0
 10
29.801066
 20
41.610823
 30
0.0
 10
29.935066
 20
42.387837
 30
0.0
 10
30.121067
 20
43.153817
 30
0.0
 10
30.360067
 20
43.905826
 30
0.0
 10
30.649067
 20
44.639830
 30
0.0
 10
30.988067
 20
45.351820
 30
0.0
 10
31.374066
 20
46.038833
 30
0.0
 10
31.807066
 20
46.698838
 30
0.0
 10
32.284067
 20
47.326839
 30
0.0
 10
32.802067
 20
47.920832
 30
0.0
 10
33.360066
 20
48.478814
 30
0.0
 10
33.954067
 20
48.996833
 30
0.0
 10
34.582066
 20
49.473817
 30
0.0
 10
35.242067
 20
49.906830
 30
0.0
 10
35.929067
 20
50.292825
 30
0.0
 10
36.641067
 20
50.631831
 30
0.0
 10
37.375067
 20
50.920826
 30
0.0
 10
38.127067
 20
51.159840
 30
0.0
 10
38.893066
 20
51.345825
 30
0.0
 10
39.670067
 20
51.479824
 30
0.0
 10
40.455067
 20
51.560822
 30
0.0
 10
41.243067
 20
51.587830
 30
0.0
 10
42.031067
 20
51.560737
 30
0.0
 10
42.816067
 20
51.479824
 30
0.0
 10
43.593067
 20
51.345825
 30
0.0
 10
44.359067
 20
51.159840
 30
0.0
 10
45.111067
 20
50.920826
 30
0.0
 10
45.845066
 20
50.631831
 30
0.0
 10
46.557067
 20
50.292825
 30
0.0
 10
47.244067
 20
49.906830
 30
0.0
 10
47.904067
 20
49.473817
 30
0.0
 10
48.532066
 20
48.996833
 30
0.0
 10
49.126067
 20
48.478814
 30
0.0
 10
49.684067
 20
47.920832
 30
0.0
 10
50.202067
 20
47.326839
 30
0.0
 10
50.679067
 20
46.698838
 30
0.0
 10
51.112067
 20
46.038833
 30
0.0
 10
51.498067
 20
45.351820
 30
0.0
 10
51.837066
 20
44.639830
 30
0.0
 10
52.126067
 20
43.905826
 30
0.0
 10
52.365066
 20
43.153817
 30
0.0
 10
52.551067
 20
42.387837
 30
0.0
 10
52.685067
 20
41.610823
 30
0.0
 10
52.766067
 20
40.825822
 30
0.0
 10
52.793067
 20
40.037829
 30
0.0
 10
52.766066
 20
39.249837
 30
0.0
 10
52.685067
 20
38.464836
 30
0.0
 10
52.551067
 20
37.687821
 30
0.0
 10
52.365066
 20
36.921814
 30
0.0
 10
52.126067
 20
36.169833
 30
0.0
 10
51.837066
 20
35.435829
 30
0.0
 10
51.498067
 20
34.723839
 30
0.0
 10
51.112067
 20
34.036825
 30
0.0
 10
50.679067
 20
33.376821
 30
0.0
 10
50.202067
 20
32.748820
 30
0.0
 10
49.684067
 20
32.154827
 30
0.0
 10
49.126067
 20
31.596817
 30
0.0
 10
48.532066
 20
31.078826
 30
0.0
 10
47.904067
 20
30.601814
 30
0.0
 10
47.244067
 20
30.168829
 30
0.0
 10
46.557067
 20
29.782833
 30
0.0
 10
45.845066
 20
29.443828
 30
0.0
 10
45.111067
 20
29.154833
 30
0.0
 10
44.359067
 20
28.915819
 30
0.0
 10
43.868067
 20
28.796834
 30
0.0
 10
43.868067
 20
25.837818
 30
0.0
 10
38.618067
 20
25.837818
 30
0.0
 10
38.618067
 20
28.796834
 30
0.0
 10
38.127067
 20
28.915819
 30
0.0
 10
37.375067
 20
29.154833
 30
0.0
 10
36.641067
 20
29.443828
 30
0.0
 10
35.929067
 20
29.782833
 30
0.0
 10
35.242067
 20
30.168829
 30
0.0
 10
34.582066
 20
30.601814
 30
0.0
 10
33.954067
 20
31.078826
 30
0.0
 10
33.360066
 20
31.596817
 30
0.0
 10
32.802067
 20
32.154827
 30
0.0
 10
32.284067
 20
32.748820
 30
0.0
 10
31.807066
 20
33.376821
 30
0.0
 10
31.374066
 20
34.036825
 30
0.0
 10
30.988067
 20
34.723839
 30
0.0
 10
30.649067
 20
35.435829
 30
0.0
 10
30.360067
 20
36.169833
 30
0.0
 10
30.121067
 20
36.921814
 30
0.0
 10
29.935066
 20
37.687821
 30
0.0
 10
29.801066
 20
38.464836
 30
0.0
 10
29.720066
 20
39.249837
 30
0.0
 10
29.693066
 20
40.037829
 30
0.0
  0
LWPOLYLINE
  5
103
100
AcDbEntity
  8
0
 62
7
100
AcDbPolyline
 90
22
 70
0
 10
31.693066
 20
40.037829
 30
0.0
 10
31.715066
 20
40.689819
 30
0.0
 10
31.782067
 20
41.337830
 30
0.0
 10
31.893067
 20
41.980817
 30
0.0
 10
32.047067
 20
42.614829
 30
0.0
 10
32.244067
 20
43.235831
 30
0.0
 10
32.484066
 20
43.842834
 30
0.0
 10
32.764066
 20
44.431832
 30
0.0
 10
33.083067
 20
44.999832
 30
0.0
 10
33.441067
 20
45.544832
 30
0.0
 10
33.835067
 20
46.064826
 30
0.0
 10
34.264067
 20
46.555836
 30
0.0
 10
34.725066
 20
47.016818
 30
0.0
 10
35.216067
 20
47.445824
 30
0.0
 10
35.736067
 20
47.839835
 30
0.0
 10
36.281066
 20
48.197833
 30
0.0
 10
36.849067
 20
48.516829
 30
0.0
 10
37.438067
 20
48.796822
 30
0.0
 10
38.045067
 20
49.036824
 30
0.0
 10
38.618067
 20
49.218829
 30
0.0
 10
38.618067
 20
43.287816
 30
0.0
 10
38.844066
 20
43.287816
 30
0.0
  0
LWPOLYLINE
  5
104
100
AcDbEntity
  8
0
 62
7
100
AcDbPolyline
 90
14
 70
0
 10
38.844066
 20
43.288832
 30
0.0
 10
38.857066
 20
43.539840
 30
0.0
 10
38.896066
 20
43.787829
 30
0.0
 10
38.961066
 20
44.030822
 30
0.0
 10
39.051067
 20
44.264841
 30
0.0
 10
39.166067
 20
44.488841
 30
0.0
 10
39.302067
 20
44.699830
 30
0.0
 10
39.460066
 20
44.894817
 30
0.0
 10
39.638067
 20
45.072815
 30
0.0
 10
39.833067
 20
45.230831
 30
0.0
 10
40.044067
 20
45.366834
 30
0.0
 10
40.268067
 20
45.481840
 30
0.0
 10
40.502066
 20
45.571840
 30
0.0
 10
40.555067
 20
45.585951
 30
0.0
  0
LWPOLYLINE
  5
105
100
AcDbEntity
  8
0
 62
7
100
AcDbPolyline
 90
63
 70
0
 10
40.555067
 20
45.585839
 30
0.0
 10
40.555067
 20
46.037817
 30
0.0
 10
39.868067
 20
46.037817
 30
0.0
 10
39.868067
 20
48.787819
 30
0.0
 10
42.618066
 20
48.787819
 30
0.0
 10
42.618066
 20
46.037817
 30
0.0
 10
41.931066
 20
46.037817
 30
0.0
 10
41.931066
 20
45.586826
 30
0.0
 10
41.986067
 20
45.571869
 30
0.0
 10
42.220067
 20
45.481840
 30
0.0
 10
42.444067
 20
45.366834
 30
0.0
 10
42.655067
 20
45.230831
 30
0.0
 10
42.850066
 20
45.072815
 30
0.0
 10
43.028067
 20
44.894817
 30
0.0
 10
43.186067
 20
44.699830
 30
0.0
 10
43.322066
 20
44.488841
 30
0.0
 10
43.437067
 20
44.264841
 30
0.0
 10
43.527066
 20
44.030822
 30
0.0
 10
43.592066
 20
43.787829
 30
0.0
 10
43.631066
 20
43.539840
 30
0.0
 10
43.644066
 20
43.287816
 30
0.0
 10
43.868067
 20
43.287816
 30
0.0
 10
43.868067
 20
49.218829
 30
0.0
 10
44.441067
 20
49.036824
 30
0.0
 10
45.048066
 20
48.796822
 30
0.0
 10
45.637066
 20
48.516829
 30
0.0
 10
46.205067
 20
48.197833
 30
0.0
 10
46.750067
 20
47.839835
 30
0.0
 10
47.270067
 20
47.445824
 30
0.0
 10
47.761067
 20
47.016818
 30
0.0
 10
48.222067
 20
46.555836
 30
0.0
 10
48.651067
 20
46.064826
 30
0.0
 10
49.045067
 20
45.544832
 30
0.0
 10
49.403067
 20
44.999832
 30
0.0
 10
49.722067
 20
44.431832
 30
0.0
 10
50.002067
 20
43.842834
 30
0.0
 10
50.242066
 20
43.235831
 30
0.0
 10
50.439067
 20
42.614829
 30
0.0
 10
50.593066
 20
41.980817
 30
0.0
 10
50.704066
 20
41.337830
 30
0.0
 10
50.771067
 20
40.689819
 30
0.0
 10
50.793066
 20
40.037829
 30
0.0
 10
50.771067
 20
39.385840
 30
0.0
 10
50.704066
 20
38.737829
 30
0.0
 10
50.593066
 20
38.094814
 30
0.0
 10
50.439067
 20
37.460830
 30
0.0
 10
50.242066
 20
36.839828
 30
0.0
 10
50.002067
 20
36.232825
 30
0.0
 10
49.722067
 20
35.643827
 30
0.0
 10
49.403067
 20
35.075827
 30
0.0
 10
49.045067
 20
34.530827
 30
0.0
 10
48.651067
 20
34.010833
 30
0.0
 10
48.222067
 20
33.519823
 30
0.0
 10
47.761067
 20
33.058841
 30
0.0
 10
47.270067
 20
32.629835
 30
0.0
 10
46.750067
 20
32.235824
 30
0.0
 10
46.205067
 20
31.877825
 30
0.0
 10
45.637066
 20
31.558830
 30
0.0
 10
45.048066
 20
31.278837
 30
0.0
 10
44.441067
 20
31.038835
 30
0.0
 10
43.868067
 20
30.856830
 30
0.0
 10
43.868067
 20
32.837833
 30
0.0
 10
43.644066
 20
32.837833
 30
0.0
  0
LWPOLYLINE
  5
106
100
AcDbEntity
  8
0
 62
7
100
AcDbPolyline
 90
22
 70
0
 10
43.644066
 20
32.836817
 30
0.0
 10
43.631066
 20
32.585836
 30
0.0
 10
43.592066
 20
32.337819
 30
0.0
 10
43.527066
 20
32.094826
 30
0.0
 10
43.437067
 20
31.860836
 30
0.0
 10
43.322066
 20
31.636836
 30
0.0
 10
43.186067
 20
31.425818
 30
0.0
 10
43.028067
 20
31.230831
 30
0.0
 10
42.850066
 20
31.052833
 30
0.0
 10
42.655067
 20
30.894817
 30
0.0
 10
42.444067
 20
30.758814
 30
0.0
 10
42.220067
 20
30.643837
 30
0.0
 10
41.986067
 20
30.553836
 30
0.0
 10
41.931066
 20
30.538879
 30
0.0
 10
41.931066
 20
30.087831
 30
0.0
 10
42.618066
 20
30.087831
 30
0.0
 10
42.618066
 20
27.337829
 30
0.0
 10
39.868067
 20
27.337829
 30
0.0
 10
39.868067
 20
30.087831
 30
0.0
 10
40.555067
 20
30.087831
 30
0.0
 10
40.555067
 20
30.539838
 30
0.0
 10
40.502066
 20
30.553949
 30
0.0
  0
LWPOLYLINE
  5
107
100
AcDbEntity
  8
0
 62
7
100
AcDbPolyline
 90
34
 70
0
 10
40.502066
 20
30.553836
 30
0.0
 10
40.268067
 20
30.643837
 30
0.0
 10
40.044067
 20
30.758814
 30
0.0
 10
39.833067
 20
30.894817
 30
0.0
 10
39.638067
 20
31.052833
 30
0.0
 10
39.460066
 20
31.230831
 30
0.0
 10
39.302067
 20
31.425818
 30
0.0
 10
39.166067
 20
31.636836
 30
0.0
 10
39.051067
 20
31.860836
 30
0.0
 10
38.961066
 20
32.094826
 30
0.0
 10
38.896066
 20
32.337819
 30
0.0
 10
38.857066
 20
32.585836
 30
0.0
 10
38.844066
 20
32.837833
 30
0.0
 10
38.618067
 20
32.837833
 30
0.0
 10
38.618067
 20
30.856830
 30
0.0
 10
38.045067
 20
31.038835
 30
0.0
 10
37.438067
 20
31.278837
 30
0.0
 10
36.849067
 20
31.558830
 30
0.0
 10
36.281066
 20
31.877825
 30
0.0
 10
35.736067
 20
32.235824
 30
0.0
 10
35.216067
 20
32.629835
 30
0.0
 10
34.725066
 20
33.058841
 30
0.0
 10
34.264067
 20
33.519823
 30
0.0
 10
33.835067
 20
34.010833
 30
0.0
 10
33.441067
 20
34.530827
 30
0.0
 10
33.083067
 20
35.075827
 30
0.0
 10
32.764066
 20
35.643827
 30
0.0
 10
32.484066
 20
36.232825
 30
0.0
 10
32.244067
 20
36.839828
 30
0.0
 10
32.047067
 20
37.460830
 30
0.0
 10
31.893067
 20
38.094814
 30
0.0
 10
31.782067
 20
38.737829
 30
0.0
 10
31.715067
 20
39.385840
 30
0.0
 10
31.693067
 20
40.037829
 30
0.0
  0
LWPOLYLINE
  5
108
100
AcDbEntity
  8
0
 62
7
100
AcDbPolyline
 90
21
 70
0
 10
60.359087
 20
21.788231
 30
0.0
 10
60.359087
 20
24.748235
 30
0.0
 10
61.859087
 20
24.748235
 30
0.0
 10
61.859087
 20
33.828227
 30
0.0
 10
60.359087
 20
33.828227
 30
0.0
 10
60.359087
 20
36.788230
 30
0.0
 10
61.859087
 20
36.788230
 30
0.0
 10
61.859087
 20
39.548222
 30
0.0
 10
61.359086
 20
39.548222
 30
0.0
 10
61.859087
 20
42.508225
 30
0.0
 10
61.859087
 20
47.768226
 30
0.0
 10
66.889087
 20
47.768226
 30
0.0
 10
66.889087
 20
45.433233
 30
0.0
 10
65.359087
 20
45.433233
 30
0.0
 10
65.359087
 20
42.703241
 30
0.0
 10
66.889087
 20
42.703241
 30
0.0
 10
66.889087
 20
40.368219
 30
0.0
 10
65.359087
 20
40.368219
 30
0.0
 10
65.359087
 20
27.508227
 30
0.0
 10
67.859087
 20
27.508227
 30
0.0
 10
67.859087
 20
27.498349
 30
0.0
  0
LWPOLYLINE
  5
109
100
AcDbEntity
  8
0
 62
7
100
AcDbPolyline
 90
12
 70
0
 10
67.859087
 20
27.498236
 30
0.0
 10
68.259087
 20
27.487229
 30
0.0
 10
68.076087
 20
20.490235
 30
0.0
 10
67.376087
 20
20.508297
 30
0.0
 10
67.507087
 20
25.508231
 30
0.0
 10
65.859087
 20
25.508231
 30
0.0
 10
65.859087
 20
15.108229
 30
0.0
 10
67.507087
 20
15.108229
 30
0.0
 10
67.376087
 20
20.106215
 30
0.0
 10
68.076087
 20
20.124277
 30
0.0
 10
68.259087
 20
13.126239
 30
0.0
 10
67.859087
 20
13.116361
 30
0.0
  0
LWPOLYLINE
  5
10a
100
AcDbEntity
  8
0
 62
7
100
AcDbPolyline
 90
46
 70
0
 10
67.859087
 20
13.116220
 30
0.0
 10
67.859087
 20
13.108318
 30
0.0
 10
65.359087
 20
13.108233
 30
0.0
 10
65.359087
 20
12.508229
 30
0.0
 10
78.359087
 20
12.508229
 30
0.0
 10
78.359087
 20
40.368219
 30
0.0
 10
76.829087
 20
40.368219
 30
0.0
 10
76.829087
 20
42.703241
 30
0.0
 10
78.359087
 20
42.703241
 30
0.0
 10
78.359087
 20
45.433233
 30
0.0
 10
76.829087
 20
45.433233
 30
0.0
 10
76.829087
 20
47.768226
 30
0.0
 10
78.359087
 20
47.768226
 30
0.0
 10
78.359087
 20
73.014226
 30
0.0
 10
70.109086
 20
73.014226
 30
0.0
 10
70.109086
 20
76.514228
 30
0.0
 10
71.854087
 20
76.514228
 30
0.0
 10
71.854087
 20
75.914226
 30
0.0
 10
71.864086
 20
75.914226
 30
0.0
 10
71.864087
 20
76.514228
 30
0.0
 10
81.859087
 20
76.514228
 30
0.0
 10
81.859087
 20
42.508225
 30
0.0
 10
82.359087
 20
39.548222
 30
0.0
 10
81.859087
 20
39.548222
 30
0.0
 10
81.859087
 20
36.788230
 30
0.0
 10
83.359087
 20
36.788230
 30
0.0
 10
83.359087
 20
33.828227
 30
0.0
 10
81.859087
 20
33.828227
 30
0.0
 10
81.859087
 20
24.748235
 30
0.0
 10
83.359087
 20
24.748235
 30
0.0
 10
83.359087
 20
21.788231
 30
0.0
 10
81.859087
 20
21.788231
 30
0.0
 10
81.859087
 20
19.028239
 30
0.0
 10
82.359087
 20
19.028239
 30
0.0
 10
81.859087
 20
16.068236
 30
0.0
 10
81.859087
 20
9.008221
 30
0.0
 10
71.864087
 20
9.008221
 30
0.0
 10
71.864087
 20
9.908228
 30
0.0
 10
71.854087
 20
9.908228
 30
0.0
 10
71.854087
 20
9.008221
 30
0.0
 10
61.859087
 20
9.008221
 30
0.0
 10
61.859087
 20
16.068236
 30
0.0
 10
61.359086
 20
19.028239
 30
0.0
 10
61.859087
 20
19.028239
 30
0.0
 10
61.859087
 20
21.788231
 30
0.0
 10
60.359087
 20
21.788231
 30
0.0
  0
ENDSEC
  0
SECTION
  2
OBJECTS
  0
DICTIONARY
  5
C
330
0
100
AcDbDictionary
  3
ACAD_GROUP
350
D
  3
ACAD_MLINESTYLE
350
17
  0
DICTIONARY
  5
D
330
C
100
AcDbDictionary
  0
DICTIONARY
  5
1A
330
C
100
AcDbDictionary
  0
DICTIONARY
  5
17
330
C
100
AcDbDictionary
  3
STANDARD
350
18
  0
DICTIONARY
  5
19
330
C
100
AcDbDictionary
  0
ENDSEC
  0
EOF
