  0
SECTION
  2
BLOCKS
  0
ENDSEC
  0
SECTION
  2
ENTITIES
  0
LINE
  8
0
 10
-1.5
 11
-1.5
 20
-23.68
 21
-20.72
  0
LINE
  8
0
 10
-1.5
 11
0
 20
-20.72
 21
-20.72
  0
LINE
  8
0
 10
0
 11
0
 20
-20.72
 21
-11.64
  0
LINE
  8
0
 10
0
 11
-1.5
 20
-11.64
 21
-11.64
  0
LINE
  8
0
 10
-1.5
 11
-1.5
 20
-11.64
 21
-8.68
  0
LINE
  8
0
 10
-1.5
 11
0
 20
-8.68
 21
-8.68
  0
LINE
  8
0
 10
0
 11
0
 20
-8.68
 21
-5.92
  0
LINE
  8
0
 10
0
 11
-0.5
 20
-5.92
 21
-5.92
  0
LINE
  8
0
 10
-0.5
 11
0
 20
-5.92
 21
-2.96
  0
LINE
  8
0
 10
0
 11
0
 20
-2.96
 21
2.3
  0
LINE
  8
0
 10
0
 11
5.03
 20
2.3
 21
2.3
  0
LINE
  8
0
 10
5.03
 11
5.03
 20
2.3
 21
-0.035
  0
LINE
  8
0
 10
5.03
 11
3.5
 20
-0.035
 21
-0.035
  0
LINE
  8
0
 10
3.5
 11
3.5
 20
-0.035
 21
-2.765
  0
LINE
  8
0
 10
3.5
 11
5.03
 20
-2.765
 21
-2.765
  0
LINE
  8
0
 10
5.03
 11
5.03
 20
-2.765
 21
-5.1
  0
LINE
  8
0
 10
5.03
 11
3.5
 20
-5.1
 21
-5.1
  0
LINE
  8
0
 10
3.5
 11
3.5
 20
-5.1
 21
-17.96
  0
LINE
  8
0
 10
3.5
 11
6
 20
-17.96
 21
-17.96
  0
LINE
  8
0
 10
6
 11
6
 20
-17.96
 21
-17.97
  0
LINE
  8
0
 10
6
 11
6.4
 20
-17.97
 21
-17.981
  0
LINE
  8
0
 10
6.4
 11
6.217
 20
-17.981
 21
-24.978
  0
LINE
  8
0
 10
6.217
 11
5.517
 20
-24.978
 21
-24.96
  0
LINE
  8
0
 10
5.517
 11
5.648
 20
-24.96
 21
-19.96
  0
LINE
  8
0
 10
5.648
 11
4
 20
-19.96
 21
-19.96
  0
LINE
  8
0
 10
4
 11
4
 20
-19.96
 21
-30.36
  0
LINE
  8
0
 10
4
 11
5.648
 20
-30.36
 21
-30.36
  0
LINE
  8
0
 10
5.648
 11
5.517
 20
-30.36
 21
-25.362
  0
LINE
  8
0
 10
5.517
 11
6.217
 20
-25.362
 21
-25.344
  0
LINE
  8
0
 10
6.217
 11
6.4
 20
-25.344
 21
-32.342
  0
LINE
  8
0
 10
6.4
 11
6
 20
-32.342
 21
-32.352
  0
LINE
  8
0
 10
6
 11
6
 20
-32.352
 21
-32.36
  0
LINE
  8
0
 10
6
 11
3.5
 20
-32.36
 21
-32.36
  0
LINE
  8
0
 10
3.5
 11
3.5
 20
-32.36
 21
-32.96
  0
LINE
  8
0
 10
3.5
 11
16.5
 20
-32.96
 21
-32.96
  0
LINE
  8
0
 10
16.5
 11
16.5
 20
-32.96
 21
-5.1
  0
LINE
  8
0
 10
16.5
 11
14.97
 20
-5.1
 21
-5.1
  0
LINE
  8
0
 10
14.97
 11
14.97
 20
-5.1
 21
-2.765
  0
LINE
  8
0
 10
14.97
 11
16.5
 20
-2.765
 21
-2.765
  0
LINE
  8
0
 10
16.5
 11
16.5
 20
-2.765
 21
-0.035
  0
LINE
  8
0
 10
16.5
 11
14.97
 20
-0.035
 21
-0.035
  0
LINE
  8
0
 10
14.97
 11
14.97
 20
-0.035
 21
2.3
  0
LINE
  8
0
 10
14.97
 11
16.5
 20
2.3
 21
2.3
  0
LINE
  8
0
 10
16.5
 11
16.5
 20
2.3
 21
27.546
  0
LINE
  8
0
 10
16.5
 11
8.25
 20
27.546
 21
27.546
  0
LINE
  8
0
 10
8.25
 11
8.25
 20
27.546
 21
31.046
  0
LINE
  8
0
 10
8.25
 11
9.995
 20
31.046
 21
31.046
  0
LINE
  8
0
 10
9.995
 11
9.995
 20
31.046
 21
30.446
  0
LINE
  8
0
 10
9.995
 11
10.005
 20
30.446
 21
30.446
  0
LINE
  8
0
 10
10.005
 11
10.005
 20
30.446
 21
31.046
  0
LINE
  8
0
 10
10.005
 11
20
 20
31.046
 21
31.046
  0
LINE
  8
0
 10
20
 11
20
 20
31.046
 21
-2.96
  0
LINE
  8
0
 10
20
 11
20.5
 20
-2.96
 21
-5.92
  0
LINE
  8
0
 10
20.5
 11
20
 20
-5.92
 21
-5.92
  0
LINE
  8
0
 10
20
 11
20
 20
-5.92
 21
-8.68
  0
LINE
  8
0
 10
20
 11
21.5
 20
-8.68
 21
-8.68
  0
LINE
  8
0
 10
21.5
 11
21.5
 20
-8.68
 21
-11.64
  0
LINE
  8
0
 10
21.5
 11
20
 20
-11.64
 21
-11.64
  0
LINE
  8
0
 10
20
 11
20
 20
-11.64
 21
-20.72
  0
LINE
  8
0
 10
20
 11
21.5
 20
-20.72
 21
-20.72
  0
LINE
  8
0
 10
21.5
 11
21.5
 20
-20.72
 21
-23.68
  0
LINE
  8
0
 10
21.5
 11
20
 20
-23.68
 21
-23.68
  0
LINE
  8
0
 10
20
 11
20
 20
-23.68
 21
-26.44
  0
LINE
  8
0
 10
20
 11
20.5
 20
-26.44
 21
-26.44
  0
LINE
  8
0
 10
20.5
 11
20
 20
-26.44
 21
-29.4
  0
LINE
  8
0
 10
20
 11
20
 20
-29.4
 21
-36.46
  0
LINE
  8
0
 10
20
 11
10.005
 20
-36.46
 21
-36.46
  0
LINE
  8
0
 10
10.005
 11
10.005
 20
-36.46
 21
-35.56
  0
LINE
  8
0
 10
10.005
 11
9.995
 20
-35.56
 21
-35.56
  0
LINE
  8
0
 10
9.995
 11
9.995
 20
-35.56
 21
-36.46
  0
LINE
  8
0
 10
9.995
 11
0
 20
-36.46
 21
-36.46
  0
LINE
  8
0
 10
0
 11
0
 20
-36.46
 21
-29.4
  0
LINE
  8
0
 10
0
 11
-0.5
 20
-29.4
 21
-26.44
  0
LINE
  8
0
 10
-0.5
 11
0
 20
-26.44
 21
-26.44
  0
LINE
  8
0
 10
0
 11
0
 20
-26.44
 21
-23.68
  0
LINE
  8
0
 10
0
 11
-1.5
 20
-23.68
 21
-23.68
  0
ENDSEC
  0
SECTION
  2
OBJECTS
  0
DICTIONARY
  0
ENDSEC
  0
EOF
