  0
SECTION
  2
BLOCKS
  0
ENDSEC
  0
SECTION
  2
ENTITIES
  0
LINE
  8
0
 10
-1.75
 11
-1.75
 20
17.75
 21
23.25
  0
LINE
  8
0
 10
-1.75
 11
0
 20
23.25
 21
23.25
  0
LINE
  8
0
 10
0
 11
0
 20
23.25
 21
35.575
  0
LINE
  8
0
 10
0
 11
-1.75
 20
35.575
 21
35.575
  0
LINE
  8
0
 10
-1.75
 11
-1.75
 20
35.575
 21
45.575
  0
LINE
  8
0
 10
-1.75
 11
-0.5
 20
45.575
 21
45.575
  0
LINE
  8
0
 10
-0.5
 11
-0.5
 20
45.575
 21
47.7
  0
LINE
  8
0
 10
-0.5
 11
2
 20
47.7
 21
47.7
  0
LINE
  8
0
 10
2
 11
2
 20
47.7
 21
45.575
  0
LINE
  8
0
 10
2
 11
3.25
 20
45.575
 21
45.575
  0
LINE
  8
0
 10
3.25
 11
3.25
 20
45.575
 21
35.575
  0
LINE
  8
0
 10
3.25
 11
1.5
 20
35.575
 21
35.575
  0
LINE
  8
0
 10
1.5
 11
1.5
 20
35.575
 21
23.25
  0
LINE
  8
0
 10
1.5
 11
3.25
 20
23.25
 21
23.25
  0
LINE
  8
0
 10
3.25
 11
3.25
 20
23.25
 21
17.75
  0
LINE
  8
0
 10
3.25
 11
1.5
 20
17.75
 21
17.75
  0
LINE
  8
0
 10
1.5
 11
1.5
 20
17.75
 21
3.5
  0
LINE
  8
0
 10
1.5
 11
2
 20
3.5
 21
3.5
  0
LINE
  8
0
 10
2
 11
2
 20
3.5
 21
0
  0
LINE
  8
0
 10
2
 11
-0.5
 20
0
 21
0
  0
LINE
  8
0
 10
-0.5
 11
-0.5
 20
0
 21
3.5
  0
LINE
  8
0
 10
-0.5
 11
0
 20
3.5
 21
3.5
  0
LINE
  8
0
 10
0
 11
0
 20
3.5
 21
17.75
  0
LINE
  8
0
 10
0
 11
-1.75
 20
17.75
 21
17.75
  0
LINE
  8
0
 10
-1
 11
-1
 20
18.5
 21
22.5
  0
LINE
  8
0
 10
-1
 11
2.5
 20
22.5
 21
22.5
  0
LINE
  8
0
 10
2.5
 11
2.5
 20
22.5
 21
18.5
  0
LINE
  8
0
 10
2.5
 11
-1
 20
18.5
 21
18.5
  0
LINE
  8
0
 10
0.261
 11
0.261
 20
2.521
 21
2.729
  0
LINE
  8
0
 10
0.261
 11
0.345
 20
2.729
 21
2.919
  0
LINE
  8
0
 10
0.345
 11
0.5
 20
2.919
 21
3.058
  0
LINE
  8
0
 10
0.5
 11
0.698
 20
3.058
 21
3.122
  0
LINE
  8
0
 10
0.698
 11
0.905
 20
3.122
 21
3.101
  0
LINE
  8
0
 10
0.905
 11
1.085
 20
3.101
 21
2.997
  0
LINE
  8
0
 10
1.085
 11
1.207
 20
2.997
 21
2.828
  0
LINE
  8
0
 10
1.207
 11
1.25
 20
2.828
 21
2.625
  0
LINE
  8
0
 10
1.25
 11
1.207
 20
2.625
 21
2.422
  0
LINE
  8
0
 10
1.207
 11
1.085
 20
2.422
 21
2.253
  0
LINE
  8
0
 10
1.085
 11
0.905
 20
2.253
 21
2.149
  0
LINE
  8
0
 10
0.905
 11
0.698
 20
2.149
 21
2.128
  0
LINE
  8
0
 10
0.698
 11
0.5
 20
2.128
 21
2.192
  0
LINE
  8
0
 10
0.5
 11
0.345
 20
2.192
 21
2.331
  0
LINE
  8
0
 10
0.345
 11
0.261
 20
2.331
 21
2.521
  0
LINE
  8
0
 10
0.317
 11
1.183
 20
1.5
 21
1.5
  0
LINE
  8
0
 10
1.183
 11
0.75
 20
1.5
 21
0.75
  0
LINE
  8
0
 10
0.75
 11
0.317
 20
0.75
 21
1.5
  0
LINE
  8
0
 10
0.317
 11
0.75
 20
46.2
 21
46.95
  0
LINE
  8
0
 10
0.75
 11
1.183
 20
46.95
 21
46.2
  0
LINE
  8
0
 10
1.183
 11
0.317
 20
46.2
 21
46.2
  0
ENDSEC
  0
SECTION
  2
OBJECTS
  0
DICTIONARY
  0
ENDSEC
  0
EOF
