  0
SECTION
  2
BLOCKS
  0
ENDSEC
  0
SECTION
  2
ENTITIES
  0
LINE
  8
0
 10
-11.55
 11
-11.523
 20
0
 21
0.788
  0
LINE
  8
0
 10
-11.523
 11
-11.442
 20
0.788
 21
1.573
  0
LINE
  8
0
 10
-11.442
 11
-11.308
 20
1.573
 21
2.35
  0
LINE
  8
0
 10
-11.308
 11
-11.122
 20
2.35
 21
3.116
  0
LINE
  8
0
 10
-11.122
 11
-10.883
 20
3.116
 21
3.868
  0
LINE
  8
0
 10
-10.883
 11
-10.594
 20
3.868
 21
4.602
  0
LINE
  8
0
 10
-10.594
 11
-10.255
 20
4.602
 21
5.314
  0
LINE
  8
0
 10
-10.255
 11
-9.869
 20
5.314
 21
6.001
  0
LINE
  8
0
 10
-9.869
 11
-9.436
 20
6.001
 21
6.661
  0
LINE
  8
0
 10
-9.436
 11
-8.959
 20
6.661
 21
7.289
  0
LINE
  8
0
 10
-8.959
 11
-8.441
 20
7.289
 21
7.883
  0
LINE
  8
0
 10
-8.441
 11
-7.883
 20
7.883
 21
8.441
  0
LINE
  8
0
 10
-7.883
 11
-7.289
 20
8.441
 21
8.959
  0
LINE
  8
0
 10
-7.289
 11
-6.661
 20
8.959
 21
9.436
  0
LINE
  8
0
 10
-6.661
 11
-6.001
 20
9.436
 21
9.869
  0
LINE
  8
0
 10
-6.001
 11
-5.314
 20
9.869
 21
10.255
  0
LINE
  8
0
 10
-5.314
 11
-4.602
 20
10.255
 21
10.594
  0
LINE
  8
0
 10
-4.602
 11
-3.868
 20
10.594
 21
10.883
  0
LINE
  8
0
 10
-3.868
 11
-3.116
 20
10.883
 21
11.122
  0
LINE
  8
0
 10
-3.116
 11
-2.35
 20
11.122
 21
11.308
  0
LINE
  8
0
 10
-2.35
 11
-1.573
 20
11.308
 21
11.442
  0
LINE
  8
0
 10
-1.573
 11
-0.788
 20
11.442
 21
11.523
  0
LINE
  8
0
 10
-0.788
 11
0
 20
11.523
 21
11.55
  0
LINE
  8
0
 10
0
 11
0.788
 20
11.55
 21
11.523
  0
LINE
  8
0
 10
0.788
 11
1.573
 20
11.523
 21
11.442
  0
LINE
  8
0
 10
1.573
 11
2.35
 20
11.442
 21
11.308
  0
LINE
  8
0
 10
2.35
 11
3.116
 20
11.308
 21
11.122
  0
LINE
  8
0
 10
3.116
 11
3.868
 20
11.122
 21
10.883
  0
LINE
  8
0
 10
3.868
 11
4.602
 20
10.883
 21
10.594
  0
LINE
  8
0
 10
4.602
 11
5.314
 20
10.594
 21
10.255
  0
LINE
  8
0
 10
5.314
 11
6.001
 20
10.255
 21
9.869
  0
LINE
  8
0
 10
6.001
 11
6.661
 20
9.869
 21
9.436
  0
LINE
  8
0
 10
6.661
 11
7.289
 20
9.436
 21
8.959
  0
LINE
  8
0
 10
7.289
 11
7.883
 20
8.959
 21
8.441
  0
LINE
  8
0
 10
7.883
 11
8.441
 20
8.441
 21
7.883
  0
LINE
  8
0
 10
8.441
 11
8.959
 20
7.883
 21
7.289
  0
LINE
  8
0
 10
8.959
 11
9.436
 20
7.289
 21
6.661
  0
LINE
  8
0
 10
9.436
 11
9.869
 20
6.661
 21
6.001
  0
LINE
  8
0
 10
9.869
 11
10.255
 20
6.001
 21
5.314
  0
LINE
  8
0
 10
10.255
 11
10.594
 20
5.314
 21
4.602
  0
LINE
  8
0
 10
10.594
 11
10.883
 20
4.602
 21
3.868
  0
LINE
  8
0
 10
10.883
 11
11.122
 20
3.868
 21
3.116
  0
LINE
  8
0
 10
11.122
 11
11.308
 20
3.116
 21
2.35
  0
LINE
  8
0
 10
11.308
 11
11.442
 20
2.35
 21
1.573
  0
LINE
  8
0
 10
11.442
 11
11.523
 20
1.573
 21
0.788
  0
LINE
  8
0
 10
11.523
 11
11.55
 20
0.788
 21
0
  0
LINE
  8
0
 10
11.55
 11
11.523
 20
0
 21
-0.788
  0
LINE
  8
0
 10
11.523
 11
11.442
 20
-0.788
 21
-1.573
  0
LINE
  8
0
 10
11.442
 11
11.308
 20
-1.573
 21
-2.35
  0
LINE
  8
0
 10
11.308
 11
11.122
 20
-2.35
 21
-3.116
  0
LINE
  8
0
 10
11.122
 11
10.883
 20
-3.116
 21
-3.868
  0
LINE
  8
0
 10
10.883
 11
10.594
 20
-3.868
 21
-4.602
  0
LINE
  8
0
 10
10.594
 11
10.255
 20
-4.602
 21
-5.314
  0
LINE
  8
0
 10
10.255
 11
9.869
 20
-5.314
 21
-6.001
  0
LINE
  8
0
 10
9.869
 11
9.436
 20
-6.001
 21
-6.661
  0
LINE
  8
0
 10
9.436
 11
8.959
 20
-6.661
 21
-7.289
  0
LINE
  8
0
 10
8.959
 11
8.441
 20
-7.289
 21
-7.883
  0
LINE
  8
0
 10
8.441
 11
7.883
 20
-7.883
 21
-8.441
  0
LINE
  8
0
 10
7.883
 11
7.289
 20
-8.441
 21
-8.959
  0
LINE
  8
0
 10
7.289
 11
6.661
 20
-8.959
 21
-9.436
  0
LINE
  8
0
 10
6.661
 11
6.001
 20
-9.436
 21
-9.869
  0
LINE
  8
0
 10
6.001
 11
5.314
 20
-9.869
 21
-10.255
  0
LINE
  8
0
 10
5.314
 11
4.602
 20
-10.255
 21
-10.594
  0
LINE
  8
0
 10
4.602
 11
3.868
 20
-10.594
 21
-10.883
  0
LINE
  8
0
 10
3.868
 11
3.116
 20
-10.883
 21
-11.122
  0
LINE
  8
0
 10
3.116
 11
2.35
 20
-11.122
 21
-11.308
  0
LINE
  8
0
 10
2.35
 11
1.573
 20
-11.308
 21
-11.442
  0
LINE
  8
0
 10
1.573
 11
0.788
 20
-11.442
 21
-11.523
  0
LINE
  8
0
 10
0.788
 11
0
 20
-11.523
 21
-11.55
  0
LINE
  8
0
 10
0
 11
-0.788
 20
-11.55
 21
-11.523
  0
LINE
  8
0
 10
-0.788
 11
-1.573
 20
-11.523
 21
-11.442
  0
LINE
  8
0
 10
-1.573
 11
-2.35
 20
-11.442
 21
-11.308
  0
LINE
  8
0
 10
-2.35
 11
-3.116
 20
-11.308
 21
-11.122
  0
LINE
  8
0
 10
-3.116
 11
-3.868
 20
-11.122
 21
-10.883
  0
LINE
  8
0
 10
-3.868
 11
-4.602
 20
-10.883
 21
-10.594
  0
LINE
  8
0
 10
-4.602
 11
-5.314
 20
-10.594
 21
-10.255
  0
LINE
  8
0
 10
-5.314
 11
-6.001
 20
-10.255
 21
-9.869
  0
LINE
  8
0
 10
-6.001
 11
-6.661
 20
-9.869
 21
-9.436
  0
LINE
  8
0
 10
-6.661
 11
-7.289
 20
-9.436
 21
-8.959
  0
LINE
  8
0
 10
-7.289
 11
-7.883
 20
-8.959
 21
-8.441
  0
LINE
  8
0
 10
-7.883
 11
-8.441
 20
-8.441
 21
-7.883
  0
LINE
  8
0
 10
-8.441
 11
-8.959
 20
-7.883
 21
-7.289
  0
LINE
  8
0
 10
-8.959
 11
-9.436
 20
-7.289
 21
-6.661
  0
LINE
  8
0
 10
-9.436
 11
-9.869
 20
-6.661
 21
-6.001
  0
LINE
  8
0
 10
-9.869
 11
-10.255
 20
-6.001
 21
-5.314
  0
LINE
  8
0
 10
-10.255
 11
-10.594
 20
-5.314
 21
-4.602
  0
LINE
  8
0
 10
-10.594
 11
-10.883
 20
-4.602
 21
-3.868
  0
LINE
  8
0
 10
-10.883
 11
-11.122
 20
-3.868
 21
-3.116
  0
LINE
  8
0
 10
-11.122
 11
-11.308
 20
-3.116
 21
-2.35
  0
LINE
  8
0
 10
-11.308
 11
-11.442
 20
-2.35
 21
-1.573
  0
LINE
  8
0
 10
-11.442
 11
-11.523
 20
-1.573
 21
-0.788
  0
LINE
  8
0
 10
-11.523
 11
-11.55
 20
-0.788
 21
0
  0
LINE
  8
0
 10
-9.55
 11
-9.528
 20
0
 21
0.652
  0
LINE
  8
0
 10
-9.528
 11
-9.461
 20
0.652
 21
1.3
  0
LINE
  8
0
 10
-9.461
 11
-9.431
 20
1.3
 21
1.475
  0
LINE
  8
0
 10
-9.431
 11
-7.55
 20
1.475
 21
1.475
  0
LINE
  8
0
 10
-7.55
 11
-7.55
 20
1.475
 21
3.475
  0
LINE
  8
0
 10
-7.55
 11
-8.889
 20
3.475
 21
3.475
  0
LINE
  8
0
 10
-8.889
 11
-8.759
 20
3.475
 21
3.805
  0
LINE
  8
0
 10
-8.759
 11
-8.479
 20
3.805
 21
4.394
  0
LINE
  8
0
 10
-8.479
 11
-8.16
 20
4.394
 21
4.962
  0
LINE
  8
0
 10
-8.16
 11
-7.802
 20
4.962
 21
5.507
  0
LINE
  8
0
 10
-7.802
 11
-7.408
 20
5.507
 21
6.027
  0
LINE
  8
0
 10
-7.408
 11
-6.979
 20
6.027
 21
6.518
  0
LINE
  8
0
 10
-6.979
 11
-6.518
 20
6.518
 21
6.979
  0
LINE
  8
0
 10
-6.518
 11
-6.027
 20
6.979
 21
7.408
  0
LINE
  8
0
 10
-6.027
 11
-5.507
 20
7.408
 21
7.802
  0
LINE
  8
0
 10
-5.507
 11
-4.962
 20
7.802
 21
8.16
  0
LINE
  8
0
 10
-4.962
 11
-4.394
 20
8.16
 21
8.479
  0
LINE
  8
0
 10
-4.394
 11
-3.805
 20
8.479
 21
8.759
  0
LINE
  8
0
 10
-3.805
 11
-3.53
 20
8.759
 21
8.868
  0
LINE
  8
0
 10
-3.53
 11
-3.53
 20
8.868
 21
0
  0
LINE
  8
0
 10
-3.53
 11
-2.078
 20
0
 21
0
  0
LINE
  8
0
 10
-2.078
 11
-1.711
 20
0
 21
0.187
  0
LINE
  8
0
 10
-1.711
 11
-1.3
 20
0.187
 21
0.345
  0
LINE
  8
0
 10
-1.3
 11
-1.14
 20
0.345
 21
0.388
  0
LINE
  8
0
 10
-1.14
 11
-1.14
 20
0.388
 21
0.9
  0
LINE
  8
0
 10
-1.14
 11
-2.28
 20
0.9
 21
0.9
  0
LINE
  8
0
 10
-2.28
 11
-2.28
 20
0.9
 21
5.46
  0
LINE
  8
0
 10
-2.28
 11
2.28
 20
5.46
 21
5.46
  0
LINE
  8
0
 10
2.28
 11
2.28
 20
5.46
 21
0.9
  0
LINE
  8
0
 10
2.28
 11
1.14
 20
0.9
 21
0.9
  0
LINE
  8
0
 10
1.14
 11
1.14
 20
0.9
 21
0.388
  0
LINE
  8
0
 10
1.14
 11
1.302
 20
0.388
 21
0.345
  0
LINE
  8
0
 10
1.302
 11
1.713
 20
0.345
 21
0.187
  0
LINE
  8
0
 10
1.713
 11
2.08
 20
0.187
 21
0
  0
LINE
  8
0
 10
2.08
 11
3.53
 20
0
 21
0
  0
LINE
  8
0
 10
3.53
 11
3.53
 20
0
 21
8.868
  0
LINE
  8
0
 10
3.53
 11
3.805
 20
8.868
 21
8.759
  0
LINE
  8
0
 10
3.805
 11
4.394
 20
8.759
 21
8.479
  0
LINE
  8
0
 10
4.394
 11
4.962
 20
8.479
 21
8.16
  0
LINE
  8
0
 10
4.962
 11
5.507
 20
8.16
 21
7.802
  0
LINE
  8
0
 10
5.507
 11
6.027
 20
7.802
 21
7.408
  0
LINE
  8
0
 10
6.027
 11
6.518
 20
7.408
 21
6.979
  0
LINE
  8
0
 10
6.518
 11
6.979
 20
6.979
 21
6.518
  0
LINE
  8
0
 10
6.979
 11
7.408
 20
6.518
 21
6.027
  0
LINE
  8
0
 10
7.408
 11
7.802
 20
6.027
 21
5.507
  0
LINE
  8
0
 10
7.802
 11
8.16
 20
5.507
 21
4.962
  0
LINE
  8
0
 10
8.16
 11
8.479
 20
4.962
 21
4.394
  0
LINE
  8
0
 10
8.479
 11
8.759
 20
4.394
 21
3.805
  0
LINE
  8
0
 10
8.759
 11
8.889
 20
3.805
 21
3.475
  0
LINE
  8
0
 10
8.889
 11
7.55
 20
3.475
 21
3.475
  0
LINE
  8
0
 10
7.55
 11
7.55
 20
3.475
 21
1.475
  0
LINE
  8
0
 10
7.55
 11
9.431
 20
1.475
 21
1.475
  0
LINE
  8
0
 10
9.431
 11
9.461
 20
1.475
 21
1.3
  0
LINE
  8
0
 10
9.461
 11
9.528
 20
1.3
 21
0.652
  0
LINE
  8
0
 10
9.528
 11
9.55
 20
0.652
 21
0
  0
LINE
  8
0
 10
9.55
 11
9.528
 20
0
 21
-0.652
  0
LINE
  8
0
 10
9.528
 11
9.461
 20
-0.652
 21
-1.3
  0
LINE
  8
0
 10
9.461
 11
9.431
 20
-1.3
 21
-1.475
  0
LINE
  8
0
 10
9.431
 11
7.55
 20
-1.475
 21
-1.475
  0
LINE
  8
0
 10
7.55
 11
7.55
 20
-1.475
 21
-3.475
  0
LINE
  8
0
 10
7.55
 11
8.889
 20
-3.475
 21
-3.475
  0
LINE
  8
0
 10
8.889
 11
8.759
 20
-3.475
 21
-3.805
  0
LINE
  8
0
 10
8.759
 11
8.479
 20
-3.805
 21
-4.394
  0
LINE
  8
0
 10
8.479
 11
8.16
 20
-4.394
 21
-4.962
  0
LINE
  8
0
 10
8.16
 11
7.802
 20
-4.962
 21
-5.507
  0
LINE
  8
0
 10
7.802
 11
7.408
 20
-5.507
 21
-6.027
  0
LINE
  8
0
 10
7.408
 11
6.979
 20
-6.027
 21
-6.518
  0
LINE
  8
0
 10
6.979
 11
6.518
 20
-6.518
 21
-6.979
  0
LINE
  8
0
 10
6.518
 11
6.027
 20
-6.979
 21
-7.408
  0
LINE
  8
0
 10
6.027
 11
5.507
 20
-7.408
 21
-7.802
  0
LINE
  8
0
 10
5.507
 11
4.962
 20
-7.802
 21
-8.16
  0
LINE
  8
0
 10
4.962
 11
4.394
 20
-8.16
 21
-8.479
  0
LINE
  8
0
 10
4.394
 11
3.805
 20
-8.479
 21
-8.759
  0
LINE
  8
0
 10
3.805
 11
3.53
 20
-8.759
 21
-8.868
  0
LINE
  8
0
 10
3.53
 11
3.53
 20
-8.868
 21
-3.825
  0
LINE
  8
0
 10
3.53
 11
2.279
 20
-3.825
 21
-3.825
  0
LINE
  8
0
 10
2.279
 11
2.106
 20
-3.825
 21
-3.937
  0
LINE
  8
0
 10
2.106
 11
1.713
 20
-3.937
 21
-4.137
  0
LINE
  8
0
 10
1.713
 11
1.302
 20
-4.137
 21
-4.295
  0
LINE
  8
0
 10
1.302
 11
1.14
 20
-4.295
 21
-4.338
  0
LINE
  8
0
 10
1.14
 11
1.14
 20
-4.338
 21
-4.85
  0
LINE
  8
0
 10
1.14
 11
2.28
 20
-4.85
 21
-4.85
  0
LINE
  8
0
 10
2.28
 11
2.28
 20
-4.85
 21
-9.41
  0
LINE
  8
0
 10
2.28
 11
-2.28
 20
-9.41
 21
-9.41
  0
LINE
  8
0
 10
-2.28
 11
-2.28
 20
-9.41
 21
-4.85
  0
LINE
  8
0
 10
-2.28
 11
-1.14
 20
-4.85
 21
-4.85
  0
LINE
  8
0
 10
-1.14
 11
-1.14
 20
-4.85
 21
-4.338
  0
LINE
  8
0
 10
-1.14
 11
-1.3
 20
-4.338
 21
-4.295
  0
LINE
  8
0
 10
-1.3
 11
-1.711
 20
-4.295
 21
-4.137
  0
LINE
  8
0
 10
-1.711
 11
-2.104
 20
-4.137
 21
-3.937
  0
LINE
  8
0
 10
-2.104
 11
-2.277
 20
-3.937
 21
-3.825
  0
LINE
  8
0
 10
-2.277
 11
-3.53
 20
-3.825
 21
-3.825
  0
LINE
  8
0
 10
-3.53
 11
-3.53
 20
-3.825
 21
-8.868
  0
LINE
  8
0
 10
-3.53
 11
-3.805
 20
-8.868
 21
-8.759
  0
LINE
  8
0
 10
-3.805
 11
-4.394
 20
-8.759
 21
-8.479
  0
LINE
  8
0
 10
-4.394
 11
-4.962
 20
-8.479
 21
-8.16
  0
LINE
  8
0
 10
-4.962
 11
-5.507
 20
-8.16
 21
-7.802
  0
LINE
  8
0
 10
-5.507
 11
-6.027
 20
-7.802
 21
-7.408
  0
LINE
  8
0
 10
-6.027
 11
-6.518
 20
-7.408
 21
-6.979
  0
LINE
  8
0
 10
-6.518
 11
-6.979
 20
-6.979
 21
-6.518
  0
LINE
  8
0
 10
-6.979
 11
-7.408
 20
-6.518
 21
-6.027
  0
LINE
  8
0
 10
-7.408
 11
-7.802
 20
-6.027
 21
-5.507
  0
LINE
  8
0
 10
-7.802
 11
-8.16
 20
-5.507
 21
-4.962
  0
LINE
  8
0
 10
-8.16
 11
-8.479
 20
-4.962
 21
-4.394
  0
LINE
  8
0
 10
-8.479
 11
-8.759
 20
-4.394
 21
-3.805
  0
LINE
  8
0
 10
-8.759
 11
-8.889
 20
-3.805
 21
-3.475
  0
LINE
  8
0
 10
-8.889
 11
-7.55
 20
-3.475
 21
-3.475
  0
LINE
  8
0
 10
-7.55
 11
-7.55
 20
-3.475
 21
-1.475
  0
LINE
  8
0
 10
-7.55
 11
-9.431
 20
-1.475
 21
-1.475
  0
LINE
  8
0
 10
-9.431
 11
-9.461
 20
-1.475
 21
-1.3
  0
LINE
  8
0
 10
-9.461
 11
-9.528
 20
-1.3
 21
-0.652
  0
LINE
  8
0
 10
-9.528
 11
-9.55
 20
-0.652
 21
0
  0
ENDSEC
  0
SECTION
  2
OBJECTS
  0
DICTIONARY
  0
ENDSEC
  0
EOF
