  0
SECTION
  2
BLOCKS
  0
ENDSEC
  0
SECTION
  2
ENTITIES
  0
LINE
  8
0
 10
-11.55
 11
-11.523
 20
0
 21
0.788
  0
LINE
  8
0
 10
-11.523
 11
-11.442
 20
0.788
 21
1.573
  0
LINE
  8
0
 10
-11.442
 11
-11.308
 20
1.573
 21
2.35
  0
LINE
  8
0
 10
-11.308
 11
-11.122
 20
2.35
 21
3.116
  0
LINE
  8
0
 10
-11.122
 11
-10.883
 20
3.116
 21
3.868
  0
LINE
  8
0
 10
-10.883
 11
-10.594
 20
3.868
 21
4.602
  0
LINE
  8
0
 10
-10.594
 11
-10.255
 20
4.602
 21
5.314
  0
LINE
  8
0
 10
-10.255
 11
-9.869
 20
5.314
 21
6.001
  0
LINE
  8
0
 10
-9.869
 11
-9.436
 20
6.001
 21
6.661
  0
LINE
  8
0
 10
-9.436
 11
-8.959
 20
6.661
 21
7.289
  0
LINE
  8
0
 10
-8.959
 11
-8.441
 20
7.289
 21
7.883
  0
LINE
  8
0
 10
-8.441
 11
-7.883
 20
7.883
 21
8.441
  0
LINE
  8
0
 10
-7.883
 11
-7.289
 20
8.441
 21
8.959
  0
LINE
  8
0
 10
-7.289
 11
-6.661
 20
8.959
 21
9.436
  0
LINE
  8
0
 10
-6.661
 11
-6.001
 20
9.436
 21
9.869
  0
LINE
  8
0
 10
-6.001
 11
-5.314
 20
9.869
 21
10.255
  0
LINE
  8
0
 10
-5.314
 11
-4.602
 20
10.255
 21
10.594
  0
LINE
  8
0
 10
-4.602
 11
-3.868
 20
10.594
 21
10.883
  0
LINE
  8
0
 10
-3.868
 11
-3.116
 20
10.883
 21
11.122
  0
LINE
  8
0
 10
-3.116
 11
-2.35
 20
11.122
 21
11.308
  0
LINE
  8
0
 10
-2.35
 11
-1.573
 20
11.308
 21
11.442
  0
LINE
  8
0
 10
-1.573
 11
-0.788
 20
11.442
 21
11.523
  0
LINE
  8
0
 10
-0.788
 11
0
 20
11.523
 21
11.55
  0
LINE
  8
0
 10
0
 11
0.788
 20
11.55
 21
11.523
  0
LINE
  8
0
 10
0.788
 11
1.573
 20
11.523
 21
11.442
  0
LINE
  8
0
 10
1.573
 11
2.35
 20
11.442
 21
11.308
  0
LINE
  8
0
 10
2.35
 11
3.116
 20
11.308
 21
11.122
  0
LINE
  8
0
 10
3.116
 11
3.868
 20
11.122
 21
10.883
  0
LINE
  8
0
 10
3.868
 11
4.602
 20
10.883
 21
10.594
  0
LINE
  8
0
 10
4.602
 11
5.314
 20
10.594
 21
10.255
  0
LINE
  8
0
 10
5.314
 11
6.001
 20
10.255
 21
9.869
  0
LINE
  8
0
 10
6.001
 11
6.661
 20
9.869
 21
9.436
  0
LINE
  8
0
 10
6.661
 11
7.289
 20
9.436
 21
8.959
  0
LINE
  8
0
 10
7.289
 11
7.883
 20
8.959
 21
8.441
  0
LINE
  8
0
 10
7.883
 11
8.441
 20
8.441
 21
7.883
  0
LINE
  8
0
 10
8.441
 11
8.959
 20
7.883
 21
7.289
  0
LINE
  8
0
 10
8.959
 11
9.436
 20
7.289
 21
6.661
  0
LINE
  8
0
 10
9.436
 11
9.869
 20
6.661
 21
6.001
  0
LINE
  8
0
 10
9.869
 11
10.255
 20
6.001
 21
5.314
  0
LINE
  8
0
 10
10.255
 11
10.594
 20
5.314
 21
4.602
  0
LINE
  8
0
 10
10.594
 11
10.883
 20
4.602
 21
3.868
  0
LINE
  8
0
 10
10.883
 11
11.122
 20
3.868
 21
3.116
  0
LINE
  8
0
 10
11.122
 11
11.308
 20
3.116
 21
2.35
  0
LINE
  8
0
 10
11.308
 11
11.442
 20
2.35
 21
1.573
  0
LINE
  8
0
 10
11.442
 11
11.523
 20
1.573
 21
0.788
  0
LINE
  8
0
 10
11.523
 11
11.55
 20
0.788
 21
0
  0
LINE
  8
0
 10
11.55
 11
11.523
 20
0
 21
-0.788
  0
LINE
  8
0
 10
11.523
 11
11.442
 20
-0.788
 21
-1.573
  0
LINE
  8
0
 10
11.442
 11
11.308
 20
-1.573
 21
-2.35
  0
LINE
  8
0
 10
11.308
 11
11.122
 20
-2.35
 21
-3.116
  0
LINE
  8
0
 10
11.122
 11
10.883
 20
-3.116
 21
-3.868
  0
LINE
  8
0
 10
10.883
 11
10.594
 20
-3.868
 21
-4.602
  0
LINE
  8
0
 10
10.594
 11
10.255
 20
-4.602
 21
-5.314
  0
LINE
  8
0
 10
10.255
 11
9.869
 20
-5.314
 21
-6.001
  0
LINE
  8
0
 10
9.869
 11
9.436
 20
-6.001
 21
-6.661
  0
LINE
  8
0
 10
9.436
 11
8.959
 20
-6.661
 21
-7.289
  0
LINE
  8
0
 10
8.959
 11
8.441
 20
-7.289
 21
-7.883
  0
LINE
  8
0
 10
8.441
 11
7.883
 20
-7.883
 21
-8.441
  0
LINE
  8
0
 10
7.883
 11
7.289
 20
-8.441
 21
-8.959
  0
LINE
  8
0
 10
7.289
 11
6.661
 20
-8.959
 21
-9.436
  0
LINE
  8
0
 10
6.661
 11
6.001
 20
-9.436
 21
-9.869
  0
LINE
  8
0
 10
6.001
 11
5.314
 20
-9.869
 21
-10.255
  0
LINE
  8
0
 10
5.314
 11
4.602
 20
-10.255
 21
-10.594
  0
LINE
  8
0
 10
4.602
 11
3.868
 20
-10.594
 21
-10.883
  0
LINE
  8
0
 10
3.868
 11
3.116
 20
-10.883
 21
-11.122
  0
LINE
  8
0
 10
3.116
 11
2.625
 20
-11.122
 21
-11.241
  0
LINE
  8
0
 10
2.625
 11
2.625
 20
-11.241
 21
-14.2
  0
LINE
  8
0
 10
2.625
 11
-2.625
 20
-14.2
 21
-14.2
  0
LINE
  8
0
 10
-2.625
 11
-2.625
 20
-14.2
 21
-11.241
  0
LINE
  8
0
 10
-2.625
 11
-3.116
 20
-11.241
 21
-11.122
  0
LINE
  8
0
 10
-3.116
 11
-3.868
 20
-11.122
 21
-10.883
  0
LINE
  8
0
 10
-3.868
 11
-4.602
 20
-10.883
 21
-10.594
  0
LINE
  8
0
 10
-4.602
 11
-5.314
 20
-10.594
 21
-10.255
  0
LINE
  8
0
 10
-5.314
 11
-6.001
 20
-10.255
 21
-9.869
  0
LINE
  8
0
 10
-6.001
 11
-6.661
 20
-9.869
 21
-9.436
  0
LINE
  8
0
 10
-6.661
 11
-7.289
 20
-9.436
 21
-8.959
  0
LINE
  8
0
 10
-7.289
 11
-7.883
 20
-8.959
 21
-8.441
  0
LINE
  8
0
 10
-7.883
 11
-8.441
 20
-8.441
 21
-7.883
  0
LINE
  8
0
 10
-8.441
 11
-8.959
 20
-7.883
 21
-7.289
  0
LINE
  8
0
 10
-8.959
 11
-9.436
 20
-7.289
 21
-6.661
  0
LINE
  8
0
 10
-9.436
 11
-9.869
 20
-6.661
 21
-6.001
  0
LINE
  8
0
 10
-9.869
 11
-10.255
 20
-6.001
 21
-5.314
  0
LINE
  8
0
 10
-10.255
 11
-10.594
 20
-5.314
 21
-4.602
  0
LINE
  8
0
 10
-10.594
 11
-10.883
 20
-4.602
 21
-3.868
  0
LINE
  8
0
 10
-10.883
 11
-11.122
 20
-3.868
 21
-3.116
  0
LINE
  8
0
 10
-11.122
 11
-11.308
 20
-3.116
 21
-2.35
  0
LINE
  8
0
 10
-11.308
 11
-11.442
 20
-2.35
 21
-1.573
  0
LINE
  8
0
 10
-11.442
 11
-11.523
 20
-1.573
 21
-0.788
  0
LINE
  8
0
 10
-11.523
 11
-11.55
 20
-0.788
 21
0
  0
LINE
  8
0
 10
-9.55
 11
-9.528
 20
0
 21
0.652
  0
LINE
  8
0
 10
-9.528
 11
-9.461
 20
0.652
 21
1.3
  0
LINE
  8
0
 10
-9.461
 11
-9.35
 20
1.3
 21
1.943
  0
LINE
  8
0
 10
-9.35
 11
-9.196
 20
1.943
 21
2.577
  0
LINE
  8
0
 10
-9.196
 11
-8.999
 20
2.577
 21
3.198
  0
LINE
  8
0
 10
-8.999
 11
-8.759
 20
3.198
 21
3.805
  0
LINE
  8
0
 10
-8.759
 11
-8.479
 20
3.805
 21
4.394
  0
LINE
  8
0
 10
-8.479
 11
-8.16
 20
4.394
 21
4.962
  0
LINE
  8
0
 10
-8.16
 11
-7.802
 20
4.962
 21
5.507
  0
LINE
  8
0
 10
-7.802
 11
-7.408
 20
5.507
 21
6.027
  0
LINE
  8
0
 10
-7.408
 11
-6.979
 20
6.027
 21
6.518
  0
LINE
  8
0
 10
-6.979
 11
-6.518
 20
6.518
 21
6.979
  0
LINE
  8
0
 10
-6.518
 11
-6.027
 20
6.979
 21
7.408
  0
LINE
  8
0
 10
-6.027
 11
-5.507
 20
7.408
 21
7.802
  0
LINE
  8
0
 10
-5.507
 11
-4.962
 20
7.802
 21
8.16
  0
LINE
  8
0
 10
-4.962
 11
-4.394
 20
8.16
 21
8.479
  0
LINE
  8
0
 10
-4.394
 11
-3.805
 20
8.479
 21
8.759
  0
LINE
  8
0
 10
-3.805
 11
-3.198
 20
8.759
 21
8.999
  0
LINE
  8
0
 10
-3.198
 11
-2.625
 20
8.999
 21
9.181
  0
LINE
  8
0
 10
-2.625
 11
-2.625
 20
9.181
 21
3.25
  0
LINE
  8
0
 10
-2.625
 11
-2.399
 20
3.25
 21
3.251
  0
LINE
  8
0
 10
-2.399
 11
-2.386
 20
3.251
 21
3.502
  0
LINE
  8
0
 10
-2.386
 11
-2.347
 20
3.502
 21
3.75
  0
LINE
  8
0
 10
-2.347
 11
-2.282
 20
3.75
 21
3.993
  0
LINE
  8
0
 10
-2.282
 11
-2.192
 20
3.993
 21
4.227
  0
LINE
  8
0
 10
-2.192
 11
-2.077
 20
4.227
 21
4.451
  0
LINE
  8
0
 10
-2.077
 11
-1.941
 20
4.451
 21
4.662
  0
LINE
  8
0
 10
-1.941
 11
-1.783
 20
4.662
 21
4.857
  0
LINE
  8
0
 10
-1.783
 11
-1.605
 20
4.857
 21
5.035
  0
LINE
  8
0
 10
-1.605
 11
-1.41
 20
5.035
 21
5.193
  0
LINE
  8
0
 10
-1.41
 11
-1.199
 20
5.193
 21
5.329
  0
LINE
  8
0
 10
-1.199
 11
-0.975
 20
5.329
 21
5.444
  0
LINE
  8
0
 10
-0.975
 11
-0.741
 20
5.444
 21
5.534
  0
LINE
  8
0
 10
-0.741
 11
-0.688
 20
5.534
 21
5.548
  0
LINE
  8
0
 10
-0.688
 11
-0.688
 20
5.548
 21
6
  0
LINE
  8
0
 10
-0.688
 11
-1.375
 20
6
 21
6
  0
LINE
  8
0
 10
-1.375
 11
-1.375
 20
6
 21
8.75
  0
LINE
  8
0
 10
-1.375
 11
1.375
 20
8.75
 21
8.75
  0
LINE
  8
0
 10
1.375
 11
1.375
 20
8.75
 21
6
  0
LINE
  8
0
 10
1.375
 11
0.688
 20
6
 21
6
  0
LINE
  8
0
 10
0.688
 11
0.688
 20
6
 21
5.549
  0
LINE
  8
0
 10
0.688
 11
0.743
 20
5.549
 21
5.534
  0
LINE
  8
0
 10
0.743
 11
0.977
 20
5.534
 21
5.444
  0
LINE
  8
0
 10
0.977
 11
1.201
 20
5.444
 21
5.329
  0
LINE
  8
0
 10
1.201
 11
1.412
 20
5.329
 21
5.193
  0
LINE
  8
0
 10
1.412
 11
1.607
 20
5.193
 21
5.035
  0
LINE
  8
0
 10
1.607
 11
1.785
 20
5.035
 21
4.857
  0
LINE
  8
0
 10
1.785
 11
1.943
 20
4.857
 21
4.662
  0
LINE
  8
0
 10
1.943
 11
2.079
 20
4.662
 21
4.451
  0
LINE
  8
0
 10
2.079
 11
2.194
 20
4.451
 21
4.227
  0
LINE
  8
0
 10
2.194
 11
2.284
 20
4.227
 21
3.993
  0
LINE
  8
0
 10
2.284
 11
2.349
 20
3.993
 21
3.75
  0
LINE
  8
0
 10
2.349
 11
2.388
 20
3.75
 21
3.502
  0
LINE
  8
0
 10
2.388
 11
2.401
 20
3.502
 21
3.25
  0
LINE
  8
0
 10
2.401
 11
2.625
 20
3.25
 21
3.25
  0
LINE
  8
0
 10
2.625
 11
2.625
 20
3.25
 21
9.181
  0
LINE
  8
0
 10
2.625
 11
3.198
 20
9.181
 21
8.999
  0
LINE
  8
0
 10
3.198
 11
3.805
 20
8.999
 21
8.759
  0
LINE
  8
0
 10
3.805
 11
4.394
 20
8.759
 21
8.479
  0
LINE
  8
0
 10
4.394
 11
4.962
 20
8.479
 21
8.16
  0
LINE
  8
0
 10
4.962
 11
5.507
 20
8.16
 21
7.802
  0
LINE
  8
0
 10
5.507
 11
6.027
 20
7.802
 21
7.408
  0
LINE
  8
0
 10
6.027
 11
6.518
 20
7.408
 21
6.979
  0
LINE
  8
0
 10
6.518
 11
6.979
 20
6.979
 21
6.518
  0
LINE
  8
0
 10
6.979
 11
7.408
 20
6.518
 21
6.027
  0
LINE
  8
0
 10
7.408
 11
7.802
 20
6.027
 21
5.507
  0
LINE
  8
0
 10
7.802
 11
8.16
 20
5.507
 21
4.962
  0
LINE
  8
0
 10
8.16
 11
8.479
 20
4.962
 21
4.394
  0
LINE
  8
0
 10
8.479
 11
8.759
 20
4.394
 21
3.805
  0
LINE
  8
0
 10
8.759
 11
8.999
 20
3.805
 21
3.198
  0
LINE
  8
0
 10
8.999
 11
9.196
 20
3.198
 21
2.577
  0
LINE
  8
0
 10
9.196
 11
9.35
 20
2.577
 21
1.943
  0
LINE
  8
0
 10
9.35
 11
9.461
 20
1.943
 21
1.3
  0
LINE
  8
0
 10
9.461
 11
9.528
 20
1.3
 21
0.652
  0
LINE
  8
0
 10
9.528
 11
9.55
 20
0.652
 21
0
  0
LINE
  8
0
 10
9.55
 11
9.528
 20
0
 21
-0.652
  0
LINE
  8
0
 10
9.528
 11
9.461
 20
-0.652
 21
-1.3
  0
LINE
  8
0
 10
9.461
 11
9.35
 20
-1.3
 21
-1.943
  0
LINE
  8
0
 10
9.35
 11
9.196
 20
-1.943
 21
-2.577
  0
LINE
  8
0
 10
9.196
 11
8.999
 20
-2.577
 21
-3.198
  0
LINE
  8
0
 10
8.999
 11
8.759
 20
-3.198
 21
-3.805
  0
LINE
  8
0
 10
8.759
 11
8.479
 20
-3.805
 21
-4.394
  0
LINE
  8
0
 10
8.479
 11
8.16
 20
-4.394
 21
-4.962
  0
LINE
  8
0
 10
8.16
 11
7.802
 20
-4.962
 21
-5.507
  0
LINE
  8
0
 10
7.802
 11
7.408
 20
-5.507
 21
-6.027
  0
LINE
  8
0
 10
7.408
 11
6.979
 20
-6.027
 21
-6.518
  0
LINE
  8
0
 10
6.979
 11
6.518
 20
-6.518
 21
-6.979
  0
LINE
  8
0
 10
6.518
 11
6.027
 20
-6.979
 21
-7.408
  0
LINE
  8
0
 10
6.027
 11
5.507
 20
-7.408
 21
-7.802
  0
LINE
  8
0
 10
5.507
 11
4.962
 20
-7.802
 21
-8.16
  0
LINE
  8
0
 10
4.962
 11
4.394
 20
-8.16
 21
-8.479
  0
LINE
  8
0
 10
4.394
 11
3.805
 20
-8.479
 21
-8.759
  0
LINE
  8
0
 10
3.805
 11
3.198
 20
-8.759
 21
-8.999
  0
LINE
  8
0
 10
3.198
 11
2.625
 20
-8.999
 21
-9.181
  0
LINE
  8
0
 10
2.625
 11
2.625
 20
-9.181
 21
-7.2
  0
LINE
  8
0
 10
2.625
 11
2.401
 20
-7.2
 21
-7.201
  0
LINE
  8
0
 10
2.401
 11
2.388
 20
-7.201
 21
-7.452
  0
LINE
  8
0
 10
2.388
 11
2.349
 20
-7.452
 21
-7.7
  0
LINE
  8
0
 10
2.349
 11
2.284
 20
-7.7
 21
-7.943
  0
LINE
  8
0
 10
2.284
 11
2.194
 20
-7.943
 21
-8.177
  0
LINE
  8
0
 10
2.194
 11
2.079
 20
-8.177
 21
-8.401
  0
LINE
  8
0
 10
2.079
 11
1.943
 20
-8.401
 21
-8.612
  0
LINE
  8
0
 10
1.943
 11
1.785
 20
-8.612
 21
-8.807
  0
LINE
  8
0
 10
1.785
 11
1.607
 20
-8.807
 21
-8.985
  0
LINE
  8
0
 10
1.607
 11
1.412
 20
-8.985
 21
-9.143
  0
LINE
  8
0
 10
1.412
 11
1.201
 20
-9.143
 21
-9.279
  0
LINE
  8
0
 10
1.201
 11
0.977
 20
-9.279
 21
-9.394
  0
LINE
  8
0
 10
0.977
 11
0.743
 20
-9.394
 21
-9.484
  0
LINE
  8
0
 10
0.743
 11
0.688
 20
-9.484
 21
-9.499
  0
LINE
  8
0
 10
0.688
 11
0.688
 20
-9.499
 21
-9.95
  0
LINE
  8
0
 10
0.688
 11
1.375
 20
-9.95
 21
-9.95
  0
LINE
  8
0
 10
1.375
 11
1.375
 20
-9.95
 21
-12.7
  0
LINE
  8
0
 10
1.375
 11
-1.375
 20
-12.7
 21
-12.7
  0
LINE
  8
0
 10
-1.375
 11
-1.375
 20
-12.7
 21
-9.95
  0
LINE
  8
0
 10
-1.375
 11
-0.688
 20
-9.95
 21
-9.95
  0
LINE
  8
0
 10
-0.688
 11
-0.688
 20
-9.95
 21
-9.498
  0
LINE
  8
0
 10
-0.688
 11
-0.741
 20
-9.498
 21
-9.484
  0
LINE
  8
0
 10
-0.741
 11
-0.975
 20
-9.484
 21
-9.394
  0
LINE
  8
0
 10
-0.975
 11
-1.199
 20
-9.394
 21
-9.279
  0
LINE
  8
0
 10
-1.199
 11
-1.41
 20
-9.279
 21
-9.143
  0
LINE
  8
0
 10
-1.41
 11
-1.605
 20
-9.143
 21
-8.985
  0
LINE
  8
0
 10
-1.605
 11
-1.783
 20
-8.985
 21
-8.807
  0
LINE
  8
0
 10
-1.783
 11
-1.941
 20
-8.807
 21
-8.612
  0
LINE
  8
0
 10
-1.941
 11
-2.077
 20
-8.612
 21
-8.401
  0
LINE
  8
0
 10
-2.077
 11
-2.192
 20
-8.401
 21
-8.177
  0
LINE
  8
0
 10
-2.192
 11
-2.282
 20
-8.177
 21
-7.943
  0
LINE
  8
0
 10
-2.282
 11
-2.347
 20
-7.943
 21
-7.7
  0
LINE
  8
0
 10
-2.347
 11
-2.386
 20
-7.7
 21
-7.452
  0
LINE
  8
0
 10
-2.386
 11
-2.399
 20
-7.452
 21
-7.2
  0
LINE
  8
0
 10
-2.399
 11
-2.625
 20
-7.2
 21
-7.2
  0
LINE
  8
0
 10
-2.625
 11
-2.625
 20
-7.2
 21
-9.181
  0
LINE
  8
0
 10
-2.625
 11
-3.198
 20
-9.181
 21
-8.999
  0
LINE
  8
0
 10
-3.198
 11
-3.805
 20
-8.999
 21
-8.759
  0
LINE
  8
0
 10
-3.805
 11
-4.394
 20
-8.759
 21
-8.479
  0
LINE
  8
0
 10
-4.394
 11
-4.962
 20
-8.479
 21
-8.16
  0
LINE
  8
0
 10
-4.962
 11
-5.507
 20
-8.16
 21
-7.802
  0
LINE
  8
0
 10
-5.507
 11
-6.027
 20
-7.802
 21
-7.408
  0
LINE
  8
0
 10
-6.027
 11
-6.518
 20
-7.408
 21
-6.979
  0
LINE
  8
0
 10
-6.518
 11
-6.979
 20
-6.979
 21
-6.518
  0
LINE
  8
0
 10
-6.979
 11
-7.408
 20
-6.518
 21
-6.027
  0
LINE
  8
0
 10
-7.408
 11
-7.802
 20
-6.027
 21
-5.507
  0
LINE
  8
0
 10
-7.802
 11
-8.16
 20
-5.507
 21
-4.962
  0
LINE
  8
0
 10
-8.16
 11
-8.479
 20
-4.962
 21
-4.394
  0
LINE
  8
0
 10
-8.479
 11
-8.759
 20
-4.394
 21
-3.805
  0
LINE
  8
0
 10
-8.759
 11
-8.999
 20
-3.805
 21
-3.198
  0
LINE
  8
0
 10
-8.999
 11
-9.196
 20
-3.198
 21
-2.577
  0
LINE
  8
0
 10
-9.196
 11
-9.35
 20
-2.577
 21
-1.943
  0
LINE
  8
0
 10
-9.35
 11
-9.461
 20
-1.943
 21
-1.3
  0
LINE
  8
0
 10
-9.461
 11
-9.528
 20
-1.3
 21
-0.652
  0
LINE
  8
0
 10
-9.528
 11
-9.55
 20
-0.652
 21
0
  0
ENDSEC
  0
SECTION
  2
OBJECTS
  0
DICTIONARY
  0
ENDSEC
  0
EOF
