  0
SECTION
  2
BLOCKS
  0
ENDSEC
  0
SECTION
  2
ENTITIES
  0
LINE
  8
0
 10
-15
 11
-14.882
 20
0
 21
1.88
  0
LINE
  8
0
 10
-14.882
 11
-14.529
 20
1.88
 21
3.73
  0
LINE
  8
0
 10
-14.529
 11
-13.947
 20
3.73
 21
5.522
  0
LINE
  8
0
 10
-13.947
 11
-13.145
 20
5.522
 21
7.226
  0
LINE
  8
0
 10
-13.145
 11
-12.135
 20
7.226
 21
8.817
  0
LINE
  8
0
 10
-12.135
 11
-10.935
 20
8.817
 21
10.268
  0
LINE
  8
0
 10
-10.935
 11
-9.561
 20
10.268
 21
11.558
  0
LINE
  8
0
 10
-9.561
 11
-8.037
 20
11.558
 21
12.665
  0
LINE
  8
0
 10
-8.037
 11
-6.387
 20
12.665
 21
13.572
  0
LINE
  8
0
 10
-6.387
 11
-4.635
 20
13.572
 21
14.266
  0
LINE
  8
0
 10
-4.635
 11
-2.811
 20
14.266
 21
14.734
  0
LINE
  8
0
 10
-2.811
 11
-0.942
 20
14.734
 21
14.97
  0
LINE
  8
0
 10
-0.942
 11
0.942
 20
14.97
 21
14.97
  0
LINE
  8
0
 10
0.942
 11
2.811
 20
14.97
 21
14.734
  0
LINE
  8
0
 10
2.811
 11
4.635
 20
14.734
 21
14.266
  0
LINE
  8
0
 10
4.635
 11
6.387
 20
14.266
 21
13.572
  0
LINE
  8
0
 10
6.387
 11
8.037
 20
13.572
 21
12.665
  0
LINE
  8
0
 10
8.037
 11
9.561
 20
12.665
 21
11.558
  0
LINE
  8
0
 10
9.561
 11
10.935
 20
11.558
 21
10.268
  0
LINE
  8
0
 10
10.935
 11
12.135
 20
10.268
 21
8.817
  0
LINE
  8
0
 10
12.135
 11
13.145
 20
8.817
 21
7.226
  0
LINE
  8
0
 10
13.145
 11
13.947
 20
7.226
 21
5.522
  0
LINE
  8
0
 10
13.947
 11
14.529
 20
5.522
 21
3.73
  0
LINE
  8
0
 10
14.529
 11
14.882
 20
3.73
 21
1.88
  0
LINE
  8
0
 10
14.882
 11
15
 20
1.88
 21
0
  0
LINE
  8
0
 10
15
 11
14.882
 20
0
 21
-1.88
  0
LINE
  8
0
 10
14.882
 11
14.529
 20
-1.88
 21
-3.73
  0
LINE
  8
0
 10
14.529
 11
13.947
 20
-3.73
 21
-5.522
  0
LINE
  8
0
 10
13.947
 11
13.145
 20
-5.522
 21
-7.226
  0
LINE
  8
0
 10
13.145
 11
12.135
 20
-7.226
 21
-8.817
  0
LINE
  8
0
 10
12.135
 11
10.935
 20
-8.817
 21
-10.268
  0
LINE
  8
0
 10
10.935
 11
9.561
 20
-10.268
 21
-11.558
  0
LINE
  8
0
 10
9.561
 11
8.037
 20
-11.558
 21
-12.665
  0
LINE
  8
0
 10
8.037
 11
6.387
 20
-12.665
 21
-13.572
  0
LINE
  8
0
 10
6.387
 11
4.635
 20
-13.572
 21
-14.266
  0
LINE
  8
0
 10
4.635
 11
2.811
 20
-14.266
 21
-14.734
  0
LINE
  8
0
 10
2.811
 11
0.942
 20
-14.734
 21
-14.97
  0
LINE
  8
0
 10
0.942
 11
-0.942
 20
-14.97
 21
-14.97
  0
LINE
  8
0
 10
-0.942
 11
-2.811
 20
-14.97
 21
-14.734
  0
LINE
  8
0
 10
-2.811
 11
-4.635
 20
-14.734
 21
-14.266
  0
LINE
  8
0
 10
-4.635
 11
-6.387
 20
-14.266
 21
-13.572
  0
LINE
  8
0
 10
-6.387
 11
-8.037
 20
-13.572
 21
-12.665
  0
LINE
  8
0
 10
-8.037
 11
-9.561
 20
-12.665
 21
-11.558
  0
LINE
  8
0
 10
-9.561
 11
-10.935
 20
-11.558
 21
-10.268
  0
LINE
  8
0
 10
-10.935
 11
-12.135
 20
-10.268
 21
-8.817
  0
LINE
  8
0
 10
-12.135
 11
-13.145
 20
-8.817
 21
-7.226
  0
LINE
  8
0
 10
-13.145
 11
-13.947
 20
-7.226
 21
-5.522
  0
LINE
  8
0
 10
-13.947
 11
-14.529
 20
-5.522
 21
-3.73
  0
LINE
  8
0
 10
-14.529
 11
-14.882
 20
-3.73
 21
-1.88
  0
LINE
  8
0
 10
-14.882
 11
-15
 20
-1.88
 21
0
  0
LINE
  8
0
 10
-12.392
 11
-12.348
 20
6
 21
6.416
  0
LINE
  8
0
 10
-12.348
 11
-12.219
 20
6.416
 21
6.814
  0
LINE
  8
0
 10
-12.219
 11
-12.01
 20
6.814
 21
7.175
  0
LINE
  8
0
 10
-12.01
 11
-11.73
 20
7.175
 21
7.486
  0
LINE
  8
0
 10
-11.73
 11
-11.392
 20
7.486
 21
7.732
  0
LINE
  8
0
 10
-11.392
 11
-11.01
 20
7.732
 21
7.902
  0
LINE
  8
0
 10
-11.01
 11
-10.602
 20
7.902
 21
7.989
  0
LINE
  8
0
 10
-10.602
 11
-10.183
 20
7.989
 21
7.989
  0
LINE
  8
0
 10
-10.183
 11
-9.775
 20
7.989
 21
7.902
  0
LINE
  8
0
 10
-9.775
 11
-9.392
 20
7.902
 21
7.732
  0
LINE
  8
0
 10
-9.392
 11
-9.054
 20
7.732
 21
7.486
  0
LINE
  8
0
 10
-9.054
 11
-8.775
 20
7.486
 21
7.176
  0
LINE
  8
0
 10
-8.775
 11
-8.565
 20
7.176
 21
6.813
  0
LINE
  8
0
 10
-8.565
 11
-8.436
 20
6.813
 21
6.416
  0
LINE
  8
0
 10
-8.436
 11
-8.392
 20
6.416
 21
6
  0
LINE
  8
0
 10
-8.392
 11
-8.436
 20
6
 21
5.584
  0
LINE
  8
0
 10
-8.436
 11
-8.565
 20
5.584
 21
5.186
  0
LINE
  8
0
 10
-8.565
 11
-8.774
 20
5.186
 21
4.825
  0
LINE
  8
0
 10
-8.774
 11
-9.054
 20
4.825
 21
4.514
  0
LINE
  8
0
 10
-9.054
 11
-9.392
 20
4.514
 21
4.268
  0
LINE
  8
0
 10
-9.392
 11
-9.774
 20
4.268
 21
4.098
  0
LINE
  8
0
 10
-9.774
 11
-10.183
 20
4.098
 21
4.011
  0
LINE
  8
0
 10
-10.183
 11
-10.602
 20
4.011
 21
4.011
  0
LINE
  8
0
 10
-10.602
 11
-11.01
 20
4.011
 21
4.098
  0
LINE
  8
0
 10
-11.01
 11
-11.392
 20
4.098
 21
4.268
  0
LINE
  8
0
 10
-11.392
 11
-11.731
 20
4.268
 21
4.514
  0
LINE
  8
0
 10
-11.731
 11
-12.01
 20
4.514
 21
4.824
  0
LINE
  8
0
 10
-12.01
 11
-12.22
 20
4.824
 21
5.187
  0
LINE
  8
0
 10
-12.22
 11
-12.348
 20
5.187
 21
5.584
  0
LINE
  8
0
 10
-12.348
 11
-12.392
 20
5.584
 21
6
  0
LINE
  8
0
 10
-3.125
 11
-3.057
 20
0
 21
0.65
  0
LINE
  8
0
 10
-3.057
 11
-2.855
 20
0.65
 21
1.271
  0
LINE
  8
0
 10
-2.855
 11
-2.752
 20
1.271
 21
1.45
  0
LINE
  8
0
 10
-2.752
 11
2.752
 20
1.45
 21
1.45
  0
LINE
  8
0
 10
2.752
 11
2.855
 20
1.45
 21
1.271
  0
LINE
  8
0
 10
2.855
 11
3.057
 20
1.271
 21
0.65
  0
LINE
  8
0
 10
3.057
 11
3.125
 20
0.65
 21
0
  0
LINE
  8
0
 10
3.125
 11
3.057
 20
0
 21
-0.65
  0
LINE
  8
0
 10
3.057
 11
2.855
 20
-0.65
 21
-1.271
  0
LINE
  8
0
 10
2.855
 11
2.528
 20
-1.271
 21
-1.837
  0
LINE
  8
0
 10
2.528
 11
2.091
 20
-1.837
 21
-2.322
  0
LINE
  8
0
 10
2.091
 11
1.563
 20
-2.322
 21
-2.706
  0
LINE
  8
0
 10
1.563
 11
0.966
 20
-2.706
 21
-2.972
  0
LINE
  8
0
 10
0.966
 11
0.327
 20
-2.972
 21
-3.108
  0
LINE
  8
0
 10
0.327
 11
-0.327
 20
-3.108
 21
-3.108
  0
LINE
  8
0
 10
-0.327
 11
-0.966
 20
-3.108
 21
-2.972
  0
LINE
  8
0
 10
-0.966
 11
-1.563
 20
-2.972
 21
-2.706
  0
LINE
  8
0
 10
-1.563
 11
-2.091
 20
-2.706
 21
-2.322
  0
LINE
  8
0
 10
-2.091
 11
-2.528
 20
-2.322
 21
-1.837
  0
LINE
  8
0
 10
-2.528
 11
-2.855
 20
-1.837
 21
-1.271
  0
LINE
  8
0
 10
-2.855
 11
-3.057
 20
-1.271
 21
-0.65
  0
LINE
  8
0
 10
-3.057
 11
-3.125
 20
-0.65
 21
0
  0
LINE
  8
0
 10
-2
 11
-1.956
 20
-12
 21
-11.584
  0
LINE
  8
0
 10
-1.956
 11
-1.827
 20
-11.584
 21
-11.187
  0
LINE
  8
0
 10
-1.827
 11
-1.618
 20
-11.187
 21
-10.824
  0
LINE
  8
0
 10
-1.618
 11
-1.338
 20
-10.824
 21
-10.514
  0
LINE
  8
0
 10
-1.338
 11
-1
 20
-10.514
 21
-10.268
  0
LINE
  8
0
 10
-1
 11
-0.618
 20
-10.268
 21
-10.098
  0
LINE
  8
0
 10
-0.618
 11
-0.209
 20
-10.098
 21
-10.011
  0
LINE
  8
0
 10
-0.209
 11
0.209
 20
-10.011
 21
-10.011
  0
LINE
  8
0
 10
0.209
 11
0.618
 20
-10.011
 21
-10.098
  0
LINE
  8
0
 10
0.618
 11
1
 20
-10.098
 21
-10.268
  0
LINE
  8
0
 10
1
 11
1.338
 20
-10.268
 21
-10.514
  0
LINE
  8
0
 10
1.338
 11
1.618
 20
-10.514
 21
-10.824
  0
LINE
  8
0
 10
1.618
 11
1.827
 20
-10.824
 21
-11.187
  0
LINE
  8
0
 10
1.827
 11
1.956
 20
-11.187
 21
-11.584
  0
LINE
  8
0
 10
1.956
 11
2
 20
-11.584
 21
-12
  0
LINE
  8
0
 10
2
 11
1.956
 20
-12
 21
-12.416
  0
LINE
  8
0
 10
1.956
 11
1.827
 20
-12.416
 21
-12.813
  0
LINE
  8
0
 10
1.827
 11
1.618
 20
-12.813
 21
-13.176
  0
LINE
  8
0
 10
1.618
 11
1.338
 20
-13.176
 21
-13.486
  0
LINE
  8
0
 10
1.338
 11
1
 20
-13.486
 21
-13.732
  0
LINE
  8
0
 10
1
 11
0.618
 20
-13.732
 21
-13.902
  0
LINE
  8
0
 10
0.618
 11
0.209
 20
-13.902
 21
-13.989
  0
LINE
  8
0
 10
0.209
 11
-0.209
 20
-13.989
 21
-13.989
  0
LINE
  8
0
 10
-0.209
 11
-0.618
 20
-13.989
 21
-13.902
  0
LINE
  8
0
 10
-0.618
 11
-1
 20
-13.902
 21
-13.732
  0
LINE
  8
0
 10
-1
 11
-1.338
 20
-13.732
 21
-13.486
  0
LINE
  8
0
 10
-1.338
 11
-1.618
 20
-13.486
 21
-13.176
  0
LINE
  8
0
 10
-1.618
 11
-1.827
 20
-13.176
 21
-12.813
  0
LINE
  8
0
 10
-1.827
 11
-1.956
 20
-12.813
 21
-12.416
  0
LINE
  8
0
 10
-1.956
 11
-2
 20
-12.416
 21
-12
  0
LINE
  8
0
 10
8.392
 11
8.436
 20
6
 21
6.416
  0
LINE
  8
0
 10
8.436
 11
8.565
 20
6.416
 21
6.813
  0
LINE
  8
0
 10
8.565
 11
8.775
 20
6.813
 21
7.176
  0
LINE
  8
0
 10
8.775
 11
9.054
 20
7.176
 21
7.486
  0
LINE
  8
0
 10
9.054
 11
9.392
 20
7.486
 21
7.732
  0
LINE
  8
0
 10
9.392
 11
9.775
 20
7.732
 21
7.902
  0
LINE
  8
0
 10
9.775
 11
10.183
 20
7.902
 21
7.989
  0
LINE
  8
0
 10
10.183
 11
10.602
 20
7.989
 21
7.989
  0
LINE
  8
0
 10
10.602
 11
11.01
 20
7.989
 21
7.902
  0
LINE
  8
0
 10
11.01
 11
11.392
 20
7.902
 21
7.732
  0
LINE
  8
0
 10
11.392
 11
11.73
 20
7.732
 21
7.486
  0
LINE
  8
0
 10
11.73
 11
12.01
 20
7.486
 21
7.175
  0
LINE
  8
0
 10
12.01
 11
12.219
 20
7.175
 21
6.814
  0
LINE
  8
0
 10
12.219
 11
12.348
 20
6.814
 21
6.416
  0
LINE
  8
0
 10
12.348
 11
12.392
 20
6.416
 21
6
  0
LINE
  8
0
 10
12.392
 11
12.348
 20
6
 21
5.584
  0
LINE
  8
0
 10
12.348
 11
12.22
 20
5.584
 21
5.187
  0
LINE
  8
0
 10
12.22
 11
12.01
 20
5.187
 21
4.824
  0
LINE
  8
0
 10
12.01
 11
11.731
 20
4.824
 21
4.514
  0
LINE
  8
0
 10
11.731
 11
11.392
 20
4.514
 21
4.268
  0
LINE
  8
0
 10
11.392
 11
11.01
 20
4.268
 21
4.098
  0
LINE
  8
0
 10
11.01
 11
10.602
 20
4.098
 21
4.011
  0
LINE
  8
0
 10
10.602
 11
10.183
 20
4.011
 21
4.011
  0
LINE
  8
0
 10
10.183
 11
9.774
 20
4.011
 21
4.098
  0
LINE
  8
0
 10
9.774
 11
9.392
 20
4.098
 21
4.268
  0
LINE
  8
0
 10
9.392
 11
9.054
 20
4.268
 21
4.514
  0
LINE
  8
0
 10
9.054
 11
8.774
 20
4.514
 21
4.825
  0
LINE
  8
0
 10
8.774
 11
8.565
 20
4.825
 21
5.186
  0
LINE
  8
0
 10
8.565
 11
8.436
 20
5.186
 21
5.584
  0
LINE
  8
0
 10
8.436
 11
8.392
 20
5.584
 21
6
  0
LINE
  8
0
 10
21.5
 11
21.5
 20
-28.5
 21
28.5
  0
LINE
  8
0
 10
21.5
 11
78.5
 20
28.5
 21
28.5
  0
LINE
  8
0
 10
78.5
 11
78.5
 20
28.5
 21
-28.5
  0
LINE
  8
0
 10
78.5
 11
68
 20
-28.5
 21
-28.5
  0
LINE
  8
0
 10
68
 11
70.586
 20
-28.5
 21
-3.931
  0
LINE
  8
0
 10
70.586
 11
70.834
 20
-3.931
 21
-2.632
  0
LINE
  8
0
 10
70.834
 11
71
 20
-2.632
 21
0
  0
LINE
  8
0
 10
71
 11
70.834
 20
0
 21
2.632
  0
LINE
  8
0
 10
70.834
 11
70.34
 20
2.632
 21
5.222
  0
LINE
  8
0
 10
70.34
 11
69.525
 20
5.222
 21
7.731
  0
LINE
  8
0
 10
69.525
 11
68.402
 20
7.731
 21
10.117
  0
LINE
  8
0
 10
68.402
 11
66.989
 20
10.117
 21
12.343
  0
LINE
  8
0
 10
66.989
 11
65.308
 20
12.343
 21
14.375
  0
LINE
  8
0
 10
65.308
 11
63.386
 20
14.375
 21
16.181
  0
LINE
  8
0
 10
63.386
 11
61.252
 20
16.181
 21
17.731
  0
LINE
  8
0
 10
61.252
 11
58.941
 20
17.731
 21
19.001
  0
LINE
  8
0
 10
58.941
 11
56.489
 20
19.001
 21
19.972
  0
LINE
  8
0
 10
56.489
 11
53.935
 20
19.972
 21
20.628
  0
LINE
  8
0
 10
53.935
 11
51.319
 20
20.628
 21
20.959
  0
LINE
  8
0
 10
51.319
 11
48.681
 20
20.959
 21
20.959
  0
LINE
  8
0
 10
48.681
 11
46.065
 20
20.959
 21
20.628
  0
LINE
  8
0
 10
46.065
 11
43.511
 20
20.628
 21
19.972
  0
LINE
  8
0
 10
43.511
 11
41.059
 20
19.972
 21
19.001
  0
LINE
  8
0
 10
41.059
 11
38.748
 20
19.001
 21
17.731
  0
LINE
  8
0
 10
38.748
 11
36.614
 20
17.731
 21
16.181
  0
LINE
  8
0
 10
36.614
 11
34.692
 20
16.181
 21
14.375
  0
LINE
  8
0
 10
34.692
 11
33.011
 20
14.375
 21
12.343
  0
LINE
  8
0
 10
33.011
 11
31.598
 20
12.343
 21
10.117
  0
LINE
  8
0
 10
31.598
 11
30.475
 20
10.117
 21
7.731
  0
LINE
  8
0
 10
30.475
 11
29.66
 20
7.731
 21
5.222
  0
LINE
  8
0
 10
29.66
 11
29.166
 20
5.222
 21
2.632
  0
LINE
  8
0
 10
29.166
 11
29
 20
2.632
 21
0
  0
LINE
  8
0
 10
29
 11
29.166
 20
0
 21
-2.632
  0
LINE
  8
0
 10
29.166
 11
29.414
 20
-2.632
 21
-3.931
  0
LINE
  8
0
 10
29.414
 11
32
 20
-3.931
 21
-28.5
  0
LINE
  8
0
 10
32
 11
21.5
 20
-28.5
 21
-28.5
  0
LINE
  8
0
 10
24.1
 11
24.152
 20
-23.5
 21
-23.001
  0
LINE
  8
0
 10
24.152
 11
24.307
 20
-23.001
 21
-22.524
  0
LINE
  8
0
 10
24.307
 11
24.558
 20
-22.524
 21
-22.089
  0
LINE
  8
0
 10
24.558
 11
24.894
 20
-22.089
 21
-21.716
  0
LINE
  8
0
 10
24.894
 11
25.3
 20
-21.716
 21
-21.422
  0
LINE
  8
0
 10
25.3
 11
25.758
 20
-21.422
 21
-21.217
  0
LINE
  8
0
 10
25.758
 11
26.249
 20
-21.217
 21
-21.113
  0
LINE
  8
0
 10
26.249
 11
26.751
 20
-21.113
 21
-21.113
  0
LINE
  8
0
 10
26.751
 11
27.242
 20
-21.113
 21
-21.217
  0
LINE
  8
0
 10
27.242
 11
27.7
 20
-21.217
 21
-21.422
  0
LINE
  8
0
 10
27.7
 11
28.106
 20
-21.422
 21
-21.716
  0
LINE
  8
0
 10
28.106
 11
28.442
 20
-21.716
 21
-22.089
  0
LINE
  8
0
 10
28.442
 11
28.693
 20
-22.089
 21
-22.524
  0
LINE
  8
0
 10
28.693
 11
28.848
 20
-22.524
 21
-23.001
  0
LINE
  8
0
 10
28.848
 11
28.9
 20
-23.001
 21
-23.5
  0
LINE
  8
0
 10
28.9
 11
28.848
 20
-23.5
 21
-23.999
  0
LINE
  8
0
 10
28.848
 11
28.693
 20
-23.999
 21
-24.476
  0
LINE
  8
0
 10
28.693
 11
28.442
 20
-24.476
 21
-24.911
  0
LINE
  8
0
 10
28.442
 11
28.106
 20
-24.911
 21
-25.284
  0
LINE
  8
0
 10
28.106
 11
27.7
 20
-25.284
 21
-25.578
  0
LINE
  8
0
 10
27.7
 11
27.242
 20
-25.578
 21
-25.783
  0
LINE
  8
0
 10
27.242
 11
26.751
 20
-25.783
 21
-25.887
  0
LINE
  8
0
 10
26.751
 11
26.249
 20
-25.887
 21
-25.887
  0
LINE
  8
0
 10
26.249
 11
25.758
 20
-25.887
 21
-25.783
  0
LINE
  8
0
 10
25.758
 11
25.3
 20
-25.783
 21
-25.578
  0
LINE
  8
0
 10
25.3
 11
24.894
 20
-25.578
 21
-25.284
  0
LINE
  8
0
 10
24.894
 11
24.558
 20
-25.284
 21
-24.911
  0
LINE
  8
0
 10
24.558
 11
24.307
 20
-24.911
 21
-24.476
  0
LINE
  8
0
 10
24.307
 11
24.152
 20
-24.476
 21
-23.999
  0
LINE
  8
0
 10
24.152
 11
24.1
 20
-23.999
 21
-23.5
  0
LINE
  8
0
 10
24.1
 11
24.152
 20
23.5
 21
23.999
  0
LINE
  8
0
 10
24.152
 11
24.307
 20
23.999
 21
24.476
  0
LINE
  8
0
 10
24.307
 11
24.558
 20
24.476
 21
24.911
  0
LINE
  8
0
 10
24.558
 11
24.894
 20
24.911
 21
25.284
  0
LINE
  8
0
 10
24.894
 11
25.3
 20
25.284
 21
25.578
  0
LINE
  8
0
 10
25.3
 11
25.758
 20
25.578
 21
25.783
  0
LINE
  8
0
 10
25.758
 11
26.249
 20
25.783
 21
25.887
  0
LINE
  8
0
 10
26.249
 11
26.751
 20
25.887
 21
25.887
  0
LINE
  8
0
 10
26.751
 11
27.242
 20
25.887
 21
25.783
  0
LINE
  8
0
 10
27.242
 11
27.7
 20
25.783
 21
25.578
  0
LINE
  8
0
 10
27.7
 11
28.106
 20
25.578
 21
25.284
  0
LINE
  8
0
 10
28.106
 11
28.442
 20
25.284
 21
24.911
  0
LINE
  8
0
 10
28.442
 11
28.693
 20
24.911
 21
24.476
  0
LINE
  8
0
 10
28.693
 11
28.848
 20
24.476
 21
23.999
  0
LINE
  8
0
 10
28.848
 11
28.9
 20
23.999
 21
23.5
  0
LINE
  8
0
 10
28.9
 11
28.848
 20
23.5
 21
23.001
  0
LINE
  8
0
 10
28.848
 11
28.693
 20
23.001
 21
22.524
  0
LINE
  8
0
 10
28.693
 11
28.442
 20
22.524
 21
22.089
  0
LINE
  8
0
 10
28.442
 11
28.106
 20
22.089
 21
21.716
  0
LINE
  8
0
 10
28.106
 11
27.7
 20
21.716
 21
21.422
  0
LINE
  8
0
 10
27.7
 11
27.242
 20
21.422
 21
21.217
  0
LINE
  8
0
 10
27.242
 11
26.751
 20
21.217
 21
21.113
  0
LINE
  8
0
 10
26.751
 11
26.249
 20
21.113
 21
21.113
  0
LINE
  8
0
 10
26.249
 11
25.758
 20
21.113
 21
21.217
  0
LINE
  8
0
 10
25.758
 11
25.3
 20
21.217
 21
21.422
  0
LINE
  8
0
 10
25.3
 11
24.894
 20
21.422
 21
21.716
  0
LINE
  8
0
 10
24.894
 11
24.558
 20
21.716
 21
22.089
  0
LINE
  8
0
 10
24.558
 11
24.307
 20
22.089
 21
22.524
  0
LINE
  8
0
 10
24.307
 11
24.152
 20
22.524
 21
23.001
  0
LINE
  8
0
 10
24.152
 11
24.1
 20
23.001
 21
23.5
  0
LINE
  8
0
 10
71.1
 11
71.152
 20
-23.5
 21
-23.001
  0
LINE
  8
0
 10
71.152
 11
71.307
 20
-23.001
 21
-22.524
  0
LINE
  8
0
 10
71.307
 11
71.558
 20
-22.524
 21
-22.089
  0
LINE
  8
0
 10
71.558
 11
71.894
 20
-22.089
 21
-21.716
  0
LINE
  8
0
 10
71.894
 11
72.3
 20
-21.716
 21
-21.422
  0
LINE
  8
0
 10
72.3
 11
72.758
 20
-21.422
 21
-21.217
  0
LINE
  8
0
 10
72.758
 11
73.249
 20
-21.217
 21
-21.113
  0
LINE
  8
0
 10
73.249
 11
73.751
 20
-21.113
 21
-21.113
  0
LINE
  8
0
 10
73.751
 11
74.242
 20
-21.113
 21
-21.217
  0
LINE
  8
0
 10
74.242
 11
74.7
 20
-21.217
 21
-21.422
  0
LINE
  8
0
 10
74.7
 11
75.106
 20
-21.422
 21
-21.716
  0
LINE
  8
0
 10
75.106
 11
75.442
 20
-21.716
 21
-22.089
  0
LINE
  8
0
 10
75.442
 11
75.693
 20
-22.089
 21
-22.524
  0
LINE
  8
0
 10
75.693
 11
75.848
 20
-22.524
 21
-23.001
  0
LINE
  8
0
 10
75.848
 11
75.9
 20
-23.001
 21
-23.5
  0
LINE
  8
0
 10
75.9
 11
75.848
 20
-23.5
 21
-23.999
  0
LINE
  8
0
 10
75.848
 11
75.693
 20
-23.999
 21
-24.476
  0
LINE
  8
0
 10
75.693
 11
75.442
 20
-24.476
 21
-24.911
  0
LINE
  8
0
 10
75.442
 11
75.106
 20
-24.911
 21
-25.284
  0
LINE
  8
0
 10
75.106
 11
74.7
 20
-25.284
 21
-25.578
  0
LINE
  8
0
 10
74.7
 11
74.242
 20
-25.578
 21
-25.783
  0
LINE
  8
0
 10
74.242
 11
73.751
 20
-25.783
 21
-25.887
  0
LINE
  8
0
 10
73.751
 11
73.249
 20
-25.887
 21
-25.887
  0
LINE
  8
0
 10
73.249
 11
72.758
 20
-25.887
 21
-25.783
  0
LINE
  8
0
 10
72.758
 11
72.3
 20
-25.783
 21
-25.578
  0
LINE
  8
0
 10
72.3
 11
71.894
 20
-25.578
 21
-25.284
  0
LINE
  8
0
 10
71.894
 11
71.558
 20
-25.284
 21
-24.911
  0
LINE
  8
0
 10
71.558
 11
71.307
 20
-24.911
 21
-24.476
  0
LINE
  8
0
 10
71.307
 11
71.152
 20
-24.476
 21
-23.999
  0
LINE
  8
0
 10
71.152
 11
71.1
 20
-23.999
 21
-23.5
  0
LINE
  8
0
 10
71.1
 11
71.152
 20
23.5
 21
23.999
  0
LINE
  8
0
 10
71.152
 11
71.307
 20
23.999
 21
24.476
  0
LINE
  8
0
 10
71.307
 11
71.558
 20
24.476
 21
24.911
  0
LINE
  8
0
 10
71.558
 11
71.894
 20
24.911
 21
25.284
  0
LINE
  8
0
 10
71.894
 11
72.3
 20
25.284
 21
25.578
  0
LINE
  8
0
 10
72.3
 11
72.758
 20
25.578
 21
25.783
  0
LINE
  8
0
 10
72.758
 11
73.249
 20
25.783
 21
25.887
  0
LINE
  8
0
 10
73.249
 11
73.751
 20
25.887
 21
25.887
  0
LINE
  8
0
 10
73.751
 11
74.242
 20
25.887
 21
25.783
  0
LINE
  8
0
 10
74.242
 11
74.7
 20
25.783
 21
25.578
  0
LINE
  8
0
 10
74.7
 11
75.106
 20
25.578
 21
25.284
  0
LINE
  8
0
 10
75.106
 11
75.442
 20
25.284
 21
24.911
  0
LINE
  8
0
 10
75.442
 11
75.693
 20
24.911
 21
24.476
  0
LINE
  8
0
 10
75.693
 11
75.848
 20
24.476
 21
23.999
  0
LINE
  8
0
 10
75.848
 11
75.9
 20
23.999
 21
23.5
  0
LINE
  8
0
 10
75.9
 11
75.848
 20
23.5
 21
23.001
  0
LINE
  8
0
 10
75.848
 11
75.693
 20
23.001
 21
22.524
  0
LINE
  8
0
 10
75.693
 11
75.442
 20
22.524
 21
22.089
  0
LINE
  8
0
 10
75.442
 11
75.106
 20
22.089
 21
21.716
  0
LINE
  8
0
 10
75.106
 11
74.7
 20
21.716
 21
21.422
  0
LINE
  8
0
 10
74.7
 11
74.242
 20
21.422
 21
21.217
  0
LINE
  8
0
 10
74.242
 11
73.751
 20
21.217
 21
21.113
  0
LINE
  8
0
 10
73.751
 11
73.249
 20
21.113
 21
21.113
  0
LINE
  8
0
 10
73.249
 11
72.758
 20
21.113
 21
21.217
  0
LINE
  8
0
 10
72.758
 11
72.3
 20
21.217
 21
21.422
  0
LINE
  8
0
 10
72.3
 11
71.894
 20
21.422
 21
21.716
  0
LINE
  8
0
 10
71.894
 11
71.558
 20
21.716
 21
22.089
  0
LINE
  8
0
 10
71.558
 11
71.307
 20
22.089
 21
22.524
  0
LINE
  8
0
 10
71.307
 11
71.152
 20
22.524
 21
23.001
  0
LINE
  8
0
 10
71.152
 11
71.1
 20
23.001
 21
23.5
  0
LINE
  8
0
 10
96.5
 11
96.5
 20
-28.5
 21
28.5
  0
LINE
  8
0
 10
96.5
 11
153.5
 20
28.5
 21
28.5
  0
LINE
  8
0
 10
153.5
 11
153.5
 20
28.5
 21
-28.5
  0
LINE
  8
0
 10
153.5
 11
96.5
 20
-28.5
 21
-28.5
  0
LINE
  8
0
 10
99.1
 11
99.152
 20
-23.5
 21
-23.001
  0
LINE
  8
0
 10
99.152
 11
99.307
 20
-23.001
 21
-22.524
  0
LINE
  8
0
 10
99.307
 11
99.558
 20
-22.524
 21
-22.089
  0
LINE
  8
0
 10
99.558
 11
99.894
 20
-22.089
 21
-21.716
  0
LINE
  8
0
 10
99.894
 11
100.3
 20
-21.716
 21
-21.422
  0
LINE
  8
0
 10
100.3
 11
100.758
 20
-21.422
 21
-21.217
  0
LINE
  8
0
 10
100.758
 11
101.249
 20
-21.217
 21
-21.113
  0
LINE
  8
0
 10
101.249
 11
101.751
 20
-21.113
 21
-21.113
  0
LINE
  8
0
 10
101.751
 11
102.242
 20
-21.113
 21
-21.217
  0
LINE
  8
0
 10
102.242
 11
102.7
 20
-21.217
 21
-21.422
  0
LINE
  8
0
 10
102.7
 11
103.106
 20
-21.422
 21
-21.716
  0
LINE
  8
0
 10
103.106
 11
103.442
 20
-21.716
 21
-22.089
  0
LINE
  8
0
 10
103.442
 11
103.693
 20
-22.089
 21
-22.524
  0
LINE
  8
0
 10
103.693
 11
103.848
 20
-22.524
 21
-23.001
  0
LINE
  8
0
 10
103.848
 11
103.9
 20
-23.001
 21
-23.5
  0
LINE
  8
0
 10
103.9
 11
103.848
 20
-23.5
 21
-23.999
  0
LINE
  8
0
 10
103.848
 11
103.693
 20
-23.999
 21
-24.476
  0
LINE
  8
0
 10
103.693
 11
103.442
 20
-24.476
 21
-24.911
  0
LINE
  8
0
 10
103.442
 11
103.106
 20
-24.911
 21
-25.284
  0
LINE
  8
0
 10
103.106
 11
102.7
 20
-25.284
 21
-25.578
  0
LINE
  8
0
 10
102.7
 11
102.242
 20
-25.578
 21
-25.783
  0
LINE
  8
0
 10
102.242
 11
101.751
 20
-25.783
 21
-25.887
  0
LINE
  8
0
 10
101.751
 11
101.249
 20
-25.887
 21
-25.887
  0
LINE
  8
0
 10
101.249
 11
100.758
 20
-25.887
 21
-25.783
  0
LINE
  8
0
 10
100.758
 11
100.3
 20
-25.783
 21
-25.578
  0
LINE
  8
0
 10
100.3
 11
99.894
 20
-25.578
 21
-25.284
  0
LINE
  8
0
 10
99.894
 11
99.558
 20
-25.284
 21
-24.911
  0
LINE
  8
0
 10
99.558
 11
99.307
 20
-24.911
 21
-24.476
  0
LINE
  8
0
 10
99.307
 11
99.152
 20
-24.476
 21
-23.999
  0
LINE
  8
0
 10
99.152
 11
99.1
 20
-23.999
 21
-23.5
  0
LINE
  8
0
 10
99.1
 11
99.152
 20
23.5
 21
23.999
  0
LINE
  8
0
 10
99.152
 11
99.307
 20
23.999
 21
24.476
  0
LINE
  8
0
 10
99.307
 11
99.558
 20
24.476
 21
24.911
  0
LINE
  8
0
 10
99.558
 11
99.894
 20
24.911
 21
25.284
  0
LINE
  8
0
 10
99.894
 11
100.3
 20
25.284
 21
25.578
  0
LINE
  8
0
 10
100.3
 11
100.758
 20
25.578
 21
25.783
  0
LINE
  8
0
 10
100.758
 11
101.249
 20
25.783
 21
25.887
  0
LINE
  8
0
 10
101.249
 11
101.751
 20
25.887
 21
25.887
  0
LINE
  8
0
 10
101.751
 11
102.242
 20
25.887
 21
25.783
  0
LINE
  8
0
 10
102.242
 11
102.7
 20
25.783
 21
25.578
  0
LINE
  8
0
 10
102.7
 11
103.106
 20
25.578
 21
25.284
  0
LINE
  8
0
 10
103.106
 11
103.442
 20
25.284
 21
24.911
  0
LINE
  8
0
 10
103.442
 11
103.693
 20
24.911
 21
24.476
  0
LINE
  8
0
 10
103.693
 11
103.848
 20
24.476
 21
23.999
  0
LINE
  8
0
 10
103.848
 11
103.9
 20
23.999
 21
23.5
  0
LINE
  8
0
 10
103.9
 11
103.848
 20
23.5
 21
23.001
  0
LINE
  8
0
 10
103.848
 11
103.693
 20
23.001
 21
22.524
  0
LINE
  8
0
 10
103.693
 11
103.442
 20
22.524
 21
22.089
  0
LINE
  8
0
 10
103.442
 11
103.106
 20
22.089
 21
21.716
  0
LINE
  8
0
 10
103.106
 11
102.7
 20
21.716
 21
21.422
  0
LINE
  8
0
 10
102.7
 11
102.242
 20
21.422
 21
21.217
  0
LINE
  8
0
 10
102.242
 11
101.751
 20
21.217
 21
21.113
  0
LINE
  8
0
 10
101.751
 11
101.249
 20
21.113
 21
21.113
  0
LINE
  8
0
 10
101.249
 11
100.758
 20
21.113
 21
21.217
  0
LINE
  8
0
 10
100.758
 11
100.3
 20
21.217
 21
21.422
  0
LINE
  8
0
 10
100.3
 11
99.894
 20
21.422
 21
21.716
  0
LINE
  8
0
 10
99.894
 11
99.558
 20
21.716
 21
22.089
  0
LINE
  8
0
 10
99.558
 11
99.307
 20
22.089
 21
22.524
  0
LINE
  8
0
 10
99.307
 11
99.152
 20
22.524
 21
23.001
  0
LINE
  8
0
 10
99.152
 11
99.1
 20
23.001
 21
23.5
  0
LINE
  8
0
 10
108
 11
108.134
 20
0
 21
2.131
  0
LINE
  8
0
 10
108.134
 11
108.534
 20
2.131
 21
4.228
  0
LINE
  8
0
 10
108.534
 11
109.194
 20
4.228
 21
6.258
  0
LINE
  8
0
 10
109.194
 11
110.103
 20
6.258
 21
8.19
  0
LINE
  8
0
 10
110.103
 11
111.247
 20
8.19
 21
9.992
  0
LINE
  8
0
 10
111.247
 11
112.608
 20
9.992
 21
11.637
  0
LINE
  8
0
 10
112.608
 11
114.164
 20
11.637
 21
13.099
  0
LINE
  8
0
 10
114.164
 11
115.891
 20
13.099
 21
14.354
  0
LINE
  8
0
 10
115.891
 11
117.762
 20
14.354
 21
15.382
  0
LINE
  8
0
 10
117.762
 11
119.747
 20
15.382
 21
16.168
  0
LINE
  8
0
 10
119.747
 11
121.815
 20
16.168
 21
16.699
  0
LINE
  8
0
 10
121.815
 11
123.933
 20
16.699
 21
16.966
  0
LINE
  8
0
 10
123.933
 11
126.067
 20
16.966
 21
16.966
  0
LINE
  8
0
 10
126.067
 11
128.185
 20
16.966
 21
16.699
  0
LINE
  8
0
 10
128.185
 11
130.253
 20
16.699
 21
16.168
  0
LINE
  8
0
 10
130.253
 11
132.238
 20
16.168
 21
15.382
  0
LINE
  8
0
 10
132.238
 11
134.109
 20
15.382
 21
14.354
  0
LINE
  8
0
 10
134.109
 11
135.836
 20
14.354
 21
13.099
  0
LINE
  8
0
 10
135.836
 11
137.392
 20
13.099
 21
11.637
  0
LINE
  8
0
 10
137.392
 11
138.753
 20
11.637
 21
9.992
  0
LINE
  8
0
 10
138.753
 11
139.897
 20
9.992
 21
8.19
  0
LINE
  8
0
 10
139.897
 11
140.806
 20
8.19
 21
6.258
  0
LINE
  8
0
 10
140.806
 11
141.466
 20
6.258
 21
4.228
  0
LINE
  8
0
 10
141.466
 11
141.866
 20
4.228
 21
2.131
  0
LINE
  8
0
 10
141.866
 11
142
 20
2.131
 21
0
  0
LINE
  8
0
 10
142
 11
141.866
 20
0
 21
-2.131
  0
LINE
  8
0
 10
141.866
 11
141.466
 20
-2.131
 21
-4.228
  0
LINE
  8
0
 10
141.466
 11
140.806
 20
-4.228
 21
-6.258
  0
LINE
  8
0
 10
140.806
 11
139.897
 20
-6.258
 21
-8.19
  0
LINE
  8
0
 10
139.897
 11
138.753
 20
-8.19
 21
-9.992
  0
LINE
  8
0
 10
138.753
 11
137.392
 20
-9.992
 21
-11.637
  0
LINE
  8
0
 10
137.392
 11
135.836
 20
-11.637
 21
-13.099
  0
LINE
  8
0
 10
135.836
 11
134.109
 20
-13.099
 21
-14.354
  0
LINE
  8
0
 10
134.109
 11
132.238
 20
-14.354
 21
-15.382
  0
LINE
  8
0
 10
132.238
 11
130.253
 20
-15.382
 21
-16.168
  0
LINE
  8
0
 10
130.253
 11
128.185
 20
-16.168
 21
-16.699
  0
LINE
  8
0
 10
128.185
 11
126.067
 20
-16.699
 21
-16.966
  0
LINE
  8
0
 10
126.067
 11
123.933
 20
-16.966
 21
-16.966
  0
LINE
  8
0
 10
123.933
 11
121.815
 20
-16.966
 21
-16.699
  0
LINE
  8
0
 10
121.815
 11
119.747
 20
-16.699
 21
-16.168
  0
LINE
  8
0
 10
119.747
 11
117.762
 20
-16.168
 21
-15.382
  0
LINE
  8
0
 10
117.762
 11
115.891
 20
-15.382
 21
-14.354
  0
LINE
  8
0
 10
115.891
 11
114.164
 20
-14.354
 21
-13.099
  0
LINE
  8
0
 10
114.164
 11
112.608
 20
-13.099
 21
-11.637
  0
LINE
  8
0
 10
112.608
 11
111.247
 20
-11.637
 21
-9.992
  0
LINE
  8
0
 10
111.247
 11
110.103
 20
-9.992
 21
-8.19
  0
LINE
  8
0
 10
110.103
 11
109.194
 20
-8.19
 21
-6.258
  0
LINE
  8
0
 10
109.194
 11
108.534
 20
-6.258
 21
-4.228
  0
LINE
  8
0
 10
108.534
 11
108.134
 20
-4.228
 21
-2.131
  0
LINE
  8
0
 10
108.134
 11
108
 20
-2.131
 21
0
  0
LINE
  8
0
 10
146.1
 11
146.152
 20
-23.5
 21
-23.001
  0
LINE
  8
0
 10
146.152
 11
146.307
 20
-23.001
 21
-22.524
  0
LINE
  8
0
 10
146.307
 11
146.558
 20
-22.524
 21
-22.089
  0
LINE
  8
0
 10
146.558
 11
146.894
 20
-22.089
 21
-21.716
  0
LINE
  8
0
 10
146.894
 11
147.3
 20
-21.716
 21
-21.422
  0
LINE
  8
0
 10
147.3
 11
147.758
 20
-21.422
 21
-21.217
  0
LINE
  8
0
 10
147.758
 11
148.249
 20
-21.217
 21
-21.113
  0
LINE
  8
0
 10
148.249
 11
148.751
 20
-21.113
 21
-21.113
  0
LINE
  8
0
 10
148.751
 11
149.242
 20
-21.113
 21
-21.217
  0
LINE
  8
0
 10
149.242
 11
149.7
 20
-21.217
 21
-21.422
  0
LINE
  8
0
 10
149.7
 11
150.106
 20
-21.422
 21
-21.716
  0
LINE
  8
0
 10
150.106
 11
150.442
 20
-21.716
 21
-22.089
  0
LINE
  8
0
 10
150.442
 11
150.693
 20
-22.089
 21
-22.524
  0
LINE
  8
0
 10
150.693
 11
150.848
 20
-22.524
 21
-23.001
  0
LINE
  8
0
 10
150.848
 11
150.9
 20
-23.001
 21
-23.5
  0
LINE
  8
0
 10
150.9
 11
150.848
 20
-23.5
 21
-23.999
  0
LINE
  8
0
 10
150.848
 11
150.693
 20
-23.999
 21
-24.476
  0
LINE
  8
0
 10
150.693
 11
150.442
 20
-24.476
 21
-24.911
  0
LINE
  8
0
 10
150.442
 11
150.106
 20
-24.911
 21
-25.284
  0
LINE
  8
0
 10
150.106
 11
149.7
 20
-25.284
 21
-25.578
  0
LINE
  8
0
 10
149.7
 11
149.242
 20
-25.578
 21
-25.783
  0
LINE
  8
0
 10
149.242
 11
148.751
 20
-25.783
 21
-25.887
  0
LINE
  8
0
 10
148.751
 11
148.249
 20
-25.887
 21
-25.887
  0
LINE
  8
0
 10
148.249
 11
147.758
 20
-25.887
 21
-25.783
  0
LINE
  8
0
 10
147.758
 11
147.3
 20
-25.783
 21
-25.578
  0
LINE
  8
0
 10
147.3
 11
146.894
 20
-25.578
 21
-25.284
  0
LINE
  8
0
 10
146.894
 11
146.558
 20
-25.284
 21
-24.911
  0
LINE
  8
0
 10
146.558
 11
146.307
 20
-24.911
 21
-24.476
  0
LINE
  8
0
 10
146.307
 11
146.152
 20
-24.476
 21
-23.999
  0
LINE
  8
0
 10
146.152
 11
146.1
 20
-23.999
 21
-23.5
  0
LINE
  8
0
 10
146.1
 11
146.152
 20
23.5
 21
23.999
  0
LINE
  8
0
 10
146.152
 11
146.307
 20
23.999
 21
24.476
  0
LINE
  8
0
 10
146.307
 11
146.558
 20
24.476
 21
24.911
  0
LINE
  8
0
 10
146.558
 11
146.894
 20
24.911
 21
25.284
  0
LINE
  8
0
 10
146.894
 11
147.3
 20
25.284
 21
25.578
  0
LINE
  8
0
 10
147.3
 11
147.758
 20
25.578
 21
25.783
  0
LINE
  8
0
 10
147.758
 11
148.249
 20
25.783
 21
25.887
  0
LINE
  8
0
 10
148.249
 11
148.751
 20
25.887
 21
25.887
  0
LINE
  8
0
 10
148.751
 11
149.242
 20
25.887
 21
25.783
  0
LINE
  8
0
 10
149.242
 11
149.7
 20
25.783
 21
25.578
  0
LINE
  8
0
 10
149.7
 11
150.106
 20
25.578
 21
25.284
  0
LINE
  8
0
 10
150.106
 11
150.442
 20
25.284
 21
24.911
  0
LINE
  8
0
 10
150.442
 11
150.693
 20
24.911
 21
24.476
  0
LINE
  8
0
 10
150.693
 11
150.848
 20
24.476
 21
23.999
  0
LINE
  8
0
 10
150.848
 11
150.9
 20
23.999
 21
23.5
  0
LINE
  8
0
 10
150.9
 11
150.848
 20
23.5
 21
23.001
  0
LINE
  8
0
 10
150.848
 11
150.693
 20
23.001
 21
22.524
  0
LINE
  8
0
 10
150.693
 11
150.442
 20
22.524
 21
22.089
  0
LINE
  8
0
 10
150.442
 11
150.106
 20
22.089
 21
21.716
  0
LINE
  8
0
 10
150.106
 11
149.7
 20
21.716
 21
21.422
  0
LINE
  8
0
 10
149.7
 11
149.242
 20
21.422
 21
21.217
  0
LINE
  8
0
 10
149.242
 11
148.751
 20
21.217
 21
21.113
  0
LINE
  8
0
 10
148.751
 11
148.249
 20
21.113
 21
21.113
  0
LINE
  8
0
 10
148.249
 11
147.758
 20
21.113
 21
21.217
  0
LINE
  8
0
 10
147.758
 11
147.3
 20
21.217
 21
21.422
  0
LINE
  8
0
 10
147.3
 11
146.894
 20
21.422
 21
21.716
  0
LINE
  8
0
 10
146.894
 11
146.558
 20
21.716
 21
22.089
  0
LINE
  8
0
 10
146.558
 11
146.307
 20
22.089
 21
22.524
  0
LINE
  8
0
 10
146.307
 11
146.152
 20
22.524
 21
23.001
  0
LINE
  8
0
 10
146.152
 11
146.1
 20
23.001
 21
23.5
  0
ENDSEC
  0
SECTION
  2
OBJECTS
  0
DICTIONARY
  0
ENDSEC
  0
EOF
