  0
SECTION
  2
BLOCKS
  0
ENDSEC
  0
SECTION
  2
ENTITIES
  0
LINE
  8
0
 10
-8
 11
-7.768
 20
0
 21
1.915
  0
LINE
  8
0
 10
-7.768
 11
-7.084
 20
1.915
 21
3.718
  0
LINE
  8
0
 10
-7.084
 11
-5.988
 20
3.718
 21
5.305
  0
LINE
  8
0
 10
-5.988
 11
-4.545
 20
5.305
 21
6.584
  0
LINE
  8
0
 10
-4.545
 11
-2.837
 20
6.584
 21
7.48
  0
LINE
  8
0
 10
-2.837
 11
-0.964
 20
7.48
 21
7.942
  0
LINE
  8
0
 10
-0.964
 11
0.964
 20
7.942
 21
7.942
  0
LINE
  8
0
 10
0.964
 11
2.837
 20
7.942
 21
7.48
  0
LINE
  8
0
 10
2.837
 11
4.545
 20
7.48
 21
6.584
  0
LINE
  8
0
 10
4.545
 11
5.988
 20
6.584
 21
5.305
  0
LINE
  8
0
 10
5.988
 11
7.084
 20
5.305
 21
3.718
  0
LINE
  8
0
 10
7.084
 11
7.768
 20
3.718
 21
1.915
  0
LINE
  8
0
 10
7.768
 11
8
 20
1.915
 21
0
  0
LINE
  8
0
 10
8
 11
7.768
 20
0
 21
-1.915
  0
LINE
  8
0
 10
7.768
 11
7.084
 20
-1.915
 21
-3.718
  0
LINE
  8
0
 10
7.084
 11
5.988
 20
-3.718
 21
-5.305
  0
LINE
  8
0
 10
5.988
 11
4.545
 20
-5.305
 21
-6.584
  0
LINE
  8
0
 10
4.545
 11
2.837
 20
-6.584
 21
-7.48
  0
LINE
  8
0
 10
2.837
 11
0.964
 20
-7.48
 21
-7.942
  0
LINE
  8
0
 10
0.964
 11
-0.964
 20
-7.942
 21
-7.942
  0
LINE
  8
0
 10
-0.964
 11
-2.837
 20
-7.942
 21
-7.48
  0
LINE
  8
0
 10
-2.837
 11
-4.545
 20
-7.48
 21
-6.584
  0
LINE
  8
0
 10
-4.545
 11
-5.988
 20
-6.584
 21
-5.305
  0
LINE
  8
0
 10
-5.988
 11
-7.084
 20
-5.305
 21
-3.718
  0
LINE
  8
0
 10
-7.084
 11
-7.768
 20
-3.718
 21
-1.915
  0
LINE
  8
0
 10
-7.768
 11
-8
 20
-1.915
 21
0
  0
LINE
  8
0
 10
-1.45
 11
-1.418
 20
-6
 21
-5.699
  0
LINE
  8
0
 10
-1.418
 11
-1.325
 20
-5.699
 21
-5.41
  0
LINE
  8
0
 10
-1.325
 11
-1.173
 20
-5.41
 21
-5.148
  0
LINE
  8
0
 10
-1.173
 11
-0.97
 20
-5.148
 21
-4.922
  0
LINE
  8
0
 10
-0.97
 11
-0.725
 20
-4.922
 21
-4.744
  0
LINE
  8
0
 10
-0.725
 11
-0.448
 20
-4.744
 21
-4.621
  0
LINE
  8
0
 10
-0.448
 11
-0.152
 20
-4.621
 21
-4.558
  0
LINE
  8
0
 10
-0.152
 11
0.152
 20
-4.558
 21
-4.558
  0
LINE
  8
0
 10
0.152
 11
0.448
 20
-4.558
 21
-4.621
  0
LINE
  8
0
 10
0.448
 11
0.725
 20
-4.621
 21
-4.744
  0
LINE
  8
0
 10
0.725
 11
0.97
 20
-4.744
 21
-4.922
  0
LINE
  8
0
 10
0.97
 11
1.173
 20
-4.922
 21
-5.148
  0
LINE
  8
0
 10
1.173
 11
1.325
 20
-5.148
 21
-5.41
  0
LINE
  8
0
 10
1.325
 11
1.418
 20
-5.41
 21
-5.699
  0
LINE
  8
0
 10
1.418
 11
1.45
 20
-5.699
 21
-6
  0
LINE
  8
0
 10
1.45
 11
1.418
 20
-6
 21
-6.301
  0
LINE
  8
0
 10
1.418
 11
1.325
 20
-6.301
 21
-6.59
  0
LINE
  8
0
 10
1.325
 11
1.173
 20
-6.59
 21
-6.852
  0
LINE
  8
0
 10
1.173
 11
0.97
 20
-6.852
 21
-7.078
  0
LINE
  8
0
 10
0.97
 11
0.725
 20
-7.078
 21
-7.256
  0
LINE
  8
0
 10
0.725
 11
0.448
 20
-7.256
 21
-7.379
  0
LINE
  8
0
 10
0.448
 11
0.152
 20
-7.379
 21
-7.442
  0
LINE
  8
0
 10
0.152
 11
-0.152
 20
-7.442
 21
-7.442
  0
LINE
  8
0
 10
-0.152
 11
-0.448
 20
-7.442
 21
-7.379
  0
LINE
  8
0
 10
-0.448
 11
-0.725
 20
-7.379
 21
-7.256
  0
LINE
  8
0
 10
-0.725
 11
-0.97
 20
-7.256
 21
-7.078
  0
LINE
  8
0
 10
-0.97
 11
-1.173
 20
-7.078
 21
-6.852
  0
LINE
  8
0
 10
-1.173
 11
-1.325
 20
-6.852
 21
-6.59
  0
LINE
  8
0
 10
-1.325
 11
-1.418
 20
-6.59
 21
-6.301
  0
LINE
  8
0
 10
-1.418
 11
-1.45
 20
-6.301
 21
-6
  0
LINE
  8
0
 10
-1.45
 11
-1.418
 20
6
 21
6.301
  0
LINE
  8
0
 10
-1.418
 11
-1.325
 20
6.301
 21
6.59
  0
LINE
  8
0
 10
-1.325
 11
-1.173
 20
6.59
 21
6.852
  0
LINE
  8
0
 10
-1.173
 11
-0.97
 20
6.852
 21
7.078
  0
LINE
  8
0
 10
-0.97
 11
-0.725
 20
7.078
 21
7.256
  0
LINE
  8
0
 10
-0.725
 11
-0.448
 20
7.256
 21
7.379
  0
LINE
  8
0
 10
-0.448
 11
-0.152
 20
7.379
 21
7.442
  0
LINE
  8
0
 10
-0.152
 11
0.152
 20
7.442
 21
7.442
  0
LINE
  8
0
 10
0.152
 11
0.448
 20
7.442
 21
7.379
  0
LINE
  8
0
 10
0.448
 11
0.725
 20
7.379
 21
7.256
  0
LINE
  8
0
 10
0.725
 11
0.97
 20
7.256
 21
7.078
  0
LINE
  8
0
 10
0.97
 11
1.173
 20
7.078
 21
6.852
  0
LINE
  8
0
 10
1.173
 11
1.325
 20
6.852
 21
6.59
  0
LINE
  8
0
 10
1.325
 11
1.418
 20
6.59
 21
6.301
  0
LINE
  8
0
 10
1.418
 11
1.45
 20
6.301
 21
6
  0
LINE
  8
0
 10
1.45
 11
1.418
 20
6
 21
5.699
  0
LINE
  8
0
 10
1.418
 11
1.325
 20
5.699
 21
5.41
  0
LINE
  8
0
 10
1.325
 11
1.173
 20
5.41
 21
5.148
  0
LINE
  8
0
 10
1.173
 11
0.97
 20
5.148
 21
4.922
  0
LINE
  8
0
 10
0.97
 11
0.725
 20
4.922
 21
4.744
  0
LINE
  8
0
 10
0.725
 11
0.448
 20
4.744
 21
4.621
  0
LINE
  8
0
 10
0.448
 11
0.152
 20
4.621
 21
4.558
  0
LINE
  8
0
 10
0.152
 11
-0.152
 20
4.558
 21
4.558
  0
LINE
  8
0
 10
-0.152
 11
-0.448
 20
4.558
 21
4.621
  0
LINE
  8
0
 10
-0.448
 11
-0.725
 20
4.621
 21
4.744
  0
LINE
  8
0
 10
-0.725
 11
-0.97
 20
4.744
 21
4.922
  0
LINE
  8
0
 10
-0.97
 11
-1.173
 20
4.922
 21
5.148
  0
LINE
  8
0
 10
-1.173
 11
-1.325
 20
5.148
 21
5.41
  0
LINE
  8
0
 10
-1.325
 11
-1.418
 20
5.41
 21
5.699
  0
LINE
  8
0
 10
-1.418
 11
-1.45
 20
5.699
 21
6
  0
LINE
  8
0
 10
-1.25
 11
-0.625
 20
0
 21
1.083
  0
LINE
  8
0
 10
-0.625
 11
0.625
 20
1.083
 21
1.083
  0
LINE
  8
0
 10
0.625
 11
1.25
 20
1.083
 21
0
  0
LINE
  8
0
 10
1.25
 11
0.625
 20
0
 21
-1.083
  0
LINE
  8
0
 10
0.625
 11
-0.625
 20
-1.083
 21
-1.083
  0
LINE
  8
0
 10
-0.625
 11
-1.25
 20
-1.083
 21
0
  0
LINE
  8
0
 10
9
 11
9.232
 20
0
 21
1.915
  0
LINE
  8
0
 10
9.232
 11
9.916
 20
1.915
 21
3.718
  0
LINE
  8
0
 10
9.916
 11
11.012
 20
3.718
 21
5.305
  0
LINE
  8
0
 10
11.012
 11
12.455
 20
5.305
 21
6.584
  0
LINE
  8
0
 10
12.455
 11
14.163
 20
6.584
 21
7.48
  0
LINE
  8
0
 10
14.163
 11
16.036
 20
7.48
 21
7.942
  0
LINE
  8
0
 10
16.036
 11
17.964
 20
7.942
 21
7.942
  0
LINE
  8
0
 10
17.964
 11
19.837
 20
7.942
 21
7.48
  0
LINE
  8
0
 10
19.837
 11
21.545
 20
7.48
 21
6.584
  0
LINE
  8
0
 10
21.545
 11
22.988
 20
6.584
 21
5.305
  0
LINE
  8
0
 10
22.988
 11
24.084
 20
5.305
 21
3.718
  0
LINE
  8
0
 10
24.084
 11
24.768
 20
3.718
 21
1.915
  0
LINE
  8
0
 10
24.768
 11
25
 20
1.915
 21
0
  0
LINE
  8
0
 10
25
 11
24.768
 20
0
 21
-1.915
  0
LINE
  8
0
 10
24.768
 11
24.084
 20
-1.915
 21
-3.718
  0
LINE
  8
0
 10
24.084
 11
22.988
 20
-3.718
 21
-5.305
  0
LINE
  8
0
 10
22.988
 11
21.545
 20
-5.305
 21
-6.584
  0
LINE
  8
0
 10
21.545
 11
19.837
 20
-6.584
 21
-7.48
  0
LINE
  8
0
 10
19.837
 11
17.964
 20
-7.48
 21
-7.942
  0
LINE
  8
0
 10
17.964
 11
16.036
 20
-7.942
 21
-7.942
  0
LINE
  8
0
 10
16.036
 11
14.163
 20
-7.942
 21
-7.48
  0
LINE
  8
0
 10
14.163
 11
12.455
 20
-7.48
 21
-6.584
  0
LINE
  8
0
 10
12.455
 11
11.012
 20
-6.584
 21
-5.305
  0
LINE
  8
0
 10
11.012
 11
9.916
 20
-5.305
 21
-3.718
  0
LINE
  8
0
 10
9.916
 11
9.232
 20
-3.718
 21
-1.915
  0
LINE
  8
0
 10
9.232
 11
9
 20
-1.915
 21
0
  0
LINE
  8
0
 10
14.55
 11
14.604
 20
0
 21
0.509
  0
LINE
  8
0
 10
14.604
 11
14.762
 20
0.509
 21
0.997
  0
LINE
  8
0
 10
14.762
 11
15.018
 20
0.997
 21
1.44
  0
LINE
  8
0
 10
15.018
 11
15.252
 20
1.44
 21
1.7
  0
LINE
  8
0
 10
15.252
 11
18.748
 20
1.7
 21
1.7
  0
LINE
  8
0
 10
18.748
 11
18.982
 20
1.7
 21
1.44
  0
LINE
  8
0
 10
18.982
 11
19.238
 20
1.44
 21
0.997
  0
LINE
  8
0
 10
19.238
 11
19.396
 20
0.997
 21
0.509
  0
LINE
  8
0
 10
19.396
 11
19.45
 20
0.509
 21
0
  0
LINE
  8
0
 10
19.45
 11
19.396
 20
0
 21
-0.509
  0
LINE
  8
0
 10
19.396
 11
19.238
 20
-0.509
 21
-0.997
  0
LINE
  8
0
 10
19.238
 11
18.982
 20
-0.997
 21
-1.44
  0
LINE
  8
0
 10
18.982
 11
18.639
 20
-1.44
 21
-1.821
  0
LINE
  8
0
 10
18.639
 11
18.225
 20
-1.821
 21
-2.122
  0
LINE
  8
0
 10
18.225
 11
17.757
 20
-2.122
 21
-2.33
  0
LINE
  8
0
 10
17.757
 11
17.256
 20
-2.33
 21
-2.437
  0
LINE
  8
0
 10
17.256
 11
16.744
 20
-2.437
 21
-2.437
  0
LINE
  8
0
 10
16.744
 11
16.243
 20
-2.437
 21
-2.33
  0
LINE
  8
0
 10
16.243
 11
15.775
 20
-2.33
 21
-2.122
  0
LINE
  8
0
 10
15.775
 11
15.361
 20
-2.122
 21
-1.821
  0
LINE
  8
0
 10
15.361
 11
15.018
 20
-1.821
 21
-1.44
  0
LINE
  8
0
 10
15.018
 11
14.762
 20
-1.44
 21
-0.997
  0
LINE
  8
0
 10
14.762
 11
14.604
 20
-0.997
 21
-0.509
  0
LINE
  8
0
 10
14.604
 11
14.55
 20
-0.509
 21
0
  0
LINE
  8
0
 10
15.55
 11
15.582
 20
-6
 21
-5.699
  0
LINE
  8
0
 10
15.582
 11
15.675
 20
-5.699
 21
-5.41
  0
LINE
  8
0
 10
15.675
 11
15.827
 20
-5.41
 21
-5.148
  0
LINE
  8
0
 10
15.827
 11
16.03
 20
-5.148
 21
-4.922
  0
LINE
  8
0
 10
16.03
 11
16.275
 20
-4.922
 21
-4.744
  0
LINE
  8
0
 10
16.275
 11
16.552
 20
-4.744
 21
-4.621
  0
LINE
  8
0
 10
16.552
 11
16.848
 20
-4.621
 21
-4.558
  0
LINE
  8
0
 10
16.848
 11
17.152
 20
-4.558
 21
-4.558
  0
LINE
  8
0
 10
17.152
 11
17.448
 20
-4.558
 21
-4.621
  0
LINE
  8
0
 10
17.448
 11
17.725
 20
-4.621
 21
-4.744
  0
LINE
  8
0
 10
17.725
 11
17.97
 20
-4.744
 21
-4.922
  0
LINE
  8
0
 10
17.97
 11
18.173
 20
-4.922
 21
-5.148
  0
LINE
  8
0
 10
18.173
 11
18.325
 20
-5.148
 21
-5.41
  0
LINE
  8
0
 10
18.325
 11
18.418
 20
-5.41
 21
-5.699
  0
LINE
  8
0
 10
18.418
 11
18.45
 20
-5.699
 21
-6
  0
LINE
  8
0
 10
18.45
 11
18.418
 20
-6
 21
-6.301
  0
LINE
  8
0
 10
18.418
 11
18.325
 20
-6.301
 21
-6.59
  0
LINE
  8
0
 10
18.325
 11
18.173
 20
-6.59
 21
-6.852
  0
LINE
  8
0
 10
18.173
 11
17.97
 20
-6.852
 21
-7.078
  0
LINE
  8
0
 10
17.97
 11
17.725
 20
-7.078
 21
-7.256
  0
LINE
  8
0
 10
17.725
 11
17.448
 20
-7.256
 21
-7.379
  0
LINE
  8
0
 10
17.448
 11
17.152
 20
-7.379
 21
-7.442
  0
LINE
  8
0
 10
17.152
 11
16.848
 20
-7.442
 21
-7.442
  0
LINE
  8
0
 10
16.848
 11
16.552
 20
-7.442
 21
-7.379
  0
LINE
  8
0
 10
16.552
 11
16.275
 20
-7.379
 21
-7.256
  0
LINE
  8
0
 10
16.275
 11
16.03
 20
-7.256
 21
-7.078
  0
LINE
  8
0
 10
16.03
 11
15.827
 20
-7.078
 21
-6.852
  0
LINE
  8
0
 10
15.827
 11
15.675
 20
-6.852
 21
-6.59
  0
LINE
  8
0
 10
15.675
 11
15.582
 20
-6.59
 21
-6.301
  0
LINE
  8
0
 10
15.582
 11
15.55
 20
-6.301
 21
-6
  0
LINE
  8
0
 10
15.55
 11
15.582
 20
6
 21
6.301
  0
LINE
  8
0
 10
15.582
 11
15.675
 20
6.301
 21
6.59
  0
LINE
  8
0
 10
15.675
 11
15.827
 20
6.59
 21
6.852
  0
LINE
  8
0
 10
15.827
 11
16.03
 20
6.852
 21
7.078
  0
LINE
  8
0
 10
16.03
 11
16.275
 20
7.078
 21
7.256
  0
LINE
  8
0
 10
16.275
 11
16.552
 20
7.256
 21
7.379
  0
LINE
  8
0
 10
16.552
 11
16.848
 20
7.379
 21
7.442
  0
LINE
  8
0
 10
16.848
 11
17.152
 20
7.442
 21
7.442
  0
LINE
  8
0
 10
17.152
 11
17.448
 20
7.442
 21
7.379
  0
LINE
  8
0
 10
17.448
 11
17.725
 20
7.379
 21
7.256
  0
LINE
  8
0
 10
17.725
 11
17.97
 20
7.256
 21
7.078
  0
LINE
  8
0
 10
17.97
 11
18.173
 20
7.078
 21
6.852
  0
LINE
  8
0
 10
18.173
 11
18.325
 20
6.852
 21
6.59
  0
LINE
  8
0
 10
18.325
 11
18.418
 20
6.59
 21
6.301
  0
LINE
  8
0
 10
18.418
 11
18.45
 20
6.301
 21
6
  0
LINE
  8
0
 10
18.45
 11
18.418
 20
6
 21
5.699
  0
LINE
  8
0
 10
18.418
 11
18.325
 20
5.699
 21
5.41
  0
LINE
  8
0
 10
18.325
 11
18.173
 20
5.41
 21
5.148
  0
LINE
  8
0
 10
18.173
 11
17.97
 20
5.148
 21
4.922
  0
LINE
  8
0
 10
17.97
 11
17.725
 20
4.922
 21
4.744
  0
LINE
  8
0
 10
17.725
 11
17.448
 20
4.744
 21
4.621
  0
LINE
  8
0
 10
17.448
 11
17.152
 20
4.621
 21
4.558
  0
LINE
  8
0
 10
17.152
 11
16.848
 20
4.558
 21
4.558
  0
LINE
  8
0
 10
16.848
 11
16.552
 20
4.558
 21
4.621
  0
LINE
  8
0
 10
16.552
 11
16.275
 20
4.621
 21
4.744
  0
LINE
  8
0
 10
16.275
 11
16.03
 20
4.744
 21
4.922
  0
LINE
  8
0
 10
16.03
 11
15.827
 20
4.922
 21
5.148
  0
LINE
  8
0
 10
15.827
 11
15.675
 20
5.148
 21
5.41
  0
LINE
  8
0
 10
15.675
 11
15.582
 20
5.41
 21
5.699
  0
LINE
  8
0
 10
15.582
 11
15.55
 20
5.699
 21
6
  0
ENDSEC
  0
SECTION
  2
OBJECTS
  0
DICTIONARY
  0
ENDSEC
  0
EOF
