  0
SECTION
  2
BLOCKS
  0
ENDSEC
  0
SECTION
  2
ENTITIES
  0
LINE
  8
0
 10
-11.5
 11
-11.409
 20
0
 21
1.441
  0
LINE
  8
0
 10
-11.409
 11
-11.139
 20
1.441
 21
2.86
  0
LINE
  8
0
 10
-11.139
 11
-10.692
 20
2.86
 21
4.233
  0
LINE
  8
0
 10
-10.692
 11
-10.078
 20
4.233
 21
5.54
  0
LINE
  8
0
 10
-10.078
 11
-10.032
 20
5.54
 21
5.613
  0
LINE
  8
0
 10
-10.032
 11
-10.147
 20
5.613
 21
5.339
  0
LINE
  8
0
 10
-10.147
 11
-10.229
 20
5.339
 21
5.049
  0
LINE
  8
0
 10
-10.229
 11
-10.273
 20
5.049
 21
4.751
  0
LINE
  8
0
 10
-10.273
 11
-10.278
 20
4.751
 21
4.449
  0
LINE
  8
0
 10
-10.278
 11
-10.247
 20
4.449
 21
4.149
  0
LINE
  8
0
 10
-10.247
 11
-10.179
 20
4.149
 21
3.856
  0
LINE
  8
0
 10
-10.179
 11
-10.074
 20
3.856
 21
3.574
  0
LINE
  8
0
 10
-10.074
 11
-9.933
 20
3.574
 21
3.307
  0
LINE
  8
0
 10
-9.933
 11
-9.761
 20
3.307
 21
3.059
  0
LINE
  8
0
 10
-9.761
 11
-9.56
 20
3.059
 21
2.835
  0
LINE
  8
0
 10
-9.56
 11
-9.332
 20
2.835
 21
2.638
  0
LINE
  8
0
 10
-9.332
 11
-9.081
 20
2.638
 21
2.472
  0
LINE
  8
0
 10
-9.081
 11
-8.811
 20
2.472
 21
2.337
  0
LINE
  8
0
 10
-8.811
 11
-8.526
 20
2.337
 21
2.238
  0
LINE
  8
0
 10
-8.526
 11
-8.232
 20
2.238
 21
2.176
  0
LINE
  8
0
 10
-8.232
 11
-7.931
 20
2.176
 21
2.151
  0
LINE
  8
0
 10
-7.931
 11
-7.63
 20
2.151
 21
2.163
  0
LINE
  8
0
 10
-7.63
 11
-7.333
 20
2.163
 21
2.213
  0
LINE
  8
0
 10
-7.333
 11
-7.045
 20
2.213
 21
2.3
  0
LINE
  8
0
 10
-7.045
 11
-6.769
 20
2.3
 21
2.423
  0
LINE
  8
0
 10
-6.769
 11
-6.511
 20
2.423
 21
2.579
  0
LINE
  8
0
 10
-6.511
 11
-6.275
 20
2.579
 21
2.766
  0
LINE
  8
0
 10
-6.275
 11
-6.065
 20
2.766
 21
2.982
  0
LINE
  8
0
 10
-6.065
 11
-5.882
 20
2.982
 21
3.222
  0
LINE
  8
0
 10
-5.882
 11
-5.731
 20
3.222
 21
3.483
  0
LINE
  8
0
 10
-5.731
 11
-5.615
 20
3.483
 21
3.761
  0
LINE
  8
0
 10
-5.615
 11
-5.533
 20
3.761
 21
4.051
  0
LINE
  8
0
 10
-5.533
 11
-5.489
 20
4.051
 21
4.349
  0
LINE
  8
0
 10
-5.489
 11
-5.483
 20
4.349
 21
4.651
  0
LINE
  8
0
 10
-5.483
 11
-5.515
 20
4.651
 21
4.951
  0
LINE
  8
0
 10
-5.515
 11
-5.583
 20
4.951
 21
5.244
  0
LINE
  8
0
 10
-5.583
 11
-5.688
 20
5.244
 21
5.526
  0
LINE
  8
0
 10
-5.688
 11
-5.828
 20
5.526
 21
5.793
  0
LINE
  8
0
 10
-5.828
 11
-6.001
 20
5.793
 21
6.041
  0
LINE
  8
0
 10
-6.001
 11
-6.201
 20
6.041
 21
6.265
  0
LINE
  8
0
 10
-6.201
 11
-6.43
 20
6.265
 21
6.462
  0
LINE
  8
0
 10
-6.43
 11
-6.681
 20
6.462
 21
6.628
  0
LINE
  8
0
 10
-6.681
 11
-6.951
 20
6.628
 21
6.763
  0
LINE
  8
0
 10
-6.951
 11
-7.235
 20
6.763
 21
6.862
  0
LINE
  8
0
 10
-7.235
 11
-7.53
 20
6.862
 21
6.924
  0
LINE
  8
0
 10
-7.53
 11
-7.83
 20
6.924
 21
6.949
  0
LINE
  8
0
 10
-7.83
 11
-8.132
 20
6.949
 21
6.937
  0
LINE
  8
0
 10
-8.132
 11
-8.429
 20
6.937
 21
6.887
  0
LINE
  8
0
 10
-8.429
 11
-8.717
 20
6.887
 21
6.8
  0
LINE
  8
0
 10
-8.717
 11
-8.992
 20
6.8
 21
6.677
  0
LINE
  8
0
 10
-8.992
 11
-9.251
 20
6.677
 21
6.521
  0
LINE
  8
0
 10
-9.251
 11
-9.487
 20
6.521
 21
6.334
  0
LINE
  8
0
 10
-9.487
 11
-9.697
 20
6.334
 21
6.118
  0
LINE
  8
0
 10
-9.697
 11
-9.785
 20
6.118
 21
6.003
  0
LINE
  8
0
 10
-9.785
 11
-9.304
 20
6.003
 21
6.76
  0
LINE
  8
0
 10
-9.304
 11
-8.383
 20
6.76
 21
7.872
  0
LINE
  8
0
 10
-8.383
 11
-7.33
 20
7.872
 21
8.861
  0
LINE
  8
0
 10
-7.33
 11
-6.162
 20
8.861
 21
9.71
  0
LINE
  8
0
 10
-6.162
 11
-4.896
 20
9.71
 21
10.406
  0
LINE
  8
0
 10
-4.896
 11
-3.554
 20
10.406
 21
10.937
  0
LINE
  8
0
 10
-3.554
 11
-2.155
 20
10.937
 21
11.296
  0
LINE
  8
0
 10
-2.155
 11
-0.722
 20
11.296
 21
11.477
  0
LINE
  8
0
 10
-0.722
 11
0.722
 20
11.477
 21
11.477
  0
LINE
  8
0
 10
0.722
 11
2.155
 20
11.477
 21
11.296
  0
LINE
  8
0
 10
2.155
 11
3.554
 20
11.296
 21
10.937
  0
LINE
  8
0
 10
3.554
 11
4.896
 20
10.937
 21
10.406
  0
LINE
  8
0
 10
4.896
 11
6.162
 20
10.406
 21
9.71
  0
LINE
  8
0
 10
6.162
 11
7.33
 20
9.71
 21
8.861
  0
LINE
  8
0
 10
7.33
 11
8.383
 20
8.861
 21
7.872
  0
LINE
  8
0
 10
8.383
 11
9.304
 20
7.872
 21
6.76
  0
LINE
  8
0
 10
9.304
 11
9.785
 20
6.76
 21
6.003
  0
LINE
  8
0
 10
9.785
 11
9.697
 20
6.003
 21
6.118
  0
LINE
  8
0
 10
9.697
 11
9.487
 20
6.118
 21
6.334
  0
LINE
  8
0
 10
9.487
 11
9.251
 20
6.334
 21
6.521
  0
LINE
  8
0
 10
9.251
 11
8.992
 20
6.521
 21
6.677
  0
LINE
  8
0
 10
8.992
 11
8.717
 20
6.677
 21
6.8
  0
LINE
  8
0
 10
8.717
 11
8.429
 20
6.8
 21
6.887
  0
LINE
  8
0
 10
8.429
 11
8.132
 20
6.887
 21
6.937
  0
LINE
  8
0
 10
8.132
 11
7.83
 20
6.937
 21
6.949
  0
LINE
  8
0
 10
7.83
 11
7.53
 20
6.949
 21
6.924
  0
LINE
  8
0
 10
7.53
 11
7.235
 20
6.924
 21
6.862
  0
LINE
  8
0
 10
7.235
 11
6.951
 20
6.862
 21
6.763
  0
LINE
  8
0
 10
6.951
 11
6.681
 20
6.763
 21
6.628
  0
LINE
  8
0
 10
6.681
 11
6.43
 20
6.628
 21
6.462
  0
LINE
  8
0
 10
6.43
 11
6.201
 20
6.462
 21
6.265
  0
LINE
  8
0
 10
6.201
 11
6.001
 20
6.265
 21
6.041
  0
LINE
  8
0
 10
6.001
 11
5.828
 20
6.041
 21
5.793
  0
LINE
  8
0
 10
5.828
 11
5.688
 20
5.793
 21
5.526
  0
LINE
  8
0
 10
5.688
 11
5.583
 20
5.526
 21
5.244
  0
LINE
  8
0
 10
5.583
 11
5.515
 20
5.244
 21
4.951
  0
LINE
  8
0
 10
5.515
 11
5.483
 20
4.951
 21
4.651
  0
LINE
  8
0
 10
5.483
 11
5.489
 20
4.651
 21
4.349
  0
LINE
  8
0
 10
5.489
 11
5.533
 20
4.349
 21
4.051
  0
LINE
  8
0
 10
5.533
 11
5.615
 20
4.051
 21
3.761
  0
LINE
  8
0
 10
5.615
 11
5.731
 20
3.761
 21
3.483
  0
LINE
  8
0
 10
5.731
 11
5.882
 20
3.483
 21
3.222
  0
LINE
  8
0
 10
5.882
 11
6.065
 20
3.222
 21
2.982
  0
LINE
  8
0
 10
6.065
 11
6.275
 20
2.982
 21
2.766
  0
LINE
  8
0
 10
6.275
 11
6.511
 20
2.766
 21
2.579
  0
LINE
  8
0
 10
6.511
 11
6.769
 20
2.579
 21
2.423
  0
LINE
  8
0
 10
6.769
 11
7.045
 20
2.423
 21
2.3
  0
LINE
  8
0
 10
7.045
 11
7.333
 20
2.3
 21
2.213
  0
LINE
  8
0
 10
7.333
 11
7.63
 20
2.213
 21
2.163
  0
LINE
  8
0
 10
7.63
 11
7.931
 20
2.163
 21
2.151
  0
LINE
  8
0
 10
7.931
 11
8.232
 20
2.151
 21
2.176
  0
LINE
  8
0
 10
8.232
 11
8.526
 20
2.176
 21
2.238
  0
LINE
  8
0
 10
8.526
 11
8.811
 20
2.238
 21
2.337
  0
LINE
  8
0
 10
8.811
 11
9.081
 20
2.337
 21
2.472
  0
LINE
  8
0
 10
9.081
 11
9.332
 20
2.472
 21
2.638
  0
LINE
  8
0
 10
9.332
 11
9.56
 20
2.638
 21
2.835
  0
LINE
  8
0
 10
9.56
 11
9.761
 20
2.835
 21
3.059
  0
LINE
  8
0
 10
9.761
 11
9.933
 20
3.059
 21
3.307
  0
LINE
  8
0
 10
9.933
 11
10.074
 20
3.307
 21
3.574
  0
LINE
  8
0
 10
10.074
 11
10.179
 20
3.574
 21
3.856
  0
LINE
  8
0
 10
10.179
 11
10.247
 20
3.856
 21
4.149
  0
LINE
  8
0
 10
10.247
 11
10.278
 20
4.149
 21
4.449
  0
LINE
  8
0
 10
10.278
 11
10.273
 20
4.449
 21
4.751
  0
LINE
  8
0
 10
10.273
 11
10.229
 20
4.751
 21
5.049
  0
LINE
  8
0
 10
10.229
 11
10.147
 20
5.049
 21
5.339
  0
LINE
  8
0
 10
10.147
 11
10.032
 20
5.339
 21
5.613
  0
LINE
  8
0
 10
10.032
 11
10.078
 20
5.613
 21
5.54
  0
LINE
  8
0
 10
10.078
 11
10.692
 20
5.54
 21
4.233
  0
LINE
  8
0
 10
10.692
 11
11.139
 20
4.233
 21
2.86
  0
LINE
  8
0
 10
11.139
 11
11.409
 20
2.86
 21
1.441
  0
LINE
  8
0
 10
11.409
 11
11.5
 20
1.441
 21
0
  0
LINE
  8
0
 10
11.5
 11
11.409
 20
0
 21
-1.441
  0
LINE
  8
0
 10
11.409
 11
11.139
 20
-1.441
 21
-2.86
  0
LINE
  8
0
 10
11.139
 11
10.692
 20
-2.86
 21
-4.233
  0
LINE
  8
0
 10
10.692
 11
10.078
 20
-4.233
 21
-5.54
  0
LINE
  8
0
 10
10.078
 11
9.304
 20
-5.54
 21
-6.76
  0
LINE
  8
0
 10
9.304
 11
8.383
 20
-6.76
 21
-7.872
  0
LINE
  8
0
 10
8.383
 11
7.33
 20
-7.872
 21
-8.861
  0
LINE
  8
0
 10
7.33
 11
6.162
 20
-8.861
 21
-9.71
  0
LINE
  8
0
 10
6.162
 11
4.896
 20
-9.71
 21
-10.406
  0
LINE
  8
0
 10
4.896
 11
3.554
 20
-10.406
 21
-10.937
  0
LINE
  8
0
 10
3.554
 11
2.155
 20
-10.937
 21
-11.296
  0
LINE
  8
0
 10
2.155
 11
0.722
 20
-11.296
 21
-11.477
  0
LINE
  8
0
 10
0.722
 11
0.293
 20
-11.477
 21
-11.477
  0
LINE
  8
0
 10
0.293
 11
0.45
 20
-11.477
 21
-11.457
  0
LINE
  8
0
 10
0.45
 11
0.742
 20
-11.457
 21
-11.383
  0
LINE
  8
0
 10
0.742
 11
1.022
 20
-11.383
 21
-11.272
  0
LINE
  8
0
 10
1.022
 11
1.286
 20
-11.272
 21
-11.126
  0
LINE
  8
0
 10
1.286
 11
1.53
 20
-11.126
 21
-10.949
  0
LINE
  8
0
 10
1.53
 11
1.75
 20
-10.949
 21
-10.743
  0
LINE
  8
0
 10
1.75
 11
1.942
 20
-10.743
 21
-10.511
  0
LINE
  8
0
 10
1.942
 11
2.103
 20
-10.511
 21
-10.256
  0
LINE
  8
0
 10
2.103
 11
2.231
 20
-10.256
 21
-9.983
  0
LINE
  8
0
 10
2.231
 11
2.325
 20
-9.983
 21
-9.697
  0
LINE
  8
0
 10
2.325
 11
2.381
 20
-9.697
 21
-9.401
  0
LINE
  8
0
 10
2.381
 11
2.4
 20
-9.401
 21
-9.1
  0
LINE
  8
0
 10
2.4
 11
2.381
 20
-9.1
 21
-8.799
  0
LINE
  8
0
 10
2.381
 11
2.325
 20
-8.799
 21
-8.503
  0
LINE
  8
0
 10
2.325
 11
2.231
 20
-8.503
 21
-8.217
  0
LINE
  8
0
 10
2.231
 11
2.103
 20
-8.217
 21
-7.944
  0
LINE
  8
0
 10
2.103
 11
1.942
 20
-7.944
 21
-7.689
  0
LINE
  8
0
 10
1.942
 11
1.75
 20
-7.689
 21
-7.457
  0
LINE
  8
0
 10
1.75
 11
1.53
 20
-7.457
 21
-7.251
  0
LINE
  8
0
 10
1.53
 11
1.286
 20
-7.251
 21
-7.074
  0
LINE
  8
0
 10
1.286
 11
1.022
 20
-7.074
 21
-6.928
  0
LINE
  8
0
 10
1.022
 11
0.742
 20
-6.928
 21
-6.817
  0
LINE
  8
0
 10
0.742
 11
0.45
 20
-6.817
 21
-6.743
  0
LINE
  8
0
 10
0.45
 11
0.151
 20
-6.743
 21
-6.705
  0
LINE
  8
0
 10
0.151
 11
-0.151
 20
-6.705
 21
-6.705
  0
LINE
  8
0
 10
-0.151
 11
-0.45
 20
-6.705
 21
-6.743
  0
LINE
  8
0
 10
-0.45
 11
-0.742
 20
-6.743
 21
-6.817
  0
LINE
  8
0
 10
-0.742
 11
-1.022
 20
-6.817
 21
-6.928
  0
LINE
  8
0
 10
-1.022
 11
-1.286
 20
-6.928
 21
-7.074
  0
LINE
  8
0
 10
-1.286
 11
-1.53
 20
-7.074
 21
-7.251
  0
LINE
  8
0
 10
-1.53
 11
-1.75
 20
-7.251
 21
-7.457
  0
LINE
  8
0
 10
-1.75
 11
-1.942
 20
-7.457
 21
-7.689
  0
LINE
  8
0
 10
-1.942
 11
-2.103
 20
-7.689
 21
-7.944
  0
LINE
  8
0
 10
-2.103
 11
-2.231
 20
-7.944
 21
-8.217
  0
LINE
  8
0
 10
-2.231
 11
-2.325
 20
-8.217
 21
-8.503
  0
LINE
  8
0
 10
-2.325
 11
-2.381
 20
-8.503
 21
-8.799
  0
LINE
  8
0
 10
-2.381
 11
-2.4
 20
-8.799
 21
-9.1
  0
LINE
  8
0
 10
-2.4
 11
-2.381
 20
-9.1
 21
-9.401
  0
LINE
  8
0
 10
-2.381
 11
-2.325
 20
-9.401
 21
-9.697
  0
LINE
  8
0
 10
-2.325
 11
-2.231
 20
-9.697
 21
-9.983
  0
LINE
  8
0
 10
-2.231
 11
-2.103
 20
-9.983
 21
-10.256
  0
LINE
  8
0
 10
-2.103
 11
-1.942
 20
-10.256
 21
-10.511
  0
LINE
  8
0
 10
-1.942
 11
-1.75
 20
-10.511
 21
-10.743
  0
LINE
  8
0
 10
-1.75
 11
-1.53
 20
-10.743
 21
-10.949
  0
LINE
  8
0
 10
-1.53
 11
-1.286
 20
-10.949
 21
-11.126
  0
LINE
  8
0
 10
-1.286
 11
-1.022
 20
-11.126
 21
-11.272
  0
LINE
  8
0
 10
-1.022
 11
-0.742
 20
-11.272
 21
-11.383
  0
LINE
  8
0
 10
-0.742
 11
-0.45
 20
-11.383
 21
-11.457
  0
LINE
  8
0
 10
-0.45
 11
-0.293
 20
-11.457
 21
-11.477
  0
LINE
  8
0
 10
-0.293
 11
-0.722
 20
-11.477
 21
-11.477
  0
LINE
  8
0
 10
-0.722
 11
-2.155
 20
-11.477
 21
-11.296
  0
LINE
  8
0
 10
-2.155
 11
-3.554
 20
-11.296
 21
-10.937
  0
LINE
  8
0
 10
-3.554
 11
-4.896
 20
-10.937
 21
-10.406
  0
LINE
  8
0
 10
-4.896
 11
-6.162
 20
-10.406
 21
-9.71
  0
LINE
  8
0
 10
-6.162
 11
-7.33
 20
-9.71
 21
-8.861
  0
LINE
  8
0
 10
-7.33
 11
-8.383
 20
-8.861
 21
-7.872
  0
LINE
  8
0
 10
-8.383
 11
-9.304
 20
-7.872
 21
-6.76
  0
LINE
  8
0
 10
-9.304
 11
-10.078
 20
-6.76
 21
-5.54
  0
LINE
  8
0
 10
-10.078
 11
-10.692
 20
-5.54
 21
-4.233
  0
LINE
  8
0
 10
-10.692
 11
-11.139
 20
-4.233
 21
-2.86
  0
LINE
  8
0
 10
-11.139
 11
-11.409
 20
-2.86
 21
-1.441
  0
LINE
  8
0
 10
-11.409
 11
-11.5
 20
-1.441
 21
0
  0
LINE
  8
0
 10
-3.1
 11
-2.948
 20
0
 21
0.958
  0
LINE
  8
0
 10
-2.948
 11
-2.508
 20
0.958
 21
1.822
  0
LINE
  8
0
 10
-2.508
 11
-2.25
 20
1.822
 21
2.08
  0
LINE
  8
0
 10
-2.25
 11
2.25
 20
2.08
 21
2.08
  0
LINE
  8
0
 10
2.25
 11
2.508
 20
2.08
 21
1.822
  0
LINE
  8
0
 10
2.508
 11
2.948
 20
1.822
 21
0.958
  0
LINE
  8
0
 10
2.948
 11
3.1
 20
0.958
 21
0
  0
LINE
  8
0
 10
3.1
 11
2.948
 20
0
 21
-0.958
  0
LINE
  8
0
 10
2.948
 11
2.508
 20
-0.958
 21
-1.822
  0
LINE
  8
0
 10
2.508
 11
1.822
 20
-1.822
 21
-2.508
  0
LINE
  8
0
 10
1.822
 11
0.958
 20
-2.508
 21
-2.948
  0
LINE
  8
0
 10
0.958
 11
0
 20
-2.948
 21
-3.1
  0
LINE
  8
0
 10
0
 11
-0.958
 20
-3.1
 21
-2.948
  0
LINE
  8
0
 10
-0.958
 11
-1.822
 20
-2.948
 21
-2.508
  0
LINE
  8
0
 10
-1.822
 11
-2.508
 20
-2.508
 21
-1.822
  0
LINE
  8
0
 10
-2.508
 11
-2.948
 20
-1.822
 21
-0.958
  0
LINE
  8
0
 10
-2.948
 11
-3.1
 20
-0.958
 21
0
  0
LINE
  8
0
 10
12
 11
12.075
 20
0
 21
2.386
  0
LINE
  8
0
 10
12.075
 11
12.3
 20
2.386
 21
4.763
  0
LINE
  8
0
 10
12.3
 11
12.673
 20
4.763
 21
7.12
  0
LINE
  8
0
 10
12.673
 11
13.194
 20
7.12
 21
9.45
  0
LINE
  8
0
 10
13.194
 11
13.86
 20
9.45
 21
11.743
  0
LINE
  8
0
 10
13.86
 11
14.668
 20
11.743
 21
13.989
  0
LINE
  8
0
 10
14.668
 11
15.617
 20
13.989
 21
16.18
  0
LINE
  8
0
 10
15.617
 11
16.7
 20
16.18
 21
18.307
  0
LINE
  8
0
 10
16.7
 11
17.916
 20
18.307
 21
20.361
  0
LINE
  8
0
 10
17.916
 11
19.257
 20
20.361
 21
22.336
  0
LINE
  8
0
 10
19.257
 11
20.72
 20
22.336
 21
24.222
  0
LINE
  8
0
 10
20.72
 11
22.299
 20
24.222
 21
26.013
  0
LINE
  8
0
 10
22.299
 11
23.987
 20
26.013
 21
27.701
  0
LINE
  8
0
 10
23.987
 11
25.778
 20
27.701
 21
29.28
  0
LINE
  8
0
 10
25.778
 11
27.664
 20
29.28
 21
30.743
  0
LINE
  8
0
 10
27.664
 11
29.639
 20
30.743
 21
32.084
  0
LINE
  8
0
 10
29.639
 11
31.693
 20
32.084
 21
33.3
  0
LINE
  8
0
 10
31.693
 11
33.82
 20
33.3
 21
34.383
  0
LINE
  8
0
 10
33.82
 11
36.011
 20
34.383
 21
35.332
  0
LINE
  8
0
 10
36.011
 11
38.257
 20
35.332
 21
36.14
  0
LINE
  8
0
 10
38.257
 11
40.55
 20
36.14
 21
36.806
  0
LINE
  8
0
 10
40.55
 11
42.88
 20
36.806
 21
37.327
  0
LINE
  8
0
 10
42.88
 11
45.237
 20
37.327
 21
37.7
  0
LINE
  8
0
 10
45.237
 11
47.614
 20
37.7
 21
37.925
  0
LINE
  8
0
 10
47.614
 11
50
 20
37.925
 21
38
  0
LINE
  8
0
 10
50
 11
52.386
 20
38
 21
37.925
  0
LINE
  8
0
 10
52.386
 11
54.763
 20
37.925
 21
37.7
  0
LINE
  8
0
 10
54.763
 11
57.12
 20
37.7
 21
37.327
  0
LINE
  8
0
 10
57.12
 11
59.45
 20
37.327
 21
36.806
  0
LINE
  8
0
 10
59.45
 11
61.743
 20
36.806
 21
36.14
  0
LINE
  8
0
 10
61.743
 11
63.989
 20
36.14
 21
35.332
  0
LINE
  8
0
 10
63.989
 11
66.18
 20
35.332
 21
34.383
  0
LINE
  8
0
 10
66.18
 11
68.307
 20
34.383
 21
33.3
  0
LINE
  8
0
 10
68.307
 11
70.361
 20
33.3
 21
32.084
  0
LINE
  8
0
 10
70.361
 11
72.336
 20
32.084
 21
30.743
  0
LINE
  8
0
 10
72.336
 11
74.222
 20
30.743
 21
29.28
  0
LINE
  8
0
 10
74.222
 11
76.013
 20
29.28
 21
27.701
  0
LINE
  8
0
 10
76.013
 11
77.701
 20
27.701
 21
26.013
  0
LINE
  8
0
 10
77.701
 11
79.28
 20
26.013
 21
24.222
  0
LINE
  8
0
 10
79.28
 11
80.743
 20
24.222
 21
22.336
  0
LINE
  8
0
 10
80.743
 11
82.084
 20
22.336
 21
20.361
  0
LINE
  8
0
 10
82.084
 11
83.3
 20
20.361
 21
18.307
  0
LINE
  8
0
 10
83.3
 11
84.383
 20
18.307
 21
16.18
  0
LINE
  8
0
 10
84.383
 11
85.332
 20
16.18
 21
13.989
  0
LINE
  8
0
 10
85.332
 11
86.14
 20
13.989
 21
11.743
  0
LINE
  8
0
 10
86.14
 11
86.806
 20
11.743
 21
9.45
  0
LINE
  8
0
 10
86.806
 11
87.327
 20
9.45
 21
7.12
  0
LINE
  8
0
 10
87.327
 11
87.7
 20
7.12
 21
4.763
  0
LINE
  8
0
 10
87.7
 11
87.925
 20
4.763
 21
2.386
  0
LINE
  8
0
 10
87.925
 11
88
 20
2.386
 21
0
  0
LINE
  8
0
 10
88
 11
87.925
 20
0
 21
-2.386
  0
LINE
  8
0
 10
87.925
 11
87.7
 20
-2.386
 21
-4.763
  0
LINE
  8
0
 10
87.7
 11
87.327
 20
-4.763
 21
-7.12
  0
LINE
  8
0
 10
87.327
 11
86.806
 20
-7.12
 21
-9.45
  0
LINE
  8
0
 10
86.806
 11
86.14
 20
-9.45
 21
-11.743
  0
LINE
  8
0
 10
86.14
 11
85.332
 20
-11.743
 21
-13.989
  0
LINE
  8
0
 10
85.332
 11
84.894
 20
-13.989
 21
-15
  0
LINE
  8
0
 10
84.894
 11
66.1
 20
-15
 21
-15
  0
LINE
  8
0
 10
66.1
 11
66.1
 20
-15
 21
0
  0
LINE
  8
0
 10
66.1
 11
66.068
 20
0
 21
1.011
  0
LINE
  8
0
 10
66.068
 11
65.973
 20
1.011
 21
2.018
  0
LINE
  8
0
 10
65.973
 11
65.815
 20
2.018
 21
3.017
  0
LINE
  8
0
 10
65.815
 11
65.594
 20
3.017
 21
4.004
  0
LINE
  8
0
 10
65.594
 11
65.312
 20
4.004
 21
4.975
  0
LINE
  8
0
 10
65.312
 11
64.969
 20
4.975
 21
5.927
  0
LINE
  8
0
 10
64.969
 11
64.568
 20
5.927
 21
6.855
  0
LINE
  8
0
 10
64.568
 11
64.109
 20
6.855
 21
7.756
  0
LINE
  8
0
 10
64.109
 11
63.594
 20
7.756
 21
8.627
  0
LINE
  8
0
 10
63.594
 11
63.025
 20
8.627
 21
9.463
  0
LINE
  8
0
 10
63.025
 11
62.405
 20
9.463
 21
10.263
  0
LINE
  8
0
 10
62.405
 11
61.736
 20
10.263
 21
11.021
  0
LINE
  8
0
 10
61.736
 11
61.021
 20
11.021
 21
11.736
  0
LINE
  8
0
 10
61.021
 11
60.263
 20
11.736
 21
12.405
  0
LINE
  8
0
 10
60.263
 11
59.463
 20
12.405
 21
13.025
  0
LINE
  8
0
 10
59.463
 11
58.627
 20
13.025
 21
13.594
  0
LINE
  8
0
 10
58.627
 11
57.756
 20
13.594
 21
14.109
  0
LINE
  8
0
 10
57.756
 11
56.855
 20
14.109
 21
14.568
  0
LINE
  8
0
 10
56.855
 11
55.927
 20
14.568
 21
14.969
  0
LINE
  8
0
 10
55.927
 11
54.975
 20
14.969
 21
15.312
  0
LINE
  8
0
 10
54.975
 11
54.004
 20
15.312
 21
15.594
  0
LINE
  8
0
 10
54.004
 11
53.017
 20
15.594
 21
15.815
  0
LINE
  8
0
 10
53.017
 11
52.018
 20
15.815
 21
15.973
  0
LINE
  8
0
 10
52.018
 11
51.011
 20
15.973
 21
16.068
  0
LINE
  8
0
 10
51.011
 11
50
 20
16.068
 21
16.1
  0
LINE
  8
0
 10
50
 11
48.989
 20
16.1
 21
16.068
  0
LINE
  8
0
 10
48.989
 11
47.982
 20
16.068
 21
15.973
  0
LINE
  8
0
 10
47.982
 11
46.983
 20
15.973
 21
15.815
  0
LINE
  8
0
 10
46.983
 11
45.996
 20
15.815
 21
15.594
  0
LINE
  8
0
 10
45.996
 11
45.025
 20
15.594
 21
15.312
  0
LINE
  8
0
 10
45.025
 11
44.073
 20
15.312
 21
14.969
  0
LINE
  8
0
 10
44.073
 11
43.145
 20
14.969
 21
14.568
  0
LINE
  8
0
 10
43.145
 11
42.244
 20
14.568
 21
14.109
  0
LINE
  8
0
 10
42.244
 11
41.373
 20
14.109
 21
13.594
  0
LINE
  8
0
 10
41.373
 11
40.537
 20
13.594
 21
13.025
  0
LINE
  8
0
 10
40.537
 11
39.737
 20
13.025
 21
12.405
  0
LINE
  8
0
 10
39.737
 11
38.979
 20
12.405
 21
11.736
  0
LINE
  8
0
 10
38.979
 11
38.264
 20
11.736
 21
11.021
  0
LINE
  8
0
 10
38.264
 11
37.595
 20
11.021
 21
10.263
  0
LINE
  8
0
 10
37.595
 11
36.975
 20
10.263
 21
9.463
  0
LINE
  8
0
 10
36.975
 11
36.406
 20
9.463
 21
8.627
  0
LINE
  8
0
 10
36.406
 11
35.891
 20
8.627
 21
7.756
  0
LINE
  8
0
 10
35.891
 11
35.432
 20
7.756
 21
6.855
  0
LINE
  8
0
 10
35.432
 11
35.031
 20
6.855
 21
5.927
  0
LINE
  8
0
 10
35.031
 11
34.688
 20
5.927
 21
4.975
  0
LINE
  8
0
 10
34.688
 11
34.406
 20
4.975
 21
4.004
  0
LINE
  8
0
 10
34.406
 11
34.185
 20
4.004
 21
3.017
  0
LINE
  8
0
 10
34.185
 11
34.027
 20
3.017
 21
2.018
  0
LINE
  8
0
 10
34.027
 11
33.932
 20
2.018
 21
1.011
  0
LINE
  8
0
 10
33.932
 11
33.9
 20
1.011
 21
0
  0
LINE
  8
0
 10
33.9
 11
33.9
 20
0
 21
-15
  0
LINE
  8
0
 10
33.9
 11
15.106
 20
-15
 21
-15
  0
LINE
  8
0
 10
15.106
 11
14.668
 20
-15
 21
-13.989
  0
LINE
  8
0
 10
14.668
 11
13.86
 20
-13.989
 21
-11.743
  0
LINE
  8
0
 10
13.86
 11
13.194
 20
-11.743
 21
-9.45
  0
LINE
  8
0
 10
13.194
 11
12.673
 20
-9.45
 21
-7.12
  0
LINE
  8
0
 10
12.673
 11
12.3
 20
-7.12
 21
-4.763
  0
LINE
  8
0
 10
12.3
 11
12.075
 20
-4.763
 21
-2.386
  0
LINE
  8
0
 10
12.075
 11
12
 20
-2.386
 21
0
  0
LINE
  8
0
 10
14.063
 11
14.063
 20
-0.256
 21
0.256
  0
LINE
  8
0
 10
14.063
 11
14.17
 20
0.256
 21
0.757
  0
LINE
  8
0
 10
14.17
 11
14.378
 20
0.757
 21
1.225
  0
LINE
  8
0
 10
14.378
 11
14.679
 20
1.225
 21
1.639
  0
LINE
  8
0
 10
14.679
 11
15.06
 20
1.639
 21
1.982
  0
LINE
  8
0
 10
15.06
 11
15.503
 20
1.982
 21
2.238
  0
LINE
  8
0
 10
15.503
 11
15.991
 20
2.238
 21
2.396
  0
LINE
  8
0
 10
15.991
 11
16.5
 20
2.396
 21
2.45
  0
LINE
  8
0
 10
16.5
 11
17.009
 20
2.45
 21
2.396
  0
LINE
  8
0
 10
17.009
 11
17.497
 20
2.396
 21
2.238
  0
LINE
  8
0
 10
17.497
 11
17.94
 20
2.238
 21
1.982
  0
LINE
  8
0
 10
17.94
 11
18.321
 20
1.982
 21
1.639
  0
LINE
  8
0
 10
18.321
 11
18.622
 20
1.639
 21
1.225
  0
LINE
  8
0
 10
18.622
 11
18.83
 20
1.225
 21
0.757
  0
LINE
  8
0
 10
18.83
 11
18.937
 20
0.757
 21
0.256
  0
LINE
  8
0
 10
18.937
 11
18.937
 20
0.256
 21
-0.256
  0
LINE
  8
0
 10
18.937
 11
18.83
 20
-0.256
 21
-0.757
  0
LINE
  8
0
 10
18.83
 11
18.622
 20
-0.757
 21
-1.225
  0
LINE
  8
0
 10
18.622
 11
18.321
 20
-1.225
 21
-1.639
  0
LINE
  8
0
 10
18.321
 11
17.94
 20
-1.639
 21
-1.982
  0
LINE
  8
0
 10
17.94
 11
17.497
 20
-1.982
 21
-2.238
  0
LINE
  8
0
 10
17.497
 11
17.009
 20
-2.238
 21
-2.396
  0
LINE
  8
0
 10
17.009
 11
16.5
 20
-2.396
 21
-2.45
  0
LINE
  8
0
 10
16.5
 11
15.991
 20
-2.45
 21
-2.396
  0
LINE
  8
0
 10
15.991
 11
15.503
 20
-2.396
 21
-2.238
  0
LINE
  8
0
 10
15.503
 11
15.06
 20
-2.238
 21
-1.982
  0
LINE
  8
0
 10
15.06
 11
14.679
 20
-1.982
 21
-1.639
  0
LINE
  8
0
 10
14.679
 11
14.378
 20
-1.639
 21
-1.225
  0
LINE
  8
0
 10
14.378
 11
14.17
 20
-1.225
 21
-0.757
  0
LINE
  8
0
 10
14.17
 11
14.063
 20
-0.757
 21
-0.256
  0
LINE
  8
0
 10
47.55
 11
47.604
 20
33.5
 21
34.009
  0
LINE
  8
0
 10
47.604
 11
47.762
 20
34.009
 21
34.497
  0
LINE
  8
0
 10
47.762
 11
48.018
 20
34.497
 21
34.94
  0
LINE
  8
0
 10
48.018
 11
48.361
 20
34.94
 21
35.321
  0
LINE
  8
0
 10
48.361
 11
48.775
 20
35.321
 21
35.622
  0
LINE
  8
0
 10
48.775
 11
49.243
 20
35.622
 21
35.83
  0
LINE
  8
0
 10
49.243
 11
49.744
 20
35.83
 21
35.937
  0
LINE
  8
0
 10
49.744
 11
50.256
 20
35.937
 21
35.937
  0
LINE
  8
0
 10
50.256
 11
50.757
 20
35.937
 21
35.83
  0
LINE
  8
0
 10
50.757
 11
51.225
 20
35.83
 21
35.622
  0
LINE
  8
0
 10
51.225
 11
51.639
 20
35.622
 21
35.321
  0
LINE
  8
0
 10
51.639
 11
51.982
 20
35.321
 21
34.94
  0
LINE
  8
0
 10
51.982
 11
52.238
 20
34.94
 21
34.497
  0
LINE
  8
0
 10
52.238
 11
52.396
 20
34.497
 21
34.009
  0
LINE
  8
0
 10
52.396
 11
52.45
 20
34.009
 21
33.5
  0
LINE
  8
0
 10
52.45
 11
52.396
 20
33.5
 21
32.991
  0
LINE
  8
0
 10
52.396
 11
52.238
 20
32.991
 21
32.503
  0
LINE
  8
0
 10
52.238
 11
51.982
 20
32.503
 21
32.06
  0
LINE
  8
0
 10
51.982
 11
51.639
 20
32.06
 21
31.679
  0
LINE
  8
0
 10
51.639
 11
51.225
 20
31.679
 21
31.378
  0
LINE
  8
0
 10
51.225
 11
50.757
 20
31.378
 21
31.17
  0
LINE
  8
0
 10
50.757
 11
50.256
 20
31.17
 21
31.063
  0
LINE
  8
0
 10
50.256
 11
49.744
 20
31.063
 21
31.063
  0
LINE
  8
0
 10
49.744
 11
49.243
 20
31.063
 21
31.17
  0
LINE
  8
0
 10
49.243
 11
48.775
 20
31.17
 21
31.378
  0
LINE
  8
0
 10
48.775
 11
48.361
 20
31.378
 21
31.679
  0
LINE
  8
0
 10
48.361
 11
48.018
 20
31.679
 21
32.06
  0
LINE
  8
0
 10
48.018
 11
47.762
 20
32.06
 21
32.503
  0
LINE
  8
0
 10
47.762
 11
47.604
 20
32.503
 21
32.991
  0
LINE
  8
0
 10
47.604
 11
47.55
 20
32.991
 21
33.5
  0
LINE
  8
0
 10
81.063
 11
81.063
 20
-0.256
 21
0.256
  0
LINE
  8
0
 10
81.063
 11
81.17
 20
0.256
 21
0.757
  0
LINE
  8
0
 10
81.17
 11
81.378
 20
0.757
 21
1.225
  0
LINE
  8
0
 10
81.378
 11
81.679
 20
1.225
 21
1.639
  0
LINE
  8
0
 10
81.679
 11
82.06
 20
1.639
 21
1.982
  0
LINE
  8
0
 10
82.06
 11
82.503
 20
1.982
 21
2.238
  0
LINE
  8
0
 10
82.503
 11
82.991
 20
2.238
 21
2.396
  0
LINE
  8
0
 10
82.991
 11
83.5
 20
2.396
 21
2.45
  0
LINE
  8
0
 10
83.5
 11
84.009
 20
2.45
 21
2.396
  0
LINE
  8
0
 10
84.009
 11
84.497
 20
2.396
 21
2.238
  0
LINE
  8
0
 10
84.497
 11
84.94
 20
2.238
 21
1.982
  0
LINE
  8
0
 10
84.94
 11
85.321
 20
1.982
 21
1.639
  0
LINE
  8
0
 10
85.321
 11
85.622
 20
1.639
 21
1.225
  0
LINE
  8
0
 10
85.622
 11
85.83
 20
1.225
 21
0.757
  0
LINE
  8
0
 10
85.83
 11
85.937
 20
0.757
 21
0.256
  0
LINE
  8
0
 10
85.937
 11
85.937
 20
0.256
 21
-0.256
  0
LINE
  8
0
 10
85.937
 11
85.83
 20
-0.256
 21
-0.757
  0
LINE
  8
0
 10
85.83
 11
85.622
 20
-0.757
 21
-1.225
  0
LINE
  8
0
 10
85.622
 11
85.321
 20
-1.225
 21
-1.639
  0
LINE
  8
0
 10
85.321
 11
84.94
 20
-1.639
 21
-1.982
  0
LINE
  8
0
 10
84.94
 11
84.497
 20
-1.982
 21
-2.238
  0
LINE
  8
0
 10
84.497
 11
84.009
 20
-2.238
 21
-2.396
  0
LINE
  8
0
 10
84.009
 11
83.5
 20
-2.396
 21
-2.45
  0
LINE
  8
0
 10
83.5
 11
82.991
 20
-2.45
 21
-2.396
  0
LINE
  8
0
 10
82.991
 11
82.503
 20
-2.396
 21
-2.238
  0
LINE
  8
0
 10
82.503
 11
82.06
 20
-2.238
 21
-1.982
  0
LINE
  8
0
 10
82.06
 11
81.679
 20
-1.982
 21
-1.639
  0
LINE
  8
0
 10
81.679
 11
81.378
 20
-1.639
 21
-1.225
  0
LINE
  8
0
 10
81.378
 11
81.17
 20
-1.225
 21
-0.757
  0
LINE
  8
0
 10
81.17
 11
81.063
 20
-0.757
 21
-0.256
  0
LINE
  8
0
 10
92
 11
92.075
 20
0
 21
2.386
  0
LINE
  8
0
 10
92.075
 11
92.3
 20
2.386
 21
4.763
  0
LINE
  8
0
 10
92.3
 11
92.673
 20
4.763
 21
7.12
  0
LINE
  8
0
 10
92.673
 11
93.194
 20
7.12
 21
9.45
  0
LINE
  8
0
 10
93.194
 11
93.86
 20
9.45
 21
11.743
  0
LINE
  8
0
 10
93.86
 11
94.668
 20
11.743
 21
13.989
  0
LINE
  8
0
 10
94.668
 11
95.617
 20
13.989
 21
16.18
  0
LINE
  8
0
 10
95.617
 11
96.7
 20
16.18
 21
18.307
  0
LINE
  8
0
 10
96.7
 11
97.916
 20
18.307
 21
20.361
  0
LINE
  8
0
 10
97.916
 11
99.257
 20
20.361
 21
22.336
  0
LINE
  8
0
 10
99.257
 11
100.72
 20
22.336
 21
24.222
  0
LINE
  8
0
 10
100.72
 11
102.299
 20
24.222
 21
26.013
  0
LINE
  8
0
 10
102.299
 11
103.987
 20
26.013
 21
27.701
  0
LINE
  8
0
 10
103.987
 11
105.778
 20
27.701
 21
29.28
  0
LINE
  8
0
 10
105.778
 11
107.664
 20
29.28
 21
30.743
  0
LINE
  8
0
 10
107.664
 11
109.639
 20
30.743
 21
32.084
  0
LINE
  8
0
 10
109.639
 11
111.693
 20
32.084
 21
33.3
  0
LINE
  8
0
 10
111.693
 11
113.82
 20
33.3
 21
34.383
  0
LINE
  8
0
 10
113.82
 11
116.011
 20
34.383
 21
35.332
  0
LINE
  8
0
 10
116.011
 11
118.257
 20
35.332
 21
36.14
  0
LINE
  8
0
 10
118.257
 11
120.55
 20
36.14
 21
36.806
  0
LINE
  8
0
 10
120.55
 11
122.88
 20
36.806
 21
37.327
  0
LINE
  8
0
 10
122.88
 11
125.237
 20
37.327
 21
37.7
  0
LINE
  8
0
 10
125.237
 11
127.614
 20
37.7
 21
37.925
  0
LINE
  8
0
 10
127.614
 11
130
 20
37.925
 21
38
  0
LINE
  8
0
 10
130
 11
132.386
 20
38
 21
37.925
  0
LINE
  8
0
 10
132.386
 11
134.763
 20
37.925
 21
37.7
  0
LINE
  8
0
 10
134.763
 11
137.12
 20
37.7
 21
37.327
  0
LINE
  8
0
 10
137.12
 11
139.45
 20
37.327
 21
36.806
  0
LINE
  8
0
 10
139.45
 11
141.743
 20
36.806
 21
36.14
  0
LINE
  8
0
 10
141.743
 11
143.989
 20
36.14
 21
35.332
  0
LINE
  8
0
 10
143.989
 11
146.18
 20
35.332
 21
34.383
  0
LINE
  8
0
 10
146.18
 11
148.307
 20
34.383
 21
33.3
  0
LINE
  8
0
 10
148.307
 11
150.361
 20
33.3
 21
32.084
  0
LINE
  8
0
 10
150.361
 11
152.336
 20
32.084
 21
30.743
  0
LINE
  8
0
 10
152.336
 11
154.222
 20
30.743
 21
29.28
  0
LINE
  8
0
 10
154.222
 11
156.013
 20
29.28
 21
27.701
  0
LINE
  8
0
 10
156.013
 11
157.701
 20
27.701
 21
26.013
  0
LINE
  8
0
 10
157.701
 11
159.28
 20
26.013
 21
24.222
  0
LINE
  8
0
 10
159.28
 11
160.743
 20
24.222
 21
22.336
  0
LINE
  8
0
 10
160.743
 11
162.084
 20
22.336
 21
20.361
  0
LINE
  8
0
 10
162.084
 11
163.3
 20
20.361
 21
18.307
  0
LINE
  8
0
 10
163.3
 11
164.383
 20
18.307
 21
16.18
  0
LINE
  8
0
 10
164.383
 11
165.332
 20
16.18
 21
13.989
  0
LINE
  8
0
 10
165.332
 11
166.14
 20
13.989
 21
11.743
  0
LINE
  8
0
 10
166.14
 11
166.806
 20
11.743
 21
9.45
  0
LINE
  8
0
 10
166.806
 11
167.327
 20
9.45
 21
7.12
  0
LINE
  8
0
 10
167.327
 11
167.7
 20
7.12
 21
4.763
  0
LINE
  8
0
 10
167.7
 11
167.925
 20
4.763
 21
2.386
  0
LINE
  8
0
 10
167.925
 11
168
 20
2.386
 21
0
  0
LINE
  8
0
 10
168
 11
167.925
 20
0
 21
-2.386
  0
LINE
  8
0
 10
167.925
 11
167.7
 20
-2.386
 21
-4.763
  0
LINE
  8
0
 10
167.7
 11
167.327
 20
-4.763
 21
-7.12
  0
LINE
  8
0
 10
167.327
 11
166.806
 20
-7.12
 21
-9.45
  0
LINE
  8
0
 10
166.806
 11
166.14
 20
-9.45
 21
-11.743
  0
LINE
  8
0
 10
166.14
 11
165.332
 20
-11.743
 21
-13.989
  0
LINE
  8
0
 10
165.332
 11
164.894
 20
-13.989
 21
-15
  0
LINE
  8
0
 10
164.894
 11
95.106
 20
-15
 21
-15
  0
LINE
  8
0
 10
95.106
 11
94.668
 20
-15
 21
-13.989
  0
LINE
  8
0
 10
94.668
 11
93.86
 20
-13.989
 21
-11.743
  0
LINE
  8
0
 10
93.86
 11
93.194
 20
-11.743
 21
-9.45
  0
LINE
  8
0
 10
93.194
 11
92.673
 20
-9.45
 21
-7.12
  0
LINE
  8
0
 10
92.673
 11
92.3
 20
-7.12
 21
-4.763
  0
LINE
  8
0
 10
92.3
 11
92.075
 20
-4.763
 21
-2.386
  0
LINE
  8
0
 10
92.075
 11
92
 20
-2.386
 21
0
  0
LINE
  8
0
 10
94.063
 11
94.063
 20
-0.256
 21
0.256
  0
LINE
  8
0
 10
94.063
 11
94.17
 20
0.256
 21
0.757
  0
LINE
  8
0
 10
94.17
 11
94.378
 20
0.757
 21
1.225
  0
LINE
  8
0
 10
94.378
 11
94.679
 20
1.225
 21
1.639
  0
LINE
  8
0
 10
94.679
 11
95.06
 20
1.639
 21
1.982
  0
LINE
  8
0
 10
95.06
 11
95.503
 20
1.982
 21
2.238
  0
LINE
  8
0
 10
95.503
 11
95.991
 20
2.238
 21
2.396
  0
LINE
  8
0
 10
95.991
 11
96.5
 20
2.396
 21
2.45
  0
LINE
  8
0
 10
96.5
 11
97.009
 20
2.45
 21
2.396
  0
LINE
  8
0
 10
97.009
 11
97.497
 20
2.396
 21
2.238
  0
LINE
  8
0
 10
97.497
 11
97.94
 20
2.238
 21
1.982
  0
LINE
  8
0
 10
97.94
 11
98.321
 20
1.982
 21
1.639
  0
LINE
  8
0
 10
98.321
 11
98.622
 20
1.639
 21
1.225
  0
LINE
  8
0
 10
98.622
 11
98.83
 20
1.225
 21
0.757
  0
LINE
  8
0
 10
98.83
 11
98.937
 20
0.757
 21
0.256
  0
LINE
  8
0
 10
98.937
 11
98.937
 20
0.256
 21
-0.256
  0
LINE
  8
0
 10
98.937
 11
98.83
 20
-0.256
 21
-0.757
  0
LINE
  8
0
 10
98.83
 11
98.622
 20
-0.757
 21
-1.225
  0
LINE
  8
0
 10
98.622
 11
98.321
 20
-1.225
 21
-1.639
  0
LINE
  8
0
 10
98.321
 11
97.94
 20
-1.639
 21
-1.982
  0
LINE
  8
0
 10
97.94
 11
97.497
 20
-1.982
 21
-2.238
  0
LINE
  8
0
 10
97.497
 11
97.009
 20
-2.238
 21
-2.396
  0
LINE
  8
0
 10
97.009
 11
96.5
 20
-2.396
 21
-2.45
  0
LINE
  8
0
 10
96.5
 11
95.991
 20
-2.45
 21
-2.396
  0
LINE
  8
0
 10
95.991
 11
95.503
 20
-2.396
 21
-2.238
  0
LINE
  8
0
 10
95.503
 11
95.06
 20
-2.238
 21
-1.982
  0
LINE
  8
0
 10
95.06
 11
94.679
 20
-1.982
 21
-1.639
  0
LINE
  8
0
 10
94.679
 11
94.378
 20
-1.639
 21
-1.225
  0
LINE
  8
0
 10
94.378
 11
94.17
 20
-1.225
 21
-0.757
  0
LINE
  8
0
 10
94.17
 11
94.063
 20
-0.757
 21
-0.256
  0
LINE
  8
0
 10
115.15
 11
115.179
 20
0
 21
0.932
  0
LINE
  8
0
 10
115.179
 11
115.267
 20
0.932
 21
1.861
  0
LINE
  8
0
 10
115.267
 11
115.413
 20
1.861
 21
2.783
  0
LINE
  8
0
 10
115.413
 11
115.617
 20
2.783
 21
3.693
  0
LINE
  8
0
 10
115.617
 11
115.877
 20
3.693
 21
4.589
  0
LINE
  8
0
 10
115.877
 11
116.193
 20
4.589
 21
5.467
  0
LINE
  8
0
 10
116.193
 11
116.563
 20
5.467
 21
6.323
  0
LINE
  8
0
 10
116.563
 11
116.987
 20
6.323
 21
7.154
  0
LINE
  8
0
 10
116.987
 11
117.462
 20
7.154
 21
7.957
  0
LINE
  8
0
 10
117.462
 11
117.986
 20
7.957
 21
8.729
  0
LINE
  8
0
 10
117.986
 11
118.558
 20
8.729
 21
9.466
  0
LINE
  8
0
 10
118.558
 11
119.175
 20
9.466
 21
10.166
  0
LINE
  8
0
 10
119.175
 11
119.834
 20
10.166
 21
10.825
  0
LINE
  8
0
 10
119.834
 11
120.534
 20
10.825
 21
11.442
  0
LINE
  8
0
 10
120.534
 11
121.271
 20
11.442
 21
12.014
  0
LINE
  8
0
 10
121.271
 11
122.043
 20
12.014
 21
12.538
  0
LINE
  8
0
 10
122.043
 11
122.846
 20
12.538
 21
13.013
  0
LINE
  8
0
 10
122.846
 11
123.677
 20
13.013
 21
13.437
  0
LINE
  8
0
 10
123.677
 11
124.533
 20
13.437
 21
13.807
  0
LINE
  8
0
 10
124.533
 11
125.411
 20
13.807
 21
14.123
  0
LINE
  8
0
 10
125.411
 11
126.307
 20
14.123
 21
14.383
  0
LINE
  8
0
 10
126.307
 11
127.217
 20
14.383
 21
14.587
  0
LINE
  8
0
 10
127.217
 11
128.139
 20
14.587
 21
14.733
  0
LINE
  8
0
 10
128.139
 11
129.068
 20
14.733
 21
14.821
  0
LINE
  8
0
 10
129.068
 11
130
 20
14.821
 21
14.85
  0
LINE
  8
0
 10
130
 11
130.932
 20
14.85
 21
14.821
  0
LINE
  8
0
 10
130.932
 11
131.861
 20
14.821
 21
14.733
  0
LINE
  8
0
 10
131.861
 11
132.783
 20
14.733
 21
14.587
  0
LINE
  8
0
 10
132.783
 11
133.693
 20
14.587
 21
14.383
  0
LINE
  8
0
 10
133.693
 11
134.589
 20
14.383
 21
14.123
  0
LINE
  8
0
 10
134.589
 11
135.467
 20
14.123
 21
13.807
  0
LINE
  8
0
 10
135.467
 11
136.323
 20
13.807
 21
13.437
  0
LINE
  8
0
 10
136.323
 11
137.154
 20
13.437
 21
13.013
  0
LINE
  8
0
 10
137.154
 11
137.957
 20
13.013
 21
12.538
  0
LINE
  8
0
 10
137.957
 11
138.729
 20
12.538
 21
12.014
  0
LINE
  8
0
 10
138.729
 11
139.466
 20
12.014
 21
11.442
  0
LINE
  8
0
 10
139.466
 11
140.166
 20
11.442
 21
10.825
  0
LINE
  8
0
 10
140.166
 11
140.825
 20
10.825
 21
10.166
  0
LINE
  8
0
 10
140.825
 11
141.442
 20
10.166
 21
9.466
  0
LINE
  8
0
 10
141.442
 11
142.014
 20
9.466
 21
8.729
  0
LINE
  8
0
 10
142.014
 11
142.538
 20
8.729
 21
7.957
  0
LINE
  8
0
 10
142.538
 11
143.013
 20
7.957
 21
7.154
  0
LINE
  8
0
 10
143.013
 11
143.437
 20
7.154
 21
6.323
  0
LINE
  8
0
 10
143.437
 11
143.807
 20
6.323
 21
5.467
  0
LINE
  8
0
 10
143.807
 11
144.123
 20
5.467
 21
4.589
  0
LINE
  8
0
 10
144.123
 11
144.383
 20
4.589
 21
3.693
  0
LINE
  8
0
 10
144.383
 11
144.587
 20
3.693
 21
2.783
  0
LINE
  8
0
 10
144.587
 11
144.733
 20
2.783
 21
1.861
  0
LINE
  8
0
 10
144.733
 11
144.821
 20
1.861
 21
0.932
  0
LINE
  8
0
 10
144.821
 11
144.85
 20
0.932
 21
0
  0
LINE
  8
0
 10
144.85
 11
144.821
 20
0
 21
-0.932
  0
LINE
  8
0
 10
144.821
 11
144.733
 20
-0.932
 21
-1.861
  0
LINE
  8
0
 10
144.733
 11
144.587
 20
-1.861
 21
-2.783
  0
LINE
  8
0
 10
144.587
 11
144.383
 20
-2.783
 21
-3.693
  0
LINE
  8
0
 10
144.383
 11
144.123
 20
-3.693
 21
-4.589
  0
LINE
  8
0
 10
144.123
 11
143.807
 20
-4.589
 21
-5.467
  0
LINE
  8
0
 10
143.807
 11
143.437
 20
-5.467
 21
-6.323
  0
LINE
  8
0
 10
143.437
 11
143.013
 20
-6.323
 21
-7.154
  0
LINE
  8
0
 10
143.013
 11
142.538
 20
-7.154
 21
-7.957
  0
LINE
  8
0
 10
142.538
 11
142.014
 20
-7.957
 21
-8.729
  0
LINE
  8
0
 10
142.014
 11
141.442
 20
-8.729
 21
-9.466
  0
LINE
  8
0
 10
141.442
 11
140.825
 20
-9.466
 21
-10.166
  0
LINE
  8
0
 10
140.825
 11
140.166
 20
-10.166
 21
-10.825
  0
LINE
  8
0
 10
140.166
 11
139.466
 20
-10.825
 21
-11.442
  0
LINE
  8
0
 10
139.466
 11
138.729
 20
-11.442
 21
-12.014
  0
LINE
  8
0
 10
138.729
 11
137.957
 20
-12.014
 21
-12.538
  0
LINE
  8
0
 10
137.957
 11
137.154
 20
-12.538
 21
-13.013
  0
LINE
  8
0
 10
137.154
 11
136.323
 20
-13.013
 21
-13.437
  0
LINE
  8
0
 10
136.323
 11
135.467
 20
-13.437
 21
-13.807
  0
LINE
  8
0
 10
135.467
 11
134.589
 20
-13.807
 21
-14.123
  0
LINE
  8
0
 10
134.589
 11
133.693
 20
-14.123
 21
-14.383
  0
LINE
  8
0
 10
133.693
 11
132.783
 20
-14.383
 21
-14.587
  0
LINE
  8
0
 10
132.783
 11
131.861
 20
-14.587
 21
-14.733
  0
LINE
  8
0
 10
131.861
 11
130.932
 20
-14.733
 21
-14.821
  0
LINE
  8
0
 10
130.932
 11
130
 20
-14.821
 21
-14.85
  0
LINE
  8
0
 10
130
 11
129.068
 20
-14.85
 21
-14.821
  0
LINE
  8
0
 10
129.068
 11
128.139
 20
-14.821
 21
-14.733
  0
LINE
  8
0
 10
128.139
 11
127.217
 20
-14.733
 21
-14.587
  0
LINE
  8
0
 10
127.217
 11
126.307
 20
-14.587
 21
-14.383
  0
LINE
  8
0
 10
126.307
 11
125.411
 20
-14.383
 21
-14.123
  0
LINE
  8
0
 10
125.411
 11
124.533
 20
-14.123
 21
-13.807
  0
LINE
  8
0
 10
124.533
 11
123.677
 20
-13.807
 21
-13.437
  0
LINE
  8
0
 10
123.677
 11
122.846
 20
-13.437
 21
-13.013
  0
LINE
  8
0
 10
122.846
 11
122.043
 20
-13.013
 21
-12.538
  0
LINE
  8
0
 10
122.043
 11
121.271
 20
-12.538
 21
-12.014
  0
LINE
  8
0
 10
121.271
 11
120.534
 20
-12.014
 21
-11.442
  0
LINE
  8
0
 10
120.534
 11
119.834
 20
-11.442
 21
-10.825
  0
LINE
  8
0
 10
119.834
 11
119.175
 20
-10.825
 21
-10.166
  0
LINE
  8
0
 10
119.175
 11
118.558
 20
-10.166
 21
-9.466
  0
LINE
  8
0
 10
118.558
 11
117.986
 20
-9.466
 21
-8.729
  0
LINE
  8
0
 10
117.986
 11
117.462
 20
-8.729
 21
-7.957
  0
LINE
  8
0
 10
117.462
 11
116.987
 20
-7.957
 21
-7.154
  0
LINE
  8
0
 10
116.987
 11
116.563
 20
-7.154
 21
-6.323
  0
LINE
  8
0
 10
116.563
 11
116.193
 20
-6.323
 21
-5.467
  0
LINE
  8
0
 10
116.193
 11
115.877
 20
-5.467
 21
-4.589
  0
LINE
  8
0
 10
115.877
 11
115.617
 20
-4.589
 21
-3.693
  0
LINE
  8
0
 10
115.617
 11
115.413
 20
-3.693
 21
-2.783
  0
LINE
  8
0
 10
115.413
 11
115.267
 20
-2.783
 21
-1.861
  0
LINE
  8
0
 10
115.267
 11
115.179
 20
-1.861
 21
-0.932
  0
LINE
  8
0
 10
115.179
 11
115.15
 20
-0.932
 21
0
  0
LINE
  8
0
 10
127.55
 11
127.604
 20
33.5
 21
34.009
  0
LINE
  8
0
 10
127.604
 11
127.762
 20
34.009
 21
34.497
  0
LINE
  8
0
 10
127.762
 11
128.018
 20
34.497
 21
34.94
  0
LINE
  8
0
 10
128.018
 11
128.361
 20
34.94
 21
35.321
  0
LINE
  8
0
 10
128.361
 11
128.775
 20
35.321
 21
35.622
  0
LINE
  8
0
 10
128.775
 11
129.243
 20
35.622
 21
35.83
  0
LINE
  8
0
 10
129.243
 11
129.744
 20
35.83
 21
35.937
  0
LINE
  8
0
 10
129.744
 11
130.256
 20
35.937
 21
35.937
  0
LINE
  8
0
 10
130.256
 11
130.757
 20
35.937
 21
35.83
  0
LINE
  8
0
 10
130.757
 11
131.225
 20
35.83
 21
35.622
  0
LINE
  8
0
 10
131.225
 11
131.639
 20
35.622
 21
35.321
  0
LINE
  8
0
 10
131.639
 11
131.982
 20
35.321
 21
34.94
  0
LINE
  8
0
 10
131.982
 11
132.238
 20
34.94
 21
34.497
  0
LINE
  8
0
 10
132.238
 11
132.396
 20
34.497
 21
34.009
  0
LINE
  8
0
 10
132.396
 11
132.45
 20
34.009
 21
33.5
  0
LINE
  8
0
 10
132.45
 11
132.396
 20
33.5
 21
32.991
  0
LINE
  8
0
 10
132.396
 11
132.238
 20
32.991
 21
32.503
  0
LINE
  8
0
 10
132.238
 11
131.982
 20
32.503
 21
32.06
  0
LINE
  8
0
 10
131.982
 11
131.639
 20
32.06
 21
31.679
  0
LINE
  8
0
 10
131.639
 11
131.225
 20
31.679
 21
31.378
  0
LINE
  8
0
 10
131.225
 11
130.757
 20
31.378
 21
31.17
  0
LINE
  8
0
 10
130.757
 11
130.256
 20
31.17
 21
31.063
  0
LINE
  8
0
 10
130.256
 11
129.744
 20
31.063
 21
31.063
  0
LINE
  8
0
 10
129.744
 11
129.243
 20
31.063
 21
31.17
  0
LINE
  8
0
 10
129.243
 11
128.775
 20
31.17
 21
31.378
  0
LINE
  8
0
 10
128.775
 11
128.361
 20
31.378
 21
31.679
  0
LINE
  8
0
 10
128.361
 11
128.018
 20
31.679
 21
32.06
  0
LINE
  8
0
 10
128.018
 11
127.762
 20
32.06
 21
32.503
  0
LINE
  8
0
 10
127.762
 11
127.604
 20
32.503
 21
32.991
  0
LINE
  8
0
 10
127.604
 11
127.55
 20
32.991
 21
33.5
  0
LINE
  8
0
 10
161.063
 11
161.063
 20
-0.256
 21
0.256
  0
LINE
  8
0
 10
161.063
 11
161.17
 20
0.256
 21
0.757
  0
LINE
  8
0
 10
161.17
 11
161.378
 20
0.757
 21
1.225
  0
LINE
  8
0
 10
161.378
 11
161.679
 20
1.225
 21
1.639
  0
LINE
  8
0
 10
161.679
 11
162.06
 20
1.639
 21
1.982
  0
LINE
  8
0
 10
162.06
 11
162.503
 20
1.982
 21
2.238
  0
LINE
  8
0
 10
162.503
 11
162.991
 20
2.238
 21
2.396
  0
LINE
  8
0
 10
162.991
 11
163.5
 20
2.396
 21
2.45
  0
LINE
  8
0
 10
163.5
 11
164.009
 20
2.45
 21
2.396
  0
LINE
  8
0
 10
164.009
 11
164.497
 20
2.396
 21
2.238
  0
LINE
  8
0
 10
164.497
 11
164.94
 20
2.238
 21
1.982
  0
LINE
  8
0
 10
164.94
 11
165.321
 20
1.982
 21
1.639
  0
LINE
  8
0
 10
165.321
 11
165.622
 20
1.639
 21
1.225
  0
LINE
  8
0
 10
165.622
 11
165.83
 20
1.225
 21
0.757
  0
LINE
  8
0
 10
165.83
 11
165.937
 20
0.757
 21
0.256
  0
LINE
  8
0
 10
165.937
 11
165.937
 20
0.256
 21
-0.256
  0
LINE
  8
0
 10
165.937
 11
165.83
 20
-0.256
 21
-0.757
  0
LINE
  8
0
 10
165.83
 11
165.622
 20
-0.757
 21
-1.225
  0
LINE
  8
0
 10
165.622
 11
165.321
 20
-1.225
 21
-1.639
  0
LINE
  8
0
 10
165.321
 11
164.94
 20
-1.639
 21
-1.982
  0
LINE
  8
0
 10
164.94
 11
164.497
 20
-1.982
 21
-2.238
  0
LINE
  8
0
 10
164.497
 11
164.009
 20
-2.238
 21
-2.396
  0
LINE
  8
0
 10
164.009
 11
163.5
 20
-2.396
 21
-2.45
  0
LINE
  8
0
 10
163.5
 11
162.991
 20
-2.45
 21
-2.396
  0
LINE
  8
0
 10
162.991
 11
162.503
 20
-2.396
 21
-2.238
  0
LINE
  8
0
 10
162.503
 11
162.06
 20
-2.238
 21
-1.982
  0
LINE
  8
0
 10
162.06
 11
161.679
 20
-1.982
 21
-1.639
  0
LINE
  8
0
 10
161.679
 11
161.378
 20
-1.639
 21
-1.225
  0
LINE
  8
0
 10
161.378
 11
161.17
 20
-1.225
 21
-0.757
  0
LINE
  8
0
 10
161.17
 11
161.063
 20
-0.757
 21
-0.256
  0
ENDSEC
  0
SECTION
  2
OBJECTS
  0
DICTIONARY
  0
ENDSEC
  0
EOF
