  0
SECTION
  2
BLOCKS
  0
ENDSEC
  0
SECTION
  2
ENTITIES
  0
LINE
  8
0
 10
-60.25
 11
-59.807
 20
0
 21
4.21
  0
LINE
  8
0
 10
-59.807
 11
-58.499
 20
4.21
 21
8.236
  0
LINE
  8
0
 10
-58.499
 11
-58.2
 20
8.236
 21
8.754
  0
LINE
  8
0
 10
-58.2
 11
-58.2
 20
8.754
 21
18.2
  0
LINE
  8
0
 10
-58.2
 11
-48.636
 20
18.2
 21
18.2
  0
LINE
  8
0
 10
-48.636
 11
-46.258
 20
18.2
 21
19.259
  0
LINE
  8
0
 10
-46.258
 11
-42.117
 20
19.259
 21
20.139
  0
LINE
  8
0
 10
-42.117
 11
-37.883
 20
20.139
 21
20.139
  0
LINE
  8
0
 10
-37.883
 11
-33.742
 20
20.139
 21
19.259
  0
LINE
  8
0
 10
-33.742
 11
-31.364
 20
19.259
 21
18.2
  0
LINE
  8
0
 10
-31.364
 11
-21.8
 20
18.2
 21
18.2
  0
LINE
  8
0
 10
-21.8
 11
-21.8
 20
18.2
 21
8.754
  0
LINE
  8
0
 10
-21.8
 11
-21.501
 20
8.754
 21
8.236
  0
LINE
  8
0
 10
-21.501
 11
-20.193
 20
8.236
 21
4.21
  0
LINE
  8
0
 10
-20.193
 11
-19.75
 20
4.21
 21
0
  0
LINE
  8
0
 10
-19.75
 11
-21.8
 20
0
 21
0
  0
LINE
  8
0
 10
-21.8
 11
-21.8
 20
0
 21
-18.2
  0
LINE
  8
0
 10
-21.8
 11
-58.2
 20
-18.2
 21
-18.2
  0
LINE
  8
0
 10
-58.2
 11
-58.2
 20
-18.2
 21
0
  0
LINE
  8
0
 10
-58.2
 11
-60.25
 20
0
 21
0
  0
LINE
  8
0
 10
-58.418
 11
-58.396
 20
4.295
 21
4.713
  0
LINE
  8
0
 10
-58.396
 11
-58.288
 20
4.713
 21
5.117
  0
LINE
  8
0
 10
-58.288
 11
-58.098
 20
5.117
 21
5.489
  0
LINE
  8
0
 10
-58.098
 11
-57.835
 20
5.489
 21
5.814
  0
LINE
  8
0
 10
-57.835
 11
-57.51
 20
5.814
 21
6.077
  0
LINE
  8
0
 10
-57.51
 11
-57.138
 20
6.077
 21
6.267
  0
LINE
  8
0
 10
-57.138
 11
-56.733
 20
6.267
 21
6.375
  0
LINE
  8
0
 10
-56.733
 11
-56.316
 20
6.375
 21
6.397
  0
LINE
  8
0
 10
-56.316
 11
-55.903
 20
6.397
 21
6.332
  0
LINE
  8
0
 10
-55.903
 11
-55.513
 20
6.332
 21
6.182
  0
LINE
  8
0
 10
-55.513
 11
-55.163
 20
6.182
 21
5.954
  0
LINE
  8
0
 10
-55.163
 11
-54.866
 20
5.954
 21
5.658
  0
LINE
  8
0
 10
-54.866
 11
-54.639
 20
5.658
 21
5.308
  0
LINE
  8
0
 10
-54.639
 11
-54.489
 20
5.308
 21
4.918
  0
LINE
  8
0
 10
-54.489
 11
-54.424
 20
4.918
 21
4.505
  0
LINE
  8
0
 10
-54.424
 11
-54.445
 20
4.505
 21
4.087
  0
LINE
  8
0
 10
-54.445
 11
-54.554
 20
4.087
 21
3.683
  0
LINE
  8
0
 10
-54.554
 11
-54.743
 20
3.683
 21
3.311
  0
LINE
  8
0
 10
-54.743
 11
-55.007
 20
3.311
 21
2.986
  0
LINE
  8
0
 10
-55.007
 11
-55.332
 20
2.986
 21
2.723
  0
LINE
  8
0
 10
-55.332
 11
-55.704
 20
2.723
 21
2.533
  0
LINE
  8
0
 10
-55.704
 11
-56.108
 20
2.533
 21
2.425
  0
LINE
  8
0
 10
-56.108
 11
-56.525
 20
2.425
 21
2.403
  0
LINE
  8
0
 10
-56.525
 11
-56.938
 20
2.403
 21
2.468
  0
LINE
  8
0
 10
-56.938
 11
-57.329
 20
2.468
 21
2.618
  0
LINE
  8
0
 10
-57.329
 11
-57.679
 20
2.618
 21
2.846
  0
LINE
  8
0
 10
-57.679
 11
-57.975
 20
2.846
 21
3.141
  0
LINE
  8
0
 10
-57.975
 11
-58.202
 20
3.141
 21
3.492
  0
LINE
  8
0
 10
-58.202
 11
-58.353
 20
3.492
 21
3.882
  0
LINE
  8
0
 10
-58.353
 11
-58.418
 20
3.882
 21
4.295
  0
LINE
  8
0
 10
-56.9
 11
-56.869
 20
-15.5
 21
-15.209
  0
LINE
  8
0
 10
-56.869
 11
-56.779
 20
-15.209
 21
-14.931
  0
LINE
  8
0
 10
-56.779
 11
-56.633
 20
-14.931
 21
-14.677
  0
LINE
  8
0
 10
-56.633
 11
-56.437
 20
-14.677
 21
-14.46
  0
LINE
  8
0
 10
-56.437
 11
-56.2
 20
-14.46
 21
-14.288
  0
LINE
  8
0
 10
-56.2
 11
-55.933
 20
-14.288
 21
-14.169
  0
LINE
  8
0
 10
-55.933
 11
-55.646
 20
-14.169
 21
-14.108
  0
LINE
  8
0
 10
-55.646
 11
-55.354
 20
-14.108
 21
-14.108
  0
LINE
  8
0
 10
-55.354
 11
-55.067
 20
-14.108
 21
-14.169
  0
LINE
  8
0
 10
-55.067
 11
-54.8
 20
-14.169
 21
-14.288
  0
LINE
  8
0
 10
-54.8
 11
-54.563
 20
-14.288
 21
-14.46
  0
LINE
  8
0
 10
-54.563
 11
-54.367
 20
-14.46
 21
-14.677
  0
LINE
  8
0
 10
-54.367
 11
-54.221
 20
-14.677
 21
-14.931
  0
LINE
  8
0
 10
-54.221
 11
-54.131
 20
-14.931
 21
-15.209
  0
LINE
  8
0
 10
-54.131
 11
-54.1
 20
-15.209
 21
-15.5
  0
LINE
  8
0
 10
-54.1
 11
-54.131
 20
-15.5
 21
-15.791
  0
LINE
  8
0
 10
-54.131
 11
-54.221
 20
-15.791
 21
-16.069
  0
LINE
  8
0
 10
-54.221
 11
-54.367
 20
-16.069
 21
-16.323
  0
LINE
  8
0
 10
-54.367
 11
-54.563
 20
-16.323
 21
-16.54
  0
LINE
  8
0
 10
-54.563
 11
-54.8
 20
-16.54
 21
-16.712
  0
LINE
  8
0
 10
-54.8
 11
-55.067
 20
-16.712
 21
-16.831
  0
LINE
  8
0
 10
-55.067
 11
-55.354
 20
-16.831
 21
-16.892
  0
LINE
  8
0
 10
-55.354
 11
-55.646
 20
-16.892
 21
-16.892
  0
LINE
  8
0
 10
-55.646
 11
-55.933
 20
-16.892
 21
-16.831
  0
LINE
  8
0
 10
-55.933
 11
-56.2
 20
-16.831
 21
-16.712
  0
LINE
  8
0
 10
-56.2
 11
-56.437
 20
-16.712
 21
-16.54
  0
LINE
  8
0
 10
-56.437
 11
-56.633
 20
-16.54
 21
-16.323
  0
LINE
  8
0
 10
-56.633
 11
-56.779
 20
-16.323
 21
-16.069
  0
LINE
  8
0
 10
-56.779
 11
-56.869
 20
-16.069
 21
-15.791
  0
LINE
  8
0
 10
-56.869
 11
-56.9
 20
-15.791
 21
-15.5
  0
LINE
  8
0
 10
-56.9
 11
-56.869
 20
15.5
 21
15.791
  0
LINE
  8
0
 10
-56.869
 11
-56.779
 20
15.791
 21
16.069
  0
LINE
  8
0
 10
-56.779
 11
-56.633
 20
16.069
 21
16.323
  0
LINE
  8
0
 10
-56.633
 11
-56.437
 20
16.323
 21
16.54
  0
LINE
  8
0
 10
-56.437
 11
-56.2
 20
16.54
 21
16.712
  0
LINE
  8
0
 10
-56.2
 11
-55.933
 20
16.712
 21
16.831
  0
LINE
  8
0
 10
-55.933
 11
-55.646
 20
16.831
 21
16.892
  0
LINE
  8
0
 10
-55.646
 11
-55.354
 20
16.892
 21
16.892
  0
LINE
  8
0
 10
-55.354
 11
-55.067
 20
16.892
 21
16.831
  0
LINE
  8
0
 10
-55.067
 11
-54.8
 20
16.831
 21
16.712
  0
LINE
  8
0
 10
-54.8
 11
-54.563
 20
16.712
 21
16.54
  0
LINE
  8
0
 10
-54.563
 11
-54.367
 20
16.54
 21
16.323
  0
LINE
  8
0
 10
-54.367
 11
-54.221
 20
16.323
 21
16.069
  0
LINE
  8
0
 10
-54.221
 11
-54.131
 20
16.069
 21
15.791
  0
LINE
  8
0
 10
-54.131
 11
-54.1
 20
15.791
 21
15.5
  0
LINE
  8
0
 10
-54.1
 11
-54.131
 20
15.5
 21
15.209
  0
LINE
  8
0
 10
-54.131
 11
-54.221
 20
15.209
 21
14.931
  0
LINE
  8
0
 10
-54.221
 11
-54.367
 20
14.931
 21
14.677
  0
LINE
  8
0
 10
-54.367
 11
-54.563
 20
14.677
 21
14.46
  0
LINE
  8
0
 10
-54.563
 11
-54.8
 20
14.46
 21
14.288
  0
LINE
  8
0
 10
-54.8
 11
-55.067
 20
14.288
 21
14.169
  0
LINE
  8
0
 10
-55.067
 11
-55.354
 20
14.169
 21
14.108
  0
LINE
  8
0
 10
-55.354
 11
-55.646
 20
14.108
 21
14.108
  0
LINE
  8
0
 10
-55.646
 11
-55.933
 20
14.108
 21
14.169
  0
LINE
  8
0
 10
-55.933
 11
-56.2
 20
14.169
 21
14.288
  0
LINE
  8
0
 10
-56.2
 11
-56.437
 20
14.288
 21
14.46
  0
LINE
  8
0
 10
-56.437
 11
-56.633
 20
14.46
 21
14.677
  0
LINE
  8
0
 10
-56.633
 11
-56.779
 20
14.677
 21
14.931
  0
LINE
  8
0
 10
-56.779
 11
-56.869
 20
14.931
 21
15.209
  0
LINE
  8
0
 10
-56.869
 11
-56.9
 20
15.209
 21
15.5
  0
LINE
  8
0
 10
-43.884
 11
-43.884
 20
-0.957
 21
0.957
  0
LINE
  8
0
 10
-43.884
 11
-42.994
 20
0.957
 21
2.652
  0
LINE
  8
0
 10
-42.994
 11
-41.418
 20
2.652
 21
3.74
  0
LINE
  8
0
 10
-41.418
 11
-39.518
 20
3.74
 21
3.971
  0
LINE
  8
0
 10
-39.518
 11
-37.728
 20
3.971
 21
3.292
  0
LINE
  8
0
 10
-37.728
 11
-36.458
 20
3.292
 21
1.859
  0
LINE
  8
0
 10
-36.458
 11
-36
 20
1.859
 21
0
  0
LINE
  8
0
 10
-36
 11
-36.458
 20
0
 21
-1.859
  0
LINE
  8
0
 10
-36.458
 11
-37.728
 20
-1.859
 21
-3.292
  0
LINE
  8
0
 10
-37.728
 11
-39.518
 20
-3.292
 21
-3.971
  0
LINE
  8
0
 10
-39.518
 11
-41.418
 20
-3.971
 21
-3.74
  0
LINE
  8
0
 10
-41.418
 11
-42.994
 20
-3.74
 21
-2.652
  0
LINE
  8
0
 10
-42.994
 11
-43.884
 20
-2.652
 21
-0.957
  0
LINE
  8
0
 10
-42
 11
-41.956
 20
17
 21
17.416
  0
LINE
  8
0
 10
-41.956
 11
-41.827
 20
17.416
 21
17.813
  0
LINE
  8
0
 10
-41.827
 11
-41.618
 20
17.813
 21
18.176
  0
LINE
  8
0
 10
-41.618
 11
-41.338
 20
18.176
 21
18.486
  0
LINE
  8
0
 10
-41.338
 11
-41
 20
18.486
 21
18.732
  0
LINE
  8
0
 10
-41
 11
-40.618
 20
18.732
 21
18.902
  0
LINE
  8
0
 10
-40.618
 11
-40.209
 20
18.902
 21
18.989
  0
LINE
  8
0
 10
-40.209
 11
-39.791
 20
18.989
 21
18.989
  0
LINE
  8
0
 10
-39.791
 11
-39.382
 20
18.989
 21
18.902
  0
LINE
  8
0
 10
-39.382
 11
-39
 20
18.902
 21
18.732
  0
LINE
  8
0
 10
-39
 11
-38.662
 20
18.732
 21
18.486
  0
LINE
  8
0
 10
-38.662
 11
-38.382
 20
18.486
 21
18.176
  0
LINE
  8
0
 10
-38.382
 11
-38.173
 20
18.176
 21
17.813
  0
LINE
  8
0
 10
-38.173
 11
-38.044
 20
17.813
 21
17.416
  0
LINE
  8
0
 10
-38.044
 11
-38
 20
17.416
 21
17
  0
LINE
  8
0
 10
-38
 11
-38.044
 20
17
 21
16.584
  0
LINE
  8
0
 10
-38.044
 11
-38.173
 20
16.584
 21
16.187
  0
LINE
  8
0
 10
-38.173
 11
-38.382
 20
16.187
 21
15.824
  0
LINE
  8
0
 10
-38.382
 11
-38.662
 20
15.824
 21
15.514
  0
LINE
  8
0
 10
-38.662
 11
-39
 20
15.514
 21
15.268
  0
LINE
  8
0
 10
-39
 11
-39.382
 20
15.268
 21
15.098
  0
LINE
  8
0
 10
-39.382
 11
-39.791
 20
15.098
 21
15.011
  0
LINE
  8
0
 10
-39.791
 11
-40.209
 20
15.011
 21
15.011
  0
LINE
  8
0
 10
-40.209
 11
-40.618
 20
15.011
 21
15.098
  0
LINE
  8
0
 10
-40.618
 11
-41
 20
15.098
 21
15.268
  0
LINE
  8
0
 10
-41
 11
-41.338
 20
15.268
 21
15.514
  0
LINE
  8
0
 10
-41.338
 11
-41.618
 20
15.514
 21
15.824
  0
LINE
  8
0
 10
-41.618
 11
-41.827
 20
15.824
 21
16.187
  0
LINE
  8
0
 10
-41.827
 11
-41.956
 20
16.187
 21
16.584
  0
LINE
  8
0
 10
-41.956
 11
-42
 20
16.584
 21
17
  0
LINE
  8
0
 10
-25.9
 11
-25.869
 20
-15.5
 21
-15.209
  0
LINE
  8
0
 10
-25.869
 11
-25.779
 20
-15.209
 21
-14.931
  0
LINE
  8
0
 10
-25.779
 11
-25.633
 20
-14.931
 21
-14.677
  0
LINE
  8
0
 10
-25.633
 11
-25.437
 20
-14.677
 21
-14.46
  0
LINE
  8
0
 10
-25.437
 11
-25.2
 20
-14.46
 21
-14.288
  0
LINE
  8
0
 10
-25.2
 11
-24.933
 20
-14.288
 21
-14.169
  0
LINE
  8
0
 10
-24.933
 11
-24.646
 20
-14.169
 21
-14.108
  0
LINE
  8
0
 10
-24.646
 11
-24.354
 20
-14.108
 21
-14.108
  0
LINE
  8
0
 10
-24.354
 11
-24.067
 20
-14.108
 21
-14.169
  0
LINE
  8
0
 10
-24.067
 11
-23.8
 20
-14.169
 21
-14.288
  0
LINE
  8
0
 10
-23.8
 11
-23.563
 20
-14.288
 21
-14.46
  0
LINE
  8
0
 10
-23.563
 11
-23.367
 20
-14.46
 21
-14.677
  0
LINE
  8
0
 10
-23.367
 11
-23.221
 20
-14.677
 21
-14.931
  0
LINE
  8
0
 10
-23.221
 11
-23.131
 20
-14.931
 21
-15.209
  0
LINE
  8
0
 10
-23.131
 11
-23.1
 20
-15.209
 21
-15.5
  0
LINE
  8
0
 10
-23.1
 11
-23.131
 20
-15.5
 21
-15.791
  0
LINE
  8
0
 10
-23.131
 11
-23.221
 20
-15.791
 21
-16.069
  0
LINE
  8
0
 10
-23.221
 11
-23.367
 20
-16.069
 21
-16.323
  0
LINE
  8
0
 10
-23.367
 11
-23.563
 20
-16.323
 21
-16.54
  0
LINE
  8
0
 10
-23.563
 11
-23.8
 20
-16.54
 21
-16.712
  0
LINE
  8
0
 10
-23.8
 11
-24.067
 20
-16.712
 21
-16.831
  0
LINE
  8
0
 10
-24.067
 11
-24.354
 20
-16.831
 21
-16.892
  0
LINE
  8
0
 10
-24.354
 11
-24.646
 20
-16.892
 21
-16.892
  0
LINE
  8
0
 10
-24.646
 11
-24.933
 20
-16.892
 21
-16.831
  0
LINE
  8
0
 10
-24.933
 11
-25.2
 20
-16.831
 21
-16.712
  0
LINE
  8
0
 10
-25.2
 11
-25.437
 20
-16.712
 21
-16.54
  0
LINE
  8
0
 10
-25.437
 11
-25.633
 20
-16.54
 21
-16.323
  0
LINE
  8
0
 10
-25.633
 11
-25.779
 20
-16.323
 21
-16.069
  0
LINE
  8
0
 10
-25.779
 11
-25.869
 20
-16.069
 21
-15.791
  0
LINE
  8
0
 10
-25.869
 11
-25.9
 20
-15.791
 21
-15.5
  0
LINE
  8
0
 10
-25.9
 11
-25.869
 20
15.5
 21
15.791
  0
LINE
  8
0
 10
-25.869
 11
-25.779
 20
15.791
 21
16.069
  0
LINE
  8
0
 10
-25.779
 11
-25.633
 20
16.069
 21
16.323
  0
LINE
  8
0
 10
-25.633
 11
-25.437
 20
16.323
 21
16.54
  0
LINE
  8
0
 10
-25.437
 11
-25.2
 20
16.54
 21
16.712
  0
LINE
  8
0
 10
-25.2
 11
-24.933
 20
16.712
 21
16.831
  0
LINE
  8
0
 10
-24.933
 11
-24.646
 20
16.831
 21
16.892
  0
LINE
  8
0
 10
-24.646
 11
-24.354
 20
16.892
 21
16.892
  0
LINE
  8
0
 10
-24.354
 11
-24.067
 20
16.892
 21
16.831
  0
LINE
  8
0
 10
-24.067
 11
-23.8
 20
16.831
 21
16.712
  0
LINE
  8
0
 10
-23.8
 11
-23.563
 20
16.712
 21
16.54
  0
LINE
  8
0
 10
-23.563
 11
-23.367
 20
16.54
 21
16.323
  0
LINE
  8
0
 10
-23.367
 11
-23.221
 20
16.323
 21
16.069
  0
LINE
  8
0
 10
-23.221
 11
-23.131
 20
16.069
 21
15.791
  0
LINE
  8
0
 10
-23.131
 11
-23.1
 20
15.791
 21
15.5
  0
LINE
  8
0
 10
-23.1
 11
-23.131
 20
15.5
 21
15.209
  0
LINE
  8
0
 10
-23.131
 11
-23.221
 20
15.209
 21
14.931
  0
LINE
  8
0
 10
-23.221
 11
-23.367
 20
14.931
 21
14.677
  0
LINE
  8
0
 10
-23.367
 11
-23.563
 20
14.677
 21
14.46
  0
LINE
  8
0
 10
-23.563
 11
-23.8
 20
14.46
 21
14.288
  0
LINE
  8
0
 10
-23.8
 11
-24.067
 20
14.288
 21
14.169
  0
LINE
  8
0
 10
-24.067
 11
-24.354
 20
14.169
 21
14.108
  0
LINE
  8
0
 10
-24.354
 11
-24.646
 20
14.108
 21
14.108
  0
LINE
  8
0
 10
-24.646
 11
-24.933
 20
14.108
 21
14.169
  0
LINE
  8
0
 10
-24.933
 11
-25.2
 20
14.169
 21
14.288
  0
LINE
  8
0
 10
-25.2
 11
-25.437
 20
14.288
 21
14.46
  0
LINE
  8
0
 10
-25.437
 11
-25.633
 20
14.46
 21
14.677
  0
LINE
  8
0
 10
-25.633
 11
-25.779
 20
14.677
 21
14.931
  0
LINE
  8
0
 10
-25.779
 11
-25.869
 20
14.931
 21
15.209
  0
LINE
  8
0
 10
-25.869
 11
-25.9
 20
15.209
 21
15.5
  0
LINE
  8
0
 10
-25.576
 11
-25.511
 20
4.505
 21
4.918
  0
LINE
  8
0
 10
-25.511
 11
-25.361
 20
4.918
 21
5.308
  0
LINE
  8
0
 10
-25.361
 11
-25.134
 20
5.308
 21
5.658
  0
LINE
  8
0
 10
-25.134
 11
-24.837
 20
5.658
 21
5.954
  0
LINE
  8
0
 10
-24.837
 11
-24.487
 20
5.954
 21
6.182
  0
LINE
  8
0
 10
-24.487
 11
-24.097
 20
6.182
 21
6.332
  0
LINE
  8
0
 10
-24.097
 11
-23.684
 20
6.332
 21
6.397
  0
LINE
  8
0
 10
-23.684
 11
-23.267
 20
6.397
 21
6.375
  0
LINE
  8
0
 10
-23.267
 11
-22.862
 20
6.375
 21
6.267
  0
LINE
  8
0
 10
-22.862
 11
-22.49
 20
6.267
 21
6.077
  0
LINE
  8
0
 10
-22.49
 11
-22.165
 20
6.077
 21
5.814
  0
LINE
  8
0
 10
-22.165
 11
-21.902
 20
5.814
 21
5.489
  0
LINE
  8
0
 10
-21.902
 11
-21.712
 20
5.489
 21
5.117
  0
LINE
  8
0
 10
-21.712
 11
-21.604
 20
5.117
 21
4.713
  0
LINE
  8
0
 10
-21.604
 11
-21.582
 20
4.713
 21
4.295
  0
LINE
  8
0
 10
-21.582
 11
-21.647
 20
4.295
 21
3.882
  0
LINE
  8
0
 10
-21.647
 11
-21.798
 20
3.882
 21
3.492
  0
LINE
  8
0
 10
-21.798
 11
-22.025
 20
3.492
 21
3.141
  0
LINE
  8
0
 10
-22.025
 11
-22.321
 20
3.141
 21
2.846
  0
LINE
  8
0
 10
-22.321
 11
-22.671
 20
2.846
 21
2.618
  0
LINE
  8
0
 10
-22.671
 11
-23.062
 20
2.618
 21
2.468
  0
LINE
  8
0
 10
-23.062
 11
-23.475
 20
2.468
 21
2.403
  0
LINE
  8
0
 10
-23.475
 11
-23.892
 20
2.403
 21
2.425
  0
LINE
  8
0
 10
-23.892
 11
-24.296
 20
2.425
 21
2.533
  0
LINE
  8
0
 10
-24.296
 11
-24.668
 20
2.533
 21
2.723
  0
LINE
  8
0
 10
-24.668
 11
-24.993
 20
2.723
 21
2.986
  0
LINE
  8
0
 10
-24.993
 11
-25.257
 20
2.986
 21
3.311
  0
LINE
  8
0
 10
-25.257
 11
-25.446
 20
3.311
 21
3.683
  0
LINE
  8
0
 10
-25.446
 11
-25.555
 20
3.683
 21
4.087
  0
LINE
  8
0
 10
-25.555
 11
-25.576
 20
4.087
 21
4.505
  0
LINE
  8
0
 10
-9.65
 11
-9.574
 20
0
 21
1.209
  0
LINE
  8
0
 10
-9.574
 11
-9.347
 20
1.209
 21
2.4
  0
LINE
  8
0
 10
-9.347
 11
-8.972
 20
2.4
 21
3.552
  0
LINE
  8
0
 10
-8.972
 11
-8.456
 20
3.552
 21
4.649
  0
LINE
  8
0
 10
-8.456
 11
-7.807
 20
4.649
 21
5.672
  0
LINE
  8
0
 10
-7.807
 11
-7.035
 20
5.672
 21
6.606
  0
LINE
  8
0
 10
-7.035
 11
-6.151
 20
6.606
 21
7.435
  0
LINE
  8
0
 10
-6.151
 11
-5.171
 20
7.435
 21
8.148
  0
LINE
  8
0
 10
-5.171
 11
-4.109
 20
8.148
 21
8.732
  0
LINE
  8
0
 10
-4.109
 11
-2.982
 20
8.732
 21
9.178
  0
LINE
  8
0
 10
-2.982
 11
-1.808
 20
9.178
 21
9.479
  0
LINE
  8
0
 10
-1.808
 11
-0.606
 20
9.479
 21
9.631
  0
LINE
  8
0
 10
-0.606
 11
0.606
 20
9.631
 21
9.631
  0
LINE
  8
0
 10
0.606
 11
1.808
 20
9.631
 21
9.479
  0
LINE
  8
0
 10
1.808
 11
2.982
 20
9.479
 21
9.178
  0
LINE
  8
0
 10
2.982
 11
4.109
 20
9.178
 21
8.732
  0
LINE
  8
0
 10
4.109
 11
5.171
 20
8.732
 21
8.148
  0
LINE
  8
0
 10
5.171
 11
6.151
 20
8.148
 21
7.435
  0
LINE
  8
0
 10
6.151
 11
7.035
 20
7.435
 21
6.606
  0
LINE
  8
0
 10
7.035
 11
7.807
 20
6.606
 21
5.672
  0
LINE
  8
0
 10
7.807
 11
8.456
 20
5.672
 21
4.649
  0
LINE
  8
0
 10
8.456
 11
8.972
 20
4.649
 21
3.552
  0
LINE
  8
0
 10
8.972
 11
9.347
 20
3.552
 21
2.4
  0
LINE
  8
0
 10
9.347
 11
9.574
 20
2.4
 21
1.209
  0
LINE
  8
0
 10
9.574
 11
9.65
 20
1.209
 21
0
  0
LINE
  8
0
 10
9.65
 11
9.574
 20
0
 21
-1.209
  0
LINE
  8
0
 10
9.574
 11
9.347
 20
-1.209
 21
-2.4
  0
LINE
  8
0
 10
9.347
 11
8.972
 20
-2.4
 21
-3.552
  0
LINE
  8
0
 10
8.972
 11
8.456
 20
-3.552
 21
-4.649
  0
LINE
  8
0
 10
8.456
 11
7.807
 20
-4.649
 21
-5.672
  0
LINE
  8
0
 10
7.807
 11
7.035
 20
-5.672
 21
-6.606
  0
LINE
  8
0
 10
7.035
 11
6.151
 20
-6.606
 21
-7.435
  0
LINE
  8
0
 10
6.151
 11
5.171
 20
-7.435
 21
-8.148
  0
LINE
  8
0
 10
5.171
 11
4.109
 20
-8.148
 21
-8.732
  0
LINE
  8
0
 10
4.109
 11
2.982
 20
-8.732
 21
-9.178
  0
LINE
  8
0
 10
2.982
 11
1.808
 20
-9.178
 21
-9.479
  0
LINE
  8
0
 10
1.808
 11
0.606
 20
-9.479
 21
-9.631
  0
LINE
  8
0
 10
0.606
 11
-0.606
 20
-9.631
 21
-9.631
  0
LINE
  8
0
 10
-0.606
 11
-1.808
 20
-9.631
 21
-9.479
  0
LINE
  8
0
 10
-1.808
 11
-2.982
 20
-9.479
 21
-9.178
  0
LINE
  8
0
 10
-2.982
 11
-4.109
 20
-9.178
 21
-8.732
  0
LINE
  8
0
 10
-4.109
 11
-5.171
 20
-8.732
 21
-8.148
  0
LINE
  8
0
 10
-5.171
 11
-6.151
 20
-8.148
 21
-7.435
  0
LINE
  8
0
 10
-6.151
 11
-7.035
 20
-7.435
 21
-6.606
  0
LINE
  8
0
 10
-7.035
 11
-7.807
 20
-6.606
 21
-5.672
  0
LINE
  8
0
 10
-7.807
 11
-8.456
 20
-5.672
 21
-4.649
  0
LINE
  8
0
 10
-8.456
 11
-8.972
 20
-4.649
 21
-3.552
  0
LINE
  8
0
 10
-8.972
 11
-9.347
 20
-3.552
 21
-2.4
  0
LINE
  8
0
 10
-9.347
 11
-9.574
 20
-2.4
 21
-1.209
  0
LINE
  8
0
 10
-9.574
 11
-9.65
 20
-1.209
 21
0
  0
LINE
  8
0
 10
-7.278
 11
-7.275
 20
3.583
 21
3.709
  0
LINE
  8
0
 10
-7.275
 11
-7.257
 20
3.709
 21
3.833
  0
LINE
  8
0
 10
-7.257
 11
-7.223
 20
3.833
 21
3.954
  0
LINE
  8
0
 10
-7.223
 11
-7.174
 20
3.954
 21
4.069
  0
LINE
  8
0
 10
-7.174
 11
-7.111
 20
4.069
 21
4.179
  0
LINE
  8
0
 10
-7.111
 11
-7.036
 20
4.179
 21
4.278
  0
LINE
  8
0
 10
-7.036
 11
-6.948
 20
4.278
 21
4.368
  0
LINE
  8
0
 10
-6.948
 11
-6.849
 20
4.368
 21
4.446
  0
LINE
  8
0
 10
-6.849
 11
-6.742
 20
4.446
 21
4.511
  0
LINE
  8
0
 10
-6.742
 11
-6.628
 20
4.511
 21
4.562
  0
LINE
  8
0
 10
-6.628
 11
-6.507
 20
4.562
 21
4.599
  0
LINE
  8
0
 10
-6.507
 11
-6.383
 20
4.599
 21
4.62
  0
LINE
  8
0
 10
-6.383
 11
-6.258
 20
4.62
 21
4.625
  0
LINE
  8
0
 10
-6.258
 11
-6.132
 20
4.625
 21
4.614
  0
LINE
  8
0
 10
-6.132
 11
-6.01
 20
4.614
 21
4.589
  0
LINE
  8
0
 10
-6.01
 11
-5.891
 20
4.589
 21
4.547
  0
LINE
  8
0
 10
-5.891
 11
-5.779
 20
4.547
 21
4.491
  0
LINE
  8
0
 10
-5.779
 11
-5.674
 20
4.491
 21
4.422
  0
LINE
  8
0
 10
-5.674
 11
-5.579
 20
4.422
 21
4.34
  0
LINE
  8
0
 10
-5.579
 11
-5.495
 20
4.34
 21
4.246
  0
LINE
  8
0
 10
-5.495
 11
-5.423
 20
4.246
 21
4.143
  0
LINE
  8
0
 10
-5.423
 11
-5.365
 20
4.143
 21
4.032
  0
LINE
  8
0
 10
-5.365
 11
-5.321
 20
4.032
 21
3.914
  0
LINE
  8
0
 10
-5.321
 11
-5.292
 20
3.914
 21
3.791
  0
LINE
  8
0
 10
-5.292
 11
-5.28
 20
3.791
 21
3.667
  0
LINE
  8
0
 10
-5.28
 11
-5.282
 20
3.667
 21
3.541
  0
LINE
  8
0
 10
-5.282
 11
-5.301
 20
3.541
 21
3.417
  0
LINE
  8
0
 10
-5.301
 11
-5.335
 20
3.417
 21
3.296
  0
LINE
  8
0
 10
-5.335
 11
-5.383
 20
3.296
 21
3.181
  0
LINE
  8
0
 10
-5.383
 11
-5.446
 20
3.181
 21
3.071
  0
LINE
  8
0
 10
-5.446
 11
-5.522
 20
3.071
 21
2.972
  0
LINE
  8
0
 10
-5.522
 11
-5.61
 20
2.972
 21
2.882
  0
LINE
  8
0
 10
-5.61
 11
-5.708
 20
2.882
 21
2.804
  0
LINE
  8
0
 10
-5.708
 11
-5.816
 20
2.804
 21
2.739
  0
LINE
  8
0
 10
-5.816
 11
-5.929
 20
2.739
 21
2.688
  0
LINE
  8
0
 10
-5.929
 11
-6.05
 20
2.688
 21
2.651
  0
LINE
  8
0
 10
-6.05
 11
-6.174
 20
2.651
 21
2.63
  0
LINE
  8
0
 10
-6.174
 11
-6.299
 20
2.63
 21
2.625
  0
LINE
  8
0
 10
-6.299
 11
-6.425
 20
2.625
 21
2.636
  0
LINE
  8
0
 10
-6.425
 11
-6.548
 20
2.636
 21
2.661
  0
LINE
  8
0
 10
-6.548
 11
-6.666
 20
2.661
 21
2.703
  0
LINE
  8
0
 10
-6.666
 11
-6.779
 20
2.703
 21
2.759
  0
LINE
  8
0
 10
-6.779
 11
-6.883
 20
2.759
 21
2.828
  0
LINE
  8
0
 10
-6.883
 11
-6.979
 20
2.828
 21
2.91
  0
LINE
  8
0
 10
-6.979
 11
-7.062
 20
2.91
 21
3.004
  0
LINE
  8
0
 10
-7.062
 11
-7.134
 20
3.004
 21
3.107
  0
LINE
  8
0
 10
-7.134
 11
-7.192
 20
3.107
 21
3.218
  0
LINE
  8
0
 10
-7.192
 11
-7.236
 20
3.218
 21
3.336
  0
LINE
  8
0
 10
-7.236
 11
-7.265
 20
3.336
 21
3.459
  0
LINE
  8
0
 10
-7.265
 11
-7.278
 20
3.459
 21
3.583
  0
LINE
  8
0
 10
-2.6
 11
-2.543
 20
-15
 21
-14.459
  0
LINE
  8
0
 10
-2.543
 11
-2.375
 20
-14.459
 21
-13.942
  0
LINE
  8
0
 10
-2.375
 11
-2.103
 20
-13.942
 21
-13.472
  0
LINE
  8
0
 10
-2.103
 11
-1.74
 20
-13.472
 21
-13.068
  0
LINE
  8
0
 10
-1.74
 11
-1.3
 20
-13.068
 21
-12.748
  0
LINE
  8
0
 10
-1.3
 11
-0.803
 20
-12.748
 21
-12.527
  0
LINE
  8
0
 10
-0.803
 11
-0.272
 20
-12.527
 21
-12.414
  0
LINE
  8
0
 10
-0.272
 11
0.272
 20
-12.414
 21
-12.414
  0
LINE
  8
0
 10
0.272
 11
0.803
 20
-12.414
 21
-12.527
  0
LINE
  8
0
 10
0.803
 11
1.3
 20
-12.527
 21
-12.748
  0
LINE
  8
0
 10
1.3
 11
1.74
 20
-12.748
 21
-13.068
  0
LINE
  8
0
 10
1.74
 11
2.103
 20
-13.068
 21
-13.472
  0
LINE
  8
0
 10
2.103
 11
2.375
 20
-13.472
 21
-13.942
  0
LINE
  8
0
 10
2.375
 11
2.543
 20
-13.942
 21
-14.459
  0
LINE
  8
0
 10
2.543
 11
2.6
 20
-14.459
 21
-15
  0
LINE
  8
0
 10
2.6
 11
2.543
 20
-15
 21
-15.541
  0
LINE
  8
0
 10
2.543
 11
2.375
 20
-15.541
 21
-16.058
  0
LINE
  8
0
 10
2.375
 11
2.103
 20
-16.058
 21
-16.528
  0
LINE
  8
0
 10
2.103
 11
1.74
 20
-16.528
 21
-16.932
  0
LINE
  8
0
 10
1.74
 11
1.3
 20
-16.932
 21
-17.252
  0
LINE
  8
0
 10
1.3
 11
0.803
 20
-17.252
 21
-17.473
  0
LINE
  8
0
 10
0.803
 11
0.272
 20
-17.473
 21
-17.586
  0
LINE
  8
0
 10
0.272
 11
-0.272
 20
-17.586
 21
-17.586
  0
LINE
  8
0
 10
-0.272
 11
-0.803
 20
-17.586
 21
-17.473
  0
LINE
  8
0
 10
-0.803
 11
-1.3
 20
-17.473
 21
-17.252
  0
LINE
  8
0
 10
-1.3
 11
-1.74
 20
-17.252
 21
-16.932
  0
LINE
  8
0
 10
-1.74
 11
-2.103
 20
-16.932
 21
-16.528
  0
LINE
  8
0
 10
-2.103
 11
-2.375
 20
-16.528
 21
-16.058
  0
LINE
  8
0
 10
-2.375
 11
-2.543
 20
-16.058
 21
-15.541
  0
LINE
  8
0
 10
-2.543
 11
-2.6
 20
-15.541
 21
-15
  0
LINE
  8
0
 10
-2.6
 11
-2.543
 20
15
 21
15.541
  0
LINE
  8
0
 10
-2.543
 11
-2.375
 20
15.541
 21
16.058
  0
LINE
  8
0
 10
-2.375
 11
-2.103
 20
16.058
 21
16.528
  0
LINE
  8
0
 10
-2.103
 11
-1.74
 20
16.528
 21
16.932
  0
LINE
  8
0
 10
-1.74
 11
-1.3
 20
16.932
 21
17.252
  0
LINE
  8
0
 10
-1.3
 11
-0.803
 20
17.252
 21
17.473
  0
LINE
  8
0
 10
-0.803
 11
-0.272
 20
17.473
 21
17.586
  0
LINE
  8
0
 10
-0.272
 11
0.272
 20
17.586
 21
17.586
  0
LINE
  8
0
 10
0.272
 11
0.803
 20
17.586
 21
17.473
  0
LINE
  8
0
 10
0.803
 11
1.3
 20
17.473
 21
17.252
  0
LINE
  8
0
 10
1.3
 11
1.74
 20
17.252
 21
16.932
  0
LINE
  8
0
 10
1.74
 11
2.103
 20
16.932
 21
16.528
  0
LINE
  8
0
 10
2.103
 11
2.375
 20
16.528
 21
16.058
  0
LINE
  8
0
 10
2.375
 11
2.543
 20
16.058
 21
15.541
  0
LINE
  8
0
 10
2.543
 11
2.6
 20
15.541
 21
15
  0
LINE
  8
0
 10
2.6
 11
2.543
 20
15
 21
14.459
  0
LINE
  8
0
 10
2.543
 11
2.375
 20
14.459
 21
13.942
  0
LINE
  8
0
 10
2.375
 11
2.103
 20
13.942
 21
13.472
  0
LINE
  8
0
 10
2.103
 11
1.74
 20
13.472
 21
13.068
  0
LINE
  8
0
 10
1.74
 11
1.3
 20
13.068
 21
12.748
  0
LINE
  8
0
 10
1.3
 11
0.803
 20
12.748
 21
12.527
  0
LINE
  8
0
 10
0.803
 11
0.272
 20
12.527
 21
12.414
  0
LINE
  8
0
 10
0.272
 11
-0.272
 20
12.414
 21
12.414
  0
LINE
  8
0
 10
-0.272
 11
-0.803
 20
12.414
 21
12.527
  0
LINE
  8
0
 10
-0.803
 11
-1.3
 20
12.527
 21
12.748
  0
LINE
  8
0
 10
-1.3
 11
-1.74
 20
12.748
 21
13.068
  0
LINE
  8
0
 10
-1.74
 11
-2.103
 20
13.068
 21
13.472
  0
LINE
  8
0
 10
-2.103
 11
-2.375
 20
13.472
 21
13.942
  0
LINE
  8
0
 10
-2.375
 11
-2.543
 20
13.942
 21
14.459
  0
LINE
  8
0
 10
-2.543
 11
-2.6
 20
14.459
 21
15
  0
LINE
  8
0
 10
-1.4
 11
-1.369
 20
15
 21
15.291
  0
LINE
  8
0
 10
-1.369
 11
-1.279
 20
15.291
 21
15.569
  0
LINE
  8
0
 10
-1.279
 11
-1.133
 20
15.569
 21
15.823
  0
LINE
  8
0
 10
-1.133
 11
-0.937
 20
15.823
 21
16.04
  0
LINE
  8
0
 10
-0.937
 11
-0.7
 20
16.04
 21
16.212
  0
LINE
  8
0
 10
-0.7
 11
-0.433
 20
16.212
 21
16.331
  0
LINE
  8
0
 10
-0.433
 11
-0.146
 20
16.331
 21
16.392
  0
LINE
  8
0
 10
-0.146
 11
0.146
 20
16.392
 21
16.392
  0
LINE
  8
0
 10
0.146
 11
0.433
 20
16.392
 21
16.331
  0
LINE
  8
0
 10
0.433
 11
0.7
 20
16.331
 21
16.212
  0
LINE
  8
0
 10
0.7
 11
0.937
 20
16.212
 21
16.04
  0
LINE
  8
0
 10
0.937
 11
1.133
 20
16.04
 21
15.823
  0
LINE
  8
0
 10
1.133
 11
1.279
 20
15.823
 21
15.569
  0
LINE
  8
0
 10
1.279
 11
1.369
 20
15.569
 21
15.291
  0
LINE
  8
0
 10
1.369
 11
1.4
 20
15.291
 21
15
  0
LINE
  8
0
 10
1.4
 11
1.369
 20
15
 21
14.709
  0
LINE
  8
0
 10
1.369
 11
1.279
 20
14.709
 21
14.431
  0
LINE
  8
0
 10
1.279
 11
1.133
 20
14.431
 21
14.177
  0
LINE
  8
0
 10
1.133
 11
0.937
 20
14.177
 21
13.96
  0
LINE
  8
0
 10
0.937
 11
0.7
 20
13.96
 21
13.788
  0
LINE
  8
0
 10
0.7
 11
0.433
 20
13.788
 21
13.669
  0
LINE
  8
0
 10
0.433
 11
0.146
 20
13.669
 21
13.608
  0
LINE
  8
0
 10
0.146
 11
-0.146
 20
13.608
 21
13.608
  0
LINE
  8
0
 10
-0.146
 11
-0.433
 20
13.608
 21
13.669
  0
LINE
  8
0
 10
-0.433
 11
-0.7
 20
13.669
 21
13.788
  0
LINE
  8
0
 10
-0.7
 11
-0.937
 20
13.788
 21
13.96
  0
LINE
  8
0
 10
-0.937
 11
-1.133
 20
13.96
 21
14.177
  0
LINE
  8
0
 10
-1.133
 11
-1.279
 20
14.177
 21
14.431
  0
LINE
  8
0
 10
-1.279
 11
-1.369
 20
14.431
 21
14.709
  0
LINE
  8
0
 10
-1.369
 11
-1.4
 20
14.709
 21
15
  0
LINE
  8
0
 10
-1.25
 11
-0.625
 20
-15
 21
-13.917
  0
LINE
  8
0
 10
-0.625
 11
0.625
 20
-13.917
 21
-13.917
  0
LINE
  8
0
 10
0.625
 11
1.25
 20
-13.917
 21
-15
  0
LINE
  8
0
 10
1.25
 11
0.625
 20
-15
 21
-16.083
  0
LINE
  8
0
 10
0.625
 11
-0.625
 20
-16.083
 21
-16.083
  0
LINE
  8
0
 10
-0.625
 11
-1.25
 20
-16.083
 21
-15
  0
LINE
  8
0
 10
-1.25
 11
-0.625
 20
0
 21
1.083
  0
LINE
  8
0
 10
-0.625
 11
0.625
 20
1.083
 21
1.083
  0
LINE
  8
0
 10
0.625
 11
1.25
 20
1.083
 21
0
  0
LINE
  8
0
 10
1.25
 11
0.625
 20
0
 21
-1.083
  0
LINE
  8
0
 10
0.625
 11
-0.625
 20
-1.083
 21
-1.083
  0
LINE
  8
0
 10
-0.625
 11
-1.25
 20
-1.083
 21
0
  0
LINE
  8
0
 10
-1
 11
-0.992
 20
-7.25
 21
-7.125
  0
LINE
  8
0
 10
-0.992
 11
-0.969
 20
-7.125
 21
-7.001
  0
LINE
  8
0
 10
-0.969
 11
-0.93
 20
-7.001
 21
-6.882
  0
LINE
  8
0
 10
-0.93
 11
-0.876
 20
-6.882
 21
-6.768
  0
LINE
  8
0
 10
-0.876
 11
-0.809
 20
-6.768
 21
-6.662
  0
LINE
  8
0
 10
-0.809
 11
-0.729
 20
-6.662
 21
-6.565
  0
LINE
  8
0
 10
-0.729
 11
-0.637
 20
-6.565
 21
-6.479
  0
LINE
  8
0
 10
-0.637
 11
-0.536
 20
-6.479
 21
-6.406
  0
LINE
  8
0
 10
-0.536
 11
-0.426
 20
-6.406
 21
-6.345
  0
LINE
  8
0
 10
-0.426
 11
-0.309
 20
-6.345
 21
-6.299
  0
LINE
  8
0
 10
-0.309
 11
-0.187
 20
-6.299
 21
-6.268
  0
LINE
  8
0
 10
-0.187
 11
-0.063
 20
-6.268
 21
-6.252
  0
LINE
  8
0
 10
-0.063
 11
0.063
 20
-6.252
 21
-6.252
  0
LINE
  8
0
 10
0.063
 11
0.187
 20
-6.252
 21
-6.268
  0
LINE
  8
0
 10
0.187
 11
0.309
 20
-6.268
 21
-6.299
  0
LINE
  8
0
 10
0.309
 11
0.426
 20
-6.299
 21
-6.345
  0
LINE
  8
0
 10
0.426
 11
0.536
 20
-6.345
 21
-6.406
  0
LINE
  8
0
 10
0.536
 11
0.637
 20
-6.406
 21
-6.479
  0
LINE
  8
0
 10
0.637
 11
0.729
 20
-6.479
 21
-6.565
  0
LINE
  8
0
 10
0.729
 11
0.809
 20
-6.565
 21
-6.662
  0
LINE
  8
0
 10
0.809
 11
0.876
 20
-6.662
 21
-6.768
  0
LINE
  8
0
 10
0.876
 11
0.93
 20
-6.768
 21
-6.882
  0
LINE
  8
0
 10
0.93
 11
0.969
 20
-6.882
 21
-7.001
  0
LINE
  8
0
 10
0.969
 11
0.992
 20
-7.001
 21
-7.125
  0
LINE
  8
0
 10
0.992
 11
1
 20
-7.125
 21
-7.25
  0
LINE
  8
0
 10
1
 11
0.992
 20
-7.25
 21
-7.375
  0
LINE
  8
0
 10
0.992
 11
0.969
 20
-7.375
 21
-7.499
  0
LINE
  8
0
 10
0.969
 11
0.93
 20
-7.499
 21
-7.618
  0
LINE
  8
0
 10
0.93
 11
0.876
 20
-7.618
 21
-7.732
  0
LINE
  8
0
 10
0.876
 11
0.809
 20
-7.732
 21
-7.838
  0
LINE
  8
0
 10
0.809
 11
0.729
 20
-7.838
 21
-7.935
  0
LINE
  8
0
 10
0.729
 11
0.637
 20
-7.935
 21
-8.021
  0
LINE
  8
0
 10
0.637
 11
0.536
 20
-8.021
 21
-8.094
  0
LINE
  8
0
 10
0.536
 11
0.426
 20
-8.094
 21
-8.155
  0
LINE
  8
0
 10
0.426
 11
0.309
 20
-8.155
 21
-8.201
  0
LINE
  8
0
 10
0.309
 11
0.187
 20
-8.201
 21
-8.232
  0
LINE
  8
0
 10
0.187
 11
0.063
 20
-8.232
 21
-8.248
  0
LINE
  8
0
 10
0.063
 11
-0.063
 20
-8.248
 21
-8.248
  0
LINE
  8
0
 10
-0.063
 11
-0.187
 20
-8.248
 21
-8.232
  0
LINE
  8
0
 10
-0.187
 11
-0.309
 20
-8.232
 21
-8.201
  0
LINE
  8
0
 10
-0.309
 11
-0.426
 20
-8.201
 21
-8.155
  0
LINE
  8
0
 10
-0.426
 11
-0.536
 20
-8.155
 21
-8.094
  0
LINE
  8
0
 10
-0.536
 11
-0.637
 20
-8.094
 21
-8.021
  0
LINE
  8
0
 10
-0.637
 11
-0.729
 20
-8.021
 21
-7.935
  0
LINE
  8
0
 10
-0.729
 11
-0.809
 20
-7.935
 21
-7.838
  0
LINE
  8
0
 10
-0.809
 11
-0.876
 20
-7.838
 21
-7.732
  0
LINE
  8
0
 10
-0.876
 11
-0.93
 20
-7.732
 21
-7.618
  0
LINE
  8
0
 10
-0.93
 11
-0.969
 20
-7.618
 21
-7.499
  0
LINE
  8
0
 10
-0.969
 11
-0.992
 20
-7.499
 21
-7.375
  0
LINE
  8
0
 10
-0.992
 11
-1
 20
-7.375
 21
-7.25
  0
LINE
  8
0
 10
5.28
 11
5.292
 20
3.667
 21
3.791
  0
LINE
  8
0
 10
5.292
 11
5.321
 20
3.791
 21
3.914
  0
LINE
  8
0
 10
5.321
 11
5.365
 20
3.914
 21
4.032
  0
LINE
  8
0
 10
5.365
 11
5.423
 20
4.032
 21
4.143
  0
LINE
  8
0
 10
5.423
 11
5.495
 20
4.143
 21
4.246
  0
LINE
  8
0
 10
5.495
 11
5.579
 20
4.246
 21
4.34
  0
LINE
  8
0
 10
5.579
 11
5.674
 20
4.34
 21
4.422
  0
LINE
  8
0
 10
5.674
 11
5.779
 20
4.422
 21
4.491
  0
LINE
  8
0
 10
5.779
 11
5.891
 20
4.491
 21
4.547
  0
LINE
  8
0
 10
5.891
 11
6.01
 20
4.547
 21
4.589
  0
LINE
  8
0
 10
6.01
 11
6.132
 20
4.589
 21
4.614
  0
LINE
  8
0
 10
6.132
 11
6.258
 20
4.614
 21
4.625
  0
LINE
  8
0
 10
6.258
 11
6.383
 20
4.625
 21
4.62
  0
LINE
  8
0
 10
6.383
 11
6.507
 20
4.62
 21
4.599
  0
LINE
  8
0
 10
6.507
 11
6.628
 20
4.599
 21
4.562
  0
LINE
  8
0
 10
6.628
 11
6.742
 20
4.562
 21
4.511
  0
LINE
  8
0
 10
6.742
 11
6.849
 20
4.511
 21
4.446
  0
LINE
  8
0
 10
6.849
 11
6.948
 20
4.446
 21
4.368
  0
LINE
  8
0
 10
6.948
 11
7.036
 20
4.368
 21
4.278
  0
LINE
  8
0
 10
7.036
 11
7.111
 20
4.278
 21
4.179
  0
LINE
  8
0
 10
7.111
 11
7.174
 20
4.179
 21
4.069
  0
LINE
  8
0
 10
7.174
 11
7.223
 20
4.069
 21
3.954
  0
LINE
  8
0
 10
7.223
 11
7.257
 20
3.954
 21
3.833
  0
LINE
  8
0
 10
7.257
 11
7.275
 20
3.833
 21
3.709
  0
LINE
  8
0
 10
7.275
 11
7.278
 20
3.709
 21
3.583
  0
LINE
  8
0
 10
7.278
 11
7.265
 20
3.583
 21
3.459
  0
LINE
  8
0
 10
7.265
 11
7.236
 20
3.459
 21
3.336
  0
LINE
  8
0
 10
7.236
 11
7.192
 20
3.336
 21
3.218
  0
LINE
  8
0
 10
7.192
 11
7.134
 20
3.218
 21
3.107
  0
LINE
  8
0
 10
7.134
 11
7.062
 20
3.107
 21
3.004
  0
LINE
  8
0
 10
7.062
 11
6.979
 20
3.004
 21
2.91
  0
LINE
  8
0
 10
6.979
 11
6.883
 20
2.91
 21
2.828
  0
LINE
  8
0
 10
6.883
 11
6.779
 20
2.828
 21
2.759
  0
LINE
  8
0
 10
6.779
 11
6.666
 20
2.759
 21
2.703
  0
LINE
  8
0
 10
6.666
 11
6.548
 20
2.703
 21
2.661
  0
LINE
  8
0
 10
6.548
 11
6.425
 20
2.661
 21
2.636
  0
LINE
  8
0
 10
6.425
 11
6.299
 20
2.636
 21
2.625
  0
LINE
  8
0
 10
6.299
 11
6.174
 20
2.625
 21
2.63
  0
LINE
  8
0
 10
6.174
 11
6.05
 20
2.63
 21
2.651
  0
LINE
  8
0
 10
6.05
 11
5.929
 20
2.651
 21
2.688
  0
LINE
  8
0
 10
5.929
 11
5.816
 20
2.688
 21
2.739
  0
LINE
  8
0
 10
5.816
 11
5.708
 20
2.739
 21
2.804
  0
LINE
  8
0
 10
5.708
 11
5.61
 20
2.804
 21
2.882
  0
LINE
  8
0
 10
5.61
 11
5.522
 20
2.882
 21
2.972
  0
LINE
  8
0
 10
5.522
 11
5.446
 20
2.972
 21
3.071
  0
LINE
  8
0
 10
5.446
 11
5.383
 20
3.071
 21
3.181
  0
LINE
  8
0
 10
5.383
 11
5.335
 20
3.181
 21
3.296
  0
LINE
  8
0
 10
5.335
 11
5.301
 20
3.296
 21
3.417
  0
LINE
  8
0
 10
5.301
 11
5.282
 20
3.417
 21
3.541
  0
LINE
  8
0
 10
5.282
 11
5.28
 20
3.541
 21
3.667
  0
LINE
  8
0
 10
19.75
 11
19.79
 20
0
 21
1.272
  0
LINE
  8
0
 10
19.79
 11
19.91
 20
1.272
 21
2.538
  0
LINE
  8
0
 10
19.91
 11
20.109
 20
2.538
 21
3.794
  0
LINE
  8
0
 10
20.109
 11
20.386
 20
3.794
 21
5.036
  0
LINE
  8
0
 10
20.386
 11
20.741
 20
5.036
 21
6.258
  0
LINE
  8
0
 10
20.741
 11
21.172
 20
6.258
 21
7.455
  0
LINE
  8
0
 10
21.172
 11
21.677
 20
7.455
 21
8.622
  0
LINE
  8
0
 10
21.677
 11
22.255
 20
8.622
 21
9.756
  0
LINE
  8
0
 10
22.255
 11
22.902
 20
9.756
 21
10.85
  0
LINE
  8
0
 10
22.902
 11
23.617
 20
10.85
 21
11.903
  0
LINE
  8
0
 10
23.617
 11
24.397
 20
11.903
 21
12.908
  0
LINE
  8
0
 10
24.397
 11
25.238
 20
12.908
 21
13.862
  0
LINE
  8
0
 10
25.238
 11
26.138
 20
13.862
 21
14.762
  0
LINE
  8
0
 10
26.138
 11
27.092
 20
14.762
 21
15.603
  0
LINE
  8
0
 10
27.092
 11
28.097
 20
15.603
 21
16.383
  0
LINE
  8
0
 10
28.097
 11
29.15
 20
16.383
 21
17.098
  0
LINE
  8
0
 10
29.15
 11
30.244
 20
17.098
 21
17.745
  0
LINE
  8
0
 10
30.244
 11
31.378
 20
17.745
 21
18.323
  0
LINE
  8
0
 10
31.378
 11
32.545
 20
18.323
 21
18.828
  0
LINE
  8
0
 10
32.545
 11
33.742
 20
18.828
 21
19.259
  0
LINE
  8
0
 10
33.742
 11
34.964
 20
19.259
 21
19.614
  0
LINE
  8
0
 10
34.964
 11
36.206
 20
19.614
 21
19.891
  0
LINE
  8
0
 10
36.206
 11
37.462
 20
19.891
 21
20.09
  0
LINE
  8
0
 10
37.462
 11
38.728
 20
20.09
 21
20.21
  0
LINE
  8
0
 10
38.728
 11
40
 20
20.21
 21
20.25
  0
LINE
  8
0
 10
40
 11
41.272
 20
20.25
 21
20.21
  0
LINE
  8
0
 10
41.272
 11
42.538
 20
20.21
 21
20.09
  0
LINE
  8
0
 10
42.538
 11
43.794
 20
20.09
 21
19.891
  0
LINE
  8
0
 10
43.794
 11
45.036
 20
19.891
 21
19.614
  0
LINE
  8
0
 10
45.036
 11
46.258
 20
19.614
 21
19.259
  0
LINE
  8
0
 10
46.258
 11
47.455
 20
19.259
 21
18.828
  0
LINE
  8
0
 10
47.455
 11
48.622
 20
18.828
 21
18.323
  0
LINE
  8
0
 10
48.622
 11
49.756
 20
18.323
 21
17.745
  0
LINE
  8
0
 10
49.756
 11
50.85
 20
17.745
 21
17.098
  0
LINE
  8
0
 10
50.85
 11
51.903
 20
17.098
 21
16.383
  0
LINE
  8
0
 10
51.903
 11
52.908
 20
16.383
 21
15.603
  0
LINE
  8
0
 10
52.908
 11
53.862
 20
15.603
 21
14.762
  0
LINE
  8
0
 10
53.862
 11
54.762
 20
14.762
 21
13.862
  0
LINE
  8
0
 10
54.762
 11
55.603
 20
13.862
 21
12.908
  0
LINE
  8
0
 10
55.603
 11
56.383
 20
12.908
 21
11.903
  0
LINE
  8
0
 10
56.383
 11
57.098
 20
11.903
 21
10.85
  0
LINE
  8
0
 10
57.098
 11
57.745
 20
10.85
 21
9.756
  0
LINE
  8
0
 10
57.745
 11
58.323
 20
9.756
 21
8.622
  0
LINE
  8
0
 10
58.323
 11
58.828
 20
8.622
 21
7.455
  0
LINE
  8
0
 10
58.828
 11
59.259
 20
7.455
 21
6.258
  0
LINE
  8
0
 10
59.259
 11
59.614
 20
6.258
 21
5.036
  0
LINE
  8
0
 10
59.614
 11
59.891
 20
5.036
 21
3.794
  0
LINE
  8
0
 10
59.891
 11
60.09
 20
3.794
 21
2.538
  0
LINE
  8
0
 10
60.09
 11
60.21
 20
2.538
 21
1.272
  0
LINE
  8
0
 10
60.21
 11
60.25
 20
1.272
 21
0
  0
LINE
  8
0
 10
60.25
 11
54.25
 20
0
 21
0
  0
LINE
  8
0
 10
54.25
 11
54.222
 20
0
 21
0.895
  0
LINE
  8
0
 10
54.222
 11
54.138
 20
0.895
 21
1.786
  0
LINE
  8
0
 10
54.138
 11
53.998
 20
1.786
 21
2.67
  0
LINE
  8
0
 10
53.998
 11
53.802
 20
2.67
 21
3.544
  0
LINE
  8
0
 10
53.802
 11
53.553
 20
3.544
 21
4.403
  0
LINE
  8
0
 10
53.553
 11
53.249
 20
4.403
 21
5.246
  0
LINE
  8
0
 10
53.249
 11
52.894
 20
5.246
 21
6.067
  0
LINE
  8
0
 10
52.894
 11
52.487
 20
6.067
 21
6.865
  0
LINE
  8
0
 10
52.487
 11
52.032
 20
6.865
 21
7.636
  0
LINE
  8
0
 10
52.032
 11
51.528
 20
7.636
 21
8.376
  0
LINE
  8
0
 10
51.528
 11
50.98
 20
8.376
 21
9.083
  0
LINE
  8
0
 10
50.98
 11
50.388
 20
9.083
 21
9.755
  0
LINE
  8
0
 10
50.388
 11
49.755
 20
9.755
 21
10.388
  0
LINE
  8
0
 10
49.755
 11
49.083
 20
10.388
 21
10.98
  0
LINE
  8
0
 10
49.083
 11
48.376
 20
10.98
 21
11.528
  0
LINE
  8
0
 10
48.376
 11
47.636
 20
11.528
 21
12.032
  0
LINE
  8
0
 10
47.636
 11
46.865
 20
12.032
 21
12.487
  0
LINE
  8
0
 10
46.865
 11
46.067
 20
12.487
 21
12.894
  0
LINE
  8
0
 10
46.067
 11
45.246
 20
12.894
 21
13.249
  0
LINE
  8
0
 10
45.246
 11
44.403
 20
13.249
 21
13.553
  0
LINE
  8
0
 10
44.403
 11
43.544
 20
13.553
 21
13.802
  0
LINE
  8
0
 10
43.544
 11
42.67
 20
13.802
 21
13.998
  0
LINE
  8
0
 10
42.67
 11
41.786
 20
13.998
 21
14.138
  0
LINE
  8
0
 10
41.786
 11
40.895
 20
14.138
 21
14.222
  0
LINE
  8
0
 10
40.895
 11
40
 20
14.222
 21
14.25
  0
LINE
  8
0
 10
40
 11
39.105
 20
14.25
 21
14.222
  0
LINE
  8
0
 10
39.105
 11
38.214
 20
14.222
 21
14.138
  0
LINE
  8
0
 10
38.214
 11
37.33
 20
14.138
 21
13.998
  0
LINE
  8
0
 10
37.33
 11
36.456
 20
13.998
 21
13.802
  0
LINE
  8
0
 10
36.456
 11
35.597
 20
13.802
 21
13.553
  0
LINE
  8
0
 10
35.597
 11
34.754
 20
13.553
 21
13.249
  0
LINE
  8
0
 10
34.754
 11
33.933
 20
13.249
 21
12.894
  0
LINE
  8
0
 10
33.933
 11
33.135
 20
12.894
 21
12.487
  0
LINE
  8
0
 10
33.135
 11
32.364
 20
12.487
 21
12.032
  0
LINE
  8
0
 10
32.364
 11
31.624
 20
12.032
 21
11.528
  0
LINE
  8
0
 10
31.624
 11
30.917
 20
11.528
 21
10.98
  0
LINE
  8
0
 10
30.917
 11
30.245
 20
10.98
 21
10.388
  0
LINE
  8
0
 10
30.245
 11
29.612
 20
10.388
 21
9.755
  0
LINE
  8
0
 10
29.612
 11
29.02
 20
9.755
 21
9.083
  0
LINE
  8
0
 10
29.02
 11
28.472
 20
9.083
 21
8.376
  0
LINE
  8
0
 10
28.472
 11
27.968
 20
8.376
 21
7.636
  0
LINE
  8
0
 10
27.968
 11
27.513
 20
7.636
 21
6.865
  0
LINE
  8
0
 10
27.513
 11
27.106
 20
6.865
 21
6.067
  0
LINE
  8
0
 10
27.106
 11
26.751
 20
6.067
 21
5.246
  0
LINE
  8
0
 10
26.751
 11
26.447
 20
5.246
 21
4.403
  0
LINE
  8
0
 10
26.447
 11
26.198
 20
4.403
 21
3.544
  0
LINE
  8
0
 10
26.198
 11
26.002
 20
3.544
 21
2.67
  0
LINE
  8
0
 10
26.002
 11
25.862
 20
2.67
 21
1.786
  0
LINE
  8
0
 10
25.862
 11
25.778
 20
1.786
 21
0.895
  0
LINE
  8
0
 10
25.778
 11
25.75
 20
0.895
 21
0
  0
LINE
  8
0
 10
25.75
 11
19.75
 20
0
 21
0
  0
LINE
  8
0
 10
21.341
 11
21.362
 20
4.36
 21
4.778
  0
LINE
  8
0
 10
21.362
 11
21.471
 20
4.778
 21
5.181
  0
LINE
  8
0
 10
21.471
 11
21.661
 20
5.181
 21
5.554
  0
LINE
  8
0
 10
21.661
 11
21.924
 20
5.554
 21
5.879
  0
LINE
  8
0
 10
21.924
 11
22.249
 20
5.879
 21
6.142
  0
LINE
  8
0
 10
22.249
 11
22.621
 20
6.142
 21
6.332
  0
LINE
  8
0
 10
22.621
 11
23.025
 20
6.332
 21
6.44
  0
LINE
  8
0
 10
23.025
 11
23.442
 20
6.44
 21
6.462
  0
LINE
  8
0
 10
23.442
 11
23.855
 20
6.462
 21
6.396
  0
LINE
  8
0
 10
23.855
 11
24.246
 20
6.396
 21
6.246
  0
LINE
  8
0
 10
24.246
 11
24.596
 20
6.246
 21
6.019
  0
LINE
  8
0
 10
24.596
 11
24.892
 20
6.019
 21
5.723
  0
LINE
  8
0
 10
24.892
 11
25.119
 20
5.723
 21
5.372
  0
LINE
  8
0
 10
25.119
 11
25.27
 20
5.372
 21
4.982
  0
LINE
  8
0
 10
25.27
 11
25.335
 20
4.982
 21
4.569
  0
LINE
  8
0
 10
25.335
 11
25.313
 20
4.569
 21
4.152
  0
LINE
  8
0
 10
25.313
 11
25.205
 20
4.152
 21
3.748
  0
LINE
  8
0
 10
25.205
 11
25.015
 20
3.748
 21
3.375
  0
LINE
  8
0
 10
25.015
 11
24.752
 20
3.375
 21
3.05
  0
LINE
  8
0
 10
24.752
 11
24.427
 20
3.05
 21
2.788
  0
LINE
  8
0
 10
24.427
 11
24.055
 20
2.788
 21
2.597
  0
LINE
  8
0
 10
24.055
 11
23.65
 20
2.597
 21
2.489
  0
LINE
  8
0
 10
23.65
 11
23.233
 20
2.489
 21
2.468
  0
LINE
  8
0
 10
23.233
 11
22.82
 20
2.468
 21
2.533
  0
LINE
  8
0
 10
22.82
 11
22.43
 20
2.533
 21
2.683
  0
LINE
  8
0
 10
22.43
 11
22.08
 20
2.683
 21
2.91
  0
LINE
  8
0
 10
22.08
 11
21.783
 20
2.91
 21
3.206
  0
LINE
  8
0
 10
21.783
 11
21.556
 20
3.206
 21
3.557
  0
LINE
  8
0
 10
21.556
 11
21.406
 20
3.557
 21
3.947
  0
LINE
  8
0
 10
21.406
 11
21.341
 20
3.947
 21
4.36
  0
LINE
  8
0
 10
38
 11
38.044
 20
17.25
 21
17.666
  0
LINE
  8
0
 10
38.044
 11
38.173
 20
17.666
 21
18.063
  0
LINE
  8
0
 10
38.173
 11
38.382
 20
18.063
 21
18.426
  0
LINE
  8
0
 10
38.382
 11
38.662
 20
18.426
 21
18.736
  0
LINE
  8
0
 10
38.662
 11
39
 20
18.736
 21
18.982
  0
LINE
  8
0
 10
39
 11
39.382
 20
18.982
 21
19.152
  0
LINE
  8
0
 10
39.382
 11
39.791
 20
19.152
 21
19.239
  0
LINE
  8
0
 10
39.791
 11
40.209
 20
19.239
 21
19.239
  0
LINE
  8
0
 10
40.209
 11
40.618
 20
19.239
 21
19.152
  0
LINE
  8
0
 10
40.618
 11
41
 20
19.152
 21
18.982
  0
LINE
  8
0
 10
41
 11
41.338
 20
18.982
 21
18.736
  0
LINE
  8
0
 10
41.338
 11
41.618
 20
18.736
 21
18.426
  0
LINE
  8
0
 10
41.618
 11
41.827
 20
18.426
 21
18.063
  0
LINE
  8
0
 10
41.827
 11
41.956
 20
18.063
 21
17.666
  0
LINE
  8
0
 10
41.956
 11
42
 20
17.666
 21
17.25
  0
LINE
  8
0
 10
42
 11
41.956
 20
17.25
 21
16.834
  0
LINE
  8
0
 10
41.956
 11
41.827
 20
16.834
 21
16.437
  0
LINE
  8
0
 10
41.827
 11
41.618
 20
16.437
 21
16.074
  0
LINE
  8
0
 10
41.618
 11
41.338
 20
16.074
 21
15.764
  0
LINE
  8
0
 10
41.338
 11
41
 20
15.764
 21
15.518
  0
LINE
  8
0
 10
41
 11
40.618
 20
15.518
 21
15.348
  0
LINE
  8
0
 10
40.618
 11
40.209
 20
15.348
 21
15.261
  0
LINE
  8
0
 10
40.209
 11
39.791
 20
15.261
 21
15.261
  0
LINE
  8
0
 10
39.791
 11
39.382
 20
15.261
 21
15.348
  0
LINE
  8
0
 10
39.382
 11
39
 20
15.348
 21
15.518
  0
LINE
  8
0
 10
39
 11
38.662
 20
15.518
 21
15.764
  0
LINE
  8
0
 10
38.662
 11
38.382
 20
15.764
 21
16.074
  0
LINE
  8
0
 10
38.382
 11
38.173
 20
16.074
 21
16.437
  0
LINE
  8
0
 10
38.173
 11
38.044
 20
16.437
 21
16.834
  0
LINE
  8
0
 10
38.044
 11
38
 20
16.834
 21
17.25
  0
LINE
  8
0
 10
54.665
 11
54.73
 20
4.569
 21
4.982
  0
LINE
  8
0
 10
54.73
 11
54.881
 20
4.982
 21
5.372
  0
LINE
  8
0
 10
54.881
 11
55.108
 20
5.372
 21
5.723
  0
LINE
  8
0
 10
55.108
 11
55.404
 20
5.723
 21
6.019
  0
LINE
  8
0
 10
55.404
 11
55.754
 20
6.019
 21
6.246
  0
LINE
  8
0
 10
55.754
 11
56.145
 20
6.246
 21
6.396
  0
LINE
  8
0
 10
56.145
 11
56.558
 20
6.396
 21
6.462
  0
LINE
  8
0
 10
56.558
 11
56.975
 20
6.462
 21
6.44
  0
LINE
  8
0
 10
56.975
 11
57.379
 20
6.44
 21
6.332
  0
LINE
  8
0
 10
57.379
 11
57.751
 20
6.332
 21
6.142
  0
LINE
  8
0
 10
57.751
 11
58.076
 20
6.142
 21
5.879
  0
LINE
  8
0
 10
58.076
 11
58.339
 20
5.879
 21
5.554
  0
LINE
  8
0
 10
58.339
 11
58.529
 20
5.554
 21
5.181
  0
LINE
  8
0
 10
58.529
 11
58.638
 20
5.181
 21
4.778
  0
LINE
  8
0
 10
58.638
 11
58.659
 20
4.778
 21
4.36
  0
LINE
  8
0
 10
58.659
 11
58.594
 20
4.36
 21
3.947
  0
LINE
  8
0
 10
58.594
 11
58.444
 20
3.947
 21
3.557
  0
LINE
  8
0
 10
58.444
 11
58.217
 20
3.557
 21
3.206
  0
LINE
  8
0
 10
58.217
 11
57.92
 20
3.206
 21
2.91
  0
LINE
  8
0
 10
57.92
 11
57.57
 20
2.91
 21
2.683
  0
LINE
  8
0
 10
57.57
 11
57.18
 20
2.683
 21
2.533
  0
LINE
  8
0
 10
57.18
 11
56.767
 20
2.533
 21
2.468
  0
LINE
  8
0
 10
56.767
 11
56.35
 20
2.468
 21
2.489
  0
LINE
  8
0
 10
56.35
 11
55.945
 20
2.489
 21
2.597
  0
LINE
  8
0
 10
55.945
 11
55.573
 20
2.597
 21
2.788
  0
LINE
  8
0
 10
55.573
 11
55.248
 20
2.788
 21
3.05
  0
LINE
  8
0
 10
55.248
 11
54.985
 20
3.05
 21
3.375
  0
LINE
  8
0
 10
54.985
 11
54.795
 20
3.375
 21
3.748
  0
LINE
  8
0
 10
54.795
 11
54.687
 20
3.748
 21
4.152
  0
LINE
  8
0
 10
54.687
 11
54.665
 20
4.152
 21
4.569
  0
LINE
  8
0
 10
64.75
 11
64.79
 20
0
 21
1.272
  0
LINE
  8
0
 10
64.79
 11
64.91
 20
1.272
 21
2.538
  0
LINE
  8
0
 10
64.91
 11
65.109
 20
2.538
 21
3.794
  0
LINE
  8
0
 10
65.109
 11
65.386
 20
3.794
 21
5.036
  0
LINE
  8
0
 10
65.386
 11
65.741
 20
5.036
 21
6.258
  0
LINE
  8
0
 10
65.741
 11
66.172
 20
6.258
 21
7.455
  0
LINE
  8
0
 10
66.172
 11
66.677
 20
7.455
 21
8.622
  0
LINE
  8
0
 10
66.677
 11
67.255
 20
8.622
 21
9.756
  0
LINE
  8
0
 10
67.255
 11
67.902
 20
9.756
 21
10.85
  0
LINE
  8
0
 10
67.902
 11
68.617
 20
10.85
 21
11.903
  0
LINE
  8
0
 10
68.617
 11
69.397
 20
11.903
 21
12.908
  0
LINE
  8
0
 10
69.397
 11
70.238
 20
12.908
 21
13.862
  0
LINE
  8
0
 10
70.238
 11
71.138
 20
13.862
 21
14.762
  0
LINE
  8
0
 10
71.138
 11
72.092
 20
14.762
 21
15.603
  0
LINE
  8
0
 10
72.092
 11
73.097
 20
15.603
 21
16.383
  0
LINE
  8
0
 10
73.097
 11
74.15
 20
16.383
 21
17.098
  0
LINE
  8
0
 10
74.15
 11
75.244
 20
17.098
 21
17.745
  0
LINE
  8
0
 10
75.244
 11
76.378
 20
17.745
 21
18.323
  0
LINE
  8
0
 10
76.378
 11
77.545
 20
18.323
 21
18.828
  0
LINE
  8
0
 10
77.545
 11
78.742
 20
18.828
 21
19.259
  0
LINE
  8
0
 10
78.742
 11
79.964
 20
19.259
 21
19.614
  0
LINE
  8
0
 10
79.964
 11
81.206
 20
19.614
 21
19.891
  0
LINE
  8
0
 10
81.206
 11
82.462
 20
19.891
 21
20.09
  0
LINE
  8
0
 10
82.462
 11
83.728
 20
20.09
 21
20.21
  0
LINE
  8
0
 10
83.728
 11
85
 20
20.21
 21
20.25
  0
LINE
  8
0
 10
85
 11
86.272
 20
20.25
 21
20.21
  0
LINE
  8
0
 10
86.272
 11
87.538
 20
20.21
 21
20.09
  0
LINE
  8
0
 10
87.538
 11
88.794
 20
20.09
 21
19.891
  0
LINE
  8
0
 10
88.794
 11
90.036
 20
19.891
 21
19.614
  0
LINE
  8
0
 10
90.036
 11
91.258
 20
19.614
 21
19.259
  0
LINE
  8
0
 10
91.258
 11
92.455
 20
19.259
 21
18.828
  0
LINE
  8
0
 10
92.455
 11
93.622
 20
18.828
 21
18.323
  0
LINE
  8
0
 10
93.622
 11
94.756
 20
18.323
 21
17.745
  0
LINE
  8
0
 10
94.756
 11
95.85
 20
17.745
 21
17.098
  0
LINE
  8
0
 10
95.85
 11
96.903
 20
17.098
 21
16.383
  0
LINE
  8
0
 10
96.903
 11
97.908
 20
16.383
 21
15.603
  0
LINE
  8
0
 10
97.908
 11
98.862
 20
15.603
 21
14.762
  0
LINE
  8
0
 10
98.862
 11
99.762
 20
14.762
 21
13.862
  0
LINE
  8
0
 10
99.762
 11
100.603
 20
13.862
 21
12.908
  0
LINE
  8
0
 10
100.603
 11
101.383
 20
12.908
 21
11.903
  0
LINE
  8
0
 10
101.383
 11
102.098
 20
11.903
 21
10.85
  0
LINE
  8
0
 10
102.098
 11
102.745
 20
10.85
 21
9.756
  0
LINE
  8
0
 10
102.745
 11
103.323
 20
9.756
 21
8.622
  0
LINE
  8
0
 10
103.323
 11
103.828
 20
8.622
 21
7.455
  0
LINE
  8
0
 10
103.828
 11
104.259
 20
7.455
 21
6.258
  0
LINE
  8
0
 10
104.259
 11
104.614
 20
6.258
 21
5.036
  0
LINE
  8
0
 10
104.614
 11
104.891
 20
5.036
 21
3.794
  0
LINE
  8
0
 10
104.891
 11
105.09
 20
3.794
 21
2.538
  0
LINE
  8
0
 10
105.09
 11
105.21
 20
2.538
 21
1.272
  0
LINE
  8
0
 10
105.21
 11
105.25
 20
1.272
 21
0
  0
LINE
  8
0
 10
105.25
 11
96.15
 20
0
 21
0
  0
LINE
  8
0
 10
96.15
 11
96.128
 20
0
 21
0.7
  0
LINE
  8
0
 10
96.128
 11
96.062
 20
0.7
 21
1.397
  0
LINE
  8
0
 10
96.062
 11
95.953
 20
1.397
 21
2.089
  0
LINE
  8
0
 10
95.953
 11
95.8
 20
2.089
 21
2.773
  0
LINE
  8
0
 10
95.8
 11
95.604
 20
2.773
 21
3.446
  0
LINE
  8
0
 10
95.604
 11
95.367
 20
3.446
 21
4.105
  0
LINE
  8
0
 10
95.367
 11
95.089
 20
4.105
 21
4.747
  0
LINE
  8
0
 10
95.089
 11
94.771
 20
4.747
 21
5.372
  0
LINE
  8
0
 10
94.771
 11
94.414
 20
5.372
 21
5.974
  0
LINE
  8
0
 10
94.414
 11
94.021
 20
5.974
 21
6.554
  0
LINE
  8
0
 10
94.021
 11
93.591
 20
6.554
 21
7.107
  0
LINE
  8
0
 10
93.591
 11
93.128
 20
7.107
 21
7.633
  0
LINE
  8
0
 10
93.128
 11
92.633
 20
7.633
 21
8.128
  0
LINE
  8
0
 10
92.633
 11
92.107
 20
8.128
 21
8.591
  0
LINE
  8
0
 10
92.107
 11
91.554
 20
8.591
 21
9.021
  0
LINE
  8
0
 10
91.554
 11
90.974
 20
9.021
 21
9.414
  0
LINE
  8
0
 10
90.974
 11
90.372
 20
9.414
 21
9.771
  0
LINE
  8
0
 10
90.372
 11
89.747
 20
9.771
 21
10.089
  0
LINE
  8
0
 10
89.747
 11
89.105
 20
10.089
 21
10.367
  0
LINE
  8
0
 10
89.105
 11
88.446
 20
10.367
 21
10.604
  0
LINE
  8
0
 10
88.446
 11
87.773
 20
10.604
 21
10.8
  0
LINE
  8
0
 10
87.773
 11
87.089
 20
10.8
 21
10.953
  0
LINE
  8
0
 10
87.089
 11
86.397
 20
10.953
 21
11.062
  0
LINE
  8
0
 10
86.397
 11
85.7
 20
11.062
 21
11.128
  0
LINE
  8
0
 10
85.7
 11
85
 20
11.128
 21
11.15
  0
LINE
  8
0
 10
85
 11
84.3
 20
11.15
 21
11.128
  0
LINE
  8
0
 10
84.3
 11
83.603
 20
11.128
 21
11.062
  0
LINE
  8
0
 10
83.603
 11
82.911
 20
11.062
 21
10.953
  0
LINE
  8
0
 10
82.911
 11
82.227
 20
10.953
 21
10.8
  0
LINE
  8
0
 10
82.227
 11
81.554
 20
10.8
 21
10.604
  0
LINE
  8
0
 10
81.554
 11
80.895
 20
10.604
 21
10.367
  0
LINE
  8
0
 10
80.895
 11
80.253
 20
10.367
 21
10.089
  0
LINE
  8
0
 10
80.253
 11
79.628
 20
10.089
 21
9.771
  0
LINE
  8
0
 10
79.628
 11
79.026
 20
9.771
 21
9.414
  0
LINE
  8
0
 10
79.026
 11
78.446
 20
9.414
 21
9.021
  0
LINE
  8
0
 10
78.446
 11
77.893
 20
9.021
 21
8.591
  0
LINE
  8
0
 10
77.893
 11
77.367
 20
8.591
 21
8.128
  0
LINE
  8
0
 10
77.367
 11
76.872
 20
8.128
 21
7.633
  0
LINE
  8
0
 10
76.872
 11
76.409
 20
7.633
 21
7.107
  0
LINE
  8
0
 10
76.409
 11
75.979
 20
7.107
 21
6.554
  0
LINE
  8
0
 10
75.979
 11
75.586
 20
6.554
 21
5.974
  0
LINE
  8
0
 10
75.586
 11
75.229
 20
5.974
 21
5.372
  0
LINE
  8
0
 10
75.229
 11
74.911
 20
5.372
 21
4.747
  0
LINE
  8
0
 10
74.911
 11
74.633
 20
4.747
 21
4.105
  0
LINE
  8
0
 10
74.633
 11
74.396
 20
4.105
 21
3.446
  0
LINE
  8
0
 10
74.396
 11
74.2
 20
3.446
 21
2.773
  0
LINE
  8
0
 10
74.2
 11
74.047
 20
2.773
 21
2.089
  0
LINE
  8
0
 10
74.047
 11
73.938
 20
2.089
 21
1.397
  0
LINE
  8
0
 10
73.938
 11
73.872
 20
1.397
 21
0.7
  0
LINE
  8
0
 10
73.872
 11
73.85
 20
0.7
 21
0
  0
LINE
  8
0
 10
73.85
 11
64.75
 20
0
 21
0
  0
LINE
  8
0
 10
66.341
 11
66.362
 20
4.36
 21
4.778
  0
LINE
  8
0
 10
66.362
 11
66.471
 20
4.778
 21
5.181
  0
LINE
  8
0
 10
66.471
 11
66.661
 20
5.181
 21
5.554
  0
LINE
  8
0
 10
66.661
 11
66.924
 20
5.554
 21
5.879
  0
LINE
  8
0
 10
66.924
 11
67.249
 20
5.879
 21
6.142
  0
LINE
  8
0
 10
67.249
 11
67.621
 20
6.142
 21
6.332
  0
LINE
  8
0
 10
67.621
 11
68.025
 20
6.332
 21
6.44
  0
LINE
  8
0
 10
68.025
 11
68.442
 20
6.44
 21
6.462
  0
LINE
  8
0
 10
68.442
 11
68.855
 20
6.462
 21
6.396
  0
LINE
  8
0
 10
68.855
 11
69.246
 20
6.396
 21
6.246
  0
LINE
  8
0
 10
69.246
 11
69.596
 20
6.246
 21
6.019
  0
LINE
  8
0
 10
69.596
 11
69.892
 20
6.019
 21
5.723
  0
LINE
  8
0
 10
69.892
 11
70.119
 20
5.723
 21
5.372
  0
LINE
  8
0
 10
70.119
 11
70.27
 20
5.372
 21
4.982
  0
LINE
  8
0
 10
70.27
 11
70.335
 20
4.982
 21
4.569
  0
LINE
  8
0
 10
70.335
 11
70.313
 20
4.569
 21
4.152
  0
LINE
  8
0
 10
70.313
 11
70.205
 20
4.152
 21
3.748
  0
LINE
  8
0
 10
70.205
 11
70.015
 20
3.748
 21
3.375
  0
LINE
  8
0
 10
70.015
 11
69.752
 20
3.375
 21
3.05
  0
LINE
  8
0
 10
69.752
 11
69.427
 20
3.05
 21
2.788
  0
LINE
  8
0
 10
69.427
 11
69.055
 20
2.788
 21
2.597
  0
LINE
  8
0
 10
69.055
 11
68.65
 20
2.597
 21
2.489
  0
LINE
  8
0
 10
68.65
 11
68.233
 20
2.489
 21
2.468
  0
LINE
  8
0
 10
68.233
 11
67.82
 20
2.468
 21
2.533
  0
LINE
  8
0
 10
67.82
 11
67.43
 20
2.533
 21
2.683
  0
LINE
  8
0
 10
67.43
 11
67.08
 20
2.683
 21
2.91
  0
LINE
  8
0
 10
67.08
 11
66.783
 20
2.91
 21
3.206
  0
LINE
  8
0
 10
66.783
 11
66.556
 20
3.206
 21
3.557
  0
LINE
  8
0
 10
66.556
 11
66.406
 20
3.557
 21
3.947
  0
LINE
  8
0
 10
66.406
 11
66.341
 20
3.947
 21
4.36
  0
LINE
  8
0
 10
83
 11
83.044
 20
17.25
 21
17.666
  0
LINE
  8
0
 10
83.044
 11
83.173
 20
17.666
 21
18.063
  0
LINE
  8
0
 10
83.173
 11
83.382
 20
18.063
 21
18.426
  0
LINE
  8
0
 10
83.382
 11
83.662
 20
18.426
 21
18.736
  0
LINE
  8
0
 10
83.662
 11
84
 20
18.736
 21
18.982
  0
LINE
  8
0
 10
84
 11
84.382
 20
18.982
 21
19.152
  0
LINE
  8
0
 10
84.382
 11
84.791
 20
19.152
 21
19.239
  0
LINE
  8
0
 10
84.791
 11
85.209
 20
19.239
 21
19.239
  0
LINE
  8
0
 10
85.209
 11
85.618
 20
19.239
 21
19.152
  0
LINE
  8
0
 10
85.618
 11
86
 20
19.152
 21
18.982
  0
LINE
  8
0
 10
86
 11
86.338
 20
18.982
 21
18.736
  0
LINE
  8
0
 10
86.338
 11
86.618
 20
18.736
 21
18.426
  0
LINE
  8
0
 10
86.618
 11
86.827
 20
18.426
 21
18.063
  0
LINE
  8
0
 10
86.827
 11
86.956
 20
18.063
 21
17.666
  0
LINE
  8
0
 10
86.956
 11
87
 20
17.666
 21
17.25
  0
LINE
  8
0
 10
87
 11
86.956
 20
17.25
 21
16.834
  0
LINE
  8
0
 10
86.956
 11
86.827
 20
16.834
 21
16.437
  0
LINE
  8
0
 10
86.827
 11
86.618
 20
16.437
 21
16.074
  0
LINE
  8
0
 10
86.618
 11
86.338
 20
16.074
 21
15.764
  0
LINE
  8
0
 10
86.338
 11
86
 20
15.764
 21
15.518
  0
LINE
  8
0
 10
86
 11
85.618
 20
15.518
 21
15.348
  0
LINE
  8
0
 10
85.618
 11
85.209
 20
15.348
 21
15.261
  0
LINE
  8
0
 10
85.209
 11
84.791
 20
15.261
 21
15.261
  0
LINE
  8
0
 10
84.791
 11
84.382
 20
15.261
 21
15.348
  0
LINE
  8
0
 10
84.382
 11
84
 20
15.348
 21
15.518
  0
LINE
  8
0
 10
84
 11
83.662
 20
15.518
 21
15.764
  0
LINE
  8
0
 10
83.662
 11
83.382
 20
15.764
 21
16.074
  0
LINE
  8
0
 10
83.382
 11
83.173
 20
16.074
 21
16.437
  0
LINE
  8
0
 10
83.173
 11
83.044
 20
16.437
 21
16.834
  0
LINE
  8
0
 10
83.044
 11
83
 20
16.834
 21
17.25
  0
LINE
  8
0
 10
99.665
 11
99.73
 20
4.569
 21
4.982
  0
LINE
  8
0
 10
99.73
 11
99.881
 20
4.982
 21
5.372
  0
LINE
  8
0
 10
99.881
 11
100.108
 20
5.372
 21
5.723
  0
LINE
  8
0
 10
100.108
 11
100.404
 20
5.723
 21
6.019
  0
LINE
  8
0
 10
100.404
 11
100.754
 20
6.019
 21
6.246
  0
LINE
  8
0
 10
100.754
 11
101.145
 20
6.246
 21
6.396
  0
LINE
  8
0
 10
101.145
 11
101.558
 20
6.396
 21
6.462
  0
LINE
  8
0
 10
101.558
 11
101.975
 20
6.462
 21
6.44
  0
LINE
  8
0
 10
101.975
 11
102.379
 20
6.44
 21
6.332
  0
LINE
  8
0
 10
102.379
 11
102.751
 20
6.332
 21
6.142
  0
LINE
  8
0
 10
102.751
 11
103.076
 20
6.142
 21
5.879
  0
LINE
  8
0
 10
103.076
 11
103.339
 20
5.879
 21
5.554
  0
LINE
  8
0
 10
103.339
 11
103.529
 20
5.554
 21
5.181
  0
LINE
  8
0
 10
103.529
 11
103.638
 20
5.181
 21
4.778
  0
LINE
  8
0
 10
103.638
 11
103.659
 20
4.778
 21
4.36
  0
LINE
  8
0
 10
103.659
 11
103.594
 20
4.36
 21
3.947
  0
LINE
  8
0
 10
103.594
 11
103.444
 20
3.947
 21
3.557
  0
LINE
  8
0
 10
103.444
 11
103.217
 20
3.557
 21
3.206
  0
LINE
  8
0
 10
103.217
 11
102.92
 20
3.206
 21
2.91
  0
LINE
  8
0
 10
102.92
 11
102.57
 20
2.91
 21
2.683
  0
LINE
  8
0
 10
102.57
 11
102.18
 20
2.683
 21
2.533
  0
LINE
  8
0
 10
102.18
 11
101.767
 20
2.533
 21
2.468
  0
LINE
  8
0
 10
101.767
 11
101.35
 20
2.468
 21
2.489
  0
LINE
  8
0
 10
101.35
 11
100.945
 20
2.489
 21
2.597
  0
LINE
  8
0
 10
100.945
 11
100.573
 20
2.597
 21
2.788
  0
LINE
  8
0
 10
100.573
 11
100.248
 20
2.788
 21
3.05
  0
LINE
  8
0
 10
100.248
 11
99.985
 20
3.05
 21
3.375
  0
LINE
  8
0
 10
99.985
 11
99.795
 20
3.375
 21
3.748
  0
LINE
  8
0
 10
99.795
 11
99.687
 20
3.748
 21
4.152
  0
LINE
  8
0
 10
99.687
 11
99.665
 20
4.152
 21
4.569
  0
LINE
  8
0
 10
109.75
 11
109.79
 20
0
 21
1.272
  0
LINE
  8
0
 10
109.79
 11
109.91
 20
1.272
 21
2.538
  0
LINE
  8
0
 10
109.91
 11
110.109
 20
2.538
 21
3.794
  0
LINE
  8
0
 10
110.109
 11
110.386
 20
3.794
 21
5.036
  0
LINE
  8
0
 10
110.386
 11
110.741
 20
5.036
 21
6.258
  0
LINE
  8
0
 10
110.741
 11
111.172
 20
6.258
 21
7.455
  0
LINE
  8
0
 10
111.172
 11
111.677
 20
7.455
 21
8.622
  0
LINE
  8
0
 10
111.677
 11
112.255
 20
8.622
 21
9.756
  0
LINE
  8
0
 10
112.255
 11
112.902
 20
9.756
 21
10.85
  0
LINE
  8
0
 10
112.902
 11
113.617
 20
10.85
 21
11.903
  0
LINE
  8
0
 10
113.617
 11
114.397
 20
11.903
 21
12.908
  0
LINE
  8
0
 10
114.397
 11
115.238
 20
12.908
 21
13.862
  0
LINE
  8
0
 10
115.238
 11
116.138
 20
13.862
 21
14.762
  0
LINE
  8
0
 10
116.138
 11
117.092
 20
14.762
 21
15.603
  0
LINE
  8
0
 10
117.092
 11
118.097
 20
15.603
 21
16.383
  0
LINE
  8
0
 10
118.097
 11
119.15
 20
16.383
 21
17.098
  0
LINE
  8
0
 10
119.15
 11
120.244
 20
17.098
 21
17.745
  0
LINE
  8
0
 10
120.244
 11
121.378
 20
17.745
 21
18.323
  0
LINE
  8
0
 10
121.378
 11
122.545
 20
18.323
 21
18.828
  0
LINE
  8
0
 10
122.545
 11
123.742
 20
18.828
 21
19.259
  0
LINE
  8
0
 10
123.742
 11
124.964
 20
19.259
 21
19.614
  0
LINE
  8
0
 10
124.964
 11
126.206
 20
19.614
 21
19.891
  0
LINE
  8
0
 10
126.206
 11
127.462
 20
19.891
 21
20.09
  0
LINE
  8
0
 10
127.462
 11
128.728
 20
20.09
 21
20.21
  0
LINE
  8
0
 10
128.728
 11
130
 20
20.21
 21
20.25
  0
LINE
  8
0
 10
130
 11
131.272
 20
20.25
 21
20.21
  0
LINE
  8
0
 10
131.272
 11
132.538
 20
20.21
 21
20.09
  0
LINE
  8
0
 10
132.538
 11
133.794
 20
20.09
 21
19.891
  0
LINE
  8
0
 10
133.794
 11
135.036
 20
19.891
 21
19.614
  0
LINE
  8
0
 10
135.036
 11
136.258
 20
19.614
 21
19.259
  0
LINE
  8
0
 10
136.258
 11
137.455
 20
19.259
 21
18.828
  0
LINE
  8
0
 10
137.455
 11
138.622
 20
18.828
 21
18.323
  0
LINE
  8
0
 10
138.622
 11
139.756
 20
18.323
 21
17.745
  0
LINE
  8
0
 10
139.756
 11
140.85
 20
17.745
 21
17.098
  0
LINE
  8
0
 10
140.85
 11
141.903
 20
17.098
 21
16.383
  0
LINE
  8
0
 10
141.903
 11
142.908
 20
16.383
 21
15.603
  0
LINE
  8
0
 10
142.908
 11
143.862
 20
15.603
 21
14.762
  0
LINE
  8
0
 10
143.862
 11
144.762
 20
14.762
 21
13.862
  0
LINE
  8
0
 10
144.762
 11
145.603
 20
13.862
 21
12.908
  0
LINE
  8
0
 10
145.603
 11
146.383
 20
12.908
 21
11.903
  0
LINE
  8
0
 10
146.383
 11
147.098
 20
11.903
 21
10.85
  0
LINE
  8
0
 10
147.098
 11
147.745
 20
10.85
 21
9.756
  0
LINE
  8
0
 10
147.745
 11
148.323
 20
9.756
 21
8.622
  0
LINE
  8
0
 10
148.323
 11
148.828
 20
8.622
 21
7.455
  0
LINE
  8
0
 10
148.828
 11
149.259
 20
7.455
 21
6.258
  0
LINE
  8
0
 10
149.259
 11
149.614
 20
6.258
 21
5.036
  0
LINE
  8
0
 10
149.614
 11
149.891
 20
5.036
 21
3.794
  0
LINE
  8
0
 10
149.891
 11
150.09
 20
3.794
 21
2.538
  0
LINE
  8
0
 10
150.09
 11
150.21
 20
2.538
 21
1.272
  0
LINE
  8
0
 10
150.21
 11
150.25
 20
1.272
 21
0
  0
LINE
  8
0
 10
150.25
 11
150.21
 20
0
 21
-1.272
  0
LINE
  8
0
 10
150.21
 11
150.09
 20
-1.272
 21
-2.538
  0
LINE
  8
0
 10
150.09
 11
149.891
 20
-2.538
 21
-3.794
  0
LINE
  8
0
 10
149.891
 11
149.622
 20
-3.794
 21
-5
  0
LINE
  8
0
 10
149.622
 11
137.434
 20
-5
 21
-5
  0
LINE
  8
0
 10
137.434
 11
138.168
 20
-5
 21
-3.779
  0
LINE
  8
0
 10
138.168
 11
138.79
 20
-3.779
 21
-1.935
  0
LINE
  8
0
 10
138.79
 11
139
 20
-1.935
 21
0
  0
LINE
  8
0
 10
139
 11
138.79
 20
0
 21
1.935
  0
LINE
  8
0
 10
138.79
 11
138.168
 20
1.935
 21
3.779
  0
LINE
  8
0
 10
138.168
 11
137.165
 20
3.779
 21
5.447
  0
LINE
  8
0
 10
137.165
 11
135.826
 20
5.447
 21
6.859
  0
LINE
  8
0
 10
135.826
 11
135
 20
6.859
 21
7.42
  0
LINE
  8
0
 10
135
 11
135
 20
7.42
 21
7.068
  0
LINE
  8
0
 10
135
 11
135.424
 20
7.068
 21
6.802
  0
LINE
  8
0
 10
135.424
 11
136.802
 20
6.802
 21
5.424
  0
LINE
  8
0
 10
136.802
 11
137.838
 20
5.424
 21
3.775
  0
LINE
  8
0
 10
137.838
 11
138.482
 20
3.775
 21
1.936
  0
LINE
  8
0
 10
138.482
 11
138.7
 20
1.936
 21
0
  0
LINE
  8
0
 10
138.7
 11
138.482
 20
0
 21
-1.936
  0
LINE
  8
0
 10
138.482
 11
137.838
 20
-1.936
 21
-3.775
  0
LINE
  8
0
 10
137.838
 11
137.068
 20
-3.775
 21
-5
  0
LINE
  8
0
 10
137.068
 11
122.932
 20
-5
 21
-5
  0
LINE
  8
0
 10
122.932
 11
122.162
 20
-5
 21
-3.775
  0
LINE
  8
0
 10
122.162
 11
121.518
 20
-3.775
 21
-1.936
  0
LINE
  8
0
 10
121.518
 11
121.3
 20
-1.936
 21
0
  0
LINE
  8
0
 10
121.3
 11
121.518
 20
0
 21
1.936
  0
LINE
  8
0
 10
121.518
 11
122.162
 20
1.936
 21
3.775
  0
LINE
  8
0
 10
122.162
 11
123.198
 20
3.775
 21
5.424
  0
LINE
  8
0
 10
123.198
 11
124.576
 20
5.424
 21
6.802
  0
LINE
  8
0
 10
124.576
 11
125
 20
6.802
 21
7.068
  0
LINE
  8
0
 10
125
 11
125
 20
7.068
 21
7.476
  0
LINE
  8
0
 10
125
 11
124.949
 20
7.476
 21
7.449
  0
LINE
  8
0
 10
124.949
 11
123.466
 20
7.449
 21
6.189
  0
LINE
  8
0
 10
123.466
 11
122.288
 20
6.189
 21
4.64
  0
LINE
  8
0
 10
122.288
 11
121.471
 20
4.64
 21
2.874
  0
LINE
  8
0
 10
121.471
 11
121.053
 20
2.874
 21
0.973
  0
LINE
  8
0
 10
121.053
 11
121.053
 20
0.973
 21
-0.973
  0
LINE
  8
0
 10
121.053
 11
121.471
 20
-0.973
 21
-2.874
  0
LINE
  8
0
 10
121.471
 11
122.288
 20
-2.874
 21
-4.64
  0
LINE
  8
0
 10
122.288
 11
122.562
 20
-4.64
 21
-5
  0
LINE
  8
0
 10
122.562
 11
110.378
 20
-5
 21
-5
  0
LINE
  8
0
 10
110.378
 11
110.109
 20
-5
 21
-3.794
  0
LINE
  8
0
 10
110.109
 11
109.91
 20
-3.794
 21
-2.538
  0
LINE
  8
0
 10
109.91
 11
109.79
 20
-2.538
 21
-1.272
  0
LINE
  8
0
 10
109.79
 11
109.75
 20
-1.272
 21
0
  0
LINE
  8
0
 10
111.341
 11
111.362
 20
4.36
 21
4.778
  0
LINE
  8
0
 10
111.362
 11
111.471
 20
4.778
 21
5.181
  0
LINE
  8
0
 10
111.471
 11
111.661
 20
5.181
 21
5.554
  0
LINE
  8
0
 10
111.661
 11
111.924
 20
5.554
 21
5.879
  0
LINE
  8
0
 10
111.924
 11
112.249
 20
5.879
 21
6.142
  0
LINE
  8
0
 10
112.249
 11
112.621
 20
6.142
 21
6.332
  0
LINE
  8
0
 10
112.621
 11
113.025
 20
6.332
 21
6.44
  0
LINE
  8
0
 10
113.025
 11
113.442
 20
6.44
 21
6.462
  0
LINE
  8
0
 10
113.442
 11
113.855
 20
6.462
 21
6.396
  0
LINE
  8
0
 10
113.855
 11
114.246
 20
6.396
 21
6.246
  0
LINE
  8
0
 10
114.246
 11
114.596
 20
6.246
 21
6.019
  0
LINE
  8
0
 10
114.596
 11
114.892
 20
6.019
 21
5.723
  0
LINE
  8
0
 10
114.892
 11
115.119
 20
5.723
 21
5.372
  0
LINE
  8
0
 10
115.119
 11
115.27
 20
5.372
 21
4.982
  0
LINE
  8
0
 10
115.27
 11
115.335
 20
4.982
 21
4.569
  0
LINE
  8
0
 10
115.335
 11
115.313
 20
4.569
 21
4.152
  0
LINE
  8
0
 10
115.313
 11
115.205
 20
4.152
 21
3.748
  0
LINE
  8
0
 10
115.205
 11
115.015
 20
3.748
 21
3.375
  0
LINE
  8
0
 10
115.015
 11
114.752
 20
3.375
 21
3.05
  0
LINE
  8
0
 10
114.752
 11
114.427
 20
3.05
 21
2.788
  0
LINE
  8
0
 10
114.427
 11
114.055
 20
2.788
 21
2.597
  0
LINE
  8
0
 10
114.055
 11
113.65
 20
2.597
 21
2.489
  0
LINE
  8
0
 10
113.65
 11
113.233
 20
2.489
 21
2.468
  0
LINE
  8
0
 10
113.233
 11
112.82
 20
2.468
 21
2.533
  0
LINE
  8
0
 10
112.82
 11
112.43
 20
2.533
 21
2.683
  0
LINE
  8
0
 10
112.43
 11
112.08
 20
2.683
 21
2.91
  0
LINE
  8
0
 10
112.08
 11
111.783
 20
2.91
 21
3.206
  0
LINE
  8
0
 10
111.783
 11
111.556
 20
3.206
 21
3.557
  0
LINE
  8
0
 10
111.556
 11
111.406
 20
3.557
 21
3.947
  0
LINE
  8
0
 10
111.406
 11
111.341
 20
3.947
 21
4.36
  0
LINE
  8
0
 10
125.2
 11
125.209
 20
0
 21
0.301
  0
LINE
  8
0
 10
125.209
 11
125.238
 20
0.301
 21
0.602
  0
LINE
  8
0
 10
125.238
 11
125.285
 20
0.602
 21
0.899
  0
LINE
  8
0
 10
125.285
 11
125.351
 20
0.899
 21
1.194
  0
LINE
  8
0
 10
125.351
 11
125.435
 20
1.194
 21
1.483
  0
LINE
  8
0
 10
125.435
 11
125.537
 20
1.483
 21
1.767
  0
LINE
  8
0
 10
125.537
 11
125.657
 20
1.767
 21
2.044
  0
LINE
  8
0
 10
125.657
 11
125.794
 20
2.044
 21
2.312
  0
LINE
  8
0
 10
125.794
 11
125.947
 20
2.312
 21
2.572
  0
LINE
  8
0
 10
125.947
 11
126.117
 20
2.572
 21
2.821
  0
LINE
  8
0
 10
126.117
 11
126.302
 20
2.821
 21
3.06
  0
LINE
  8
0
 10
126.302
 11
126.501
 20
3.06
 21
3.286
  0
LINE
  8
0
 10
126.501
 11
126.714
 20
3.286
 21
3.499
  0
LINE
  8
0
 10
126.714
 11
126.94
 20
3.499
 21
3.698
  0
LINE
  8
0
 10
126.94
 11
127.179
 20
3.698
 21
3.883
  0
LINE
  8
0
 10
127.179
 11
127.428
 20
3.883
 21
4.053
  0
LINE
  8
0
 10
127.428
 11
127.688
 20
4.053
 21
4.206
  0
LINE
  8
0
 10
127.688
 11
127.956
 20
4.206
 21
4.343
  0
LINE
  8
0
 10
127.956
 11
128.233
 20
4.343
 21
4.463
  0
LINE
  8
0
 10
128.233
 11
128.517
 20
4.463
 21
4.565
  0
LINE
  8
0
 10
128.517
 11
128.806
 20
4.565
 21
4.649
  0
LINE
  8
0
 10
128.806
 11
129.101
 20
4.649
 21
4.715
  0
LINE
  8
0
 10
129.101
 11
129.398
 20
4.715
 21
4.762
  0
LINE
  8
0
 10
129.398
 11
129.699
 20
4.762
 21
4.791
  0
LINE
  8
0
 10
129.699
 11
130
 20
4.791
 21
4.8
  0
LINE
  8
0
 10
130
 11
130.301
 20
4.8
 21
4.791
  0
LINE
  8
0
 10
130.301
 11
130.602
 20
4.791
 21
4.762
  0
LINE
  8
0
 10
130.602
 11
130.899
 20
4.762
 21
4.715
  0
LINE
  8
0
 10
130.899
 11
131.194
 20
4.715
 21
4.649
  0
LINE
  8
0
 10
131.194
 11
131.483
 20
4.649
 21
4.565
  0
LINE
  8
0
 10
131.483
 11
131.767
 20
4.565
 21
4.463
  0
LINE
  8
0
 10
131.767
 11
132.044
 20
4.463
 21
4.343
  0
LINE
  8
0
 10
132.044
 11
132.312
 20
4.343
 21
4.206
  0
LINE
  8
0
 10
132.312
 11
132.572
 20
4.206
 21
4.053
  0
LINE
  8
0
 10
132.572
 11
132.821
 20
4.053
 21
3.883
  0
LINE
  8
0
 10
132.821
 11
133.06
 20
3.883
 21
3.698
  0
LINE
  8
0
 10
133.06
 11
133.286
 20
3.698
 21
3.499
  0
LINE
  8
0
 10
133.286
 11
133.499
 20
3.499
 21
3.286
  0
LINE
  8
0
 10
133.499
 11
133.698
 20
3.286
 21
3.06
  0
LINE
  8
0
 10
133.698
 11
133.883
 20
3.06
 21
2.821
  0
LINE
  8
0
 10
133.883
 11
134.053
 20
2.821
 21
2.572
  0
LINE
  8
0
 10
134.053
 11
134.206
 20
2.572
 21
2.312
  0
LINE
  8
0
 10
134.206
 11
134.343
 20
2.312
 21
2.044
  0
LINE
  8
0
 10
134.343
 11
134.463
 20
2.044
 21
1.767
  0
LINE
  8
0
 10
134.463
 11
134.565
 20
1.767
 21
1.483
  0
LINE
  8
0
 10
134.565
 11
134.649
 20
1.483
 21
1.194
  0
LINE
  8
0
 10
134.649
 11
134.715
 20
1.194
 21
0.899
  0
LINE
  8
0
 10
134.715
 11
134.762
 20
0.899
 21
0.602
  0
LINE
  8
0
 10
134.762
 11
134.791
 20
0.602
 21
0.301
  0
LINE
  8
0
 10
134.791
 11
134.8
 20
0.301
 21
0
  0
LINE
  8
0
 10
134.8
 11
134.791
 20
0
 21
-0.301
  0
LINE
  8
0
 10
134.791
 11
134.762
 20
-0.301
 21
-0.602
  0
LINE
  8
0
 10
134.762
 11
134.715
 20
-0.602
 21
-0.899
  0
LINE
  8
0
 10
134.715
 11
134.649
 20
-0.899
 21
-1.194
  0
LINE
  8
0
 10
134.649
 11
134.565
 20
-1.194
 21
-1.483
  0
LINE
  8
0
 10
134.565
 11
134.463
 20
-1.483
 21
-1.767
  0
LINE
  8
0
 10
134.463
 11
134.343
 20
-1.767
 21
-2.044
  0
LINE
  8
0
 10
134.343
 11
134.206
 20
-2.044
 21
-2.312
  0
LINE
  8
0
 10
134.206
 11
134.053
 20
-2.312
 21
-2.572
  0
LINE
  8
0
 10
134.053
 11
133.883
 20
-2.572
 21
-2.821
  0
LINE
  8
0
 10
133.883
 11
133.698
 20
-2.821
 21
-3.06
  0
LINE
  8
0
 10
133.698
 11
133.499
 20
-3.06
 21
-3.286
  0
LINE
  8
0
 10
133.499
 11
133.286
 20
-3.286
 21
-3.499
  0
LINE
  8
0
 10
133.286
 11
133.06
 20
-3.499
 21
-3.698
  0
LINE
  8
0
 10
133.06
 11
132.821
 20
-3.698
 21
-3.883
  0
LINE
  8
0
 10
132.821
 11
132.572
 20
-3.883
 21
-4.053
  0
LINE
  8
0
 10
132.572
 11
132.312
 20
-4.053
 21
-4.206
  0
LINE
  8
0
 10
132.312
 11
132.044
 20
-4.206
 21
-4.343
  0
LINE
  8
0
 10
132.044
 11
131.767
 20
-4.343
 21
-4.463
  0
LINE
  8
0
 10
131.767
 11
131.483
 20
-4.463
 21
-4.565
  0
LINE
  8
0
 10
131.483
 11
131.194
 20
-4.565
 21
-4.649
  0
LINE
  8
0
 10
131.194
 11
130.899
 20
-4.649
 21
-4.715
  0
LINE
  8
0
 10
130.899
 11
130.602
 20
-4.715
 21
-4.762
  0
LINE
  8
0
 10
130.602
 11
130.301
 20
-4.762
 21
-4.791
  0
LINE
  8
0
 10
130.301
 11
130
 20
-4.791
 21
-4.8
  0
LINE
  8
0
 10
130
 11
129.699
 20
-4.8
 21
-4.791
  0
LINE
  8
0
 10
129.699
 11
129.398
 20
-4.791
 21
-4.762
  0
LINE
  8
0
 10
129.398
 11
129.101
 20
-4.762
 21
-4.715
  0
LINE
  8
0
 10
129.101
 11
128.806
 20
-4.715
 21
-4.649
  0
LINE
  8
0
 10
128.806
 11
128.517
 20
-4.649
 21
-4.565
  0
LINE
  8
0
 10
128.517
 11
128.233
 20
-4.565
 21
-4.463
  0
LINE
  8
0
 10
128.233
 11
127.956
 20
-4.463
 21
-4.343
  0
LINE
  8
0
 10
127.956
 11
127.688
 20
-4.343
 21
-4.206
  0
LINE
  8
0
 10
127.688
 11
127.428
 20
-4.206
 21
-4.053
  0
LINE
  8
0
 10
127.428
 11
127.179
 20
-4.053
 21
-3.883
  0
LINE
  8
0
 10
127.179
 11
126.94
 20
-3.883
 21
-3.698
  0
LINE
  8
0
 10
126.94
 11
126.714
 20
-3.698
 21
-3.499
  0
LINE
  8
0
 10
126.714
 11
126.501
 20
-3.499
 21
-3.286
  0
LINE
  8
0
 10
126.501
 11
126.302
 20
-3.286
 21
-3.06
  0
LINE
  8
0
 10
126.302
 11
126.117
 20
-3.06
 21
-2.821
  0
LINE
  8
0
 10
126.117
 11
125.947
 20
-2.821
 21
-2.572
  0
LINE
  8
0
 10
125.947
 11
125.794
 20
-2.572
 21
-2.312
  0
LINE
  8
0
 10
125.794
 11
125.657
 20
-2.312
 21
-2.044
  0
LINE
  8
0
 10
125.657
 11
125.537
 20
-2.044
 21
-1.767
  0
LINE
  8
0
 10
125.537
 11
125.435
 20
-1.767
 21
-1.483
  0
LINE
  8
0
 10
125.435
 11
125.351
 20
-1.483
 21
-1.194
  0
LINE
  8
0
 10
125.351
 11
125.285
 20
-1.194
 21
-0.899
  0
LINE
  8
0
 10
125.285
 11
125.238
 20
-0.899
 21
-0.602
  0
LINE
  8
0
 10
125.238
 11
125.209
 20
-0.602
 21
-0.301
  0
LINE
  8
0
 10
125.209
 11
125.2
 20
-0.301
 21
0
  0
LINE
  8
0
 10
128
 11
128.044
 20
17.25
 21
17.666
  0
LINE
  8
0
 10
128.044
 11
128.173
 20
17.666
 21
18.063
  0
LINE
  8
0
 10
128.173
 11
128.382
 20
18.063
 21
18.426
  0
LINE
  8
0
 10
128.382
 11
128.662
 20
18.426
 21
18.736
  0
LINE
  8
0
 10
128.662
 11
129
 20
18.736
 21
18.982
  0
LINE
  8
0
 10
129
 11
129.382
 20
18.982
 21
19.152
  0
LINE
  8
0
 10
129.382
 11
129.791
 20
19.152
 21
19.239
  0
LINE
  8
0
 10
129.791
 11
130.209
 20
19.239
 21
19.239
  0
LINE
  8
0
 10
130.209
 11
130.618
 20
19.239
 21
19.152
  0
LINE
  8
0
 10
130.618
 11
131
 20
19.152
 21
18.982
  0
LINE
  8
0
 10
131
 11
131.338
 20
18.982
 21
18.736
  0
LINE
  8
0
 10
131.338
 11
131.618
 20
18.736
 21
18.426
  0
LINE
  8
0
 10
131.618
 11
131.827
 20
18.426
 21
18.063
  0
LINE
  8
0
 10
131.827
 11
131.956
 20
18.063
 21
17.666
  0
LINE
  8
0
 10
131.956
 11
132
 20
17.666
 21
17.25
  0
LINE
  8
0
 10
132
 11
131.956
 20
17.25
 21
16.834
  0
LINE
  8
0
 10
131.956
 11
131.827
 20
16.834
 21
16.437
  0
LINE
  8
0
 10
131.827
 11
131.618
 20
16.437
 21
16.074
  0
LINE
  8
0
 10
131.618
 11
131.338
 20
16.074
 21
15.764
  0
LINE
  8
0
 10
131.338
 11
131
 20
15.764
 21
15.518
  0
LINE
  8
0
 10
131
 11
130.618
 20
15.518
 21
15.348
  0
LINE
  8
0
 10
130.618
 11
130.209
 20
15.348
 21
15.261
  0
LINE
  8
0
 10
130.209
 11
129.791
 20
15.261
 21
15.261
  0
LINE
  8
0
 10
129.791
 11
129.382
 20
15.261
 21
15.348
  0
LINE
  8
0
 10
129.382
 11
129
 20
15.348
 21
15.518
  0
LINE
  8
0
 10
129
 11
128.662
 20
15.518
 21
15.764
  0
LINE
  8
0
 10
128.662
 11
128.382
 20
15.764
 21
16.074
  0
LINE
  8
0
 10
128.382
 11
128.173
 20
16.074
 21
16.437
  0
LINE
  8
0
 10
128.173
 11
128.044
 20
16.437
 21
16.834
  0
LINE
  8
0
 10
128.044
 11
128
 20
16.834
 21
17.25
  0
LINE
  8
0
 10
144.665
 11
144.73
 20
4.569
 21
4.982
  0
LINE
  8
0
 10
144.73
 11
144.881
 20
4.982
 21
5.372
  0
LINE
  8
0
 10
144.881
 11
145.108
 20
5.372
 21
5.723
  0
LINE
  8
0
 10
145.108
 11
145.404
 20
5.723
 21
6.019
  0
LINE
  8
0
 10
145.404
 11
145.754
 20
6.019
 21
6.246
  0
LINE
  8
0
 10
145.754
 11
146.145
 20
6.246
 21
6.396
  0
LINE
  8
0
 10
146.145
 11
146.558
 20
6.396
 21
6.462
  0
LINE
  8
0
 10
146.558
 11
146.975
 20
6.462
 21
6.44
  0
LINE
  8
0
 10
146.975
 11
147.379
 20
6.44
 21
6.332
  0
LINE
  8
0
 10
147.379
 11
147.751
 20
6.332
 21
6.142
  0
LINE
  8
0
 10
147.751
 11
148.076
 20
6.142
 21
5.879
  0
LINE
  8
0
 10
148.076
 11
148.339
 20
5.879
 21
5.554
  0
LINE
  8
0
 10
148.339
 11
148.529
 20
5.554
 21
5.181
  0
LINE
  8
0
 10
148.529
 11
148.638
 20
5.181
 21
4.778
  0
LINE
  8
0
 10
148.638
 11
148.659
 20
4.778
 21
4.36
  0
LINE
  8
0
 10
148.659
 11
148.594
 20
4.36
 21
3.947
  0
LINE
  8
0
 10
148.594
 11
148.444
 20
3.947
 21
3.557
  0
LINE
  8
0
 10
148.444
 11
148.217
 20
3.557
 21
3.206
  0
LINE
  8
0
 10
148.217
 11
147.92
 20
3.206
 21
2.91
  0
LINE
  8
0
 10
147.92
 11
147.57
 20
2.91
 21
2.683
  0
LINE
  8
0
 10
147.57
 11
147.18
 20
2.683
 21
2.533
  0
LINE
  8
0
 10
147.18
 11
146.767
 20
2.533
 21
2.468
  0
LINE
  8
0
 10
146.767
 11
146.35
 20
2.468
 21
2.489
  0
LINE
  8
0
 10
146.35
 11
145.945
 20
2.489
 21
2.597
  0
LINE
  8
0
 10
145.945
 11
145.573
 20
2.597
 21
2.788
  0
LINE
  8
0
 10
145.573
 11
145.248
 20
2.788
 21
3.05
  0
LINE
  8
0
 10
145.248
 11
144.985
 20
3.05
 21
3.375
  0
LINE
  8
0
 10
144.985
 11
144.795
 20
3.375
 21
3.748
  0
LINE
  8
0
 10
144.795
 11
144.687
 20
3.748
 21
4.152
  0
LINE
  8
0
 10
144.687
 11
144.665
 20
4.152
 21
4.569
  0
ENDSEC
  0
SECTION
  2
OBJECTS
  0
DICTIONARY
  0
ENDSEC
  0
EOF
