  0
SECTION
  2
BLOCKS
  0
ENDSEC
  0
SECTION
  2
ENTITIES
  0
LINE
  8
0
 10
-352.317
 11
-351.206
 20
320
 21
338.36
  0
LINE
  8
0
 10
-351.206
 11
-347.891
 20
338.36
 21
356.452
  0
LINE
  8
0
 10
-347.891
 11
-342.419
 20
356.452
 21
374.012
  0
LINE
  8
0
 10
-342.419
 11
-334.87
 20
374.012
 21
390.785
  0
LINE
  8
0
 10
-334.87
 11
-325.354
 20
390.785
 21
406.526
  0
LINE
  8
0
 10
-325.354
 11
-318.85
 20
406.526
 21
414.828
  0
LINE
  8
0
 10
-318.85
 11
-311.593
 20
414.828
 21
431.593
  0
LINE
  8
0
 10
-311.593
 11
-294.828
 20
431.593
 21
438.85
  0
LINE
  8
0
 10
-294.828
 11
-286.526
 20
438.85
 21
445.354
  0
LINE
  8
0
 10
-286.526
 11
-270.785
 20
445.354
 21
454.87
  0
LINE
  8
0
 10
-270.785
 11
-254.012
 20
454.87
 21
462.419
  0
LINE
  8
0
 10
-254.012
 11
-236.452
 20
462.419
 21
467.891
  0
LINE
  8
0
 10
-236.452
 11
-218.36
 20
467.891
 21
471.206
  0
LINE
  8
0
 10
-218.36
 11
-200
 20
471.206
 21
472.317
  0
LINE
  8
0
 10
-200
 11
-181.64
 20
472.317
 21
471.206
  0
LINE
  8
0
 10
-181.64
 11
-163.548
 20
471.206
 21
467.891
  0
LINE
  8
0
 10
-163.548
 11
-145.988
 20
467.891
 21
462.419
  0
LINE
  8
0
 10
-145.988
 11
-129.215
 20
462.419
 21
454.87
  0
LINE
  8
0
 10
-129.215
 11
-113.474
 20
454.87
 21
445.354
  0
LINE
  8
0
 10
-113.474
 11
-105.172
 20
445.354
 21
438.85
  0
LINE
  8
0
 10
-105.172
 11
-88.407
 20
438.85
 21
431.593
  0
LINE
  8
0
 10
-88.407
 11
-81.15
 20
431.593
 21
414.828
  0
LINE
  8
0
 10
-81.15
 11
-74.646
 20
414.828
 21
406.526
  0
LINE
  8
0
 10
-74.646
 11
-65.13
 20
406.526
 21
390.785
  0
LINE
  8
0
 10
-65.13
 11
-57.581
 20
390.785
 21
374.012
  0
LINE
  8
0
 10
-57.581
 11
-52.109
 20
374.012
 21
356.452
  0
LINE
  8
0
 10
-52.109
 11
-48.794
 20
356.452
 21
338.36
  0
LINE
  8
0
 10
-48.794
 11
-47.683
 20
338.36
 21
320
  0
LINE
  8
0
 10
-47.683
 11
-48.794
 20
320
 21
301.64
  0
LINE
  8
0
 10
-48.794
 11
-52.109
 20
301.64
 21
283.548
  0
LINE
  8
0
 10
-52.109
 11
-57.581
 20
283.548
 21
265.988
  0
LINE
  8
0
 10
-57.581
 11
-65.13
 20
265.988
 21
249.215
  0
LINE
  8
0
 10
-65.13
 11
-74.646
 20
249.215
 21
233.474
  0
LINE
  8
0
 10
-74.646
 11
-81.15
 20
233.474
 21
225.172
  0
LINE
  8
0
 10
-81.15
 11
-88.407
 20
225.172
 21
208.407
  0
LINE
  8
0
 10
-88.407
 11
-105.172
 20
208.407
 21
201.15
  0
LINE
  8
0
 10
-105.172
 11
-113.474
 20
201.15
 21
194.646
  0
LINE
  8
0
 10
-113.474
 11
-129.215
 20
194.646
 21
185.13
  0
LINE
  8
0
 10
-129.215
 11
-145.988
 20
185.13
 21
177.581
  0
LINE
  8
0
 10
-145.988
 11
-163.548
 20
177.581
 21
172.109
  0
LINE
  8
0
 10
-163.548
 11
-181.64
 20
172.109
 21
168.794
  0
LINE
  8
0
 10
-181.64
 11
-200
 20
168.794
 21
167.683
  0
LINE
  8
0
 10
-200
 11
-218.36
 20
167.683
 21
168.794
  0
LINE
  8
0
 10
-218.36
 11
-236.452
 20
168.794
 21
172.109
  0
LINE
  8
0
 10
-236.452
 11
-254.012
 20
172.109
 21
177.581
  0
LINE
  8
0
 10
-254.012
 11
-270.785
 20
177.581
 21
185.13
  0
LINE
  8
0
 10
-270.785
 11
-286.526
 20
185.13
 21
194.646
  0
LINE
  8
0
 10
-286.526
 11
-294.828
 20
194.646
 21
201.15
  0
LINE
  8
0
 10
-294.828
 11
-311.593
 20
201.15
 21
208.407
  0
LINE
  8
0
 10
-311.593
 11
-318.85
 20
208.407
 21
225.172
  0
LINE
  8
0
 10
-318.85
 11
-325.354
 20
225.172
 21
233.474
  0
LINE
  8
0
 10
-325.354
 11
-334.87
 20
233.474
 21
249.215
  0
LINE
  8
0
 10
-334.87
 11
-342.419
 20
249.215
 21
265.988
  0
LINE
  8
0
 10
-342.419
 11
-347.891
 20
265.988
 21
283.548
  0
LINE
  8
0
 10
-347.891
 11
-351.206
 20
283.548
 21
301.64
  0
LINE
  8
0
 10
-351.206
 11
-352.317
 20
301.64
 21
320
  0
LINE
  8
0
 10
-343.317
 11
-343.317
 20
318.5
 21
321.5
  0
LINE
  8
0
 10
-343.317
 11
-337.317
 20
321.5
 21
321.5
  0
LINE
  8
0
 10
-337.317
 11
-337.317
 20
321.5
 21
318.5
  0
LINE
  8
0
 10
-337.317
 11
-343.317
 20
318.5
 21
318.5
  0
LINE
  8
0
 10
-332.317
 11
-332.283
 20
320
 21
320.567
  0
LINE
  8
0
 10
-332.283
 11
-332.18
 20
320.567
 21
321.125
  0
LINE
  8
0
 10
-332.18
 11
-332.012
 20
321.125
 21
321.667
  0
LINE
  8
0
 10
-332.012
 11
-331.779
 20
321.667
 21
322.184
  0
LINE
  8
0
 10
-331.779
 11
-331.485
 20
322.184
 21
322.67
  0
LINE
  8
0
 10
-331.485
 11
-331.135
 20
322.67
 21
323.117
  0
LINE
  8
0
 10
-331.135
 11
-330.734
 20
323.117
 21
323.518
  0
LINE
  8
0
 10
-330.734
 11
-330.287
 20
323.518
 21
323.868
  0
LINE
  8
0
 10
-330.287
 11
-329.801
 20
323.868
 21
324.162
  0
LINE
  8
0
 10
-329.801
 11
-329.284
 20
324.162
 21
324.395
  0
LINE
  8
0
 10
-329.284
 11
-328.742
 20
324.395
 21
324.563
  0
LINE
  8
0
 10
-328.742
 11
-328.184
 20
324.563
 21
324.666
  0
LINE
  8
0
 10
-328.184
 11
-327.617
 20
324.666
 21
324.7
  0
LINE
  8
0
 10
-327.617
 11
-327.05
 20
324.7
 21
324.666
  0
LINE
  8
0
 10
-327.05
 11
-326.492
 20
324.666
 21
324.563
  0
LINE
  8
0
 10
-326.492
 11
-325.95
 20
324.563
 21
324.395
  0
LINE
  8
0
 10
-325.95
 11
-325.433
 20
324.395
 21
324.162
  0
LINE
  8
0
 10
-325.433
 11
-324.947
 20
324.162
 21
323.868
  0
LINE
  8
0
 10
-324.947
 11
-324.5
 20
323.868
 21
323.518
  0
LINE
  8
0
 10
-324.5
 11
-324.099
 20
323.518
 21
323.117
  0
LINE
  8
0
 10
-324.099
 11
-323.749
 20
323.117
 21
322.67
  0
LINE
  8
0
 10
-323.749
 11
-323.455
 20
322.67
 21
322.184
  0
LINE
  8
0
 10
-323.455
 11
-323.222
 20
322.184
 21
321.667
  0
LINE
  8
0
 10
-323.222
 11
-323.054
 20
321.667
 21
321.125
  0
LINE
  8
0
 10
-323.054
 11
-322.951
 20
321.125
 21
320.567
  0
LINE
  8
0
 10
-322.951
 11
-322.917
 20
320.567
 21
320
  0
LINE
  8
0
 10
-322.917
 11
-322.951
 20
320
 21
319.433
  0
LINE
  8
0
 10
-322.951
 11
-323.054
 20
319.433
 21
318.875
  0
LINE
  8
0
 10
-323.054
 11
-323.222
 20
318.875
 21
318.333
  0
LINE
  8
0
 10
-323.222
 11
-323.455
 20
318.333
 21
317.816
  0
LINE
  8
0
 10
-323.455
 11
-323.749
 20
317.816
 21
317.33
  0
LINE
  8
0
 10
-323.749
 11
-324.099
 20
317.33
 21
316.883
  0
LINE
  8
0
 10
-324.099
 11
-324.5
 20
316.883
 21
316.482
  0
LINE
  8
0
 10
-324.5
 11
-324.947
 20
316.482
 21
316.132
  0
LINE
  8
0
 10
-324.947
 11
-325.433
 20
316.132
 21
315.838
  0
LINE
  8
0
 10
-325.433
 11
-325.95
 20
315.838
 21
315.605
  0
LINE
  8
0
 10
-325.95
 11
-326.492
 20
315.605
 21
315.437
  0
LINE
  8
0
 10
-326.492
 11
-327.05
 20
315.437
 21
315.334
  0
LINE
  8
0
 10
-327.05
 11
-327.617
 20
315.334
 21
315.3
  0
LINE
  8
0
 10
-327.617
 11
-328.184
 20
315.3
 21
315.334
  0
LINE
  8
0
 10
-328.184
 11
-328.742
 20
315.334
 21
315.437
  0
LINE
  8
0
 10
-328.742
 11
-329.284
 20
315.437
 21
315.605
  0
LINE
  8
0
 10
-329.284
 11
-329.801
 20
315.605
 21
315.838
  0
LINE
  8
0
 10
-329.801
 11
-330.287
 20
315.838
 21
316.132
  0
LINE
  8
0
 10
-330.287
 11
-330.734
 20
316.132
 21
316.482
  0
LINE
  8
0
 10
-330.734
 11
-331.135
 20
316.482
 21
316.883
  0
LINE
  8
0
 10
-331.135
 11
-331.485
 20
316.883
 21
317.33
  0
LINE
  8
0
 10
-331.485
 11
-331.779
 20
317.33
 21
317.816
  0
LINE
  8
0
 10
-331.779
 11
-332.012
 20
317.816
 21
318.333
  0
LINE
  8
0
 10
-332.012
 11
-332.18
 20
318.333
 21
318.875
  0
LINE
  8
0
 10
-332.18
 11
-332.283
 20
318.875
 21
319.433
  0
LINE
  8
0
 10
-332.283
 11
-332.317
 20
319.433
 21
320
  0
LINE
  8
0
 10
-300
 11
-300
 20
36.001
 21
157.601
  0
LINE
  8
0
 10
-300
 11
-157.817
 20
157.601
 21
157.601
  0
LINE
  8
0
 10
-157.817
 11
-157.817
 20
157.601
 21
157.817
  0
LINE
  8
0
 10
-157.817
 11
157.817
 20
157.817
 21
157.817
  0
LINE
  8
0
 10
157.817
 11
157.817
 20
157.817
 21
157.701
  0
LINE
  8
0
 10
157.817
 11
217.816
 20
157.701
 21
157.701
  0
LINE
  8
0
 10
217.816
 11
217.816
 20
157.701
 21
351.635
  0
LINE
  8
0
 10
217.816
 11
533.45
 20
351.635
 21
351.635
  0
LINE
  8
0
 10
533.45
 11
533.45
 20
351.635
 21
-157.817
  0
LINE
  8
0
 10
533.45
 11
493.45
 20
-157.817
 21
-157.817
  0
LINE
  8
0
 10
493.45
 11
493.45
 20
-157.817
 21
36.001
  0
LINE
  8
0
 10
493.45
 11
157.817
 20
36.001
 21
36.001
  0
LINE
  8
0
 10
157.817
 11
157.817
 20
36.001
 21
-157.817
  0
LINE
  8
0
 10
157.817
 11
-157.817
 20
-157.817
 21
-157.817
  0
LINE
  8
0
 10
-157.817
 11
-157.817
 20
-157.817
 21
36.001
  0
LINE
  8
0
 10
-157.817
 11
-300
 20
36.001
 21
36.001
  0
LINE
  8
0
 10
-294.597
 11
-294.597
 20
95.024
 21
96.978
  0
LINE
  8
0
 10
-294.597
 11
-293.802
 20
96.978
 21
98.764
  0
LINE
  8
0
 10
-293.802
 11
-292.35
 20
98.764
 21
100.071
  0
LINE
  8
0
 10
-292.35
 11
-290.491
 20
100.071
 21
100.675
  0
LINE
  8
0
 10
-290.491
 11
-288.548
 20
100.675
 21
100.471
  0
LINE
  8
0
 10
-288.548
 11
-286.855
 20
100.471
 21
99.494
  0
LINE
  8
0
 10
-286.855
 11
-285.706
 20
99.494
 21
97.913
  0
LINE
  8
0
 10
-285.706
 11
-285.3
 20
97.913
 21
96.001
  0
LINE
  8
0
 10
-285.3
 11
-285.706
 20
96.001
 21
94.089
  0
LINE
  8
0
 10
-285.706
 11
-286.855
 20
94.089
 21
92.508
  0
LINE
  8
0
 10
-286.855
 11
-288.548
 20
92.508
 21
91.531
  0
LINE
  8
0
 10
-288.548
 11
-290.491
 20
91.531
 21
91.327
  0
LINE
  8
0
 10
-290.491
 11
-292.35
 20
91.327
 21
91.931
  0
LINE
  8
0
 10
-292.35
 11
-293.802
 20
91.931
 21
93.238
  0
LINE
  8
0
 10
-293.802
 11
-294.597
 20
93.238
 21
95.024
  0
LINE
  8
0
 10
-213.55
 11
-213.524
 20
96.001
 21
96.429
  0
LINE
  8
0
 10
-213.524
 11
-213.447
 20
96.429
 21
96.851
  0
LINE
  8
0
 10
-213.447
 11
-213.319
 20
96.851
 21
97.26
  0
LINE
  8
0
 10
-213.319
 11
-213.143
 20
97.26
 21
97.651
  0
LINE
  8
0
 10
-213.143
 11
-212.922
 20
97.651
 21
98.018
  0
LINE
  8
0
 10
-212.922
 11
-212.657
 20
98.018
 21
98.355
  0
LINE
  8
0
 10
-212.657
 11
-212.354
 20
98.355
 21
98.658
  0
LINE
  8
0
 10
-212.354
 11
-212.017
 20
98.658
 21
98.923
  0
LINE
  8
0
 10
-212.017
 11
-211.65
 20
98.923
 21
99.144
  0
LINE
  8
0
 10
-211.65
 11
-211.259
 20
99.144
 21
99.32
  0
LINE
  8
0
 10
-211.259
 11
-210.85
 20
99.32
 21
99.448
  0
LINE
  8
0
 10
-210.85
 11
-210.428
 20
99.448
 21
99.525
  0
LINE
  8
0
 10
-210.428
 11
-210
 20
99.525
 21
99.551
  0
LINE
  8
0
 10
-210
 11
-209.572
 20
99.551
 21
99.525
  0
LINE
  8
0
 10
-209.572
 11
-209.15
 20
99.525
 21
99.448
  0
LINE
  8
0
 10
-209.15
 11
-208.741
 20
99.448
 21
99.32
  0
LINE
  8
0
 10
-208.741
 11
-208.35
 20
99.32
 21
99.144
  0
LINE
  8
0
 10
-208.35
 11
-207.983
 20
99.144
 21
98.923
  0
LINE
  8
0
 10
-207.983
 11
-207.646
 20
98.923
 21
98.658
  0
LINE
  8
0
 10
-207.646
 11
-207.343
 20
98.658
 21
98.355
  0
LINE
  8
0
 10
-207.343
 11
-207.078
 20
98.355
 21
98.018
  0
LINE
  8
0
 10
-207.078
 11
-206.857
 20
98.018
 21
97.651
  0
LINE
  8
0
 10
-206.857
 11
-206.681
 20
97.651
 21
97.26
  0
LINE
  8
0
 10
-206.681
 11
-206.553
 20
97.26
 21
96.851
  0
LINE
  8
0
 10
-206.553
 11
-206.476
 20
96.851
 21
96.429
  0
LINE
  8
0
 10
-206.476
 11
-206.45
 20
96.429
 21
96.001
  0
LINE
  8
0
 10
-206.45
 11
-206.476
 20
96.001
 21
95.573
  0
LINE
  8
0
 10
-206.476
 11
-206.553
 20
95.573
 21
95.151
  0
LINE
  8
0
 10
-206.553
 11
-206.681
 20
95.151
 21
94.742
  0
LINE
  8
0
 10
-206.681
 11
-206.857
 20
94.742
 21
94.351
  0
LINE
  8
0
 10
-206.857
 11
-207.078
 20
94.351
 21
93.984
  0
LINE
  8
0
 10
-207.078
 11
-207.343
 20
93.984
 21
93.647
  0
LINE
  8
0
 10
-207.343
 11
-207.646
 20
93.647
 21
93.344
  0
LINE
  8
0
 10
-207.646
 11
-207.983
 20
93.344
 21
93.079
  0
LINE
  8
0
 10
-207.983
 11
-208.35
 20
93.079
 21
92.858
  0
LINE
  8
0
 10
-208.35
 11
-208.741
 20
92.858
 21
92.682
  0
LINE
  8
0
 10
-208.741
 11
-209.15
 20
92.682
 21
92.554
  0
LINE
  8
0
 10
-209.15
 11
-209.572
 20
92.554
 21
92.477
  0
LINE
  8
0
 10
-209.572
 11
-210
 20
92.477
 21
92.451
  0
LINE
  8
0
 10
-210
 11
-210.428
 20
92.451
 21
92.477
  0
LINE
  8
0
 10
-210.428
 11
-210.85
 20
92.477
 21
92.554
  0
LINE
  8
0
 10
-210.85
 11
-211.259
 20
92.554
 21
92.682
  0
LINE
  8
0
 10
-211.259
 11
-211.65
 20
92.682
 21
92.858
  0
LINE
  8
0
 10
-211.65
 11
-212.017
 20
92.858
 21
93.079
  0
LINE
  8
0
 10
-212.017
 11
-212.354
 20
93.079
 21
93.344
  0
LINE
  8
0
 10
-212.354
 11
-212.657
 20
93.344
 21
93.647
  0
LINE
  8
0
 10
-212.657
 11
-212.922
 20
93.647
 21
93.984
  0
LINE
  8
0
 10
-212.922
 11
-213.143
 20
93.984
 21
94.351
  0
LINE
  8
0
 10
-213.143
 11
-213.319
 20
94.351
 21
94.742
  0
LINE
  8
0
 10
-213.319
 11
-213.447
 20
94.742
 21
95.151
  0
LINE
  8
0
 10
-213.447
 11
-213.524
 20
95.151
 21
95.573
  0
LINE
  8
0
 10
-213.524
 11
-213.55
 20
95.573
 21
96.001
  0
LINE
  8
0
 10
-204.7
 11
-204.666
 20
192.383
 21
192.95
  0
LINE
  8
0
 10
-204.666
 11
-204.563
 20
192.95
 21
193.508
  0
LINE
  8
0
 10
-204.563
 11
-204.395
 20
193.508
 21
194.05
  0
LINE
  8
0
 10
-204.395
 11
-204.162
 20
194.05
 21
194.567
  0
LINE
  8
0
 10
-204.162
 11
-203.868
 20
194.567
 21
195.053
  0
LINE
  8
0
 10
-203.868
 11
-203.518
 20
195.053
 21
195.5
  0
LINE
  8
0
 10
-203.518
 11
-203.117
 20
195.5
 21
195.901
  0
LINE
  8
0
 10
-203.117
 11
-202.67
 20
195.901
 21
196.251
  0
LINE
  8
0
 10
-202.67
 11
-202.184
 20
196.251
 21
196.545
  0
LINE
  8
0
 10
-202.184
 11
-201.667
 20
196.545
 21
196.778
  0
LINE
  8
0
 10
-201.667
 11
-201.125
 20
196.778
 21
196.946
  0
LINE
  8
0
 10
-201.125
 11
-200.567
 20
196.946
 21
197.049
  0
LINE
  8
0
 10
-200.567
 11
-200
 20
197.049
 21
197.083
  0
LINE
  8
0
 10
-200
 11
-199.433
 20
197.083
 21
197.049
  0
LINE
  8
0
 10
-199.433
 11
-198.875
 20
197.049
 21
196.946
  0
LINE
  8
0
 10
-198.875
 11
-198.333
 20
196.946
 21
196.778
  0
LINE
  8
0
 10
-198.333
 11
-197.816
 20
196.778
 21
196.545
  0
LINE
  8
0
 10
-197.816
 11
-197.33
 20
196.545
 21
196.251
  0
LINE
  8
0
 10
-197.33
 11
-196.883
 20
196.251
 21
195.901
  0
LINE
  8
0
 10
-196.883
 11
-196.482
 20
195.901
 21
195.5
  0
LINE
  8
0
 10
-196.482
 11
-196.132
 20
195.5
 21
195.053
  0
LINE
  8
0
 10
-196.132
 11
-195.838
 20
195.053
 21
194.567
  0
LINE
  8
0
 10
-195.838
 11
-195.605
 20
194.567
 21
194.05
  0
LINE
  8
0
 10
-195.605
 11
-195.437
 20
194.05
 21
193.508
  0
LINE
  8
0
 10
-195.437
 11
-195.334
 20
193.508
 21
192.95
  0
LINE
  8
0
 10
-195.334
 11
-195.3
 20
192.95
 21
192.383
  0
LINE
  8
0
 10
-195.3
 11
-195.334
 20
192.383
 21
191.816
  0
LINE
  8
0
 10
-195.334
 11
-195.437
 20
191.816
 21
191.258
  0
LINE
  8
0
 10
-195.437
 11
-195.605
 20
191.258
 21
190.716
  0
LINE
  8
0
 10
-195.605
 11
-195.838
 20
190.716
 21
190.199
  0
LINE
  8
0
 10
-195.838
 11
-196.132
 20
190.199
 21
189.713
  0
LINE
  8
0
 10
-196.132
 11
-196.482
 20
189.713
 21
189.266
  0
LINE
  8
0
 10
-196.482
 11
-196.883
 20
189.266
 21
188.865
  0
LINE
  8
0
 10
-196.883
 11
-197.33
 20
188.865
 21
188.515
  0
LINE
  8
0
 10
-197.33
 11
-197.816
 20
188.515
 21
188.221
  0
LINE
  8
0
 10
-197.816
 11
-198.333
 20
188.221
 21
187.988
  0
LINE
  8
0
 10
-198.333
 11
-198.875
 20
187.988
 21
187.82
  0
LINE
  8
0
 10
-198.875
 11
-199.433
 20
187.82
 21
187.717
  0
LINE
  8
0
 10
-199.433
 11
-200
 20
187.717
 21
187.683
  0
LINE
  8
0
 10
-200
 11
-200.567
 20
187.683
 21
187.717
  0
LINE
  8
0
 10
-200.567
 11
-201.125
 20
187.717
 21
187.82
  0
LINE
  8
0
 10
-201.125
 11
-201.667
 20
187.82
 21
187.988
  0
LINE
  8
0
 10
-201.667
 11
-202.184
 20
187.988
 21
188.221
  0
LINE
  8
0
 10
-202.184
 11
-202.67
 20
188.221
 21
188.515
  0
LINE
  8
0
 10
-202.67
 11
-203.117
 20
188.515
 21
188.865
  0
LINE
  8
0
 10
-203.117
 11
-203.518
 20
188.865
 21
189.266
  0
LINE
  8
0
 10
-203.518
 11
-203.868
 20
189.266
 21
189.713
  0
LINE
  8
0
 10
-203.868
 11
-204.162
 20
189.713
 21
190.199
  0
LINE
  8
0
 10
-204.162
 11
-204.395
 20
190.199
 21
190.716
  0
LINE
  8
0
 10
-204.395
 11
-204.563
 20
190.716
 21
191.258
  0
LINE
  8
0
 10
-204.563
 11
-204.666
 20
191.258
 21
191.816
  0
LINE
  8
0
 10
-204.666
 11
-204.7
 20
191.816
 21
192.383
  0
LINE
  8
0
 10
-204.7
 11
-204.666
 20
447.617
 21
448.184
  0
LINE
  8
0
 10
-204.666
 11
-204.563
 20
448.184
 21
448.742
  0
LINE
  8
0
 10
-204.563
 11
-204.395
 20
448.742
 21
449.284
  0
LINE
  8
0
 10
-204.395
 11
-204.162
 20
449.284
 21
449.801
  0
LINE
  8
0
 10
-204.162
 11
-203.868
 20
449.801
 21
450.287
  0
LINE
  8
0
 10
-203.868
 11
-203.518
 20
450.287
 21
450.734
  0
LINE
  8
0
 10
-203.518
 11
-203.117
 20
450.734
 21
451.135
  0
LINE
  8
0
 10
-203.117
 11
-202.67
 20
451.135
 21
451.485
  0
LINE
  8
0
 10
-202.67
 11
-202.184
 20
451.485
 21
451.779
  0
LINE
  8
0
 10
-202.184
 11
-201.667
 20
451.779
 21
452.012
  0
LINE
  8
0
 10
-201.667
 11
-201.125
 20
452.012
 21
452.18
  0
LINE
  8
0
 10
-201.125
 11
-200.567
 20
452.18
 21
452.283
  0
LINE
  8
0
 10
-200.567
 11
-200
 20
452.283
 21
452.317
  0
LINE
  8
0
 10
-200
 11
-199.433
 20
452.317
 21
452.283
  0
LINE
  8
0
 10
-199.433
 11
-198.875
 20
452.283
 21
452.18
  0
LINE
  8
0
 10
-198.875
 11
-198.333
 20
452.18
 21
452.012
  0
LINE
  8
0
 10
-198.333
 11
-197.816
 20
452.012
 21
451.779
  0
LINE
  8
0
 10
-197.816
 11
-197.33
 20
451.779
 21
451.485
  0
LINE
  8
0
 10
-197.33
 11
-196.883
 20
451.485
 21
451.135
  0
LINE
  8
0
 10
-196.883
 11
-196.482
 20
451.135
 21
450.734
  0
LINE
  8
0
 10
-196.482
 11
-196.132
 20
450.734
 21
450.287
  0
LINE
  8
0
 10
-196.132
 11
-195.838
 20
450.287
 21
449.801
  0
LINE
  8
0
 10
-195.838
 11
-195.605
 20
449.801
 21
449.284
  0
LINE
  8
0
 10
-195.605
 11
-195.437
 20
449.284
 21
448.742
  0
LINE
  8
0
 10
-195.437
 11
-195.334
 20
448.742
 21
448.184
  0
LINE
  8
0
 10
-195.334
 11
-195.3
 20
448.184
 21
447.617
  0
LINE
  8
0
 10
-195.3
 11
-195.334
 20
447.617
 21
447.05
  0
LINE
  8
0
 10
-195.334
 11
-195.437
 20
447.05
 21
446.492
  0
LINE
  8
0
 10
-195.437
 11
-195.605
 20
446.492
 21
445.95
  0
LINE
  8
0
 10
-195.605
 11
-195.838
 20
445.95
 21
445.433
  0
LINE
  8
0
 10
-195.838
 11
-196.132
 20
445.433
 21
444.947
  0
LINE
  8
0
 10
-196.132
 11
-196.482
 20
444.947
 21
444.5
  0
LINE
  8
0
 10
-196.482
 11
-196.883
 20
444.5
 21
444.099
  0
LINE
  8
0
 10
-196.883
 11
-197.33
 20
444.099
 21
443.749
  0
LINE
  8
0
 10
-197.33
 11
-197.816
 20
443.749
 21
443.455
  0
LINE
  8
0
 10
-197.816
 11
-198.333
 20
443.455
 21
443.222
  0
LINE
  8
0
 10
-198.333
 11
-198.875
 20
443.222
 21
443.054
  0
LINE
  8
0
 10
-198.875
 11
-199.433
 20
443.054
 21
442.951
  0
LINE
  8
0
 10
-199.433
 11
-200
 20
442.951
 21
442.917
  0
LINE
  8
0
 10
-200
 11
-200.567
 20
442.917
 21
442.951
  0
LINE
  8
0
 10
-200.567
 11
-201.125
 20
442.951
 21
443.054
  0
LINE
  8
0
 10
-201.125
 11
-201.667
 20
443.054
 21
443.222
  0
LINE
  8
0
 10
-201.667
 11
-202.184
 20
443.222
 21
443.455
  0
LINE
  8
0
 10
-202.184
 11
-202.67
 20
443.455
 21
443.749
  0
LINE
  8
0
 10
-202.67
 11
-203.117
 20
443.749
 21
444.099
  0
LINE
  8
0
 10
-203.117
 11
-203.518
 20
444.099
 21
444.5
  0
LINE
  8
0
 10
-203.518
 11
-203.868
 20
444.5
 21
444.947
  0
LINE
  8
0
 10
-203.868
 11
-204.162
 20
444.947
 21
445.433
  0
LINE
  8
0
 10
-204.162
 11
-204.395
 20
445.433
 21
445.95
  0
LINE
  8
0
 10
-204.395
 11
-204.563
 20
445.95
 21
446.492
  0
LINE
  8
0
 10
-204.563
 11
-204.666
 20
446.492
 21
447.05
  0
LINE
  8
0
 10
-204.666
 11
-204.7
 20
447.05
 21
447.617
  0
LINE
  8
0
 10
-203.55
 11
-203.524
 20
320
 21
320.428
  0
LINE
  8
0
 10
-203.524
 11
-203.447
 20
320.428
 21
320.85
  0
LINE
  8
0
 10
-203.447
 11
-203.319
 20
320.85
 21
321.259
  0
LINE
  8
0
 10
-203.319
 11
-203.143
 20
321.259
 21
321.65
  0
LINE
  8
0
 10
-203.143
 11
-202.922
 20
321.65
 21
322.017
  0
LINE
  8
0
 10
-202.922
 11
-202.657
 20
322.017
 21
322.354
  0
LINE
  8
0
 10
-202.657
 11
-202.354
 20
322.354
 21
322.657
  0
LINE
  8
0
 10
-202.354
 11
-202.017
 20
322.657
 21
322.922
  0
LINE
  8
0
 10
-202.017
 11
-201.65
 20
322.922
 21
323.143
  0
LINE
  8
0
 10
-201.65
 11
-201.259
 20
323.143
 21
323.319
  0
LINE
  8
0
 10
-201.259
 11
-200.85
 20
323.319
 21
323.447
  0
LINE
  8
0
 10
-200.85
 11
-200.428
 20
323.447
 21
323.524
  0
LINE
  8
0
 10
-200.428
 11
-200
 20
323.524
 21
323.55
  0
LINE
  8
0
 10
-200
 11
-199.572
 20
323.55
 21
323.524
  0
LINE
  8
0
 10
-199.572
 11
-199.15
 20
323.524
 21
323.447
  0
LINE
  8
0
 10
-199.15
 11
-198.741
 20
323.447
 21
323.319
  0
LINE
  8
0
 10
-198.741
 11
-198.35
 20
323.319
 21
323.143
  0
LINE
  8
0
 10
-198.35
 11
-197.983
 20
323.143
 21
322.922
  0
LINE
  8
0
 10
-197.983
 11
-197.646
 20
322.922
 21
322.657
  0
LINE
  8
0
 10
-197.646
 11
-197.343
 20
322.657
 21
322.354
  0
LINE
  8
0
 10
-197.343
 11
-197.078
 20
322.354
 21
322.017
  0
LINE
  8
0
 10
-197.078
 11
-196.857
 20
322.017
 21
321.65
  0
LINE
  8
0
 10
-196.857
 11
-196.681
 20
321.65
 21
321.259
  0
LINE
  8
0
 10
-196.681
 11
-196.553
 20
321.259
 21
320.85
  0
LINE
  8
0
 10
-196.553
 11
-196.476
 20
320.85
 21
320.428
  0
LINE
  8
0
 10
-196.476
 11
-196.45
 20
320.428
 21
320
  0
LINE
  8
0
 10
-196.45
 11
-196.476
 20
320
 21
319.572
  0
LINE
  8
0
 10
-196.476
 11
-196.553
 20
319.572
 21
319.15
  0
LINE
  8
0
 10
-196.553
 11
-196.681
 20
319.15
 21
318.741
  0
LINE
  8
0
 10
-196.681
 11
-196.857
 20
318.741
 21
318.35
  0
LINE
  8
0
 10
-196.857
 11
-197.078
 20
318.35
 21
317.983
  0
LINE
  8
0
 10
-197.078
 11
-197.343
 20
317.983
 21
317.646
  0
LINE
  8
0
 10
-197.343
 11
-197.646
 20
317.646
 21
317.343
  0
LINE
  8
0
 10
-197.646
 11
-197.983
 20
317.343
 21
317.078
  0
LINE
  8
0
 10
-197.983
 11
-198.35
 20
317.078
 21
316.857
  0
LINE
  8
0
 10
-198.35
 11
-198.741
 20
316.857
 21
316.681
  0
LINE
  8
0
 10
-198.741
 11
-199.15
 20
316.681
 21
316.553
  0
LINE
  8
0
 10
-199.15
 11
-199.572
 20
316.553
 21
316.476
  0
LINE
  8
0
 10
-199.572
 11
-200
 20
316.476
 21
316.45
  0
LINE
  8
0
 10
-200
 11
-200.428
 20
316.45
 21
316.476
  0
LINE
  8
0
 10
-200.428
 11
-200.85
 20
316.476
 21
316.553
  0
LINE
  8
0
 10
-200.85
 11
-201.259
 20
316.553
 21
316.681
  0
LINE
  8
0
 10
-201.259
 11
-201.65
 20
316.681
 21
316.857
  0
LINE
  8
0
 10
-201.65
 11
-202.017
 20
316.857
 21
317.078
  0
LINE
  8
0
 10
-202.017
 11
-202.354
 20
317.078
 21
317.343
  0
LINE
  8
0
 10
-202.354
 11
-202.657
 20
317.343
 21
317.646
  0
LINE
  8
0
 10
-202.657
 11
-202.922
 20
317.646
 21
317.983
  0
LINE
  8
0
 10
-202.922
 11
-203.143
 20
317.983
 21
318.35
  0
LINE
  8
0
 10
-203.143
 11
-203.319
 20
318.35
 21
318.741
  0
LINE
  8
0
 10
-203.319
 11
-203.447
 20
318.741
 21
319.15
  0
LINE
  8
0
 10
-203.447
 11
-203.524
 20
319.15
 21
319.572
  0
LINE
  8
0
 10
-203.524
 11
-203.55
 20
319.572
 21
320
  0
LINE
  8
0
 10
-201.5
 11
-201.5
 20
176.683
 21
182.683
  0
LINE
  8
0
 10
-201.5
 11
-198.5
 20
182.683
 21
182.683
  0
LINE
  8
0
 10
-198.5
 11
-198.5
 20
182.683
 21
176.683
  0
LINE
  8
0
 10
-198.5
 11
-201.5
 20
176.683
 21
176.683
  0
LINE
  8
0
 10
-201.5
 11
-201.5
 20
457.317
 21
463.317
  0
LINE
  8
0
 10
-201.5
 11
-198.5
 20
463.317
 21
463.317
  0
LINE
  8
0
 10
-198.5
 11
-198.5
 20
463.317
 21
457.317
  0
LINE
  8
0
 10
-198.5
 11
-201.5
 20
457.317
 21
457.317
  0
LINE
  8
0
 10
-134.597
 11
-134.597
 20
129.023
 21
130.977
  0
LINE
  8
0
 10
-134.597
 11
-133.802
 20
130.977
 21
132.763
  0
LINE
  8
0
 10
-133.802
 11
-132.35
 20
132.763
 21
134.07
  0
LINE
  8
0
 10
-132.35
 11
-130.491
 20
134.07
 21
134.674
  0
LINE
  8
0
 10
-130.491
 11
-128.548
 20
134.674
 21
134.47
  0
LINE
  8
0
 10
-128.548
 11
-126.855
 20
134.47
 21
133.493
  0
LINE
  8
0
 10
-126.855
 11
-125.706
 20
133.493
 21
131.912
  0
LINE
  8
0
 10
-125.706
 11
-125.3
 20
131.912
 21
130
  0
LINE
  8
0
 10
-125.3
 11
-125.706
 20
130
 21
128.088
  0
LINE
  8
0
 10
-125.706
 11
-126.855
 20
128.088
 21
126.507
  0
LINE
  8
0
 10
-126.855
 11
-128.548
 20
126.507
 21
125.53
  0
LINE
  8
0
 10
-128.548
 11
-130.491
 20
125.53
 21
125.326
  0
LINE
  8
0
 10
-130.491
 11
-132.35
 20
125.326
 21
125.93
  0
LINE
  8
0
 10
-132.35
 11
-133.802
 20
125.93
 21
127.237
  0
LINE
  8
0
 10
-133.802
 11
-134.597
 20
127.237
 21
129.023
  0
LINE
  8
0
 10
-77.083
 11
-77.049
 20
320
 21
320.567
  0
LINE
  8
0
 10
-77.049
 11
-76.946
 20
320.567
 21
321.125
  0
LINE
  8
0
 10
-76.946
 11
-76.778
 20
321.125
 21
321.667
  0
LINE
  8
0
 10
-76.778
 11
-76.545
 20
321.667
 21
322.184
  0
LINE
  8
0
 10
-76.545
 11
-76.251
 20
322.184
 21
322.67
  0
LINE
  8
0
 10
-76.251
 11
-75.901
 20
322.67
 21
323.117
  0
LINE
  8
0
 10
-75.901
 11
-75.5
 20
323.117
 21
323.518
  0
LINE
  8
0
 10
-75.5
 11
-75.053
 20
323.518
 21
323.868
  0
LINE
  8
0
 10
-75.053
 11
-74.567
 20
323.868
 21
324.162
  0
LINE
  8
0
 10
-74.567
 11
-74.05
 20
324.162
 21
324.395
  0
LINE
  8
0
 10
-74.05
 11
-73.508
 20
324.395
 21
324.563
  0
LINE
  8
0
 10
-73.508
 11
-72.95
 20
324.563
 21
324.666
  0
LINE
  8
0
 10
-72.95
 11
-72.383
 20
324.666
 21
324.7
  0
LINE
  8
0
 10
-72.383
 11
-71.816
 20
324.7
 21
324.666
  0
LINE
  8
0
 10
-71.816
 11
-71.258
 20
324.666
 21
324.563
  0
LINE
  8
0
 10
-71.258
 11
-70.716
 20
324.563
 21
324.395
  0
LINE
  8
0
 10
-70.716
 11
-70.199
 20
324.395
 21
324.162
  0
LINE
  8
0
 10
-70.199
 11
-69.713
 20
324.162
 21
323.868
  0
LINE
  8
0
 10
-69.713
 11
-69.266
 20
323.868
 21
323.518
  0
LINE
  8
0
 10
-69.266
 11
-68.865
 20
323.518
 21
323.117
  0
LINE
  8
0
 10
-68.865
 11
-68.515
 20
323.117
 21
322.67
  0
LINE
  8
0
 10
-68.515
 11
-68.221
 20
322.67
 21
322.184
  0
LINE
  8
0
 10
-68.221
 11
-67.988
 20
322.184
 21
321.667
  0
LINE
  8
0
 10
-67.988
 11
-67.82
 20
321.667
 21
321.125
  0
LINE
  8
0
 10
-67.82
 11
-67.717
 20
321.125
 21
320.567
  0
LINE
  8
0
 10
-67.717
 11
-67.683
 20
320.567
 21
320
  0
LINE
  8
0
 10
-67.683
 11
-67.717
 20
320
 21
319.433
  0
LINE
  8
0
 10
-67.717
 11
-67.82
 20
319.433
 21
318.875
  0
LINE
  8
0
 10
-67.82
 11
-67.988
 20
318.875
 21
318.333
  0
LINE
  8
0
 10
-67.988
 11
-68.221
 20
318.333
 21
317.816
  0
LINE
  8
0
 10
-68.221
 11
-68.515
 20
317.816
 21
317.33
  0
LINE
  8
0
 10
-68.515
 11
-68.865
 20
317.33
 21
316.883
  0
LINE
  8
0
 10
-68.865
 11
-69.266
 20
316.883
 21
316.482
  0
LINE
  8
0
 10
-69.266
 11
-69.713
 20
316.482
 21
316.132
  0
LINE
  8
0
 10
-69.713
 11
-70.199
 20
316.132
 21
315.838
  0
LINE
  8
0
 10
-70.199
 11
-70.716
 20
315.838
 21
315.605
  0
LINE
  8
0
 10
-70.716
 11
-71.258
 20
315.605
 21
315.437
  0
LINE
  8
0
 10
-71.258
 11
-71.816
 20
315.437
 21
315.334
  0
LINE
  8
0
 10
-71.816
 11
-72.383
 20
315.334
 21
315.3
  0
LINE
  8
0
 10
-72.383
 11
-72.95
 20
315.3
 21
315.334
  0
LINE
  8
0
 10
-72.95
 11
-73.508
 20
315.334
 21
315.437
  0
LINE
  8
0
 10
-73.508
 11
-74.05
 20
315.437
 21
315.605
  0
LINE
  8
0
 10
-74.05
 11
-74.567
 20
315.605
 21
315.838
  0
LINE
  8
0
 10
-74.567
 11
-75.053
 20
315.838
 21
316.132
  0
LINE
  8
0
 10
-75.053
 11
-75.5
 20
316.132
 21
316.482
  0
LINE
  8
0
 10
-75.5
 11
-75.901
 20
316.482
 21
316.883
  0
LINE
  8
0
 10
-75.901
 11
-76.251
 20
316.883
 21
317.33
  0
LINE
  8
0
 10
-76.251
 11
-76.545
 20
317.33
 21
317.816
  0
LINE
  8
0
 10
-76.545
 11
-76.778
 20
317.816
 21
318.333
  0
LINE
  8
0
 10
-76.778
 11
-76.946
 20
318.333
 21
318.875
  0
LINE
  8
0
 10
-76.946
 11
-77.049
 20
318.875
 21
319.433
  0
LINE
  8
0
 10
-77.049
 11
-77.083
 20
319.433
 21
320
  0
LINE
  8
0
 10
-75
 11
-74.454
 20
220
 21
225.198
  0
LINE
  8
0
 10
-74.454
 11
-72.839
 20
225.198
 21
230.168
  0
LINE
  8
0
 10
-72.839
 11
-70.225
 20
230.168
 21
234.695
  0
LINE
  8
0
 10
-70.225
 11
-66.728
 20
234.695
 21
238.579
  0
LINE
  8
0
 10
-66.728
 11
-62.5
 20
238.579
 21
241.651
  0
LINE
  8
0
 10
-62.5
 11
-57.725
 20
241.651
 21
243.776
  0
LINE
  8
0
 10
-57.725
 11
-52.613
 20
243.776
 21
244.863
  0
LINE
  8
0
 10
-52.613
 11
-47.387
 20
244.863
 21
244.863
  0
LINE
  8
0
 10
-47.387
 11
-42.275
 20
244.863
 21
243.776
  0
LINE
  8
0
 10
-42.275
 11
-37.5
 20
243.776
 21
241.651
  0
LINE
  8
0
 10
-37.5
 11
-33.272
 20
241.651
 21
238.579
  0
LINE
  8
0
 10
-33.272
 11
-29.775
 20
238.579
 21
234.695
  0
LINE
  8
0
 10
-29.775
 11
-27.161
 20
234.695
 21
230.168
  0
LINE
  8
0
 10
-27.161
 11
-25.546
 20
230.168
 21
225.198
  0
LINE
  8
0
 10
-25.546
 11
-25
 20
225.198
 21
220
  0
LINE
  8
0
 10
-25
 11
-25.546
 20
220
 21
214.802
  0
LINE
  8
0
 10
-25.546
 11
-27.161
 20
214.802
 21
209.832
  0
LINE
  8
0
 10
-27.161
 11
-29.775
 20
209.832
 21
205.305
  0
LINE
  8
0
 10
-29.775
 11
-33.272
 20
205.305
 21
201.421
  0
LINE
  8
0
 10
-33.272
 11
-37.5
 20
201.421
 21
198.349
  0
LINE
  8
0
 10
-37.5
 11
-42.275
 20
198.349
 21
196.224
  0
LINE
  8
0
 10
-42.275
 11
-47.387
 20
196.224
 21
195.137
  0
LINE
  8
0
 10
-47.387
 11
-52.613
 20
195.137
 21
195.137
  0
LINE
  8
0
 10
-52.613
 11
-57.725
 20
195.137
 21
196.224
  0
LINE
  8
0
 10
-57.725
 11
-62.5
 20
196.224
 21
198.349
  0
LINE
  8
0
 10
-62.5
 11
-66.728
 20
198.349
 21
201.421
  0
LINE
  8
0
 10
-66.728
 11
-70.225
 20
201.421
 21
205.305
  0
LINE
  8
0
 10
-70.225
 11
-72.839
 20
205.305
 21
209.832
  0
LINE
  8
0
 10
-72.839
 11
-74.454
 20
209.832
 21
214.802
  0
LINE
  8
0
 10
-74.454
 11
-75
 20
214.802
 21
220
  0
LINE
  8
0
 10
-62.683
 11
-62.683
 20
318.5
 21
321.5
  0
LINE
  8
0
 10
-62.683
 11
-56.683
 20
321.5
 21
321.5
  0
LINE
  8
0
 10
-56.683
 11
-56.683
 20
321.5
 21
318.5
  0
LINE
  8
0
 10
-56.683
 11
-62.683
 20
318.5
 21
318.5
  0
LINE
  8
0
 10
-53.55
 11
-53.524
 20
220
 21
220.428
  0
LINE
  8
0
 10
-53.524
 11
-53.447
 20
220.428
 21
220.85
  0
LINE
  8
0
 10
-53.447
 11
-53.319
 20
220.85
 21
221.259
  0
LINE
  8
0
 10
-53.319
 11
-53.143
 20
221.259
 21
221.65
  0
LINE
  8
0
 10
-53.143
 11
-52.922
 20
221.65
 21
222.017
  0
LINE
  8
0
 10
-52.922
 11
-52.657
 20
222.017
 21
222.354
  0
LINE
  8
0
 10
-52.657
 11
-52.354
 20
222.354
 21
222.657
  0
LINE
  8
0
 10
-52.354
 11
-52.017
 20
222.657
 21
222.922
  0
LINE
  8
0
 10
-52.017
 11
-51.65
 20
222.922
 21
223.143
  0
LINE
  8
0
 10
-51.65
 11
-51.259
 20
223.143
 21
223.319
  0
LINE
  8
0
 10
-51.259
 11
-50.85
 20
223.319
 21
223.447
  0
LINE
  8
0
 10
-50.85
 11
-50.428
 20
223.447
 21
223.524
  0
LINE
  8
0
 10
-50.428
 11
-50
 20
223.524
 21
223.55
  0
LINE
  8
0
 10
-50
 11
-49.572
 20
223.55
 21
223.524
  0
LINE
  8
0
 10
-49.572
 11
-49.15
 20
223.524
 21
223.447
  0
LINE
  8
0
 10
-49.15
 11
-48.741
 20
223.447
 21
223.319
  0
LINE
  8
0
 10
-48.741
 11
-48.35
 20
223.319
 21
223.143
  0
LINE
  8
0
 10
-48.35
 11
-47.983
 20
223.143
 21
222.922
  0
LINE
  8
0
 10
-47.983
 11
-47.646
 20
222.922
 21
222.657
  0
LINE
  8
0
 10
-47.646
 11
-47.343
 20
222.657
 21
222.354
  0
LINE
  8
0
 10
-47.343
 11
-47.078
 20
222.354
 21
222.017
  0
LINE
  8
0
 10
-47.078
 11
-46.857
 20
222.017
 21
221.65
  0
LINE
  8
0
 10
-46.857
 11
-46.681
 20
221.65
 21
221.259
  0
LINE
  8
0
 10
-46.681
 11
-46.553
 20
221.259
 21
220.85
  0
LINE
  8
0
 10
-46.553
 11
-46.476
 20
220.85
 21
220.428
  0
LINE
  8
0
 10
-46.476
 11
-46.45
 20
220.428
 21
220
  0
LINE
  8
0
 10
-46.45
 11
-46.476
 20
220
 21
219.572
  0
LINE
  8
0
 10
-46.476
 11
-46.553
 20
219.572
 21
219.15
  0
LINE
  8
0
 10
-46.553
 11
-46.681
 20
219.15
 21
218.741
  0
LINE
  8
0
 10
-46.681
 11
-46.857
 20
218.741
 21
218.35
  0
LINE
  8
0
 10
-46.857
 11
-47.078
 20
218.35
 21
217.983
  0
LINE
  8
0
 10
-47.078
 11
-47.343
 20
217.983
 21
217.646
  0
LINE
  8
0
 10
-47.343
 11
-47.646
 20
217.646
 21
217.343
  0
LINE
  8
0
 10
-47.646
 11
-47.983
 20
217.343
 21
217.078
  0
LINE
  8
0
 10
-47.983
 11
-48.35
 20
217.078
 21
216.857
  0
LINE
  8
0
 10
-48.35
 11
-48.741
 20
216.857
 21
216.681
  0
LINE
  8
0
 10
-48.741
 11
-49.15
 20
216.681
 21
216.553
  0
LINE
  8
0
 10
-49.15
 11
-49.572
 20
216.553
 21
216.476
  0
LINE
  8
0
 10
-49.572
 11
-50
 20
216.476
 21
216.45
  0
LINE
  8
0
 10
-50
 11
-50.428
 20
216.45
 21
216.476
  0
LINE
  8
0
 10
-50.428
 11
-50.85
 20
216.476
 21
216.553
  0
LINE
  8
0
 10
-50.85
 11
-51.259
 20
216.553
 21
216.681
  0
LINE
  8
0
 10
-51.259
 11
-51.65
 20
216.681
 21
216.857
  0
LINE
  8
0
 10
-51.65
 11
-52.017
 20
216.857
 21
217.078
  0
LINE
  8
0
 10
-52.017
 11
-52.354
 20
217.078
 21
217.343
  0
LINE
  8
0
 10
-52.354
 11
-52.657
 20
217.343
 21
217.646
  0
LINE
  8
0
 10
-52.657
 11
-52.922
 20
217.646
 21
217.983
  0
LINE
  8
0
 10
-52.922
 11
-53.143
 20
217.983
 21
218.35
  0
LINE
  8
0
 10
-53.143
 11
-53.319
 20
218.35
 21
218.741
  0
LINE
  8
0
 10
-53.319
 11
-53.447
 20
218.741
 21
219.15
  0
LINE
  8
0
 10
-53.447
 11
-53.524
 20
219.15
 21
219.572
  0
LINE
  8
0
 10
-53.524
 11
-53.55
 20
219.572
 21
220
  0
LINE
  8
0
 10
-9.3
 11
-8.66
 20
220
 21
226.092
  0
LINE
  8
0
 10
-8.66
 11
-6.767
 20
226.092
 21
231.917
  0
LINE
  8
0
 10
-6.767
 11
-3.704
 20
231.917
 21
237.222
  0
LINE
  8
0
 10
-3.704
 11
0.394
 20
237.222
 21
241.774
  0
LINE
  8
0
 10
0.394
 11
5.35
 20
241.774
 21
245.375
  0
LINE
  8
0
 10
5.35
 11
10.946
 20
245.375
 21
247.866
  0
LINE
  8
0
 10
10.946
 11
16.937
 20
247.866
 21
249.139
  0
LINE
  8
0
 10
16.937
 11
23.063
 20
249.139
 21
249.139
  0
LINE
  8
0
 10
23.063
 11
29.054
 20
249.139
 21
247.866
  0
LINE
  8
0
 10
29.054
 11
34.65
 20
247.866
 21
245.375
  0
LINE
  8
0
 10
34.65
 11
39.606
 20
245.375
 21
241.774
  0
LINE
  8
0
 10
39.606
 11
43.704
 20
241.774
 21
237.222
  0
LINE
  8
0
 10
43.704
 11
46.767
 20
237.222
 21
231.917
  0
LINE
  8
0
 10
46.767
 11
48.66
 20
231.917
 21
226.092
  0
LINE
  8
0
 10
48.66
 11
49.3
 20
226.092
 21
220
  0
LINE
  8
0
 10
49.3
 11
48.66
 20
220
 21
213.908
  0
LINE
  8
0
 10
48.66
 11
46.767
 20
213.908
 21
208.083
  0
LINE
  8
0
 10
46.767
 11
43.704
 20
208.083
 21
202.778
  0
LINE
  8
0
 10
43.704
 11
39.606
 20
202.778
 21
198.226
  0
LINE
  8
0
 10
39.606
 11
34.65
 20
198.226
 21
194.625
  0
LINE
  8
0
 10
34.65
 11
29.054
 20
194.625
 21
192.134
  0
LINE
  8
0
 10
29.054
 11
23.063
 20
192.134
 21
190.861
  0
LINE
  8
0
 10
23.063
 11
16.937
 20
190.861
 21
190.861
  0
LINE
  8
0
 10
16.937
 11
10.946
 20
190.861
 21
192.134
  0
LINE
  8
0
 10
10.946
 11
5.35
 20
192.134
 21
194.625
  0
LINE
  8
0
 10
5.35
 11
0.394
 20
194.625
 21
198.226
  0
LINE
  8
0
 10
0.394
 11
-3.704
 20
198.226
 21
202.778
  0
LINE
  8
0
 10
-3.704
 11
-6.767
 20
202.778
 21
208.083
  0
LINE
  8
0
 10
-6.767
 11
-8.66
 20
208.083
 21
213.908
  0
LINE
  8
0
 10
-8.66
 11
-9.3
 20
213.908
 21
220
  0
LINE
  8
0
 10
-3.543
 11
-3.543
 20
-0.214
 21
0.214
  0
LINE
  8
0
 10
-3.543
 11
-3.492
 20
0.214
 21
0.64
  0
LINE
  8
0
 10
-3.492
 11
-3.389
 20
0.64
 21
1.056
  0
LINE
  8
0
 10
-3.389
 11
-3.237
 20
1.056
 21
1.457
  0
LINE
  8
0
 10
-3.237
 11
-3.038
 20
1.457
 21
1.836
  0
LINE
  8
0
 10
-3.038
 11
-2.794
 20
1.836
 21
2.189
  0
LINE
  8
0
 10
-2.794
 11
-2.51
 20
2.189
 21
2.51
  0
LINE
  8
0
 10
-2.51
 11
-2.189
 20
2.51
 21
2.794
  0
LINE
  8
0
 10
-2.189
 11
-1.836
 20
2.794
 21
3.038
  0
LINE
  8
0
 10
-1.836
 11
-1.457
 20
3.038
 21
3.237
  0
LINE
  8
0
 10
-1.457
 11
-1.056
 20
3.237
 21
3.389
  0
LINE
  8
0
 10
-1.056
 11
-0.64
 20
3.389
 21
3.492
  0
LINE
  8
0
 10
-0.64
 11
-0.214
 20
3.492
 21
3.543
  0
LINE
  8
0
 10
-0.214
 11
0.214
 20
3.543
 21
3.543
  0
LINE
  8
0
 10
0.214
 11
0.64
 20
3.543
 21
3.492
  0
LINE
  8
0
 10
0.64
 11
1.056
 20
3.492
 21
3.389
  0
LINE
  8
0
 10
1.056
 11
1.457
 20
3.389
 21
3.237
  0
LINE
  8
0
 10
1.457
 11
1.836
 20
3.237
 21
3.038
  0
LINE
  8
0
 10
1.836
 11
2.189
 20
3.038
 21
2.794
  0
LINE
  8
0
 10
2.189
 11
2.51
 20
2.794
 21
2.51
  0
LINE
  8
0
 10
2.51
 11
2.794
 20
2.51
 21
2.189
  0
LINE
  8
0
 10
2.794
 11
3.038
 20
2.189
 21
1.836
  0
LINE
  8
0
 10
3.038
 11
3.237
 20
1.836
 21
1.457
  0
LINE
  8
0
 10
3.237
 11
3.389
 20
1.457
 21
1.056
  0
LINE
  8
0
 10
3.389
 11
3.492
 20
1.056
 21
0.64
  0
LINE
  8
0
 10
3.492
 11
3.543
 20
0.64
 21
0.214
  0
LINE
  8
0
 10
3.543
 11
3.543
 20
0.214
 21
-0.214
  0
LINE
  8
0
 10
3.543
 11
3.492
 20
-0.214
 21
-0.64
  0
LINE
  8
0
 10
3.492
 11
3.389
 20
-0.64
 21
-1.056
  0
LINE
  8
0
 10
3.389
 11
3.237
 20
-1.056
 21
-1.457
  0
LINE
  8
0
 10
3.237
 11
3.038
 20
-1.457
 21
-1.836
  0
LINE
  8
0
 10
3.038
 11
2.794
 20
-1.836
 21
-2.189
  0
LINE
  8
0
 10
2.794
 11
2.51
 20
-2.189
 21
-2.51
  0
LINE
  8
0
 10
2.51
 11
2.189
 20
-2.51
 21
-2.794
  0
LINE
  8
0
 10
2.189
 11
1.836
 20
-2.794
 21
-3.038
  0
LINE
  8
0
 10
1.836
 11
1.457
 20
-3.038
 21
-3.237
  0
LINE
  8
0
 10
1.457
 11
1.056
 20
-3.237
 21
-3.389
  0
LINE
  8
0
 10
1.056
 11
0.64
 20
-3.389
 21
-3.492
  0
LINE
  8
0
 10
0.64
 11
0.214
 20
-3.492
 21
-3.543
  0
LINE
  8
0
 10
0.214
 11
-0.214
 20
-3.543
 21
-3.543
  0
LINE
  8
0
 10
-0.214
 11
-0.64
 20
-3.543
 21
-3.492
  0
LINE
  8
0
 10
-0.64
 11
-1.056
 20
-3.492
 21
-3.389
  0
LINE
  8
0
 10
-1.056
 11
-1.457
 20
-3.389
 21
-3.237
  0
LINE
  8
0
 10
-1.457
 11
-1.836
 20
-3.237
 21
-3.038
  0
LINE
  8
0
 10
-1.836
 11
-2.189
 20
-3.038
 21
-2.794
  0
LINE
  8
0
 10
-2.189
 11
-2.51
 20
-2.794
 21
-2.51
  0
LINE
  8
0
 10
-2.51
 11
-2.794
 20
-2.51
 21
-2.189
  0
LINE
  8
0
 10
-2.794
 11
-3.038
 20
-2.189
 21
-1.836
  0
LINE
  8
0
 10
-3.038
 11
-3.237
 20
-1.836
 21
-1.457
  0
LINE
  8
0
 10
-3.237
 11
-3.389
 20
-1.457
 21
-1.056
  0
LINE
  8
0
 10
-3.389
 11
-3.492
 20
-1.056
 21
-0.64
  0
LINE
  8
0
 10
-3.492
 11
-3.543
 20
-0.64
 21
-0.214
  0
LINE
  8
0
 10
16.45
 11
16.476
 20
220
 21
220.428
  0
LINE
  8
0
 10
16.476
 11
16.553
 20
220.428
 21
220.85
  0
LINE
  8
0
 10
16.553
 11
16.681
 20
220.85
 21
221.259
  0
LINE
  8
0
 10
16.681
 11
16.857
 20
221.259
 21
221.65
  0
LINE
  8
0
 10
16.857
 11
17.078
 20
221.65
 21
222.017
  0
LINE
  8
0
 10
17.078
 11
17.343
 20
222.017
 21
222.354
  0
LINE
  8
0
 10
17.343
 11
17.646
 20
222.354
 21
222.657
  0
LINE
  8
0
 10
17.646
 11
17.983
 20
222.657
 21
222.922
  0
LINE
  8
0
 10
17.983
 11
18.35
 20
222.922
 21
223.143
  0
LINE
  8
0
 10
18.35
 11
18.741
 20
223.143
 21
223.319
  0
LINE
  8
0
 10
18.741
 11
19.15
 20
223.319
 21
223.447
  0
LINE
  8
0
 10
19.15
 11
19.572
 20
223.447
 21
223.524
  0
LINE
  8
0
 10
19.572
 11
20
 20
223.524
 21
223.55
  0
LINE
  8
0
 10
20
 11
20.428
 20
223.55
 21
223.524
  0
LINE
  8
0
 10
20.428
 11
20.85
 20
223.524
 21
223.447
  0
LINE
  8
0
 10
20.85
 11
21.259
 20
223.447
 21
223.319
  0
LINE
  8
0
 10
21.259
 11
21.65
 20
223.319
 21
223.143
  0
LINE
  8
0
 10
21.65
 11
22.017
 20
223.143
 21
222.922
  0
LINE
  8
0
 10
22.017
 11
22.354
 20
222.922
 21
222.657
  0
LINE
  8
0
 10
22.354
 11
22.657
 20
222.657
 21
222.354
  0
LINE
  8
0
 10
22.657
 11
22.922
 20
222.354
 21
222.017
  0
LINE
  8
0
 10
22.922
 11
23.143
 20
222.017
 21
221.65
  0
LINE
  8
0
 10
23.143
 11
23.319
 20
221.65
 21
221.259
  0
LINE
  8
0
 10
23.319
 11
23.447
 20
221.259
 21
220.85
  0
LINE
  8
0
 10
23.447
 11
23.524
 20
220.85
 21
220.428
  0
LINE
  8
0
 10
23.524
 11
23.55
 20
220.428
 21
220
  0
LINE
  8
0
 10
23.55
 11
23.524
 20
220
 21
219.572
  0
LINE
  8
0
 10
23.524
 11
23.447
 20
219.572
 21
219.15
  0
LINE
  8
0
 10
23.447
 11
23.319
 20
219.15
 21
218.741
  0
LINE
  8
0
 10
23.319
 11
23.143
 20
218.741
 21
218.35
  0
LINE
  8
0
 10
23.143
 11
22.922
 20
218.35
 21
217.983
  0
LINE
  8
0
 10
22.922
 11
22.657
 20
217.983
 21
217.646
  0
LINE
  8
0
 10
22.657
 11
22.354
 20
217.646
 21
217.343
  0
LINE
  8
0
 10
22.354
 11
22.017
 20
217.343
 21
217.078
  0
LINE
  8
0
 10
22.017
 11
21.65
 20
217.078
 21
216.857
  0
LINE
  8
0
 10
21.65
 11
21.259
 20
216.857
 21
216.681
  0
LINE
  8
0
 10
21.259
 11
20.85
 20
216.681
 21
216.553
  0
LINE
  8
0
 10
20.85
 11
20.428
 20
216.553
 21
216.476
  0
LINE
  8
0
 10
20.428
 11
20
 20
216.476
 21
216.45
  0
LINE
  8
0
 10
20
 11
19.572
 20
216.45
 21
216.476
  0
LINE
  8
0
 10
19.572
 11
19.15
 20
216.476
 21
216.553
  0
LINE
  8
0
 10
19.15
 11
18.741
 20
216.553
 21
216.681
  0
LINE
  8
0
 10
18.741
 11
18.35
 20
216.681
 21
216.857
  0
LINE
  8
0
 10
18.35
 11
17.983
 20
216.857
 21
217.078
  0
LINE
  8
0
 10
17.983
 11
17.646
 20
217.078
 21
217.343
  0
LINE
  8
0
 10
17.646
 11
17.343
 20
217.343
 21
217.646
  0
LINE
  8
0
 10
17.343
 11
17.078
 20
217.646
 21
217.983
  0
LINE
  8
0
 10
17.078
 11
16.857
 20
217.983
 21
218.35
  0
LINE
  8
0
 10
16.857
 11
16.681
 20
218.35
 21
218.741
  0
LINE
  8
0
 10
16.681
 11
16.553
 20
218.741
 21
219.15
  0
LINE
  8
0
 10
16.553
 11
16.476
 20
219.15
 21
219.572
  0
LINE
  8
0
 10
16.476
 11
16.45
 20
219.572
 21
220
  0
LINE
  8
0
 10
68
 11
68
 20
228.5
 21
367.5
  0
LINE
  8
0
 10
68
 11
72
 20
367.5
 21
367.5
  0
LINE
  8
0
 10
72
 11
72
 20
367.5
 21
376
  0
LINE
  8
0
 10
72
 11
73
 20
376
 21
376
  0
LINE
  8
0
 10
73
 11
73
 20
376
 21
379
  0
LINE
  8
0
 10
73
 11
79
 20
379
 21
379
  0
LINE
  8
0
 10
79
 11
79
 20
379
 21
376
  0
LINE
  8
0
 10
79
 11
80
 20
376
 21
376
  0
LINE
  8
0
 10
80
 11
80
 20
376
 21
375.527
  0
LINE
  8
0
 10
80
 11
81.787
 20
375.527
 21
373.74
  0
LINE
  8
0
 10
81.787
 11
80.382
 20
373.74
 21
372.335
  0
LINE
  8
0
 10
80.382
 11
81.787
 20
372.335
 21
370.93
  0
LINE
  8
0
 10
81.787
 11
80.382
 20
370.93
 21
369.525
  0
LINE
  8
0
 10
80.382
 11
81.787
 20
369.525
 21
368.12
  0
LINE
  8
0
 10
81.787
 11
80.382
 20
368.12
 21
366.715
  0
LINE
  8
0
 10
80.382
 11
81.787
 20
366.715
 21
365.31
  0
LINE
  8
0
 10
81.787
 11
80.382
 20
365.31
 21
363.905
  0
LINE
  8
0
 10
80.382
 11
81.787
 20
363.905
 21
362.5
  0
LINE
  8
0
 10
81.787
 11
80.382
 20
362.5
 21
361.095
  0
LINE
  8
0
 10
80.382
 11
81.787
 20
361.095
 21
359.69
  0
LINE
  8
0
 10
81.787
 11
80.382
 20
359.69
 21
358.285
  0
LINE
  8
0
 10
80.382
 11
81.787
 20
358.285
 21
356.88
  0
LINE
  8
0
 10
81.787
 11
80.382
 20
356.88
 21
355.475
  0
LINE
  8
0
 10
80.382
 11
81.787
 20
355.475
 21
354.07
  0
LINE
  8
0
 10
81.787
 11
80.382
 20
354.07
 21
352.665
  0
LINE
  8
0
 10
80.382
 11
81.787
 20
352.665
 21
351.26
  0
LINE
  8
0
 10
81.787
 11
80.382
 20
351.26
 21
349.855
  0
LINE
  8
0
 10
80.382
 11
81.787
 20
349.855
 21
348.45
  0
LINE
  8
0
 10
81.787
 11
80.382
 20
348.45
 21
347.045
  0
LINE
  8
0
 10
80.382
 11
81.787
 20
347.045
 21
345.64
  0
LINE
  8
0
 10
81.787
 11
80.382
 20
345.64
 21
344.235
  0
LINE
  8
0
 10
80.382
 11
81.787
 20
344.235
 21
342.83
  0
LINE
  8
0
 10
81.787
 11
80.382
 20
342.83
 21
341.425
  0
LINE
  8
0
 10
80.382
 11
81.787
 20
341.425
 21
340.02
  0
LINE
  8
0
 10
81.787
 11
80.382
 20
340.02
 21
338.615
  0
LINE
  8
0
 10
80.382
 11
81.787
 20
338.615
 21
337.21
  0
LINE
  8
0
 10
81.787
 11
80.382
 20
337.21
 21
335.805
  0
LINE
  8
0
 10
80.382
 11
81.787
 20
335.805
 21
334.4
  0
LINE
  8
0
 10
81.787
 11
80.382
 20
334.4
 21
332.995
  0
LINE
  8
0
 10
80.382
 11
81.787
 20
332.995
 21
331.59
  0
LINE
  8
0
 10
81.787
 11
80.382
 20
331.59
 21
330.185
  0
LINE
  8
0
 10
80.382
 11
81.787
 20
330.185
 21
328.78
  0
LINE
  8
0
 10
81.787
 11
80.382
 20
328.78
 21
327.375
  0
LINE
  8
0
 10
80.382
 11
81.787
 20
327.375
 21
325.97
  0
LINE
  8
0
 10
81.787
 11
80.382
 20
325.97
 21
324.565
  0
LINE
  8
0
 10
80.382
 11
81.787
 20
324.565
 21
323.16
  0
LINE
  8
0
 10
81.787
 11
80.382
 20
323.16
 21
321.755
  0
LINE
  8
0
 10
80.382
 11
81.787
 20
321.755
 21
320.35
  0
LINE
  8
0
 10
81.787
 11
80.382
 20
320.35
 21
318.945
  0
LINE
  8
0
 10
80.382
 11
81.787
 20
318.945
 21
317.54
  0
LINE
  8
0
 10
81.787
 11
80.382
 20
317.54
 21
316.135
  0
LINE
  8
0
 10
80.382
 11
81.787
 20
316.135
 21
314.73
  0
LINE
  8
0
 10
81.787
 11
80.382
 20
314.73
 21
313.325
  0
LINE
  8
0
 10
80.382
 11
81.787
 20
313.325
 21
311.92
  0
LINE
  8
0
 10
81.787
 11
80.382
 20
311.92
 21
310.515
  0
LINE
  8
0
 10
80.382
 11
81.787
 20
310.515
 21
309.11
  0
LINE
  8
0
 10
81.787
 11
80.382
 20
309.11
 21
307.705
  0
LINE
  8
0
 10
80.382
 11
81.787
 20
307.705
 21
306.3
  0
LINE
  8
0
 10
81.787
 11
80.382
 20
306.3
 21
304.895
  0
LINE
  8
0
 10
80.382
 11
81.787
 20
304.895
 21
303.49
  0
LINE
  8
0
 10
81.787
 11
80.382
 20
303.49
 21
302.085
  0
LINE
  8
0
 10
80.382
 11
81.787
 20
302.085
 21
300.68
  0
LINE
  8
0
 10
81.787
 11
80.382
 20
300.68
 21
299.275
  0
LINE
  8
0
 10
80.382
 11
81.787
 20
299.275
 21
297.87
  0
LINE
  8
0
 10
81.787
 11
80.382
 20
297.87
 21
296.465
  0
LINE
  8
0
 10
80.382
 11
81.787
 20
296.465
 21
295.06
  0
LINE
  8
0
 10
81.787
 11
80.382
 20
295.06
 21
293.655
  0
LINE
  8
0
 10
80.382
 11
81.787
 20
293.655
 21
292.25
  0
LINE
  8
0
 10
81.787
 11
80.382
 20
292.25
 21
290.845
  0
LINE
  8
0
 10
80.382
 11
81.787
 20
290.845
 21
289.44
  0
LINE
  8
0
 10
81.787
 11
80.382
 20
289.44
 21
288.035
  0
LINE
  8
0
 10
80.382
 11
81.787
 20
288.035
 21
286.63
  0
LINE
  8
0
 10
81.787
 11
80.382
 20
286.63
 21
285.225
  0
LINE
  8
0
 10
80.382
 11
81.787
 20
285.225
 21
283.82
  0
LINE
  8
0
 10
81.787
 11
80.382
 20
283.82
 21
282.415
  0
LINE
  8
0
 10
80.382
 11
81.787
 20
282.415
 21
281.01
  0
LINE
  8
0
 10
81.787
 11
80.382
 20
281.01
 21
279.605
  0
LINE
  8
0
 10
80.382
 11
81.787
 20
279.605
 21
278.2
  0
LINE
  8
0
 10
81.787
 11
80.382
 20
278.2
 21
276.795
  0
LINE
  8
0
 10
80.382
 11
81.787
 20
276.795
 21
275.39
  0
LINE
  8
0
 10
81.787
 11
80.382
 20
275.39
 21
273.985
  0
LINE
  8
0
 10
80.382
 11
81.787
 20
273.985
 21
272.58
  0
LINE
  8
0
 10
81.787
 11
80.382
 20
272.58
 21
271.175
  0
LINE
  8
0
 10
80.382
 11
81.787
 20
271.175
 21
269.77
  0
LINE
  8
0
 10
81.787
 11
80.382
 20
269.77
 21
268.365
  0
LINE
  8
0
 10
80.382
 11
81.787
 20
268.365
 21
266.96
  0
LINE
  8
0
 10
81.787
 11
80.382
 20
266.96
 21
265.555
  0
LINE
  8
0
 10
80.382
 11
81.787
 20
265.555
 21
264.15
  0
LINE
  8
0
 10
81.787
 11
80.382
 20
264.15
 21
262.745
  0
LINE
  8
0
 10
80.382
 11
81.787
 20
262.745
 21
261.34
  0
LINE
  8
0
 10
81.787
 11
80.382
 20
261.34
 21
259.935
  0
LINE
  8
0
 10
80.382
 11
81.787
 20
259.935
 21
258.53
  0
LINE
  8
0
 10
81.787
 11
80.382
 20
258.53
 21
257.125
  0
LINE
  8
0
 10
80.382
 11
81.787
 20
257.125
 21
255.72
  0
LINE
  8
0
 10
81.787
 11
80.382
 20
255.72
 21
254.315
  0
LINE
  8
0
 10
80.382
 11
81.787
 20
254.315
 21
252.91
  0
LINE
  8
0
 10
81.787
 11
80.382
 20
252.91
 21
251.505
  0
LINE
  8
0
 10
80.382
 11
81.787
 20
251.505
 21
250.1
  0
LINE
  8
0
 10
81.787
 11
80.382
 20
250.1
 21
248.695
  0
LINE
  8
0
 10
80.382
 11
81.787
 20
248.695
 21
247.29
  0
LINE
  8
0
 10
81.787
 11
80.382
 20
247.29
 21
245.885
  0
LINE
  8
0
 10
80.382
 11
81.787
 20
245.885
 21
244.48
  0
LINE
  8
0
 10
81.787
 11
80.382
 20
244.48
 21
243.075
  0
LINE
  8
0
 10
80.382
 11
81.787
 20
243.075
 21
241.67
  0
LINE
  8
0
 10
81.787
 11
80.382
 20
241.67
 21
240.265
  0
LINE
  8
0
 10
80.382
 11
81.787
 20
240.265
 21
238.86
  0
LINE
  8
0
 10
81.787
 11
80.382
 20
238.86
 21
237.455
  0
LINE
  8
0
 10
80.382
 11
81.787
 20
237.455
 21
236.05
  0
LINE
  8
0
 10
81.787
 11
80.382
 20
236.05
 21
234.645
  0
LINE
  8
0
 10
80.382
 11
81.787
 20
234.645
 21
233.24
  0
LINE
  8
0
 10
81.787
 11
80.382
 20
233.24
 21
231.835
  0
LINE
  8
0
 10
80.382
 11
81.787
 20
231.835
 21
230.43
  0
LINE
  8
0
 10
81.787
 11
80.382
 20
230.43
 21
229.025
  0
LINE
  8
0
 10
80.382
 11
81.787
 20
229.025
 21
227.62
  0
LINE
  8
0
 10
81.787
 11
80.382
 20
227.62
 21
226.215
  0
LINE
  8
0
 10
80.382
 11
81.787
 20
226.215
 21
224.81
  0
LINE
  8
0
 10
81.787
 11
80.382
 20
224.81
 21
223.405
  0
LINE
  8
0
 10
80.382
 11
81.787
 20
223.405
 21
222
  0
LINE
  8
0
 10
81.787
 11
80
 20
222
 21
220.213
  0
LINE
  8
0
 10
80
 11
80
 20
220.213
 21
220
  0
LINE
  8
0
 10
80
 11
79
 20
220
 21
220
  0
LINE
  8
0
 10
79
 11
79
 20
220
 21
217
  0
LINE
  8
0
 10
79
 11
73
 20
217
 21
217
  0
LINE
  8
0
 10
73
 11
73
 20
217
 21
220
  0
LINE
  8
0
 10
73
 11
72
 20
220
 21
220
  0
LINE
  8
0
 10
72
 11
72
 20
220
 21
228.5
  0
LINE
  8
0
 10
72
 11
68
 20
228.5
 21
228.5
  0
LINE
  8
0
 10
125.403
 11
125.403
 20
-130.977
 21
-129.023
  0
LINE
  8
0
 10
125.403
 11
126.198
 20
-129.023
 21
-127.237
  0
LINE
  8
0
 10
126.198
 11
127.65
 20
-127.237
 21
-125.93
  0
LINE
  8
0
 10
127.65
 11
129.509
 20
-125.93
 21
-125.326
  0
LINE
  8
0
 10
129.509
 11
131.452
 20
-125.326
 21
-125.53
  0
LINE
  8
0
 10
131.452
 11
133.145
 20
-125.53
 21
-126.507
  0
LINE
  8
0
 10
133.145
 11
134.294
 20
-126.507
 21
-128.088
  0
LINE
  8
0
 10
134.294
 11
134.7
 20
-128.088
 21
-130
  0
LINE
  8
0
 10
134.7
 11
134.294
 20
-130
 21
-131.912
  0
LINE
  8
0
 10
134.294
 11
133.145
 20
-131.912
 21
-133.493
  0
LINE
  8
0
 10
133.145
 11
131.452
 20
-133.493
 21
-134.47
  0
LINE
  8
0
 10
131.452
 11
129.509
 20
-134.47
 21
-134.674
  0
LINE
  8
0
 10
129.509
 11
127.65
 20
-134.674
 21
-134.07
  0
LINE
  8
0
 10
127.65
 11
126.198
 20
-134.07
 21
-132.763
  0
LINE
  8
0
 10
126.198
 11
125.403
 20
-132.763
 21
-130.977
  0
LINE
  8
0
 10
241.036
 11
241.036
 20
62.841
 21
64.795
  0
LINE
  8
0
 10
241.036
 11
241.831
 20
64.795
 21
66.581
  0
LINE
  8
0
 10
241.831
 11
243.283
 20
66.581
 21
67.888
  0
LINE
  8
0
 10
243.283
 11
245.142
 20
67.888
 21
68.492
  0
LINE
  8
0
 10
245.142
 11
247.085
 20
68.492
 21
68.288
  0
LINE
  8
0
 10
247.085
 11
248.778
 20
68.288
 21
67.311
  0
LINE
  8
0
 10
248.778
 11
249.927
 20
67.311
 21
65.73
  0
LINE
  8
0
 10
249.927
 11
250.333
 20
65.73
 21
63.818
  0
LINE
  8
0
 10
250.333
 11
249.927
 20
63.818
 21
61.906
  0
LINE
  8
0
 10
249.927
 11
248.778
 20
61.906
 21
60.325
  0
LINE
  8
0
 10
248.778
 11
247.085
 20
60.325
 21
59.348
  0
LINE
  8
0
 10
247.085
 11
245.142
 20
59.348
 21
59.144
  0
LINE
  8
0
 10
245.142
 11
243.283
 20
59.144
 21
59.748
  0
LINE
  8
0
 10
243.283
 11
241.831
 20
59.748
 21
61.055
  0
LINE
  8
0
 10
241.831
 11
241.036
 20
61.055
 21
62.841
  0
LINE
  8
0
 10
372.083
 11
372.109
 20
193.818
 21
194.246
  0
LINE
  8
0
 10
372.109
 11
372.186
 20
194.246
 21
194.668
  0
LINE
  8
0
 10
372.186
 11
372.314
 20
194.668
 21
195.077
  0
LINE
  8
0
 10
372.314
 11
372.49
 20
195.077
 21
195.468
  0
LINE
  8
0
 10
372.49
 11
372.711
 20
195.468
 21
195.835
  0
LINE
  8
0
 10
372.711
 11
372.976
 20
195.835
 21
196.172
  0
LINE
  8
0
 10
372.976
 11
373.279
 20
196.172
 21
196.475
  0
LINE
  8
0
 10
373.279
 11
373.616
 20
196.475
 21
196.74
  0
LINE
  8
0
 10
373.616
 11
373.983
 20
196.74
 21
196.961
  0
LINE
  8
0
 10
373.983
 11
374.374
 20
196.961
 21
197.137
  0
LINE
  8
0
 10
374.374
 11
374.783
 20
197.137
 21
197.265
  0
LINE
  8
0
 10
374.783
 11
375.205
 20
197.265
 21
197.342
  0
LINE
  8
0
 10
375.205
 11
375.633
 20
197.342
 21
197.368
  0
LINE
  8
0
 10
375.633
 11
376.061
 20
197.368
 21
197.342
  0
LINE
  8
0
 10
376.061
 11
376.483
 20
197.342
 21
197.265
  0
LINE
  8
0
 10
376.483
 11
376.892
 20
197.265
 21
197.137
  0
LINE
  8
0
 10
376.892
 11
377.283
 20
197.137
 21
196.961
  0
LINE
  8
0
 10
377.283
 11
377.65
 20
196.961
 21
196.74
  0
LINE
  8
0
 10
377.65
 11
377.987
 20
196.74
 21
196.475
  0
LINE
  8
0
 10
377.987
 11
378.29
 20
196.475
 21
196.172
  0
LINE
  8
0
 10
378.29
 11
378.555
 20
196.172
 21
195.835
  0
LINE
  8
0
 10
378.555
 11
378.776
 20
195.835
 21
195.468
  0
LINE
  8
0
 10
378.776
 11
378.952
 20
195.468
 21
195.077
  0
LINE
  8
0
 10
378.952
 11
379.08
 20
195.077
 21
194.668
  0
LINE
  8
0
 10
379.08
 11
379.157
 20
194.668
 21
194.246
  0
LINE
  8
0
 10
379.157
 11
379.183
 20
194.246
 21
193.818
  0
LINE
  8
0
 10
379.183
 11
379.157
 20
193.818
 21
193.39
  0
LINE
  8
0
 10
379.157
 11
379.08
 20
193.39
 21
192.968
  0
LINE
  8
0
 10
379.08
 11
378.952
 20
192.968
 21
192.559
  0
LINE
  8
0
 10
378.952
 11
378.776
 20
192.559
 21
192.168
  0
LINE
  8
0
 10
378.776
 11
378.555
 20
192.168
 21
191.801
  0
LINE
  8
0
 10
378.555
 11
378.29
 20
191.801
 21
191.464
  0
LINE
  8
0
 10
378.29
 11
377.987
 20
191.464
 21
191.161
  0
LINE
  8
0
 10
377.987
 11
377.65
 20
191.161
 21
190.896
  0
LINE
  8
0
 10
377.65
 11
377.283
 20
190.896
 21
190.675
  0
LINE
  8
0
 10
377.283
 11
376.892
 20
190.675
 21
190.499
  0
LINE
  8
0
 10
376.892
 11
376.483
 20
190.499
 21
190.371
  0
LINE
  8
0
 10
376.483
 11
376.061
 20
190.371
 21
190.294
  0
LINE
  8
0
 10
376.061
 11
375.633
 20
190.294
 21
190.268
  0
LINE
  8
0
 10
375.633
 11
375.205
 20
190.268
 21
190.294
  0
LINE
  8
0
 10
375.205
 11
374.783
 20
190.294
 21
190.371
  0
LINE
  8
0
 10
374.783
 11
374.374
 20
190.371
 21
190.499
  0
LINE
  8
0
 10
374.374
 11
373.983
 20
190.499
 21
190.675
  0
LINE
  8
0
 10
373.983
 11
373.616
 20
190.675
 21
190.896
  0
LINE
  8
0
 10
373.616
 11
373.279
 20
190.896
 21
191.161
  0
LINE
  8
0
 10
373.279
 11
372.976
 20
191.161
 21
191.464
  0
LINE
  8
0
 10
372.976
 11
372.711
 20
191.464
 21
191.801
  0
LINE
  8
0
 10
372.711
 11
372.49
 20
191.801
 21
192.168
  0
LINE
  8
0
 10
372.49
 11
372.314
 20
192.168
 21
192.559
  0
LINE
  8
0
 10
372.314
 11
372.186
 20
192.559
 21
192.968
  0
LINE
  8
0
 10
372.186
 11
372.109
 20
192.968
 21
193.39
  0
LINE
  8
0
 10
372.109
 11
372.083
 20
193.39
 21
193.818
  0
LINE
  8
0
 10
501.036
 11
501.036
 20
322.841
 21
324.795
  0
LINE
  8
0
 10
501.036
 11
501.831
 20
324.795
 21
326.581
  0
LINE
  8
0
 10
501.831
 11
503.283
 20
326.581
 21
327.888
  0
LINE
  8
0
 10
503.283
 11
505.142
 20
327.888
 21
328.492
  0
LINE
  8
0
 10
505.142
 11
507.085
 20
328.492
 21
328.288
  0
LINE
  8
0
 10
507.085
 11
508.778
 20
328.288
 21
327.311
  0
LINE
  8
0
 10
508.778
 11
509.927
 20
327.311
 21
325.73
  0
LINE
  8
0
 10
509.927
 11
510.333
 20
325.73
 21
323.818
  0
LINE
  8
0
 10
510.333
 11
509.927
 20
323.818
 21
321.906
  0
LINE
  8
0
 10
509.927
 11
508.778
 20
321.906
 21
320.325
  0
LINE
  8
0
 10
508.778
 11
507.085
 20
320.325
 21
319.348
  0
LINE
  8
0
 10
507.085
 11
505.142
 20
319.348
 21
319.144
  0
LINE
  8
0
 10
505.142
 11
503.283
 20
319.144
 21
319.748
  0
LINE
  8
0
 10
503.283
 11
501.831
 20
319.748
 21
321.055
  0
LINE
  8
0
 10
501.831
 11
501.036
 20
321.055
 21
322.841
  0
ENDSEC
  0
SECTION
  2
OBJECTS
  0
DICTIONARY
  0
ENDSEC
  0
EOF
