  0
SECTION
  2
BLOCKS
  0
ENDSEC
  0
SECTION
  2
ENTITIES
  0
LINE
  8
0
 10
0
 11
0
 20
0
 21
16.5
  0
LINE
  8
0
 10
0
 11
22
 20
16.5
 21
16.5
  0
LINE
  8
0
 10
22
 11
55
 20
16.5
 21
13.25
  0
LINE
  8
0
 10
55
 11
55
 20
13.25
 21
11.25
  0
LINE
  8
0
 10
55
 11
26.5
 20
11.25
 21
11.25
  0
LINE
  8
0
 10
26.5
 11
26.5
 20
11.25
 21
10.53
  0
LINE
  8
0
 10
26.5
 11
23.5
 20
10.53
 21
10.53
  0
LINE
  8
0
 10
23.5
 11
23.5
 20
10.53
 21
11.25
  0
LINE
  8
0
 10
23.5
 11
20
 20
11.25
 21
11.25
  0
LINE
  8
0
 10
20
 11
20
 20
11.25
 21
14.5
  0
LINE
  8
0
 10
20
 11
5
 20
14.5
 21
14.5
  0
LINE
  8
0
 10
5
 11
5
 20
14.5
 21
3
  0
LINE
  8
0
 10
5
 11
20
 20
3
 21
3
  0
LINE
  8
0
 10
20
 11
20
 20
3
 21
8.77
  0
LINE
  8
0
 10
20
 11
23
 20
8.77
 21
8.77
  0
LINE
  8
0
 10
23
 11
23
 20
8.77
 21
7.616
  0
LINE
  8
0
 10
23
 11
55
 20
7.616
 21
3
  0
LINE
  8
0
 10
55
 11
84
 20
3
 21
3
  0
LINE
  8
0
 10
84
 11
84
 20
3
 21
11.5
  0
LINE
  8
0
 10
84
 11
71.5
 20
11.5
 21
11.5
  0
LINE
  8
0
 10
71.5
 11
71.5
 20
11.5
 21
4.4
  0
LINE
  8
0
 10
71.5
 11
66
 20
4.4
 21
4.4
  0
LINE
  8
0
 10
66
 11
56
 20
4.4
 21
5.66
  0
LINE
  8
0
 10
56
 11
61.5
 20
5.66
 21
14.5
  0
LINE
  8
0
 10
61.5
 11
61.5
 20
14.5
 21
17
  0
LINE
  8
0
 10
61.5
 11
89
 20
17
 21
17
  0
LINE
  8
0
 10
89
 11
89
 20
17
 21
0
  0
LINE
  8
0
 10
89
 11
0
 20
0
 21
0
  0
LINE
  8
0
 10
23.5
 11
23.573
 20
5.2
 21
5.664
  0
LINE
  8
0
 10
23.573
 11
23.786
 20
5.664
 21
6.082
  0
LINE
  8
0
 10
23.786
 11
24.118
 20
6.082
 21
6.414
  0
LINE
  8
0
 10
24.118
 11
24.536
 20
6.414
 21
6.627
  0
LINE
  8
0
 10
24.536
 11
25
 20
6.627
 21
6.7
  0
LINE
  8
0
 10
25
 11
25.464
 20
6.7
 21
6.627
  0
LINE
  8
0
 10
25.464
 11
25.882
 20
6.627
 21
6.414
  0
LINE
  8
0
 10
25.882
 11
26.214
 20
6.414
 21
6.082
  0
LINE
  8
0
 10
26.214
 11
26.427
 20
6.082
 21
5.664
  0
LINE
  8
0
 10
26.427
 11
26.5
 20
5.664
 21
5.2
  0
LINE
  8
0
 10
26.5
 11
26.427
 20
5.2
 21
4.736
  0
LINE
  8
0
 10
26.427
 11
26.214
 20
4.736
 21
4.318
  0
LINE
  8
0
 10
26.214
 11
25.882
 20
4.318
 21
3.986
  0
LINE
  8
0
 10
25.882
 11
25.464
 20
3.986
 21
3.773
  0
LINE
  8
0
 10
25.464
 11
25
 20
3.773
 21
3.7
  0
LINE
  8
0
 10
25
 11
24.536
 20
3.7
 21
3.773
  0
LINE
  8
0
 10
24.536
 11
24.118
 20
3.773
 21
3.986
  0
LINE
  8
0
 10
24.118
 11
23.786
 20
3.986
 21
4.318
  0
LINE
  8
0
 10
23.786
 11
23.573
 20
4.318
 21
4.736
  0
LINE
  8
0
 10
23.573
 11
23.5
 20
4.736
 21
5.2
  0
LINE
  8
0
 10
64.5
 11
64.573
 20
6.4
 21
6.864
  0
LINE
  8
0
 10
64.573
 11
64.786
 20
6.864
 21
7.282
  0
LINE
  8
0
 10
64.786
 11
65.118
 20
7.282
 21
7.614
  0
LINE
  8
0
 10
65.118
 11
65.536
 20
7.614
 21
7.827
  0
LINE
  8
0
 10
65.536
 11
66
 20
7.827
 21
7.9
  0
LINE
  8
0
 10
66
 11
66.464
 20
7.9
 21
7.827
  0
LINE
  8
0
 10
66.464
 11
66.882
 20
7.827
 21
7.614
  0
LINE
  8
0
 10
66.882
 11
67.214
 20
7.614
 21
7.282
  0
LINE
  8
0
 10
67.214
 11
67.427
 20
7.282
 21
6.864
  0
LINE
  8
0
 10
67.427
 11
67.5
 20
6.864
 21
6.4
  0
LINE
  8
0
 10
67.5
 11
67.427
 20
6.4
 21
5.936
  0
LINE
  8
0
 10
67.427
 11
67.214
 20
5.936
 21
5.518
  0
LINE
  8
0
 10
67.214
 11
66.882
 20
5.518
 21
5.186
  0
LINE
  8
0
 10
66.882
 11
66.464
 20
5.186
 21
4.973
  0
LINE
  8
0
 10
66.464
 11
66
 20
4.973
 21
4.9
  0
LINE
  8
0
 10
66
 11
65.536
 20
4.9
 21
4.973
  0
LINE
  8
0
 10
65.536
 11
65.118
 20
4.973
 21
5.186
  0
LINE
  8
0
 10
65.118
 11
64.786
 20
5.186
 21
5.518
  0
LINE
  8
0
 10
64.786
 11
64.573
 20
5.518
 21
5.936
  0
LINE
  8
0
 10
64.573
 11
64.5
 20
5.936
 21
6.4
  0
ENDSEC
  0
SECTION
  2
OBJECTS
  0
DICTIONARY
  0
ENDSEC
  0
EOF
