  0
SECTION
  2
BLOCKS
  0
ENDSEC
  0
SECTION
  2
ENTITIES
  0
LINE
  8
0
 10
0
 11
0
 20
0
 21
16.5
  0
LINE
  8
0
 10
0
 11
22
 20
16.5
 21
16.5
  0
LINE
  8
0
 10
22
 11
22
 20
16.5
 21
13.25
  0
LINE
  8
0
 10
22
 11
55
 20
13.25
 21
13.25
  0
LINE
  8
0
 10
55
 11
55
 20
13.25
 21
11.25
  0
LINE
  8
0
 10
55
 11
27
 20
11.25
 21
11.25
  0
LINE
  8
0
 10
27
 11
27
 20
11.25
 21
10.55
  0
LINE
  8
0
 10
27
 11
24
 20
10.55
 21
10.55
  0
LINE
  8
0
 10
24
 11
24
 20
10.55
 21
11.25
  0
LINE
  8
0
 10
24
 11
20
 20
11.25
 21
11.25
  0
LINE
  8
0
 10
20
 11
20
 20
11.25
 21
14.5
  0
LINE
  8
0
 10
20
 11
5
 20
14.5
 21
14.5
  0
LINE
  8
0
 10
5
 11
5
 20
14.5
 21
3
  0
LINE
  8
0
 10
5
 11
20
 20
3
 21
3
  0
LINE
  8
0
 10
20
 11
20
 20
3
 21
8.7
  0
LINE
  8
0
 10
20
 11
23
 20
8.7
 21
8.7
  0
LINE
  8
0
 10
23
 11
23
 20
8.7
 21
7.56
  0
LINE
  8
0
 10
23
 11
55
 20
7.56
 21
3
  0
LINE
  8
0
 10
55
 11
83
 20
3
 21
3
  0
LINE
  8
0
 10
83
 11
83
 20
3
 21
14.5
  0
LINE
  8
0
 10
83
 11
70.5
 20
14.5
 21
14.5
  0
LINE
  8
0
 10
70.5
 11
70.5
 20
14.5
 21
4.5
  0
LINE
  8
0
 10
70.5
 11
67
 20
4.5
 21
4.5
  0
LINE
  8
0
 10
67
 11
57
 20
4.5
 21
5.725
  0
LINE
  8
0
 10
57
 11
57
 20
5.725
 21
18
  0
LINE
  8
0
 10
57
 11
88
 20
18
 21
18
  0
LINE
  8
0
 10
88
 11
88
 20
18
 21
0
  0
LINE
  8
0
 10
88
 11
0
 20
0
 21
0
  0
LINE
  8
0
 10
60.5
 11
60.5
 20
9.225
 21
14.5
  0
LINE
  8
0
 10
60.5
 11
67
 20
14.5
 21
14.5
  0
LINE
  8
0
 10
67
 11
67
 20
14.5
 21
8
  0
LINE
  8
0
 10
67
 11
60.5
 20
8
 21
9.225
  0
ENDSEC
  0
SECTION
  2
OBJECTS
  0
DICTIONARY
  0
ENDSEC
  0
EOF
