  0
SECTION
  2
BLOCKS
  0
ENDSEC
  0
SECTION
  2
ENTITIES
  0
LINE
  8
0
 10
-1.4
 11
-1.4
 20
-26.124
 21
-20.124
  0
LINE
  8
0
 10
-1.4
 11
-1.331
 20
-20.124
 21
-19.691
  0
LINE
  8
0
 10
-1.331
 11
-1.133
 20
-19.691
 21
-19.301
  0
LINE
  8
0
 10
-1.133
 11
-0.823
 20
-19.301
 21
-18.991
  0
LINE
  8
0
 10
-0.823
 11
-0.433
 20
-18.991
 21
-18.793
  0
LINE
  8
0
 10
-0.433
 11
0
 20
-18.793
 21
-18.724
  0
LINE
  8
0
 10
0
 11
0.433
 20
-18.724
 21
-18.793
  0
LINE
  8
0
 10
0.433
 11
0.823
 20
-18.793
 21
-18.991
  0
LINE
  8
0
 10
0.823
 11
1.133
 20
-18.991
 21
-19.301
  0
LINE
  8
0
 10
1.133
 11
1.331
 20
-19.301
 21
-19.691
  0
LINE
  8
0
 10
1.331
 11
1.4
 20
-19.691
 21
-20.124
  0
LINE
  8
0
 10
1.4
 11
1.4
 20
-20.124
 21
-26.124
  0
LINE
  8
0
 10
1.4
 11
1
 20
-26.124
 21
-26.124
  0
LINE
  8
0
 10
1
 11
-1
 20
-26.124
 21
-26.124
  0
LINE
  8
0
 10
-1
 11
-1.4
 20
-26.124
 21
-26.124
  0
LINE
  8
0
 10
-2.5
 11
-2.5
 20
-5
 21
5
  0
LINE
  8
0
 10
-2.5
 11
-0.35
 20
5
 21
5
  0
LINE
  8
0
 10
-0.35
 11
-0.35
 20
5
 21
5.4
  0
LINE
  8
0
 10
-0.35
 11
-0.8
 20
5.4
 21
5.4
  0
LINE
  8
0
 10
-0.8
 11
-0.8
 20
5.4
 21
6.2
  0
LINE
  8
0
 10
-0.8
 11
0.8
 20
6.2
 21
6.2
  0
LINE
  8
0
 10
0.8
 11
0.8
 20
6.2
 21
5.4
  0
LINE
  8
0
 10
0.8
 11
0.35
 20
5.4
 21
5.4
  0
LINE
  8
0
 10
0.35
 11
0.35
 20
5.4
 21
5
  0
LINE
  8
0
 10
0.35
 11
2.5
 20
5
 21
5
  0
LINE
  8
0
 10
2.5
 11
2.5
 20
5
 21
-5
  0
LINE
  8
0
 10
2.5
 11
1
 20
-5
 21
-5
  0
LINE
  8
0
 10
1
 11
1
 20
-5
 21
-17.949
  0
LINE
  8
0
 10
1
 11
1.09
 20
-17.949
 21
-17.986
  0
LINE
  8
0
 10
1.09
 11
1.411
 20
-17.986
 21
-18.182
  0
LINE
  8
0
 10
1.411
 11
1.697
 20
-18.182
 21
-18.427
  0
LINE
  8
0
 10
1.697
 11
1.942
 20
-18.427
 21
-18.713
  0
LINE
  8
0
 10
1.942
 11
2.138
 20
-18.713
 21
-19.034
  0
LINE
  8
0
 10
2.138
 11
2.283
 20
-19.034
 21
-19.382
  0
LINE
  8
0
 10
2.283
 11
2.37
 20
-19.382
 21
-19.749
  0
LINE
  8
0
 10
2.37
 11
2.4
 20
-19.749
 21
-20.124
  0
LINE
  8
0
 10
2.4
 11
2.4
 20
-20.124
 21
-27.124
  0
LINE
  8
0
 10
2.4
 11
1
 20
-27.124
 21
-27.124
  0
LINE
  8
0
 10
1
 11
1
 20
-27.124
 21
-33.624
  0
LINE
  8
0
 10
1
 11
1.8
 20
-33.624
 21
-33.624
  0
LINE
  8
0
 10
1.8
 11
1.8
 20
-33.624
 21
-39.774
  0
LINE
  8
0
 10
1.8
 11
0.35
 20
-39.774
 21
-39.774
  0
LINE
  8
0
 10
0.35
 11
0.35
 20
-39.774
 21
-40.15
  0
LINE
  8
0
 10
0.35
 11
0.8
 20
-40.15
 21
-40.15
  0
LINE
  8
0
 10
0.8
 11
0.8
 20
-40.15
 21
-40.95
  0
LINE
  8
0
 10
0.8
 11
-0.8
 20
-40.95
 21
-40.95
  0
LINE
  8
0
 10
-0.8
 11
-0.8
 20
-40.95
 21
-40.15
  0
LINE
  8
0
 10
-0.8
 11
-0.35
 20
-40.15
 21
-40.15
  0
LINE
  8
0
 10
-0.35
 11
-0.35
 20
-40.15
 21
-39.774
  0
LINE
  8
0
 10
-0.35
 11
-1.8
 20
-39.774
 21
-39.774
  0
LINE
  8
0
 10
-1.8
 11
-1.8
 20
-39.774
 21
-33.624
  0
LINE
  8
0
 10
-1.8
 11
-1
 20
-33.624
 21
-33.624
  0
LINE
  8
0
 10
-1
 11
-1
 20
-33.624
 21
-27.124
  0
LINE
  8
0
 10
-1
 11
-2.4
 20
-27.124
 21
-27.124
  0
LINE
  8
0
 10
-2.4
 11
-2.4
 20
-27.124
 21
-20.124
  0
LINE
  8
0
 10
-2.4
 11
-2.37
 20
-20.124
 21
-19.749
  0
LINE
  8
0
 10
-2.37
 11
-2.283
 20
-19.749
 21
-19.382
  0
LINE
  8
0
 10
-2.283
 11
-2.138
 20
-19.382
 21
-19.034
  0
LINE
  8
0
 10
-2.138
 11
-1.942
 20
-19.034
 21
-18.713
  0
LINE
  8
0
 10
-1.942
 11
-1.697
 20
-18.713
 21
-18.427
  0
LINE
  8
0
 10
-1.697
 11
-1.411
 20
-18.427
 21
-18.182
  0
LINE
  8
0
 10
-1.411
 11
-1.09
 20
-18.182
 21
-17.986
  0
LINE
  8
0
 10
-1.09
 11
-1
 20
-17.986
 21
-17.949
  0
LINE
  8
0
 10
-1
 11
-1
 20
-17.949
 21
-5
  0
LINE
  8
0
 10
-1
 11
-2.5
 20
-5
 21
-5
  0
LINE
  8
0
 10
-0.65
 11
0.65
 20
-38.199
 21
-38.199
  0
LINE
  8
0
 10
0.65
 11
0
 20
-38.199
 21
-39.324
  0
LINE
  8
0
 10
0
 11
-0.65
 20
-39.324
 21
-38.199
  0
LINE
  8
0
 10
-0.65
 11
0
 20
3.425
 21
4.55
  0
LINE
  8
0
 10
0
 11
0.65
 20
4.55
 21
3.425
  0
LINE
  8
0
 10
0.65
 11
-0.65
 20
3.425
 21
3.425
  0
LINE
  8
0
 10
0
 11
0
 20
-37.374
 21
-34.874
  0
LINE
  8
0
 10
0
 11
1.25
 20
-34.874
 21
-34.874
  0
LINE
  8
0
 10
1.25
 11
1.25
 20
-34.874
 21
-37.374
  0
LINE
  8
0
 10
1.25
 11
0
 20
-37.374
 21
-37.374
  0
ENDSEC
  0
SECTION
  2
OBJECTS
  0
DICTIONARY
  0
ENDSEC
  0
EOF
