  0
SECTION
  2
BLOCKS
  0
ENDSEC
  0
SECTION
  2
ENTITIES
  0
LINE
  8
0
 10
-15
 11
-14.882
 20
0
 21
1.88
  0
LINE
  8
0
 10
-14.882
 11
-14.529
 20
1.88
 21
3.73
  0
LINE
  8
0
 10
-14.529
 11
-13.947
 20
3.73
 21
5.522
  0
LINE
  8
0
 10
-13.947
 11
-13.145
 20
5.522
 21
7.226
  0
LINE
  8
0
 10
-13.145
 11
-12.135
 20
7.226
 21
8.817
  0
LINE
  8
0
 10
-12.135
 11
-10.935
 20
8.817
 21
10.268
  0
LINE
  8
0
 10
-10.935
 11
-9.561
 20
10.268
 21
11.558
  0
LINE
  8
0
 10
-9.561
 11
-8.037
 20
11.558
 21
12.665
  0
LINE
  8
0
 10
-8.037
 11
-6.387
 20
12.665
 21
13.572
  0
LINE
  8
0
 10
-6.387
 11
-4.635
 20
13.572
 21
14.266
  0
LINE
  8
0
 10
-4.635
 11
-2.811
 20
14.266
 21
14.734
  0
LINE
  8
0
 10
-2.811
 11
-0.942
 20
14.734
 21
14.97
  0
LINE
  8
0
 10
-0.942
 11
0.942
 20
14.97
 21
14.97
  0
LINE
  8
0
 10
0.942
 11
2.811
 20
14.97
 21
14.734
  0
LINE
  8
0
 10
2.811
 11
4.635
 20
14.734
 21
14.266
  0
LINE
  8
0
 10
4.635
 11
6.387
 20
14.266
 21
13.572
  0
LINE
  8
0
 10
6.387
 11
8.037
 20
13.572
 21
12.665
  0
LINE
  8
0
 10
8.037
 11
9.561
 20
12.665
 21
11.558
  0
LINE
  8
0
 10
9.561
 11
10.935
 20
11.558
 21
10.268
  0
LINE
  8
0
 10
10.935
 11
12.135
 20
10.268
 21
8.817
  0
LINE
  8
0
 10
12.135
 11
13.145
 20
8.817
 21
7.226
  0
LINE
  8
0
 10
13.145
 11
13.947
 20
7.226
 21
5.522
  0
LINE
  8
0
 10
13.947
 11
14.529
 20
5.522
 21
3.73
  0
LINE
  8
0
 10
14.529
 11
14.882
 20
3.73
 21
1.88
  0
LINE
  8
0
 10
14.882
 11
15
 20
1.88
 21
0
  0
LINE
  8
0
 10
15
 11
14.882
 20
0
 21
-1.88
  0
LINE
  8
0
 10
14.882
 11
14.529
 20
-1.88
 21
-3.73
  0
LINE
  8
0
 10
14.529
 11
13.947
 20
-3.73
 21
-5.522
  0
LINE
  8
0
 10
13.947
 11
13.145
 20
-5.522
 21
-7.226
  0
LINE
  8
0
 10
13.145
 11
12.135
 20
-7.226
 21
-8.817
  0
LINE
  8
0
 10
12.135
 11
10.935
 20
-8.817
 21
-10.268
  0
LINE
  8
0
 10
10.935
 11
9.561
 20
-10.268
 21
-11.558
  0
LINE
  8
0
 10
9.561
 11
8.037
 20
-11.558
 21
-12.665
  0
LINE
  8
0
 10
8.037
 11
6.387
 20
-12.665
 21
-13.572
  0
LINE
  8
0
 10
6.387
 11
4.635
 20
-13.572
 21
-14.266
  0
LINE
  8
0
 10
4.635
 11
2.811
 20
-14.266
 21
-14.734
  0
LINE
  8
0
 10
2.811
 11
0.942
 20
-14.734
 21
-14.97
  0
LINE
  8
0
 10
0.942
 11
-0.942
 20
-14.97
 21
-14.97
  0
LINE
  8
0
 10
-0.942
 11
-2.811
 20
-14.97
 21
-14.734
  0
LINE
  8
0
 10
-2.811
 11
-4.635
 20
-14.734
 21
-14.266
  0
LINE
  8
0
 10
-4.635
 11
-6.387
 20
-14.266
 21
-13.572
  0
LINE
  8
0
 10
-6.387
 11
-8.037
 20
-13.572
 21
-12.665
  0
LINE
  8
0
 10
-8.037
 11
-9.561
 20
-12.665
 21
-11.558
  0
LINE
  8
0
 10
-9.561
 11
-10.935
 20
-11.558
 21
-10.268
  0
LINE
  8
0
 10
-10.935
 11
-12.135
 20
-10.268
 21
-8.817
  0
LINE
  8
0
 10
-12.135
 11
-13.145
 20
-8.817
 21
-7.226
  0
LINE
  8
0
 10
-13.145
 11
-13.947
 20
-7.226
 21
-5.522
  0
LINE
  8
0
 10
-13.947
 11
-14.529
 20
-5.522
 21
-3.73
  0
LINE
  8
0
 10
-14.529
 11
-14.882
 20
-3.73
 21
-1.88
  0
LINE
  8
0
 10
-14.882
 11
-15
 20
-1.88
 21
0
  0
LINE
  8
0
 10
-12.392
 11
-12.348
 20
6
 21
6.416
  0
LINE
  8
0
 10
-12.348
 11
-12.219
 20
6.416
 21
6.814
  0
LINE
  8
0
 10
-12.219
 11
-12.01
 20
6.814
 21
7.175
  0
LINE
  8
0
 10
-12.01
 11
-11.73
 20
7.175
 21
7.486
  0
LINE
  8
0
 10
-11.73
 11
-11.392
 20
7.486
 21
7.732
  0
LINE
  8
0
 10
-11.392
 11
-11.01
 20
7.732
 21
7.902
  0
LINE
  8
0
 10
-11.01
 11
-10.602
 20
7.902
 21
7.989
  0
LINE
  8
0
 10
-10.602
 11
-10.183
 20
7.989
 21
7.989
  0
LINE
  8
0
 10
-10.183
 11
-9.775
 20
7.989
 21
7.902
  0
LINE
  8
0
 10
-9.775
 11
-9.392
 20
7.902
 21
7.732
  0
LINE
  8
0
 10
-9.392
 11
-9.054
 20
7.732
 21
7.486
  0
LINE
  8
0
 10
-9.054
 11
-8.775
 20
7.486
 21
7.176
  0
LINE
  8
0
 10
-8.775
 11
-8.565
 20
7.176
 21
6.813
  0
LINE
  8
0
 10
-8.565
 11
-8.436
 20
6.813
 21
6.416
  0
LINE
  8
0
 10
-8.436
 11
-8.392
 20
6.416
 21
6
  0
LINE
  8
0
 10
-8.392
 11
-8.436
 20
6
 21
5.584
  0
LINE
  8
0
 10
-8.436
 11
-8.565
 20
5.584
 21
5.186
  0
LINE
  8
0
 10
-8.565
 11
-8.774
 20
5.186
 21
4.825
  0
LINE
  8
0
 10
-8.774
 11
-9.054
 20
4.825
 21
4.514
  0
LINE
  8
0
 10
-9.054
 11
-9.392
 20
4.514
 21
4.268
  0
LINE
  8
0
 10
-9.392
 11
-9.774
 20
4.268
 21
4.098
  0
LINE
  8
0
 10
-9.774
 11
-10.183
 20
4.098
 21
4.011
  0
LINE
  8
0
 10
-10.183
 11
-10.602
 20
4.011
 21
4.011
  0
LINE
  8
0
 10
-10.602
 11
-11.01
 20
4.011
 21
4.098
  0
LINE
  8
0
 10
-11.01
 11
-11.392
 20
4.098
 21
4.268
  0
LINE
  8
0
 10
-11.392
 11
-11.731
 20
4.268
 21
4.514
  0
LINE
  8
0
 10
-11.731
 11
-12.01
 20
4.514
 21
4.824
  0
LINE
  8
0
 10
-12.01
 11
-12.22
 20
4.824
 21
5.187
  0
LINE
  8
0
 10
-12.22
 11
-12.348
 20
5.187
 21
5.584
  0
LINE
  8
0
 10
-12.348
 11
-12.392
 20
5.584
 21
6
  0
LINE
  8
0
 10
-3.125
 11
-3.057
 20
0
 21
0.65
  0
LINE
  8
0
 10
-3.057
 11
-2.855
 20
0.65
 21
1.271
  0
LINE
  8
0
 10
-2.855
 11
-2.752
 20
1.271
 21
1.45
  0
LINE
  8
0
 10
-2.752
 11
2.752
 20
1.45
 21
1.45
  0
LINE
  8
0
 10
2.752
 11
2.855
 20
1.45
 21
1.271
  0
LINE
  8
0
 10
2.855
 11
3.057
 20
1.271
 21
0.65
  0
LINE
  8
0
 10
3.057
 11
3.125
 20
0.65
 21
0
  0
LINE
  8
0
 10
3.125
 11
3.057
 20
0
 21
-0.65
  0
LINE
  8
0
 10
3.057
 11
2.855
 20
-0.65
 21
-1.271
  0
LINE
  8
0
 10
2.855
 11
2.528
 20
-1.271
 21
-1.837
  0
LINE
  8
0
 10
2.528
 11
2.091
 20
-1.837
 21
-2.322
  0
LINE
  8
0
 10
2.091
 11
1.563
 20
-2.322
 21
-2.706
  0
LINE
  8
0
 10
1.563
 11
0.966
 20
-2.706
 21
-2.972
  0
LINE
  8
0
 10
0.966
 11
0.327
 20
-2.972
 21
-3.108
  0
LINE
  8
0
 10
0.327
 11
-0.327
 20
-3.108
 21
-3.108
  0
LINE
  8
0
 10
-0.327
 11
-0.966
 20
-3.108
 21
-2.972
  0
LINE
  8
0
 10
-0.966
 11
-1.563
 20
-2.972
 21
-2.706
  0
LINE
  8
0
 10
-1.563
 11
-2.091
 20
-2.706
 21
-2.322
  0
LINE
  8
0
 10
-2.091
 11
-2.528
 20
-2.322
 21
-1.837
  0
LINE
  8
0
 10
-2.528
 11
-2.855
 20
-1.837
 21
-1.271
  0
LINE
  8
0
 10
-2.855
 11
-3.057
 20
-1.271
 21
-0.65
  0
LINE
  8
0
 10
-3.057
 11
-3.125
 20
-0.65
 21
0
  0
LINE
  8
0
 10
-2
 11
-1.956
 20
-12
 21
-11.584
  0
LINE
  8
0
 10
-1.956
 11
-1.827
 20
-11.584
 21
-11.187
  0
LINE
  8
0
 10
-1.827
 11
-1.618
 20
-11.187
 21
-10.824
  0
LINE
  8
0
 10
-1.618
 11
-1.338
 20
-10.824
 21
-10.514
  0
LINE
  8
0
 10
-1.338
 11
-1
 20
-10.514
 21
-10.268
  0
LINE
  8
0
 10
-1
 11
-0.618
 20
-10.268
 21
-10.098
  0
LINE
  8
0
 10
-0.618
 11
-0.209
 20
-10.098
 21
-10.011
  0
LINE
  8
0
 10
-0.209
 11
0.209
 20
-10.011
 21
-10.011
  0
LINE
  8
0
 10
0.209
 11
0.618
 20
-10.011
 21
-10.098
  0
LINE
  8
0
 10
0.618
 11
1
 20
-10.098
 21
-10.268
  0
LINE
  8
0
 10
1
 11
1.338
 20
-10.268
 21
-10.514
  0
LINE
  8
0
 10
1.338
 11
1.618
 20
-10.514
 21
-10.824
  0
LINE
  8
0
 10
1.618
 11
1.827
 20
-10.824
 21
-11.187
  0
LINE
  8
0
 10
1.827
 11
1.956
 20
-11.187
 21
-11.584
  0
LINE
  8
0
 10
1.956
 11
2
 20
-11.584
 21
-12
  0
LINE
  8
0
 10
2
 11
1.956
 20
-12
 21
-12.416
  0
LINE
  8
0
 10
1.956
 11
1.827
 20
-12.416
 21
-12.813
  0
LINE
  8
0
 10
1.827
 11
1.618
 20
-12.813
 21
-13.176
  0
LINE
  8
0
 10
1.618
 11
1.338
 20
-13.176
 21
-13.486
  0
LINE
  8
0
 10
1.338
 11
1
 20
-13.486
 21
-13.732
  0
LINE
  8
0
 10
1
 11
0.618
 20
-13.732
 21
-13.902
  0
LINE
  8
0
 10
0.618
 11
0.209
 20
-13.902
 21
-13.989
  0
LINE
  8
0
 10
0.209
 11
-0.209
 20
-13.989
 21
-13.989
  0
LINE
  8
0
 10
-0.209
 11
-0.618
 20
-13.989
 21
-13.902
  0
LINE
  8
0
 10
-0.618
 11
-1
 20
-13.902
 21
-13.732
  0
LINE
  8
0
 10
-1
 11
-1.338
 20
-13.732
 21
-13.486
  0
LINE
  8
0
 10
-1.338
 11
-1.618
 20
-13.486
 21
-13.176
  0
LINE
  8
0
 10
-1.618
 11
-1.827
 20
-13.176
 21
-12.813
  0
LINE
  8
0
 10
-1.827
 11
-1.956
 20
-12.813
 21
-12.416
  0
LINE
  8
0
 10
-1.956
 11
-2
 20
-12.416
 21
-12
  0
LINE
  8
0
 10
8.392
 11
8.436
 20
6
 21
6.416
  0
LINE
  8
0
 10
8.436
 11
8.565
 20
6.416
 21
6.813
  0
LINE
  8
0
 10
8.565
 11
8.775
 20
6.813
 21
7.176
  0
LINE
  8
0
 10
8.775
 11
9.054
 20
7.176
 21
7.486
  0
LINE
  8
0
 10
9.054
 11
9.392
 20
7.486
 21
7.732
  0
LINE
  8
0
 10
9.392
 11
9.775
 20
7.732
 21
7.902
  0
LINE
  8
0
 10
9.775
 11
10.183
 20
7.902
 21
7.989
  0
LINE
  8
0
 10
10.183
 11
10.602
 20
7.989
 21
7.989
  0
LINE
  8
0
 10
10.602
 11
11.01
 20
7.989
 21
7.902
  0
LINE
  8
0
 10
11.01
 11
11.392
 20
7.902
 21
7.732
  0
LINE
  8
0
 10
11.392
 11
11.73
 20
7.732
 21
7.486
  0
LINE
  8
0
 10
11.73
 11
12.01
 20
7.486
 21
7.175
  0
LINE
  8
0
 10
12.01
 11
12.219
 20
7.175
 21
6.814
  0
LINE
  8
0
 10
12.219
 11
12.348
 20
6.814
 21
6.416
  0
LINE
  8
0
 10
12.348
 11
12.392
 20
6.416
 21
6
  0
LINE
  8
0
 10
12.392
 11
12.348
 20
6
 21
5.584
  0
LINE
  8
0
 10
12.348
 11
12.22
 20
5.584
 21
5.187
  0
LINE
  8
0
 10
12.22
 11
12.01
 20
5.187
 21
4.824
  0
LINE
  8
0
 10
12.01
 11
11.731
 20
4.824
 21
4.514
  0
LINE
  8
0
 10
11.731
 11
11.392
 20
4.514
 21
4.268
  0
LINE
  8
0
 10
11.392
 11
11.01
 20
4.268
 21
4.098
  0
LINE
  8
0
 10
11.01
 11
10.602
 20
4.098
 21
4.011
  0
LINE
  8
0
 10
10.602
 11
10.183
 20
4.011
 21
4.011
  0
LINE
  8
0
 10
10.183
 11
9.774
 20
4.011
 21
4.098
  0
LINE
  8
0
 10
9.774
 11
9.392
 20
4.098
 21
4.268
  0
LINE
  8
0
 10
9.392
 11
9.054
 20
4.268
 21
4.514
  0
LINE
  8
0
 10
9.054
 11
8.774
 20
4.514
 21
4.825
  0
LINE
  8
0
 10
8.774
 11
8.565
 20
4.825
 21
5.186
  0
LINE
  8
0
 10
8.565
 11
8.436
 20
5.186
 21
5.584
  0
LINE
  8
0
 10
8.436
 11
8.392
 20
5.584
 21
6
  0
LINE
  8
0
 10
22.5
 11
22.5
 20
-27.5
 21
27.5
  0
LINE
  8
0
 10
22.5
 11
77.5
 20
27.5
 21
27.5
  0
LINE
  8
0
 10
77.5
 11
77.5
 20
27.5
 21
-27.5
  0
LINE
  8
0
 10
77.5
 11
68.5
 20
-27.5
 21
-27.5
  0
LINE
  8
0
 10
68.5
 11
71.04
 20
-27.5
 21
-4.22
  0
LINE
  8
0
 10
71.04
 11
71.33
 20
-4.22
 21
-2.695
  0
LINE
  8
0
 10
71.33
 11
71.5
 20
-2.695
 21
0
  0
LINE
  8
0
 10
71.5
 11
71.33
 20
0
 21
2.695
  0
LINE
  8
0
 10
71.33
 11
70.825
 20
2.695
 21
5.347
  0
LINE
  8
0
 10
70.825
 11
69.99
 20
5.347
 21
7.915
  0
LINE
  8
0
 10
69.99
 11
68.841
 20
7.915
 21
10.358
  0
LINE
  8
0
 10
68.841
 11
67.394
 20
10.358
 21
12.637
  0
LINE
  8
0
 10
67.394
 11
65.673
 20
12.637
 21
14.718
  0
LINE
  8
0
 10
65.673
 11
63.705
 20
14.718
 21
16.566
  0
LINE
  8
0
 10
63.705
 11
61.52
 20
16.566
 21
18.153
  0
LINE
  8
0
 10
61.52
 11
59.154
 20
18.153
 21
19.454
  0
LINE
  8
0
 10
59.154
 11
56.644
 20
19.454
 21
20.448
  0
LINE
  8
0
 10
56.644
 11
54.029
 20
20.448
 21
21.119
  0
LINE
  8
0
 10
54.029
 11
51.35
 20
21.119
 21
21.458
  0
LINE
  8
0
 10
51.35
 11
48.65
 20
21.458
 21
21.458
  0
LINE
  8
0
 10
48.65
 11
45.971
 20
21.458
 21
21.119
  0
LINE
  8
0
 10
45.971
 11
43.356
 20
21.119
 21
20.448
  0
LINE
  8
0
 10
43.356
 11
40.846
 20
20.448
 21
19.454
  0
LINE
  8
0
 10
40.846
 11
38.48
 20
19.454
 21
18.153
  0
LINE
  8
0
 10
38.48
 11
36.295
 20
18.153
 21
16.566
  0
LINE
  8
0
 10
36.295
 11
34.327
 20
16.566
 21
14.718
  0
LINE
  8
0
 10
34.327
 11
32.606
 20
14.718
 21
12.637
  0
LINE
  8
0
 10
32.606
 11
31.159
 20
12.637
 21
10.358
  0
LINE
  8
0
 10
31.159
 11
30.01
 20
10.358
 21
7.915
  0
LINE
  8
0
 10
30.01
 11
29.175
 20
7.915
 21
5.347
  0
LINE
  8
0
 10
29.175
 11
28.67
 20
5.347
 21
2.695
  0
LINE
  8
0
 10
28.67
 11
28.5
 20
2.695
 21
0
  0
LINE
  8
0
 10
28.5
 11
28.67
 20
0
 21
-2.695
  0
LINE
  8
0
 10
28.67
 11
28.96
 20
-2.695
 21
-4.22
  0
LINE
  8
0
 10
28.96
 11
31.5
 20
-4.22
 21
-27.5
  0
LINE
  8
0
 10
31.5
 11
22.5
 20
-27.5
 21
-27.5
  0
LINE
  8
0
 10
24.5
 11
24.551
 20
-23.15
 21
-22.661
  0
LINE
  8
0
 10
24.551
 11
24.703
 20
-22.661
 21
-22.194
  0
LINE
  8
0
 10
24.703
 11
24.949
 20
-22.194
 21
-21.769
  0
LINE
  8
0
 10
24.949
 11
25.278
 20
-21.769
 21
-21.404
  0
LINE
  8
0
 10
25.278
 11
25.675
 20
-21.404
 21
-21.115
  0
LINE
  8
0
 10
25.675
 11
26.124
 20
-21.115
 21
-20.915
  0
LINE
  8
0
 10
26.124
 11
26.604
 20
-20.915
 21
-20.813
  0
LINE
  8
0
 10
26.604
 11
27.096
 20
-20.813
 21
-20.813
  0
LINE
  8
0
 10
27.096
 11
27.576
 20
-20.813
 21
-20.915
  0
LINE
  8
0
 10
27.576
 11
28.025
 20
-20.915
 21
-21.115
  0
LINE
  8
0
 10
28.025
 11
28.422
 20
-21.115
 21
-21.404
  0
LINE
  8
0
 10
28.422
 11
28.751
 20
-21.404
 21
-21.769
  0
LINE
  8
0
 10
28.751
 11
28.997
 20
-21.769
 21
-22.194
  0
LINE
  8
0
 10
28.997
 11
29.149
 20
-22.194
 21
-22.661
  0
LINE
  8
0
 10
29.149
 11
29.2
 20
-22.661
 21
-23.15
  0
LINE
  8
0
 10
29.2
 11
29.149
 20
-23.15
 21
-23.639
  0
LINE
  8
0
 10
29.149
 11
28.997
 20
-23.639
 21
-24.106
  0
LINE
  8
0
 10
28.997
 11
28.751
 20
-24.106
 21
-24.531
  0
LINE
  8
0
 10
28.751
 11
28.422
 20
-24.531
 21
-24.896
  0
LINE
  8
0
 10
28.422
 11
28.025
 20
-24.896
 21
-25.185
  0
LINE
  8
0
 10
28.025
 11
27.576
 20
-25.185
 21
-25.385
  0
LINE
  8
0
 10
27.576
 11
27.096
 20
-25.385
 21
-25.487
  0
LINE
  8
0
 10
27.096
 11
26.604
 20
-25.487
 21
-25.487
  0
LINE
  8
0
 10
26.604
 11
26.124
 20
-25.487
 21
-25.385
  0
LINE
  8
0
 10
26.124
 11
25.675
 20
-25.385
 21
-25.185
  0
LINE
  8
0
 10
25.675
 11
25.278
 20
-25.185
 21
-24.896
  0
LINE
  8
0
 10
25.278
 11
24.949
 20
-24.896
 21
-24.531
  0
LINE
  8
0
 10
24.949
 11
24.703
 20
-24.531
 21
-24.106
  0
LINE
  8
0
 10
24.703
 11
24.551
 20
-24.106
 21
-23.639
  0
LINE
  8
0
 10
24.551
 11
24.5
 20
-23.639
 21
-23.15
  0
LINE
  8
0
 10
24.5
 11
24.551
 20
23.15
 21
23.639
  0
LINE
  8
0
 10
24.551
 11
24.703
 20
23.639
 21
24.106
  0
LINE
  8
0
 10
24.703
 11
24.949
 20
24.106
 21
24.531
  0
LINE
  8
0
 10
24.949
 11
25.278
 20
24.531
 21
24.896
  0
LINE
  8
0
 10
25.278
 11
25.675
 20
24.896
 21
25.185
  0
LINE
  8
0
 10
25.675
 11
26.124
 20
25.185
 21
25.385
  0
LINE
  8
0
 10
26.124
 11
26.604
 20
25.385
 21
25.487
  0
LINE
  8
0
 10
26.604
 11
27.096
 20
25.487
 21
25.487
  0
LINE
  8
0
 10
27.096
 11
27.576
 20
25.487
 21
25.385
  0
LINE
  8
0
 10
27.576
 11
28.025
 20
25.385
 21
25.185
  0
LINE
  8
0
 10
28.025
 11
28.422
 20
25.185
 21
24.896
  0
LINE
  8
0
 10
28.422
 11
28.751
 20
24.896
 21
24.531
  0
LINE
  8
0
 10
28.751
 11
28.997
 20
24.531
 21
24.106
  0
LINE
  8
0
 10
28.997
 11
29.149
 20
24.106
 21
23.639
  0
LINE
  8
0
 10
29.149
 11
29.2
 20
23.639
 21
23.15
  0
LINE
  8
0
 10
29.2
 11
29.149
 20
23.15
 21
22.661
  0
LINE
  8
0
 10
29.149
 11
28.997
 20
22.661
 21
22.194
  0
LINE
  8
0
 10
28.997
 11
28.751
 20
22.194
 21
21.769
  0
LINE
  8
0
 10
28.751
 11
28.422
 20
21.769
 21
21.404
  0
LINE
  8
0
 10
28.422
 11
28.025
 20
21.404
 21
21.115
  0
LINE
  8
0
 10
28.025
 11
27.576
 20
21.115
 21
20.915
  0
LINE
  8
0
 10
27.576
 11
27.096
 20
20.915
 21
20.813
  0
LINE
  8
0
 10
27.096
 11
26.604
 20
20.813
 21
20.813
  0
LINE
  8
0
 10
26.604
 11
26.124
 20
20.813
 21
20.915
  0
LINE
  8
0
 10
26.124
 11
25.675
 20
20.915
 21
21.115
  0
LINE
  8
0
 10
25.675
 11
25.278
 20
21.115
 21
21.404
  0
LINE
  8
0
 10
25.278
 11
24.949
 20
21.404
 21
21.769
  0
LINE
  8
0
 10
24.949
 11
24.703
 20
21.769
 21
22.194
  0
LINE
  8
0
 10
24.703
 11
24.551
 20
22.194
 21
22.661
  0
LINE
  8
0
 10
24.551
 11
24.5
 20
22.661
 21
23.15
  0
LINE
  8
0
 10
70.8
 11
70.851
 20
-23.15
 21
-22.661
  0
LINE
  8
0
 10
70.851
 11
71.003
 20
-22.661
 21
-22.194
  0
LINE
  8
0
 10
71.003
 11
71.249
 20
-22.194
 21
-21.769
  0
LINE
  8
0
 10
71.249
 11
71.578
 20
-21.769
 21
-21.404
  0
LINE
  8
0
 10
71.578
 11
71.975
 20
-21.404
 21
-21.115
  0
LINE
  8
0
 10
71.975
 11
72.424
 20
-21.115
 21
-20.915
  0
LINE
  8
0
 10
72.424
 11
72.904
 20
-20.915
 21
-20.813
  0
LINE
  8
0
 10
72.904
 11
73.396
 20
-20.813
 21
-20.813
  0
LINE
  8
0
 10
73.396
 11
73.876
 20
-20.813
 21
-20.915
  0
LINE
  8
0
 10
73.876
 11
74.325
 20
-20.915
 21
-21.115
  0
LINE
  8
0
 10
74.325
 11
74.722
 20
-21.115
 21
-21.404
  0
LINE
  8
0
 10
74.722
 11
75.051
 20
-21.404
 21
-21.769
  0
LINE
  8
0
 10
75.051
 11
75.297
 20
-21.769
 21
-22.194
  0
LINE
  8
0
 10
75.297
 11
75.449
 20
-22.194
 21
-22.661
  0
LINE
  8
0
 10
75.449
 11
75.5
 20
-22.661
 21
-23.15
  0
LINE
  8
0
 10
75.5
 11
75.449
 20
-23.15
 21
-23.639
  0
LINE
  8
0
 10
75.449
 11
75.297
 20
-23.639
 21
-24.106
  0
LINE
  8
0
 10
75.297
 11
75.051
 20
-24.106
 21
-24.531
  0
LINE
  8
0
 10
75.051
 11
74.722
 20
-24.531
 21
-24.896
  0
LINE
  8
0
 10
74.722
 11
74.325
 20
-24.896
 21
-25.185
  0
LINE
  8
0
 10
74.325
 11
73.876
 20
-25.185
 21
-25.385
  0
LINE
  8
0
 10
73.876
 11
73.396
 20
-25.385
 21
-25.487
  0
LINE
  8
0
 10
73.396
 11
72.904
 20
-25.487
 21
-25.487
  0
LINE
  8
0
 10
72.904
 11
72.424
 20
-25.487
 21
-25.385
  0
LINE
  8
0
 10
72.424
 11
71.975
 20
-25.385
 21
-25.185
  0
LINE
  8
0
 10
71.975
 11
71.578
 20
-25.185
 21
-24.896
  0
LINE
  8
0
 10
71.578
 11
71.249
 20
-24.896
 21
-24.531
  0
LINE
  8
0
 10
71.249
 11
71.003
 20
-24.531
 21
-24.106
  0
LINE
  8
0
 10
71.003
 11
70.851
 20
-24.106
 21
-23.639
  0
LINE
  8
0
 10
70.851
 11
70.8
 20
-23.639
 21
-23.15
  0
LINE
  8
0
 10
70.8
 11
70.851
 20
23.15
 21
23.639
  0
LINE
  8
0
 10
70.851
 11
71.003
 20
23.639
 21
24.106
  0
LINE
  8
0
 10
71.003
 11
71.249
 20
24.106
 21
24.531
  0
LINE
  8
0
 10
71.249
 11
71.578
 20
24.531
 21
24.896
  0
LINE
  8
0
 10
71.578
 11
71.975
 20
24.896
 21
25.185
  0
LINE
  8
0
 10
71.975
 11
72.424
 20
25.185
 21
25.385
  0
LINE
  8
0
 10
72.424
 11
72.904
 20
25.385
 21
25.487
  0
LINE
  8
0
 10
72.904
 11
73.396
 20
25.487
 21
25.487
  0
LINE
  8
0
 10
73.396
 11
73.876
 20
25.487
 21
25.385
  0
LINE
  8
0
 10
73.876
 11
74.325
 20
25.385
 21
25.185
  0
LINE
  8
0
 10
74.325
 11
74.722
 20
25.185
 21
24.896
  0
LINE
  8
0
 10
74.722
 11
75.051
 20
24.896
 21
24.531
  0
LINE
  8
0
 10
75.051
 11
75.297
 20
24.531
 21
24.106
  0
LINE
  8
0
 10
75.297
 11
75.449
 20
24.106
 21
23.639
  0
LINE
  8
0
 10
75.449
 11
75.5
 20
23.639
 21
23.15
  0
LINE
  8
0
 10
75.5
 11
75.449
 20
23.15
 21
22.661
  0
LINE
  8
0
 10
75.449
 11
75.297
 20
22.661
 21
22.194
  0
LINE
  8
0
 10
75.297
 11
75.051
 20
22.194
 21
21.769
  0
LINE
  8
0
 10
75.051
 11
74.722
 20
21.769
 21
21.404
  0
LINE
  8
0
 10
74.722
 11
74.325
 20
21.404
 21
21.115
  0
LINE
  8
0
 10
74.325
 11
73.876
 20
21.115
 21
20.915
  0
LINE
  8
0
 10
73.876
 11
73.396
 20
20.915
 21
20.813
  0
LINE
  8
0
 10
73.396
 11
72.904
 20
20.813
 21
20.813
  0
LINE
  8
0
 10
72.904
 11
72.424
 20
20.813
 21
20.915
  0
LINE
  8
0
 10
72.424
 11
71.975
 20
20.915
 21
21.115
  0
LINE
  8
0
 10
71.975
 11
71.578
 20
21.115
 21
21.404
  0
LINE
  8
0
 10
71.578
 11
71.249
 20
21.404
 21
21.769
  0
LINE
  8
0
 10
71.249
 11
71.003
 20
21.769
 21
22.194
  0
LINE
  8
0
 10
71.003
 11
70.851
 20
22.194
 21
22.661
  0
LINE
  8
0
 10
70.851
 11
70.8
 20
22.661
 21
23.15
  0
LINE
  8
0
 10
97.5
 11
97.5
 20
-27.5
 21
27.5
  0
LINE
  8
0
 10
97.5
 11
152.5
 20
27.5
 21
27.5
  0
LINE
  8
0
 10
152.5
 11
152.5
 20
27.5
 21
-27.5
  0
LINE
  8
0
 10
152.5
 11
140.5
 20
-27.5
 21
-27.5
  0
LINE
  8
0
 10
140.5
 11
143.104
 20
-27.5
 21
-3.631
  0
LINE
  8
0
 10
143.104
 11
143.354
 20
-3.631
 21
-2.319
  0
LINE
  8
0
 10
143.354
 11
143.5
 20
-2.319
 21
0
  0
LINE
  8
0
 10
143.5
 11
143.354
 20
0
 21
2.319
  0
LINE
  8
0
 10
143.354
 11
142.919
 20
2.319
 21
4.601
  0
LINE
  8
0
 10
142.919
 11
142.201
 20
4.601
 21
6.81
  0
LINE
  8
0
 10
142.201
 11
141.212
 20
6.81
 21
8.912
  0
LINE
  8
0
 10
141.212
 11
139.967
 20
8.912
 21
10.874
  0
LINE
  8
0
 10
139.967
 11
138.486
 20
10.874
 21
12.664
  0
LINE
  8
0
 10
138.486
 11
136.792
 20
12.664
 21
14.254
  0
LINE
  8
0
 10
136.792
 11
134.913
 20
14.254
 21
15.62
  0
LINE
  8
0
 10
134.913
 11
132.877
 20
15.62
 21
16.739
  0
LINE
  8
0
 10
132.877
 11
130.717
 20
16.739
 21
17.595
  0
LINE
  8
0
 10
130.717
 11
128.467
 20
17.595
 21
18.172
  0
LINE
  8
0
 10
128.467
 11
126.162
 20
18.172
 21
18.463
  0
LINE
  8
0
 10
126.162
 11
123.838
 20
18.463
 21
18.463
  0
LINE
  8
0
 10
123.838
 11
121.533
 20
18.463
 21
18.172
  0
LINE
  8
0
 10
121.533
 11
119.283
 20
18.172
 21
17.595
  0
LINE
  8
0
 10
119.283
 11
117.123
 20
17.595
 21
16.739
  0
LINE
  8
0
 10
117.123
 11
115.087
 20
16.739
 21
15.62
  0
LINE
  8
0
 10
115.087
 11
113.208
 20
15.62
 21
14.254
  0
LINE
  8
0
 10
113.208
 11
111.514
 20
14.254
 21
12.664
  0
LINE
  8
0
 10
111.514
 11
110.033
 20
12.664
 21
10.874
  0
LINE
  8
0
 10
110.033
 11
108.788
 20
10.874
 21
8.912
  0
LINE
  8
0
 10
108.788
 11
107.799
 20
8.912
 21
6.81
  0
LINE
  8
0
 10
107.799
 11
107.081
 20
6.81
 21
4.601
  0
LINE
  8
0
 10
107.081
 11
106.646
 20
4.601
 21
2.319
  0
LINE
  8
0
 10
106.646
 11
106.5
 20
2.319
 21
0
  0
LINE
  8
0
 10
106.5
 11
106.646
 20
0
 21
-2.319
  0
LINE
  8
0
 10
106.646
 11
106.896
 20
-2.319
 21
-3.631
  0
LINE
  8
0
 10
106.896
 11
109.5
 20
-3.631
 21
-27.5
  0
LINE
  8
0
 10
109.5
 11
97.5
 20
-27.5
 21
-27.5
  0
LINE
  8
0
 10
99.5
 11
99.551
 20
-23.15
 21
-22.661
  0
LINE
  8
0
 10
99.551
 11
99.703
 20
-22.661
 21
-22.194
  0
LINE
  8
0
 10
99.703
 11
99.949
 20
-22.194
 21
-21.769
  0
LINE
  8
0
 10
99.949
 11
100.278
 20
-21.769
 21
-21.404
  0
LINE
  8
0
 10
100.278
 11
100.675
 20
-21.404
 21
-21.115
  0
LINE
  8
0
 10
100.675
 11
101.124
 20
-21.115
 21
-20.915
  0
LINE
  8
0
 10
101.124
 11
101.604
 20
-20.915
 21
-20.813
  0
LINE
  8
0
 10
101.604
 11
102.096
 20
-20.813
 21
-20.813
  0
LINE
  8
0
 10
102.096
 11
102.576
 20
-20.813
 21
-20.915
  0
LINE
  8
0
 10
102.576
 11
103.025
 20
-20.915
 21
-21.115
  0
LINE
  8
0
 10
103.025
 11
103.422
 20
-21.115
 21
-21.404
  0
LINE
  8
0
 10
103.422
 11
103.751
 20
-21.404
 21
-21.769
  0
LINE
  8
0
 10
103.751
 11
103.997
 20
-21.769
 21
-22.194
  0
LINE
  8
0
 10
103.997
 11
104.149
 20
-22.194
 21
-22.661
  0
LINE
  8
0
 10
104.149
 11
104.2
 20
-22.661
 21
-23.15
  0
LINE
  8
0
 10
104.2
 11
104.149
 20
-23.15
 21
-23.639
  0
LINE
  8
0
 10
104.149
 11
103.997
 20
-23.639
 21
-24.106
  0
LINE
  8
0
 10
103.997
 11
103.751
 20
-24.106
 21
-24.531
  0
LINE
  8
0
 10
103.751
 11
103.422
 20
-24.531
 21
-24.896
  0
LINE
  8
0
 10
103.422
 11
103.025
 20
-24.896
 21
-25.185
  0
LINE
  8
0
 10
103.025
 11
102.576
 20
-25.185
 21
-25.385
  0
LINE
  8
0
 10
102.576
 11
102.096
 20
-25.385
 21
-25.487
  0
LINE
  8
0
 10
102.096
 11
101.604
 20
-25.487
 21
-25.487
  0
LINE
  8
0
 10
101.604
 11
101.124
 20
-25.487
 21
-25.385
  0
LINE
  8
0
 10
101.124
 11
100.675
 20
-25.385
 21
-25.185
  0
LINE
  8
0
 10
100.675
 11
100.278
 20
-25.185
 21
-24.896
  0
LINE
  8
0
 10
100.278
 11
99.949
 20
-24.896
 21
-24.531
  0
LINE
  8
0
 10
99.949
 11
99.703
 20
-24.531
 21
-24.106
  0
LINE
  8
0
 10
99.703
 11
99.551
 20
-24.106
 21
-23.639
  0
LINE
  8
0
 10
99.551
 11
99.5
 20
-23.639
 21
-23.15
  0
LINE
  8
0
 10
99.5
 11
99.551
 20
23.15
 21
23.639
  0
LINE
  8
0
 10
99.551
 11
99.703
 20
23.639
 21
24.106
  0
LINE
  8
0
 10
99.703
 11
99.949
 20
24.106
 21
24.531
  0
LINE
  8
0
 10
99.949
 11
100.278
 20
24.531
 21
24.896
  0
LINE
  8
0
 10
100.278
 11
100.675
 20
24.896
 21
25.185
  0
LINE
  8
0
 10
100.675
 11
101.124
 20
25.185
 21
25.385
  0
LINE
  8
0
 10
101.124
 11
101.604
 20
25.385
 21
25.487
  0
LINE
  8
0
 10
101.604
 11
102.096
 20
25.487
 21
25.487
  0
LINE
  8
0
 10
102.096
 11
102.576
 20
25.487
 21
25.385
  0
LINE
  8
0
 10
102.576
 11
103.025
 20
25.385
 21
25.185
  0
LINE
  8
0
 10
103.025
 11
103.422
 20
25.185
 21
24.896
  0
LINE
  8
0
 10
103.422
 11
103.751
 20
24.896
 21
24.531
  0
LINE
  8
0
 10
103.751
 11
103.997
 20
24.531
 21
24.106
  0
LINE
  8
0
 10
103.997
 11
104.149
 20
24.106
 21
23.639
  0
LINE
  8
0
 10
104.149
 11
104.2
 20
23.639
 21
23.15
  0
LINE
  8
0
 10
104.2
 11
104.149
 20
23.15
 21
22.661
  0
LINE
  8
0
 10
104.149
 11
103.997
 20
22.661
 21
22.194
  0
LINE
  8
0
 10
103.997
 11
103.751
 20
22.194
 21
21.769
  0
LINE
  8
0
 10
103.751
 11
103.422
 20
21.769
 21
21.404
  0
LINE
  8
0
 10
103.422
 11
103.025
 20
21.404
 21
21.115
  0
LINE
  8
0
 10
103.025
 11
102.576
 20
21.115
 21
20.915
  0
LINE
  8
0
 10
102.576
 11
102.096
 20
20.915
 21
20.813
  0
LINE
  8
0
 10
102.096
 11
101.604
 20
20.813
 21
20.813
  0
LINE
  8
0
 10
101.604
 11
101.124
 20
20.813
 21
20.915
  0
LINE
  8
0
 10
101.124
 11
100.675
 20
20.915
 21
21.115
  0
LINE
  8
0
 10
100.675
 11
100.278
 20
21.115
 21
21.404
  0
LINE
  8
0
 10
100.278
 11
99.949
 20
21.404
 21
21.769
  0
LINE
  8
0
 10
99.949
 11
99.703
 20
21.769
 21
22.194
  0
LINE
  8
0
 10
99.703
 11
99.551
 20
22.194
 21
22.661
  0
LINE
  8
0
 10
99.551
 11
99.5
 20
22.661
 21
23.15
  0
LINE
  8
0
 10
145.8
 11
145.851
 20
-23.15
 21
-22.661
  0
LINE
  8
0
 10
145.851
 11
146.003
 20
-22.661
 21
-22.194
  0
LINE
  8
0
 10
146.003
 11
146.249
 20
-22.194
 21
-21.769
  0
LINE
  8
0
 10
146.249
 11
146.578
 20
-21.769
 21
-21.404
  0
LINE
  8
0
 10
146.578
 11
146.975
 20
-21.404
 21
-21.115
  0
LINE
  8
0
 10
146.975
 11
147.424
 20
-21.115
 21
-20.915
  0
LINE
  8
0
 10
147.424
 11
147.904
 20
-20.915
 21
-20.813
  0
LINE
  8
0
 10
147.904
 11
148.396
 20
-20.813
 21
-20.813
  0
LINE
  8
0
 10
148.396
 11
148.876
 20
-20.813
 21
-20.915
  0
LINE
  8
0
 10
148.876
 11
149.325
 20
-20.915
 21
-21.115
  0
LINE
  8
0
 10
149.325
 11
149.722
 20
-21.115
 21
-21.404
  0
LINE
  8
0
 10
149.722
 11
150.051
 20
-21.404
 21
-21.769
  0
LINE
  8
0
 10
150.051
 11
150.297
 20
-21.769
 21
-22.194
  0
LINE
  8
0
 10
150.297
 11
150.449
 20
-22.194
 21
-22.661
  0
LINE
  8
0
 10
150.449
 11
150.5
 20
-22.661
 21
-23.15
  0
LINE
  8
0
 10
150.5
 11
150.449
 20
-23.15
 21
-23.639
  0
LINE
  8
0
 10
150.449
 11
150.297
 20
-23.639
 21
-24.106
  0
LINE
  8
0
 10
150.297
 11
150.051
 20
-24.106
 21
-24.531
  0
LINE
  8
0
 10
150.051
 11
149.722
 20
-24.531
 21
-24.896
  0
LINE
  8
0
 10
149.722
 11
149.325
 20
-24.896
 21
-25.185
  0
LINE
  8
0
 10
149.325
 11
148.876
 20
-25.185
 21
-25.385
  0
LINE
  8
0
 10
148.876
 11
148.396
 20
-25.385
 21
-25.487
  0
LINE
  8
0
 10
148.396
 11
147.904
 20
-25.487
 21
-25.487
  0
LINE
  8
0
 10
147.904
 11
147.424
 20
-25.487
 21
-25.385
  0
LINE
  8
0
 10
147.424
 11
146.975
 20
-25.385
 21
-25.185
  0
LINE
  8
0
 10
146.975
 11
146.578
 20
-25.185
 21
-24.896
  0
LINE
  8
0
 10
146.578
 11
146.249
 20
-24.896
 21
-24.531
  0
LINE
  8
0
 10
146.249
 11
146.003
 20
-24.531
 21
-24.106
  0
LINE
  8
0
 10
146.003
 11
145.851
 20
-24.106
 21
-23.639
  0
LINE
  8
0
 10
145.851
 11
145.8
 20
-23.639
 21
-23.15
  0
LINE
  8
0
 10
145.8
 11
145.851
 20
23.15
 21
23.639
  0
LINE
  8
0
 10
145.851
 11
146.003
 20
23.639
 21
24.106
  0
LINE
  8
0
 10
146.003
 11
146.249
 20
24.106
 21
24.531
  0
LINE
  8
0
 10
146.249
 11
146.578
 20
24.531
 21
24.896
  0
LINE
  8
0
 10
146.578
 11
146.975
 20
24.896
 21
25.185
  0
LINE
  8
0
 10
146.975
 11
147.424
 20
25.185
 21
25.385
  0
LINE
  8
0
 10
147.424
 11
147.904
 20
25.385
 21
25.487
  0
LINE
  8
0
 10
147.904
 11
148.396
 20
25.487
 21
25.487
  0
LINE
  8
0
 10
148.396
 11
148.876
 20
25.487
 21
25.385
  0
LINE
  8
0
 10
148.876
 11
149.325
 20
25.385
 21
25.185
  0
LINE
  8
0
 10
149.325
 11
149.722
 20
25.185
 21
24.896
  0
LINE
  8
0
 10
149.722
 11
150.051
 20
24.896
 21
24.531
  0
LINE
  8
0
 10
150.051
 11
150.297
 20
24.531
 21
24.106
  0
LINE
  8
0
 10
150.297
 11
150.449
 20
24.106
 21
23.639
  0
LINE
  8
0
 10
150.449
 11
150.5
 20
23.639
 21
23.15
  0
LINE
  8
0
 10
150.5
 11
150.449
 20
23.15
 21
22.661
  0
LINE
  8
0
 10
150.449
 11
150.297
 20
22.661
 21
22.194
  0
LINE
  8
0
 10
150.297
 11
150.051
 20
22.194
 21
21.769
  0
LINE
  8
0
 10
150.051
 11
149.722
 20
21.769
 21
21.404
  0
LINE
  8
0
 10
149.722
 11
149.325
 20
21.404
 21
21.115
  0
LINE
  8
0
 10
149.325
 11
148.876
 20
21.115
 21
20.915
  0
LINE
  8
0
 10
148.876
 11
148.396
 20
20.915
 21
20.813
  0
LINE
  8
0
 10
148.396
 11
147.904
 20
20.813
 21
20.813
  0
LINE
  8
0
 10
147.904
 11
147.424
 20
20.813
 21
20.915
  0
LINE
  8
0
 10
147.424
 11
146.975
 20
20.915
 21
21.115
  0
LINE
  8
0
 10
146.975
 11
146.578
 20
21.115
 21
21.404
  0
LINE
  8
0
 10
146.578
 11
146.249
 20
21.404
 21
21.769
  0
LINE
  8
0
 10
146.249
 11
146.003
 20
21.769
 21
22.194
  0
LINE
  8
0
 10
146.003
 11
145.851
 20
22.194
 21
22.661
  0
LINE
  8
0
 10
145.851
 11
145.8
 20
22.661
 21
23.15
  0
ENDSEC
  0
SECTION
  2
OBJECTS
  0
DICTIONARY
  0
ENDSEC
  0
EOF
