  0
SECTION
  2
BLOCKS
  0
ENDSEC
  0
SECTION
  2
ENTITIES
  0
LINE
  8
0
 10
-10.635
 11
-10.551
 20
0
 21
1.333
  0
LINE
  8
0
 10
-10.551
 11
-10.301
 20
1.333
 21
2.645
  0
LINE
  8
0
 10
-10.301
 11
-9.888
 20
2.645
 21
3.915
  0
LINE
  8
0
 10
-9.888
 11
-9.32
 20
3.915
 21
5.123
  0
LINE
  8
0
 10
-9.32
 11
-8.604
 20
5.123
 21
6.251
  0
LINE
  8
0
 10
-8.604
 11
-7.753
 20
6.251
 21
7.28
  0
LINE
  8
0
 10
-7.753
 11
-6.779
 20
7.28
 21
8.194
  0
LINE
  8
0
 10
-6.779
 11
-5.699
 20
8.194
 21
8.979
  0
LINE
  8
0
 10
-5.699
 11
-4.528
 20
8.979
 21
9.623
  0
LINE
  8
0
 10
-4.528
 11
-3.286
 20
9.623
 21
10.114
  0
LINE
  8
0
 10
-3.286
 11
-1.993
 20
10.114
 21
10.447
  0
LINE
  8
0
 10
-1.993
 11
-0.668
 20
10.447
 21
10.614
  0
LINE
  8
0
 10
-0.668
 11
0.668
 20
10.614
 21
10.614
  0
LINE
  8
0
 10
0.668
 11
1.993
 20
10.614
 21
10.447
  0
LINE
  8
0
 10
1.993
 11
3.286
 20
10.447
 21
10.114
  0
LINE
  8
0
 10
3.286
 11
4.528
 20
10.114
 21
9.623
  0
LINE
  8
0
 10
4.528
 11
5.699
 20
9.623
 21
8.979
  0
LINE
  8
0
 10
5.699
 11
6.779
 20
8.979
 21
8.194
  0
LINE
  8
0
 10
6.779
 11
7.753
 20
8.194
 21
7.28
  0
LINE
  8
0
 10
7.753
 11
8.604
 20
7.28
 21
6.251
  0
LINE
  8
0
 10
8.604
 11
9.32
 20
6.251
 21
5.123
  0
LINE
  8
0
 10
9.32
 11
9.888
 20
5.123
 21
3.915
  0
LINE
  8
0
 10
9.888
 11
10.301
 20
3.915
 21
2.645
  0
LINE
  8
0
 10
10.301
 11
10.551
 20
2.645
 21
1.333
  0
LINE
  8
0
 10
10.551
 11
10.635
 20
1.333
 21
0
  0
LINE
  8
0
 10
10.635
 11
10.551
 20
0
 21
-1.333
  0
LINE
  8
0
 10
10.551
 11
10.301
 20
-1.333
 21
-2.645
  0
LINE
  8
0
 10
10.301
 11
9.888
 20
-2.645
 21
-3.915
  0
LINE
  8
0
 10
9.888
 11
9.32
 20
-3.915
 21
-5.123
  0
LINE
  8
0
 10
9.32
 11
8.604
 20
-5.123
 21
-6.251
  0
LINE
  8
0
 10
8.604
 11
7.753
 20
-6.251
 21
-7.28
  0
LINE
  8
0
 10
7.753
 11
6.779
 20
-7.28
 21
-8.194
  0
LINE
  8
0
 10
6.779
 11
5.699
 20
-8.194
 21
-8.979
  0
LINE
  8
0
 10
5.699
 11
4.528
 20
-8.979
 21
-9.623
  0
LINE
  8
0
 10
4.528
 11
3.286
 20
-9.623
 21
-10.114
  0
LINE
  8
0
 10
3.286
 11
1.993
 20
-10.114
 21
-10.447
  0
LINE
  8
0
 10
1.993
 11
0.668
 20
-10.447
 21
-10.614
  0
LINE
  8
0
 10
0.668
 11
-0.668
 20
-10.614
 21
-10.614
  0
LINE
  8
0
 10
-0.668
 11
-1.993
 20
-10.614
 21
-10.447
  0
LINE
  8
0
 10
-1.993
 11
-3.286
 20
-10.447
 21
-10.114
  0
LINE
  8
0
 10
-3.286
 11
-4.528
 20
-10.114
 21
-9.623
  0
LINE
  8
0
 10
-4.528
 11
-5.699
 20
-9.623
 21
-8.979
  0
LINE
  8
0
 10
-5.699
 11
-6.779
 20
-8.979
 21
-8.194
  0
LINE
  8
0
 10
-6.779
 11
-7.753
 20
-8.194
 21
-7.28
  0
LINE
  8
0
 10
-7.753
 11
-8.604
 20
-7.28
 21
-6.251
  0
LINE
  8
0
 10
-8.604
 11
-9.32
 20
-6.251
 21
-5.123
  0
LINE
  8
0
 10
-9.32
 11
-9.888
 20
-5.123
 21
-3.915
  0
LINE
  8
0
 10
-9.888
 11
-10.301
 20
-3.915
 21
-2.645
  0
LINE
  8
0
 10
-10.301
 11
-10.551
 20
-2.645
 21
-1.333
  0
LINE
  8
0
 10
-10.551
 11
-10.635
 20
-1.333
 21
0
  0
LINE
  8
0
 10
-8.522
 11
-8.518
 20
4.094
 21
4.262
  0
LINE
  8
0
 10
-8.518
 11
-8.494
 20
4.262
 21
4.427
  0
LINE
  8
0
 10
-8.494
 11
-8.448
 20
4.427
 21
4.589
  0
LINE
  8
0
 10
-8.448
 11
-8.384
 20
4.589
 21
4.743
  0
LINE
  8
0
 10
-8.384
 11
-8.3
 20
4.743
 21
4.889
  0
LINE
  8
0
 10
-8.3
 11
-8.198
 20
4.889
 21
5.022
  0
LINE
  8
0
 10
-8.198
 11
-8.081
 20
5.022
 21
5.143
  0
LINE
  8
0
 10
-8.081
 11
-7.95
 20
5.143
 21
5.246
  0
LINE
  8
0
 10
-7.95
 11
-7.807
 20
5.246
 21
5.333
  0
LINE
  8
0
 10
-7.807
 11
-7.654
 20
5.333
 21
5.401
  0
LINE
  8
0
 10
-7.654
 11
-7.493
 20
5.401
 21
5.45
  0
LINE
  8
0
 10
-7.493
 11
-7.328
 20
5.45
 21
5.478
  0
LINE
  8
0
 10
-7.328
 11
-7.16
 20
5.478
 21
5.485
  0
LINE
  8
0
 10
-7.16
 11
-6.993
 20
5.485
 21
5.47
  0
LINE
  8
0
 10
-6.993
 11
-6.829
 20
5.47
 21
5.436
  0
LINE
  8
0
 10
-6.829
 11
-6.671
 20
5.436
 21
5.38
  0
LINE
  8
0
 10
-6.671
 11
-6.521
 20
5.38
 21
5.306
  0
LINE
  8
0
 10
-6.521
 11
-6.381
 20
5.306
 21
5.213
  0
LINE
  8
0
 10
-6.381
 11
-6.254
 20
5.213
 21
5.104
  0
LINE
  8
0
 10
-6.254
 11
-6.142
 20
5.104
 21
4.979
  0
LINE
  8
0
 10
-6.142
 11
-6.046
 20
4.979
 21
4.842
  0
LINE
  8
0
 10
-6.046
 11
-5.968
 20
4.842
 21
4.693
  0
LINE
  8
0
 10
-5.968
 11
-5.91
 20
4.693
 21
4.536
  0
LINE
  8
0
 10
-5.91
 11
-5.871
 20
4.536
 21
4.372
  0
LINE
  8
0
 10
-5.871
 11
-5.855
 20
4.372
 21
4.206
  0
LINE
  8
0
 10
-5.855
 11
-5.858
 20
4.206
 21
4.038
  0
LINE
  8
0
 10
-5.858
 11
-5.882
 20
4.038
 21
3.873
  0
LINE
  8
0
 10
-5.882
 11
-5.928
 20
3.873
 21
3.711
  0
LINE
  8
0
 10
-5.928
 11
-5.992
 20
3.711
 21
3.557
  0
LINE
  8
0
 10
-5.992
 11
-6.076
 20
3.557
 21
3.411
  0
LINE
  8
0
 10
-6.076
 11
-6.178
 20
3.411
 21
3.278
  0
LINE
  8
0
 10
-6.178
 11
-6.295
 20
3.278
 21
3.157
  0
LINE
  8
0
 10
-6.295
 11
-6.426
 20
3.157
 21
3.054
  0
LINE
  8
0
 10
-6.426
 11
-6.569
 20
3.054
 21
2.967
  0
LINE
  8
0
 10
-6.569
 11
-6.722
 20
2.967
 21
2.899
  0
LINE
  8
0
 10
-6.722
 11
-6.883
 20
2.899
 21
2.85
  0
LINE
  8
0
 10
-6.883
 11
-7.048
 20
2.85
 21
2.822
  0
LINE
  8
0
 10
-7.048
 11
-7.216
 20
2.822
 21
2.815
  0
LINE
  8
0
 10
-7.216
 11
-7.383
 20
2.815
 21
2.83
  0
LINE
  8
0
 10
-7.383
 11
-7.547
 20
2.83
 21
2.864
  0
LINE
  8
0
 10
-7.547
 11
-7.705
 20
2.864
 21
2.92
  0
LINE
  8
0
 10
-7.705
 11
-7.856
 20
2.92
 21
2.994
  0
LINE
  8
0
 10
-7.856
 11
-7.995
 20
2.994
 21
3.087
  0
LINE
  8
0
 10
-7.995
 11
-8.122
 20
3.087
 21
3.196
  0
LINE
  8
0
 10
-8.122
 11
-8.234
 20
3.196
 21
3.321
  0
LINE
  8
0
 10
-8.234
 11
-8.33
 20
3.321
 21
3.458
  0
LINE
  8
0
 10
-8.33
 11
-8.408
 20
3.458
 21
3.607
  0
LINE
  8
0
 10
-8.408
 11
-8.466
 20
3.607
 21
3.764
  0
LINE
  8
0
 10
-8.466
 11
-8.505
 20
3.764
 21
3.928
  0
LINE
  8
0
 10
-8.505
 11
-8.522
 20
3.928
 21
4.094
  0
LINE
  8
0
 10
-2.3
 11
-2.25
 20
0
 21
0.478
  0
LINE
  8
0
 10
-2.25
 11
-2.101
 20
0.478
 21
0.935
  0
LINE
  8
0
 10
-2.101
 11
-1.861
 20
0.935
 21
1.352
  0
LINE
  8
0
 10
-1.861
 11
-1.539
 20
1.352
 21
1.709
  0
LINE
  8
0
 10
-1.539
 11
-1.345
 20
1.709
 21
1.85
  0
LINE
  8
0
 10
-1.345
 11
1.345
 20
1.85
 21
1.85
  0
LINE
  8
0
 10
1.345
 11
1.539
 20
1.85
 21
1.709
  0
LINE
  8
0
 10
1.539
 11
1.861
 20
1.709
 21
1.352
  0
LINE
  8
0
 10
1.861
 11
2.101
 20
1.352
 21
0.935
  0
LINE
  8
0
 10
2.101
 11
2.25
 20
0.935
 21
0.478
  0
LINE
  8
0
 10
2.25
 11
2.3
 20
0.478
 21
0
  0
LINE
  8
0
 10
2.3
 11
2.25
 20
0
 21
-0.478
  0
LINE
  8
0
 10
2.25
 11
2.101
 20
-0.478
 21
-0.935
  0
LINE
  8
0
 10
2.101
 11
1.861
 20
-0.935
 21
-1.352
  0
LINE
  8
0
 10
1.861
 11
1.539
 20
-1.352
 21
-1.709
  0
LINE
  8
0
 10
1.539
 11
1.15
 20
-1.709
 21
-1.992
  0
LINE
  8
0
 10
1.15
 11
0.711
 20
-1.992
 21
-2.187
  0
LINE
  8
0
 10
0.711
 11
0.24
 20
-2.187
 21
-2.287
  0
LINE
  8
0
 10
0.24
 11
-0.24
 20
-2.287
 21
-2.287
  0
LINE
  8
0
 10
-0.24
 11
-0.711
 20
-2.287
 21
-2.187
  0
LINE
  8
0
 10
-0.711
 11
-1.15
 20
-2.187
 21
-1.992
  0
LINE
  8
0
 10
-1.15
 11
-1.539
 20
-1.992
 21
-1.709
  0
LINE
  8
0
 10
-1.539
 11
-1.861
 20
-1.709
 21
-1.352
  0
LINE
  8
0
 10
-1.861
 11
-2.101
 20
-1.352
 21
-0.935
  0
LINE
  8
0
 10
-2.101
 11
-2.25
 20
-0.935
 21
-0.478
  0
LINE
  8
0
 10
-2.25
 11
-2.3
 20
-0.478
 21
0
  0
LINE
  8
0
 10
-1.335
 11
-1.324
 20
-8.3
 21
-8.133
  0
LINE
  8
0
 10
-1.324
 11
-1.293
 20
-8.133
 21
-7.968
  0
LINE
  8
0
 10
-1.293
 11
-1.241
 20
-7.968
 21
-7.809
  0
LINE
  8
0
 10
-1.241
 11
-1.17
 20
-7.809
 21
-7.657
  0
LINE
  8
0
 10
-1.17
 11
-1.08
 20
-7.657
 21
-7.515
  0
LINE
  8
0
 10
-1.08
 11
-0.973
 20
-7.515
 21
-7.386
  0
LINE
  8
0
 10
-0.973
 11
-0.851
 20
-7.386
 21
-7.271
  0
LINE
  8
0
 10
-0.851
 11
-0.715
 20
-7.271
 21
-7.173
  0
LINE
  8
0
 10
-0.715
 11
-0.568
 20
-7.173
 21
-7.092
  0
LINE
  8
0
 10
-0.568
 11
-0.413
 20
-7.092
 21
-7.03
  0
LINE
  8
0
 10
-0.413
 11
-0.25
 20
-7.03
 21
-6.989
  0
LINE
  8
0
 10
-0.25
 11
-0.084
 20
-6.989
 21
-6.968
  0
LINE
  8
0
 10
-0.084
 11
0.084
 20
-6.968
 21
-6.968
  0
LINE
  8
0
 10
0.084
 11
0.25
 20
-6.968
 21
-6.989
  0
LINE
  8
0
 10
0.25
 11
0.413
 20
-6.989
 21
-7.03
  0
LINE
  8
0
 10
0.413
 11
0.568
 20
-7.03
 21
-7.092
  0
LINE
  8
0
 10
0.568
 11
0.715
 20
-7.092
 21
-7.173
  0
LINE
  8
0
 10
0.715
 11
0.851
 20
-7.173
 21
-7.271
  0
LINE
  8
0
 10
0.851
 11
0.973
 20
-7.271
 21
-7.386
  0
LINE
  8
0
 10
0.973
 11
1.08
 20
-7.386
 21
-7.515
  0
LINE
  8
0
 10
1.08
 11
1.17
 20
-7.515
 21
-7.657
  0
LINE
  8
0
 10
1.17
 11
1.241
 20
-7.657
 21
-7.809
  0
LINE
  8
0
 10
1.241
 11
1.293
 20
-7.809
 21
-7.968
  0
LINE
  8
0
 10
1.293
 11
1.324
 20
-7.968
 21
-8.133
  0
LINE
  8
0
 10
1.324
 11
1.335
 20
-8.133
 21
-8.3
  0
LINE
  8
0
 10
1.335
 11
1.324
 20
-8.3
 21
-8.467
  0
LINE
  8
0
 10
1.324
 11
1.293
 20
-8.467
 21
-8.632
  0
LINE
  8
0
 10
1.293
 11
1.241
 20
-8.632
 21
-8.791
  0
LINE
  8
0
 10
1.241
 11
1.17
 20
-8.791
 21
-8.943
  0
LINE
  8
0
 10
1.17
 11
1.08
 20
-8.943
 21
-9.085
  0
LINE
  8
0
 10
1.08
 11
0.973
 20
-9.085
 21
-9.214
  0
LINE
  8
0
 10
0.973
 11
0.851
 20
-9.214
 21
-9.329
  0
LINE
  8
0
 10
0.851
 11
0.715
 20
-9.329
 21
-9.427
  0
LINE
  8
0
 10
0.715
 11
0.568
 20
-9.427
 21
-9.508
  0
LINE
  8
0
 10
0.568
 11
0.413
 20
-9.508
 21
-9.57
  0
LINE
  8
0
 10
0.413
 11
0.25
 20
-9.57
 21
-9.611
  0
LINE
  8
0
 10
0.25
 11
0.084
 20
-9.611
 21
-9.632
  0
LINE
  8
0
 10
0.084
 11
-0.084
 20
-9.632
 21
-9.632
  0
LINE
  8
0
 10
-0.084
 11
-0.25
 20
-9.632
 21
-9.611
  0
LINE
  8
0
 10
-0.25
 11
-0.413
 20
-9.611
 21
-9.57
  0
LINE
  8
0
 10
-0.413
 11
-0.568
 20
-9.57
 21
-9.508
  0
LINE
  8
0
 10
-0.568
 11
-0.715
 20
-9.508
 21
-9.427
  0
LINE
  8
0
 10
-0.715
 11
-0.851
 20
-9.427
 21
-9.329
  0
LINE
  8
0
 10
-0.851
 11
-0.973
 20
-9.329
 21
-9.214
  0
LINE
  8
0
 10
-0.973
 11
-1.08
 20
-9.214
 21
-9.085
  0
LINE
  8
0
 10
-1.08
 11
-1.17
 20
-9.085
 21
-8.943
  0
LINE
  8
0
 10
-1.17
 11
-1.241
 20
-8.943
 21
-8.791
  0
LINE
  8
0
 10
-1.241
 11
-1.293
 20
-8.791
 21
-8.632
  0
LINE
  8
0
 10
-1.293
 11
-1.324
 20
-8.632
 21
-8.467
  0
LINE
  8
0
 10
-1.324
 11
-1.335
 20
-8.467
 21
-8.3
  0
LINE
  8
0
 10
5.855
 11
5.871
 20
4.206
 21
4.372
  0
LINE
  8
0
 10
5.871
 11
5.91
 20
4.372
 21
4.536
  0
LINE
  8
0
 10
5.91
 11
5.968
 20
4.536
 21
4.693
  0
LINE
  8
0
 10
5.968
 11
6.046
 20
4.693
 21
4.842
  0
LINE
  8
0
 10
6.046
 11
6.142
 20
4.842
 21
4.979
  0
LINE
  8
0
 10
6.142
 11
6.254
 20
4.979
 21
5.104
  0
LINE
  8
0
 10
6.254
 11
6.381
 20
5.104
 21
5.213
  0
LINE
  8
0
 10
6.381
 11
6.521
 20
5.213
 21
5.306
  0
LINE
  8
0
 10
6.521
 11
6.671
 20
5.306
 21
5.38
  0
LINE
  8
0
 10
6.671
 11
6.829
 20
5.38
 21
5.436
  0
LINE
  8
0
 10
6.829
 11
6.993
 20
5.436
 21
5.47
  0
LINE
  8
0
 10
6.993
 11
7.16
 20
5.47
 21
5.485
  0
LINE
  8
0
 10
7.16
 11
7.328
 20
5.485
 21
5.478
  0
LINE
  8
0
 10
7.328
 11
7.493
 20
5.478
 21
5.45
  0
LINE
  8
0
 10
7.493
 11
7.654
 20
5.45
 21
5.401
  0
LINE
  8
0
 10
7.654
 11
7.807
 20
5.401
 21
5.333
  0
LINE
  8
0
 10
7.807
 11
7.95
 20
5.333
 21
5.246
  0
LINE
  8
0
 10
7.95
 11
8.081
 20
5.246
 21
5.143
  0
LINE
  8
0
 10
8.081
 11
8.198
 20
5.143
 21
5.022
  0
LINE
  8
0
 10
8.198
 11
8.3
 20
5.022
 21
4.889
  0
LINE
  8
0
 10
8.3
 11
8.384
 20
4.889
 21
4.743
  0
LINE
  8
0
 10
8.384
 11
8.448
 20
4.743
 21
4.589
  0
LINE
  8
0
 10
8.448
 11
8.494
 20
4.589
 21
4.427
  0
LINE
  8
0
 10
8.494
 11
8.518
 20
4.427
 21
4.262
  0
LINE
  8
0
 10
8.518
 11
8.522
 20
4.262
 21
4.094
  0
LINE
  8
0
 10
8.522
 11
8.505
 20
4.094
 21
3.928
  0
LINE
  8
0
 10
8.505
 11
8.466
 20
3.928
 21
3.764
  0
LINE
  8
0
 10
8.466
 11
8.408
 20
3.764
 21
3.607
  0
LINE
  8
0
 10
8.408
 11
8.33
 20
3.607
 21
3.458
  0
LINE
  8
0
 10
8.33
 11
8.234
 20
3.458
 21
3.321
  0
LINE
  8
0
 10
8.234
 11
8.122
 20
3.321
 21
3.196
  0
LINE
  8
0
 10
8.122
 11
7.995
 20
3.196
 21
3.087
  0
LINE
  8
0
 10
7.995
 11
7.856
 20
3.087
 21
2.994
  0
LINE
  8
0
 10
7.856
 11
7.705
 20
2.994
 21
2.92
  0
LINE
  8
0
 10
7.705
 11
7.547
 20
2.92
 21
2.864
  0
LINE
  8
0
 10
7.547
 11
7.383
 20
2.864
 21
2.83
  0
LINE
  8
0
 10
7.383
 11
7.216
 20
2.83
 21
2.815
  0
LINE
  8
0
 10
7.216
 11
7.048
 20
2.815
 21
2.822
  0
LINE
  8
0
 10
7.048
 11
6.883
 20
2.822
 21
2.85
  0
LINE
  8
0
 10
6.883
 11
6.722
 20
2.85
 21
2.899
  0
LINE
  8
0
 10
6.722
 11
6.569
 20
2.899
 21
2.967
  0
LINE
  8
0
 10
6.569
 11
6.426
 20
2.967
 21
3.054
  0
LINE
  8
0
 10
6.426
 11
6.295
 20
3.054
 21
3.157
  0
LINE
  8
0
 10
6.295
 11
6.178
 20
3.157
 21
3.278
  0
LINE
  8
0
 10
6.178
 11
6.076
 20
3.278
 21
3.411
  0
LINE
  8
0
 10
6.076
 11
5.992
 20
3.411
 21
3.557
  0
LINE
  8
0
 10
5.992
 11
5.928
 20
3.557
 21
3.711
  0
LINE
  8
0
 10
5.928
 11
5.882
 20
3.711
 21
3.873
  0
LINE
  8
0
 10
5.882
 11
5.858
 20
3.873
 21
4.038
  0
LINE
  8
0
 10
5.858
 11
5.855
 20
4.038
 21
4.206
  0
LINE
  8
0
 10
21.5
 11
21.5
 20
-28.5
 21
28.5
  0
LINE
  8
0
 10
21.5
 11
78.5
 20
28.5
 21
28.5
  0
LINE
  8
0
 10
78.5
 11
78.5
 20
28.5
 21
-28.5
  0
LINE
  8
0
 10
78.5
 11
61.3
 20
-28.5
 21
-28.5
  0
LINE
  8
0
 10
61.3
 11
63.992
 20
-28.5
 21
-2.926
  0
LINE
  8
0
 10
63.992
 11
64.047
 20
-2.926
 21
-2.68
  0
LINE
  8
0
 10
64.047
 11
64.187
 20
-2.68
 21
-1.792
  0
LINE
  8
0
 10
64.187
 11
64.272
 20
-1.792
 21
-0.898
  0
LINE
  8
0
 10
64.272
 11
64.3
 20
-0.898
 21
0
  0
LINE
  8
0
 10
64.3
 11
64.272
 20
0
 21
0.898
  0
LINE
  8
0
 10
64.272
 11
64.187
 20
0.898
 21
1.792
  0
LINE
  8
0
 10
64.187
 11
64.047
 20
1.792
 21
2.68
  0
LINE
  8
0
 10
64.047
 11
63.851
 20
2.68
 21
3.556
  0
LINE
  8
0
 10
63.851
 11
63.6
 20
3.556
 21
4.419
  0
LINE
  8
0
 10
63.6
 11
63.296
 20
4.419
 21
5.264
  0
LINE
  8
0
 10
63.296
 11
62.939
 20
5.264
 21
6.089
  0
LINE
  8
0
 10
62.939
 11
62.531
 20
6.089
 21
6.889
  0
LINE
  8
0
 10
62.531
 11
62.074
 20
6.889
 21
7.662
  0
LINE
  8
0
 10
62.074
 11
61.569
 20
7.662
 21
8.405
  0
LINE
  8
0
 10
61.569
 11
61.018
 20
8.405
 21
9.115
  0
LINE
  8
0
 10
61.018
 11
60.424
 20
9.115
 21
9.789
  0
LINE
  8
0
 10
60.424
 11
59.789
 20
9.789
 21
10.424
  0
LINE
  8
0
 10
59.789
 11
59.115
 20
10.424
 21
11.018
  0
LINE
  8
0
 10
59.115
 11
58.405
 20
11.018
 21
11.569
  0
LINE
  8
0
 10
58.405
 11
57.662
 20
11.569
 21
12.074
  0
LINE
  8
0
 10
57.662
 11
56.889
 20
12.074
 21
12.531
  0
LINE
  8
0
 10
56.889
 11
56.089
 20
12.531
 21
12.939
  0
LINE
  8
0
 10
56.089
 11
55.264
 20
12.939
 21
13.296
  0
LINE
  8
0
 10
55.264
 11
54.419
 20
13.296
 21
13.6
  0
LINE
  8
0
 10
54.419
 11
53.556
 20
13.6
 21
13.851
  0
LINE
  8
0
 10
53.556
 11
52.68
 20
13.851
 21
14.047
  0
LINE
  8
0
 10
52.68
 11
51.792
 20
14.047
 21
14.187
  0
LINE
  8
0
 10
51.792
 11
50.898
 20
14.187
 21
14.272
  0
LINE
  8
0
 10
50.898
 11
50
 20
14.272
 21
14.3
  0
LINE
  8
0
 10
50
 11
49.102
 20
14.3
 21
14.272
  0
LINE
  8
0
 10
49.102
 11
48.208
 20
14.272
 21
14.187
  0
LINE
  8
0
 10
48.208
 11
47.32
 20
14.187
 21
14.047
  0
LINE
  8
0
 10
47.32
 11
46.444
 20
14.047
 21
13.851
  0
LINE
  8
0
 10
46.444
 11
45.581
 20
13.851
 21
13.6
  0
LINE
  8
0
 10
45.581
 11
44.736
 20
13.6
 21
13.296
  0
LINE
  8
0
 10
44.736
 11
43.911
 20
13.296
 21
12.939
  0
LINE
  8
0
 10
43.911
 11
43.111
 20
12.939
 21
12.531
  0
LINE
  8
0
 10
43.111
 11
42.338
 20
12.531
 21
12.074
  0
LINE
  8
0
 10
42.338
 11
41.595
 20
12.074
 21
11.569
  0
LINE
  8
0
 10
41.595
 11
40.885
 20
11.569
 21
11.018
  0
LINE
  8
0
 10
40.885
 11
40.211
 20
11.018
 21
10.424
  0
LINE
  8
0
 10
40.211
 11
39.576
 20
10.424
 21
9.789
  0
LINE
  8
0
 10
39.576
 11
38.982
 20
9.789
 21
9.115
  0
LINE
  8
0
 10
38.982
 11
38.431
 20
9.115
 21
8.405
  0
LINE
  8
0
 10
38.431
 11
37.926
 20
8.405
 21
7.662
  0
LINE
  8
0
 10
37.926
 11
37.469
 20
7.662
 21
6.889
  0
LINE
  8
0
 10
37.469
 11
37.061
 20
6.889
 21
6.089
  0
LINE
  8
0
 10
37.061
 11
36.704
 20
6.089
 21
5.264
  0
LINE
  8
0
 10
36.704
 11
36.4
 20
5.264
 21
4.419
  0
LINE
  8
0
 10
36.4
 11
36.149
 20
4.419
 21
3.556
  0
LINE
  8
0
 10
36.149
 11
35.953
 20
3.556
 21
2.68
  0
LINE
  8
0
 10
35.953
 11
35.813
 20
2.68
 21
1.792
  0
LINE
  8
0
 10
35.813
 11
35.728
 20
1.792
 21
0.898
  0
LINE
  8
0
 10
35.728
 11
35.7
 20
0.898
 21
0
  0
LINE
  8
0
 10
35.7
 11
35.728
 20
0
 21
-0.898
  0
LINE
  8
0
 10
35.728
 11
35.813
 20
-0.898
 21
-1.792
  0
LINE
  8
0
 10
35.813
 11
35.953
 20
-1.792
 21
-2.68
  0
LINE
  8
0
 10
35.953
 11
36.008
 20
-2.68
 21
-2.926
  0
LINE
  8
0
 10
36.008
 11
38.7
 20
-2.926
 21
-28.5
  0
LINE
  8
0
 10
38.7
 11
21.5
 20
-28.5
 21
-28.5
  0
LINE
  8
0
 10
24.05
 11
24.104
 20
-23.5
 21
-22.991
  0
LINE
  8
0
 10
24.104
 11
24.262
 20
-22.991
 21
-22.503
  0
LINE
  8
0
 10
24.262
 11
24.518
 20
-22.503
 21
-22.06
  0
LINE
  8
0
 10
24.518
 11
24.861
 20
-22.06
 21
-21.679
  0
LINE
  8
0
 10
24.861
 11
25.275
 20
-21.679
 21
-21.378
  0
LINE
  8
0
 10
25.275
 11
25.743
 20
-21.378
 21
-21.17
  0
LINE
  8
0
 10
25.743
 11
26.244
 20
-21.17
 21
-21.063
  0
LINE
  8
0
 10
26.244
 11
26.756
 20
-21.063
 21
-21.063
  0
LINE
  8
0
 10
26.756
 11
27.257
 20
-21.063
 21
-21.17
  0
LINE
  8
0
 10
27.257
 11
27.725
 20
-21.17
 21
-21.378
  0
LINE
  8
0
 10
27.725
 11
28.139
 20
-21.378
 21
-21.679
  0
LINE
  8
0
 10
28.139
 11
28.482
 20
-21.679
 21
-22.06
  0
LINE
  8
0
 10
28.482
 11
28.738
 20
-22.06
 21
-22.503
  0
LINE
  8
0
 10
28.738
 11
28.896
 20
-22.503
 21
-22.991
  0
LINE
  8
0
 10
28.896
 11
28.95
 20
-22.991
 21
-23.5
  0
LINE
  8
0
 10
28.95
 11
28.896
 20
-23.5
 21
-24.009
  0
LINE
  8
0
 10
28.896
 11
28.738
 20
-24.009
 21
-24.497
  0
LINE
  8
0
 10
28.738
 11
28.482
 20
-24.497
 21
-24.94
  0
LINE
  8
0
 10
28.482
 11
28.139
 20
-24.94
 21
-25.321
  0
LINE
  8
0
 10
28.139
 11
27.725
 20
-25.321
 21
-25.622
  0
LINE
  8
0
 10
27.725
 11
27.257
 20
-25.622
 21
-25.83
  0
LINE
  8
0
 10
27.257
 11
26.756
 20
-25.83
 21
-25.937
  0
LINE
  8
0
 10
26.756
 11
26.244
 20
-25.937
 21
-25.937
  0
LINE
  8
0
 10
26.244
 11
25.743
 20
-25.937
 21
-25.83
  0
LINE
  8
0
 10
25.743
 11
25.275
 20
-25.83
 21
-25.622
  0
LINE
  8
0
 10
25.275
 11
24.861
 20
-25.622
 21
-25.321
  0
LINE
  8
0
 10
24.861
 11
24.518
 20
-25.321
 21
-24.94
  0
LINE
  8
0
 10
24.518
 11
24.262
 20
-24.94
 21
-24.497
  0
LINE
  8
0
 10
24.262
 11
24.104
 20
-24.497
 21
-24.009
  0
LINE
  8
0
 10
24.104
 11
24.05
 20
-24.009
 21
-23.5
  0
LINE
  8
0
 10
24.05
 11
24.104
 20
23.5
 21
24.009
  0
LINE
  8
0
 10
24.104
 11
24.262
 20
24.009
 21
24.497
  0
LINE
  8
0
 10
24.262
 11
24.518
 20
24.497
 21
24.94
  0
LINE
  8
0
 10
24.518
 11
24.861
 20
24.94
 21
25.321
  0
LINE
  8
0
 10
24.861
 11
25.275
 20
25.321
 21
25.622
  0
LINE
  8
0
 10
25.275
 11
25.743
 20
25.622
 21
25.83
  0
LINE
  8
0
 10
25.743
 11
26.244
 20
25.83
 21
25.937
  0
LINE
  8
0
 10
26.244
 11
26.756
 20
25.937
 21
25.937
  0
LINE
  8
0
 10
26.756
 11
27.257
 20
25.937
 21
25.83
  0
LINE
  8
0
 10
27.257
 11
27.725
 20
25.83
 21
25.622
  0
LINE
  8
0
 10
27.725
 11
28.139
 20
25.622
 21
25.321
  0
LINE
  8
0
 10
28.139
 11
28.482
 20
25.321
 21
24.94
  0
LINE
  8
0
 10
28.482
 11
28.738
 20
24.94
 21
24.497
  0
LINE
  8
0
 10
28.738
 11
28.896
 20
24.497
 21
24.009
  0
LINE
  8
0
 10
28.896
 11
28.95
 20
24.009
 21
23.5
  0
LINE
  8
0
 10
28.95
 11
28.896
 20
23.5
 21
22.991
  0
LINE
  8
0
 10
28.896
 11
28.738
 20
22.991
 21
22.503
  0
LINE
  8
0
 10
28.738
 11
28.482
 20
22.503
 21
22.06
  0
LINE
  8
0
 10
28.482
 11
28.139
 20
22.06
 21
21.679
  0
LINE
  8
0
 10
28.139
 11
27.725
 20
21.679
 21
21.378
  0
LINE
  8
0
 10
27.725
 11
27.257
 20
21.378
 21
21.17
  0
LINE
  8
0
 10
27.257
 11
26.756
 20
21.17
 21
21.063
  0
LINE
  8
0
 10
26.756
 11
26.244
 20
21.063
 21
21.063
  0
LINE
  8
0
 10
26.244
 11
25.743
 20
21.063
 21
21.17
  0
LINE
  8
0
 10
25.743
 11
25.275
 20
21.17
 21
21.378
  0
LINE
  8
0
 10
25.275
 11
24.861
 20
21.378
 21
21.679
  0
LINE
  8
0
 10
24.861
 11
24.518
 20
21.679
 21
22.06
  0
LINE
  8
0
 10
24.518
 11
24.262
 20
22.06
 21
22.503
  0
LINE
  8
0
 10
24.262
 11
24.104
 20
22.503
 21
22.991
  0
LINE
  8
0
 10
24.104
 11
24.05
 20
22.991
 21
23.5
  0
LINE
  8
0
 10
71.05
 11
71.104
 20
-23.5
 21
-22.991
  0
LINE
  8
0
 10
71.104
 11
71.262
 20
-22.991
 21
-22.503
  0
LINE
  8
0
 10
71.262
 11
71.518
 20
-22.503
 21
-22.06
  0
LINE
  8
0
 10
71.518
 11
71.861
 20
-22.06
 21
-21.679
  0
LINE
  8
0
 10
71.861
 11
72.275
 20
-21.679
 21
-21.378
  0
LINE
  8
0
 10
72.275
 11
72.743
 20
-21.378
 21
-21.17
  0
LINE
  8
0
 10
72.743
 11
73.244
 20
-21.17
 21
-21.063
  0
LINE
  8
0
 10
73.244
 11
73.756
 20
-21.063
 21
-21.063
  0
LINE
  8
0
 10
73.756
 11
74.257
 20
-21.063
 21
-21.17
  0
LINE
  8
0
 10
74.257
 11
74.725
 20
-21.17
 21
-21.378
  0
LINE
  8
0
 10
74.725
 11
75.139
 20
-21.378
 21
-21.679
  0
LINE
  8
0
 10
75.139
 11
75.482
 20
-21.679
 21
-22.06
  0
LINE
  8
0
 10
75.482
 11
75.738
 20
-22.06
 21
-22.503
  0
LINE
  8
0
 10
75.738
 11
75.896
 20
-22.503
 21
-22.991
  0
LINE
  8
0
 10
75.896
 11
75.95
 20
-22.991
 21
-23.5
  0
LINE
  8
0
 10
75.95
 11
75.896
 20
-23.5
 21
-24.009
  0
LINE
  8
0
 10
75.896
 11
75.738
 20
-24.009
 21
-24.497
  0
LINE
  8
0
 10
75.738
 11
75.482
 20
-24.497
 21
-24.94
  0
LINE
  8
0
 10
75.482
 11
75.139
 20
-24.94
 21
-25.321
  0
LINE
  8
0
 10
75.139
 11
74.725
 20
-25.321
 21
-25.622
  0
LINE
  8
0
 10
74.725
 11
74.257
 20
-25.622
 21
-25.83
  0
LINE
  8
0
 10
74.257
 11
73.756
 20
-25.83
 21
-25.937
  0
LINE
  8
0
 10
73.756
 11
73.244
 20
-25.937
 21
-25.937
  0
LINE
  8
0
 10
73.244
 11
72.743
 20
-25.937
 21
-25.83
  0
LINE
  8
0
 10
72.743
 11
72.275
 20
-25.83
 21
-25.622
  0
LINE
  8
0
 10
72.275
 11
71.861
 20
-25.622
 21
-25.321
  0
LINE
  8
0
 10
71.861
 11
71.518
 20
-25.321
 21
-24.94
  0
LINE
  8
0
 10
71.518
 11
71.262
 20
-24.94
 21
-24.497
  0
LINE
  8
0
 10
71.262
 11
71.104
 20
-24.497
 21
-24.009
  0
LINE
  8
0
 10
71.104
 11
71.05
 20
-24.009
 21
-23.5
  0
LINE
  8
0
 10
71.05
 11
71.104
 20
23.5
 21
24.009
  0
LINE
  8
0
 10
71.104
 11
71.262
 20
24.009
 21
24.497
  0
LINE
  8
0
 10
71.262
 11
71.518
 20
24.497
 21
24.94
  0
LINE
  8
0
 10
71.518
 11
71.861
 20
24.94
 21
25.321
  0
LINE
  8
0
 10
71.861
 11
72.275
 20
25.321
 21
25.622
  0
LINE
  8
0
 10
72.275
 11
72.743
 20
25.622
 21
25.83
  0
LINE
  8
0
 10
72.743
 11
73.244
 20
25.83
 21
25.937
  0
LINE
  8
0
 10
73.244
 11
73.756
 20
25.937
 21
25.937
  0
LINE
  8
0
 10
73.756
 11
74.257
 20
25.937
 21
25.83
  0
LINE
  8
0
 10
74.257
 11
74.725
 20
25.83
 21
25.622
  0
LINE
  8
0
 10
74.725
 11
75.139
 20
25.622
 21
25.321
  0
LINE
  8
0
 10
75.139
 11
75.482
 20
25.321
 21
24.94
  0
LINE
  8
0
 10
75.482
 11
75.738
 20
24.94
 21
24.497
  0
LINE
  8
0
 10
75.738
 11
75.896
 20
24.497
 21
24.009
  0
LINE
  8
0
 10
75.896
 11
75.95
 20
24.009
 21
23.5
  0
LINE
  8
0
 10
75.95
 11
75.896
 20
23.5
 21
22.991
  0
LINE
  8
0
 10
75.896
 11
75.738
 20
22.991
 21
22.503
  0
LINE
  8
0
 10
75.738
 11
75.482
 20
22.503
 21
22.06
  0
LINE
  8
0
 10
75.482
 11
75.139
 20
22.06
 21
21.679
  0
LINE
  8
0
 10
75.139
 11
74.725
 20
21.679
 21
21.378
  0
LINE
  8
0
 10
74.725
 11
74.257
 20
21.378
 21
21.17
  0
LINE
  8
0
 10
74.257
 11
73.756
 20
21.17
 21
21.063
  0
LINE
  8
0
 10
73.756
 11
73.244
 20
21.063
 21
21.063
  0
LINE
  8
0
 10
73.244
 11
72.743
 20
21.063
 21
21.17
  0
LINE
  8
0
 10
72.743
 11
72.275
 20
21.17
 21
21.378
  0
LINE
  8
0
 10
72.275
 11
71.861
 20
21.378
 21
21.679
  0
LINE
  8
0
 10
71.861
 11
71.518
 20
21.679
 21
22.06
  0
LINE
  8
0
 10
71.518
 11
71.262
 20
22.06
 21
22.503
  0
LINE
  8
0
 10
71.262
 11
71.104
 20
22.503
 21
22.991
  0
LINE
  8
0
 10
71.104
 11
71.05
 20
22.991
 21
23.5
  0
LINE
  8
0
 10
96.5
 11
96.5
 20
-28.5
 21
28.5
  0
LINE
  8
0
 10
96.5
 11
153.5
 20
28.5
 21
28.5
  0
LINE
  8
0
 10
153.5
 11
153.5
 20
28.5
 21
-28.5
  0
LINE
  8
0
 10
153.5
 11
96.5
 20
-28.5
 21
-28.5
  0
LINE
  8
0
 10
99.05
 11
99.104
 20
-23.5
 21
-22.991
  0
LINE
  8
0
 10
99.104
 11
99.262
 20
-22.991
 21
-22.503
  0
LINE
  8
0
 10
99.262
 11
99.518
 20
-22.503
 21
-22.06
  0
LINE
  8
0
 10
99.518
 11
99.861
 20
-22.06
 21
-21.679
  0
LINE
  8
0
 10
99.861
 11
100.275
 20
-21.679
 21
-21.378
  0
LINE
  8
0
 10
100.275
 11
100.743
 20
-21.378
 21
-21.17
  0
LINE
  8
0
 10
100.743
 11
101.244
 20
-21.17
 21
-21.063
  0
LINE
  8
0
 10
101.244
 11
101.756
 20
-21.063
 21
-21.063
  0
LINE
  8
0
 10
101.756
 11
102.257
 20
-21.063
 21
-21.17
  0
LINE
  8
0
 10
102.257
 11
102.725
 20
-21.17
 21
-21.378
  0
LINE
  8
0
 10
102.725
 11
103.139
 20
-21.378
 21
-21.679
  0
LINE
  8
0
 10
103.139
 11
103.482
 20
-21.679
 21
-22.06
  0
LINE
  8
0
 10
103.482
 11
103.738
 20
-22.06
 21
-22.503
  0
LINE
  8
0
 10
103.738
 11
103.896
 20
-22.503
 21
-22.991
  0
LINE
  8
0
 10
103.896
 11
103.95
 20
-22.991
 21
-23.5
  0
LINE
  8
0
 10
103.95
 11
103.896
 20
-23.5
 21
-24.009
  0
LINE
  8
0
 10
103.896
 11
103.738
 20
-24.009
 21
-24.497
  0
LINE
  8
0
 10
103.738
 11
103.482
 20
-24.497
 21
-24.94
  0
LINE
  8
0
 10
103.482
 11
103.139
 20
-24.94
 21
-25.321
  0
LINE
  8
0
 10
103.139
 11
102.725
 20
-25.321
 21
-25.622
  0
LINE
  8
0
 10
102.725
 11
102.257
 20
-25.622
 21
-25.83
  0
LINE
  8
0
 10
102.257
 11
101.756
 20
-25.83
 21
-25.937
  0
LINE
  8
0
 10
101.756
 11
101.244
 20
-25.937
 21
-25.937
  0
LINE
  8
0
 10
101.244
 11
100.743
 20
-25.937
 21
-25.83
  0
LINE
  8
0
 10
100.743
 11
100.275
 20
-25.83
 21
-25.622
  0
LINE
  8
0
 10
100.275
 11
99.861
 20
-25.622
 21
-25.321
  0
LINE
  8
0
 10
99.861
 11
99.518
 20
-25.321
 21
-24.94
  0
LINE
  8
0
 10
99.518
 11
99.262
 20
-24.94
 21
-24.497
  0
LINE
  8
0
 10
99.262
 11
99.104
 20
-24.497
 21
-24.009
  0
LINE
  8
0
 10
99.104
 11
99.05
 20
-24.009
 21
-23.5
  0
LINE
  8
0
 10
99.05
 11
99.104
 20
23.5
 21
24.009
  0
LINE
  8
0
 10
99.104
 11
99.262
 20
24.009
 21
24.497
  0
LINE
  8
0
 10
99.262
 11
99.518
 20
24.497
 21
24.94
  0
LINE
  8
0
 10
99.518
 11
99.861
 20
24.94
 21
25.321
  0
LINE
  8
0
 10
99.861
 11
100.275
 20
25.321
 21
25.622
  0
LINE
  8
0
 10
100.275
 11
100.743
 20
25.622
 21
25.83
  0
LINE
  8
0
 10
100.743
 11
101.244
 20
25.83
 21
25.937
  0
LINE
  8
0
 10
101.244
 11
101.756
 20
25.937
 21
25.937
  0
LINE
  8
0
 10
101.756
 11
102.257
 20
25.937
 21
25.83
  0
LINE
  8
0
 10
102.257
 11
102.725
 20
25.83
 21
25.622
  0
LINE
  8
0
 10
102.725
 11
103.139
 20
25.622
 21
25.321
  0
LINE
  8
0
 10
103.139
 11
103.482
 20
25.321
 21
24.94
  0
LINE
  8
0
 10
103.482
 11
103.738
 20
24.94
 21
24.497
  0
LINE
  8
0
 10
103.738
 11
103.896
 20
24.497
 21
24.009
  0
LINE
  8
0
 10
103.896
 11
103.95
 20
24.009
 21
23.5
  0
LINE
  8
0
 10
103.95
 11
103.896
 20
23.5
 21
22.991
  0
LINE
  8
0
 10
103.896
 11
103.738
 20
22.991
 21
22.503
  0
LINE
  8
0
 10
103.738
 11
103.482
 20
22.503
 21
22.06
  0
LINE
  8
0
 10
103.482
 11
103.139
 20
22.06
 21
21.679
  0
LINE
  8
0
 10
103.139
 11
102.725
 20
21.679
 21
21.378
  0
LINE
  8
0
 10
102.725
 11
102.257
 20
21.378
 21
21.17
  0
LINE
  8
0
 10
102.257
 11
101.756
 20
21.17
 21
21.063
  0
LINE
  8
0
 10
101.756
 11
101.244
 20
21.063
 21
21.063
  0
LINE
  8
0
 10
101.244
 11
100.743
 20
21.063
 21
21.17
  0
LINE
  8
0
 10
100.743
 11
100.275
 20
21.17
 21
21.378
  0
LINE
  8
0
 10
100.275
 11
99.861
 20
21.378
 21
21.679
  0
LINE
  8
0
 10
99.861
 11
99.518
 20
21.679
 21
22.06
  0
LINE
  8
0
 10
99.518
 11
99.262
 20
22.06
 21
22.503
  0
LINE
  8
0
 10
99.262
 11
99.104
 20
22.503
 21
22.991
  0
LINE
  8
0
 10
99.104
 11
99.05
 20
22.991
 21
23.5
  0
LINE
  8
0
 10
112.365
 11
112.465
 20
0
 21
1.584
  0
LINE
  8
0
 10
112.465
 11
112.762
 20
1.584
 21
3.142
  0
LINE
  8
0
 10
112.762
 11
113.252
 20
3.142
 21
4.651
  0
LINE
  8
0
 10
113.252
 11
113.928
 20
4.651
 21
6.087
  0
LINE
  8
0
 10
113.928
 11
114.778
 20
6.087
 21
7.427
  0
LINE
  8
0
 10
114.778
 11
115.789
 20
7.427
 21
8.649
  0
LINE
  8
0
 10
115.789
 11
116.946
 20
8.649
 21
9.735
  0
LINE
  8
0
 10
116.946
 11
118.23
 20
9.735
 21
10.668
  0
LINE
  8
0
 10
118.23
 11
119.62
 20
10.668
 21
11.432
  0
LINE
  8
0
 10
119.62
 11
121.096
 20
11.432
 21
12.017
  0
LINE
  8
0
 10
121.096
 11
122.632
 20
12.017
 21
12.411
  0
LINE
  8
0
 10
122.632
 11
124.207
 20
12.411
 21
12.61
  0
LINE
  8
0
 10
124.207
 11
125.793
 20
12.61
 21
12.61
  0
LINE
  8
0
 10
125.793
 11
127.368
 20
12.61
 21
12.411
  0
LINE
  8
0
 10
127.368
 11
128.904
 20
12.411
 21
12.017
  0
LINE
  8
0
 10
128.904
 11
130.38
 20
12.017
 21
11.432
  0
LINE
  8
0
 10
130.38
 11
131.77
 20
11.432
 21
10.668
  0
LINE
  8
0
 10
131.77
 11
133.054
 20
10.668
 21
9.735
  0
LINE
  8
0
 10
133.054
 11
134.211
 20
9.735
 21
8.649
  0
LINE
  8
0
 10
134.211
 11
135.222
 20
8.649
 21
7.427
  0
LINE
  8
0
 10
135.222
 11
136.072
 20
7.427
 21
6.087
  0
LINE
  8
0
 10
136.072
 11
136.748
 20
6.087
 21
4.651
  0
LINE
  8
0
 10
136.748
 11
137.238
 20
4.651
 21
3.142
  0
LINE
  8
0
 10
137.238
 11
137.535
 20
3.142
 21
1.584
  0
LINE
  8
0
 10
137.535
 11
137.635
 20
1.584
 21
0
  0
LINE
  8
0
 10
137.635
 11
137.535
 20
0
 21
-1.584
  0
LINE
  8
0
 10
137.535
 11
137.238
 20
-1.584
 21
-3.142
  0
LINE
  8
0
 10
137.238
 11
136.748
 20
-3.142
 21
-4.651
  0
LINE
  8
0
 10
136.748
 11
136.072
 20
-4.651
 21
-6.087
  0
LINE
  8
0
 10
136.072
 11
135.222
 20
-6.087
 21
-7.427
  0
LINE
  8
0
 10
135.222
 11
134.211
 20
-7.427
 21
-8.649
  0
LINE
  8
0
 10
134.211
 11
133.054
 20
-8.649
 21
-9.735
  0
LINE
  8
0
 10
133.054
 11
131.77
 20
-9.735
 21
-10.668
  0
LINE
  8
0
 10
131.77
 11
130.38
 20
-10.668
 21
-11.432
  0
LINE
  8
0
 10
130.38
 11
128.904
 20
-11.432
 21
-12.017
  0
LINE
  8
0
 10
128.904
 11
127.368
 20
-12.017
 21
-12.411
  0
LINE
  8
0
 10
127.368
 11
125.793
 20
-12.411
 21
-12.61
  0
LINE
  8
0
 10
125.793
 11
124.207
 20
-12.61
 21
-12.61
  0
LINE
  8
0
 10
124.207
 11
122.632
 20
-12.61
 21
-12.411
  0
LINE
  8
0
 10
122.632
 11
121.096
 20
-12.411
 21
-12.017
  0
LINE
  8
0
 10
121.096
 11
119.62
 20
-12.017
 21
-11.432
  0
LINE
  8
0
 10
119.62
 11
118.23
 20
-11.432
 21
-10.668
  0
LINE
  8
0
 10
118.23
 11
116.946
 20
-10.668
 21
-9.735
  0
LINE
  8
0
 10
116.946
 11
115.789
 20
-9.735
 21
-8.649
  0
LINE
  8
0
 10
115.789
 11
114.778
 20
-8.649
 21
-7.427
  0
LINE
  8
0
 10
114.778
 11
113.928
 20
-7.427
 21
-6.087
  0
LINE
  8
0
 10
113.928
 11
113.252
 20
-6.087
 21
-4.651
  0
LINE
  8
0
 10
113.252
 11
112.762
 20
-4.651
 21
-3.142
  0
LINE
  8
0
 10
112.762
 11
112.465
 20
-3.142
 21
-1.584
  0
LINE
  8
0
 10
112.465
 11
112.365
 20
-1.584
 21
0
  0
LINE
  8
0
 10
146.05
 11
146.104
 20
-23.5
 21
-22.991
  0
LINE
  8
0
 10
146.104
 11
146.262
 20
-22.991
 21
-22.503
  0
LINE
  8
0
 10
146.262
 11
146.518
 20
-22.503
 21
-22.06
  0
LINE
  8
0
 10
146.518
 11
146.861
 20
-22.06
 21
-21.679
  0
LINE
  8
0
 10
146.861
 11
147.275
 20
-21.679
 21
-21.378
  0
LINE
  8
0
 10
147.275
 11
147.743
 20
-21.378
 21
-21.17
  0
LINE
  8
0
 10
147.743
 11
148.244
 20
-21.17
 21
-21.063
  0
LINE
  8
0
 10
148.244
 11
148.756
 20
-21.063
 21
-21.063
  0
LINE
  8
0
 10
148.756
 11
149.257
 20
-21.063
 21
-21.17
  0
LINE
  8
0
 10
149.257
 11
149.725
 20
-21.17
 21
-21.378
  0
LINE
  8
0
 10
149.725
 11
150.139
 20
-21.378
 21
-21.679
  0
LINE
  8
0
 10
150.139
 11
150.482
 20
-21.679
 21
-22.06
  0
LINE
  8
0
 10
150.482
 11
150.738
 20
-22.06
 21
-22.503
  0
LINE
  8
0
 10
150.738
 11
150.896
 20
-22.503
 21
-22.991
  0
LINE
  8
0
 10
150.896
 11
150.95
 20
-22.991
 21
-23.5
  0
LINE
  8
0
 10
150.95
 11
150.896
 20
-23.5
 21
-24.009
  0
LINE
  8
0
 10
150.896
 11
150.738
 20
-24.009
 21
-24.497
  0
LINE
  8
0
 10
150.738
 11
150.482
 20
-24.497
 21
-24.94
  0
LINE
  8
0
 10
150.482
 11
150.139
 20
-24.94
 21
-25.321
  0
LINE
  8
0
 10
150.139
 11
149.725
 20
-25.321
 21
-25.622
  0
LINE
  8
0
 10
149.725
 11
149.257
 20
-25.622
 21
-25.83
  0
LINE
  8
0
 10
149.257
 11
148.756
 20
-25.83
 21
-25.937
  0
LINE
  8
0
 10
148.756
 11
148.244
 20
-25.937
 21
-25.937
  0
LINE
  8
0
 10
148.244
 11
147.743
 20
-25.937
 21
-25.83
  0
LINE
  8
0
 10
147.743
 11
147.275
 20
-25.83
 21
-25.622
  0
LINE
  8
0
 10
147.275
 11
146.861
 20
-25.622
 21
-25.321
  0
LINE
  8
0
 10
146.861
 11
146.518
 20
-25.321
 21
-24.94
  0
LINE
  8
0
 10
146.518
 11
146.262
 20
-24.94
 21
-24.497
  0
LINE
  8
0
 10
146.262
 11
146.104
 20
-24.497
 21
-24.009
  0
LINE
  8
0
 10
146.104
 11
146.05
 20
-24.009
 21
-23.5
  0
LINE
  8
0
 10
146.05
 11
146.104
 20
23.5
 21
24.009
  0
LINE
  8
0
 10
146.104
 11
146.262
 20
24.009
 21
24.497
  0
LINE
  8
0
 10
146.262
 11
146.518
 20
24.497
 21
24.94
  0
LINE
  8
0
 10
146.518
 11
146.861
 20
24.94
 21
25.321
  0
LINE
  8
0
 10
146.861
 11
147.275
 20
25.321
 21
25.622
  0
LINE
  8
0
 10
147.275
 11
147.743
 20
25.622
 21
25.83
  0
LINE
  8
0
 10
147.743
 11
148.244
 20
25.83
 21
25.937
  0
LINE
  8
0
 10
148.244
 11
148.756
 20
25.937
 21
25.937
  0
LINE
  8
0
 10
148.756
 11
149.257
 20
25.937
 21
25.83
  0
LINE
  8
0
 10
149.257
 11
149.725
 20
25.83
 21
25.622
  0
LINE
  8
0
 10
149.725
 11
150.139
 20
25.622
 21
25.321
  0
LINE
  8
0
 10
150.139
 11
150.482
 20
25.321
 21
24.94
  0
LINE
  8
0
 10
150.482
 11
150.738
 20
24.94
 21
24.497
  0
LINE
  8
0
 10
150.738
 11
150.896
 20
24.497
 21
24.009
  0
LINE
  8
0
 10
150.896
 11
150.95
 20
24.009
 21
23.5
  0
LINE
  8
0
 10
150.95
 11
150.896
 20
23.5
 21
22.991
  0
LINE
  8
0
 10
150.896
 11
150.738
 20
22.991
 21
22.503
  0
LINE
  8
0
 10
150.738
 11
150.482
 20
22.503
 21
22.06
  0
LINE
  8
0
 10
150.482
 11
150.139
 20
22.06
 21
21.679
  0
LINE
  8
0
 10
150.139
 11
149.725
 20
21.679
 21
21.378
  0
LINE
  8
0
 10
149.725
 11
149.257
 20
21.378
 21
21.17
  0
LINE
  8
0
 10
149.257
 11
148.756
 20
21.17
 21
21.063
  0
LINE
  8
0
 10
148.756
 11
148.244
 20
21.063
 21
21.063
  0
LINE
  8
0
 10
148.244
 11
147.743
 20
21.063
 21
21.17
  0
LINE
  8
0
 10
147.743
 11
147.275
 20
21.17
 21
21.378
  0
LINE
  8
0
 10
147.275
 11
146.861
 20
21.378
 21
21.679
  0
LINE
  8
0
 10
146.861
 11
146.518
 20
21.679
 21
22.06
  0
LINE
  8
0
 10
146.518
 11
146.262
 20
22.06
 21
22.503
  0
LINE
  8
0
 10
146.262
 11
146.104
 20
22.503
 21
22.991
  0
LINE
  8
0
 10
146.104
 11
146.05
 20
22.991
 21
23.5
  0
ENDSEC
  0
SECTION
  2
OBJECTS
  0
DICTIONARY
  0
ENDSEC
  0
EOF
