  0
SECTION
  2
BLOCKS
  0
ENDSEC
  0
SECTION
  2
ENTITIES
  0
LINE
  8
0
 10
-23
 11
-23
 20
-3
 21
17.6
  0
LINE
  8
0
 10
-23
 11
-20
 20
17.6
 21
17.6
  0
LINE
  8
0
 10
-20
 11
-20
 20
17.6
 21
14.6
  0
LINE
  8
0
 10
-20
 11
-14
 20
14.6
 21
14.6
  0
LINE
  8
0
 10
-14
 11
-14
 20
14.6
 21
5.6
  0
LINE
  8
0
 10
-14
 11
-20
 20
5.6
 21
5.6
  0
LINE
  8
0
 10
-20
 11
-20
 20
5.6
 21
2.6
  0
LINE
  8
0
 10
-20
 11
-14
 20
2.6
 21
2.6
  0
LINE
  8
0
 10
-14
 11
-14
 20
2.6
 21
0
  0
LINE
  8
0
 10
-14
 11
-20
 20
0
 21
0
  0
LINE
  8
0
 10
-20
 11
-20
 20
0
 21
-3
  0
LINE
  8
0
 10
-20
 11
-23
 20
-3
 21
-3
  0
LINE
  8
0
 10
-10.635
 11
-10.551
 20
0
 21
1.333
  0
LINE
  8
0
 10
-10.551
 11
-10.301
 20
1.333
 21
2.645
  0
LINE
  8
0
 10
-10.301
 11
-9.888
 20
2.645
 21
3.915
  0
LINE
  8
0
 10
-9.888
 11
-9.32
 20
3.915
 21
5.123
  0
LINE
  8
0
 10
-9.32
 11
-8.604
 20
5.123
 21
6.251
  0
LINE
  8
0
 10
-8.604
 11
-7.753
 20
6.251
 21
7.28
  0
LINE
  8
0
 10
-7.753
 11
-6.779
 20
7.28
 21
8.194
  0
LINE
  8
0
 10
-6.779
 11
-5.699
 20
8.194
 21
8.979
  0
LINE
  8
0
 10
-5.699
 11
-4.528
 20
8.979
 21
9.623
  0
LINE
  8
0
 10
-4.528
 11
-3.286
 20
9.623
 21
10.114
  0
LINE
  8
0
 10
-3.286
 11
-1.993
 20
10.114
 21
10.447
  0
LINE
  8
0
 10
-1.993
 11
-0.668
 20
10.447
 21
10.614
  0
LINE
  8
0
 10
-0.668
 11
0.668
 20
10.614
 21
10.614
  0
LINE
  8
0
 10
0.668
 11
1.993
 20
10.614
 21
10.447
  0
LINE
  8
0
 10
1.993
 11
3.286
 20
10.447
 21
10.114
  0
LINE
  8
0
 10
3.286
 11
4.528
 20
10.114
 21
9.623
  0
LINE
  8
0
 10
4.528
 11
5.699
 20
9.623
 21
8.979
  0
LINE
  8
0
 10
5.699
 11
6.779
 20
8.979
 21
8.194
  0
LINE
  8
0
 10
6.779
 11
7.753
 20
8.194
 21
7.28
  0
LINE
  8
0
 10
7.753
 11
8.604
 20
7.28
 21
6.251
  0
LINE
  8
0
 10
8.604
 11
9.32
 20
6.251
 21
5.123
  0
LINE
  8
0
 10
9.32
 11
9.888
 20
5.123
 21
3.915
  0
LINE
  8
0
 10
9.888
 11
10.301
 20
3.915
 21
2.645
  0
LINE
  8
0
 10
10.301
 11
10.551
 20
2.645
 21
1.333
  0
LINE
  8
0
 10
10.551
 11
10.635
 20
1.333
 21
0
  0
LINE
  8
0
 10
10.635
 11
10.551
 20
0
 21
-1.333
  0
LINE
  8
0
 10
10.551
 11
10.301
 20
-1.333
 21
-2.645
  0
LINE
  8
0
 10
10.301
 11
9.888
 20
-2.645
 21
-3.915
  0
LINE
  8
0
 10
9.888
 11
9.32
 20
-3.915
 21
-5.123
  0
LINE
  8
0
 10
9.32
 11
8.604
 20
-5.123
 21
-6.251
  0
LINE
  8
0
 10
8.604
 11
7.753
 20
-6.251
 21
-7.28
  0
LINE
  8
0
 10
7.753
 11
6.779
 20
-7.28
 21
-8.194
  0
LINE
  8
0
 10
6.779
 11
5.699
 20
-8.194
 21
-8.979
  0
LINE
  8
0
 10
5.699
 11
4.528
 20
-8.979
 21
-9.623
  0
LINE
  8
0
 10
4.528
 11
3.286
 20
-9.623
 21
-10.114
  0
LINE
  8
0
 10
3.286
 11
1.993
 20
-10.114
 21
-10.447
  0
LINE
  8
0
 10
1.993
 11
0.668
 20
-10.447
 21
-10.614
  0
LINE
  8
0
 10
0.668
 11
-0.668
 20
-10.614
 21
-10.614
  0
LINE
  8
0
 10
-0.668
 11
-1.993
 20
-10.614
 21
-10.447
  0
LINE
  8
0
 10
-1.993
 11
-3.286
 20
-10.447
 21
-10.114
  0
LINE
  8
0
 10
-3.286
 11
-4.528
 20
-10.114
 21
-9.623
  0
LINE
  8
0
 10
-4.528
 11
-5.699
 20
-9.623
 21
-8.979
  0
LINE
  8
0
 10
-5.699
 11
-6.779
 20
-8.979
 21
-8.194
  0
LINE
  8
0
 10
-6.779
 11
-7.753
 20
-8.194
 21
-7.28
  0
LINE
  8
0
 10
-7.753
 11
-8.604
 20
-7.28
 21
-6.251
  0
LINE
  8
0
 10
-8.604
 11
-9.32
 20
-6.251
 21
-5.123
  0
LINE
  8
0
 10
-9.32
 11
-9.888
 20
-5.123
 21
-3.915
  0
LINE
  8
0
 10
-9.888
 11
-10.301
 20
-3.915
 21
-2.645
  0
LINE
  8
0
 10
-10.301
 11
-10.551
 20
-2.645
 21
-1.333
  0
LINE
  8
0
 10
-10.551
 11
-10.635
 20
-1.333
 21
0
  0
LINE
  8
0
 10
-8.522
 11
-8.518
 20
4.094
 21
4.262
  0
LINE
  8
0
 10
-8.518
 11
-8.494
 20
4.262
 21
4.427
  0
LINE
  8
0
 10
-8.494
 11
-8.448
 20
4.427
 21
4.589
  0
LINE
  8
0
 10
-8.448
 11
-8.384
 20
4.589
 21
4.743
  0
LINE
  8
0
 10
-8.384
 11
-8.3
 20
4.743
 21
4.889
  0
LINE
  8
0
 10
-8.3
 11
-8.198
 20
4.889
 21
5.022
  0
LINE
  8
0
 10
-8.198
 11
-8.081
 20
5.022
 21
5.143
  0
LINE
  8
0
 10
-8.081
 11
-7.95
 20
5.143
 21
5.246
  0
LINE
  8
0
 10
-7.95
 11
-7.807
 20
5.246
 21
5.333
  0
LINE
  8
0
 10
-7.807
 11
-7.654
 20
5.333
 21
5.401
  0
LINE
  8
0
 10
-7.654
 11
-7.493
 20
5.401
 21
5.45
  0
LINE
  8
0
 10
-7.493
 11
-7.328
 20
5.45
 21
5.478
  0
LINE
  8
0
 10
-7.328
 11
-7.16
 20
5.478
 21
5.485
  0
LINE
  8
0
 10
-7.16
 11
-6.993
 20
5.485
 21
5.47
  0
LINE
  8
0
 10
-6.993
 11
-6.829
 20
5.47
 21
5.436
  0
LINE
  8
0
 10
-6.829
 11
-6.671
 20
5.436
 21
5.38
  0
LINE
  8
0
 10
-6.671
 11
-6.521
 20
5.38
 21
5.306
  0
LINE
  8
0
 10
-6.521
 11
-6.381
 20
5.306
 21
5.213
  0
LINE
  8
0
 10
-6.381
 11
-6.254
 20
5.213
 21
5.104
  0
LINE
  8
0
 10
-6.254
 11
-6.142
 20
5.104
 21
4.979
  0
LINE
  8
0
 10
-6.142
 11
-6.046
 20
4.979
 21
4.842
  0
LINE
  8
0
 10
-6.046
 11
-5.968
 20
4.842
 21
4.693
  0
LINE
  8
0
 10
-5.968
 11
-5.91
 20
4.693
 21
4.536
  0
LINE
  8
0
 10
-5.91
 11
-5.871
 20
4.536
 21
4.372
  0
LINE
  8
0
 10
-5.871
 11
-5.855
 20
4.372
 21
4.206
  0
LINE
  8
0
 10
-5.855
 11
-5.858
 20
4.206
 21
4.038
  0
LINE
  8
0
 10
-5.858
 11
-5.882
 20
4.038
 21
3.873
  0
LINE
  8
0
 10
-5.882
 11
-5.928
 20
3.873
 21
3.711
  0
LINE
  8
0
 10
-5.928
 11
-5.992
 20
3.711
 21
3.557
  0
LINE
  8
0
 10
-5.992
 11
-6.076
 20
3.557
 21
3.411
  0
LINE
  8
0
 10
-6.076
 11
-6.178
 20
3.411
 21
3.278
  0
LINE
  8
0
 10
-6.178
 11
-6.295
 20
3.278
 21
3.157
  0
LINE
  8
0
 10
-6.295
 11
-6.426
 20
3.157
 21
3.054
  0
LINE
  8
0
 10
-6.426
 11
-6.569
 20
3.054
 21
2.967
  0
LINE
  8
0
 10
-6.569
 11
-6.722
 20
2.967
 21
2.899
  0
LINE
  8
0
 10
-6.722
 11
-6.883
 20
2.899
 21
2.85
  0
LINE
  8
0
 10
-6.883
 11
-7.048
 20
2.85
 21
2.822
  0
LINE
  8
0
 10
-7.048
 11
-7.216
 20
2.822
 21
2.815
  0
LINE
  8
0
 10
-7.216
 11
-7.383
 20
2.815
 21
2.83
  0
LINE
  8
0
 10
-7.383
 11
-7.547
 20
2.83
 21
2.864
  0
LINE
  8
0
 10
-7.547
 11
-7.705
 20
2.864
 21
2.92
  0
LINE
  8
0
 10
-7.705
 11
-7.856
 20
2.92
 21
2.994
  0
LINE
  8
0
 10
-7.856
 11
-7.995
 20
2.994
 21
3.087
  0
LINE
  8
0
 10
-7.995
 11
-8.122
 20
3.087
 21
3.196
  0
LINE
  8
0
 10
-8.122
 11
-8.234
 20
3.196
 21
3.321
  0
LINE
  8
0
 10
-8.234
 11
-8.33
 20
3.321
 21
3.458
  0
LINE
  8
0
 10
-8.33
 11
-8.408
 20
3.458
 21
3.607
  0
LINE
  8
0
 10
-8.408
 11
-8.466
 20
3.607
 21
3.764
  0
LINE
  8
0
 10
-8.466
 11
-8.505
 20
3.764
 21
3.928
  0
LINE
  8
0
 10
-8.505
 11
-8.522
 20
3.928
 21
4.094
  0
LINE
  8
0
 10
-2.3
 11
-2.25
 20
0
 21
0.478
  0
LINE
  8
0
 10
-2.25
 11
-2.101
 20
0.478
 21
0.935
  0
LINE
  8
0
 10
-2.101
 11
-1.861
 20
0.935
 21
1.352
  0
LINE
  8
0
 10
-1.861
 11
-1.539
 20
1.352
 21
1.709
  0
LINE
  8
0
 10
-1.539
 11
-1.345
 20
1.709
 21
1.85
  0
LINE
  8
0
 10
-1.345
 11
1.345
 20
1.85
 21
1.85
  0
LINE
  8
0
 10
1.345
 11
1.539
 20
1.85
 21
1.709
  0
LINE
  8
0
 10
1.539
 11
1.861
 20
1.709
 21
1.352
  0
LINE
  8
0
 10
1.861
 11
2.101
 20
1.352
 21
0.935
  0
LINE
  8
0
 10
2.101
 11
2.25
 20
0.935
 21
0.478
  0
LINE
  8
0
 10
2.25
 11
2.3
 20
0.478
 21
0
  0
LINE
  8
0
 10
2.3
 11
2.25
 20
0
 21
-0.478
  0
LINE
  8
0
 10
2.25
 11
2.101
 20
-0.478
 21
-0.935
  0
LINE
  8
0
 10
2.101
 11
1.861
 20
-0.935
 21
-1.352
  0
LINE
  8
0
 10
1.861
 11
1.539
 20
-1.352
 21
-1.709
  0
LINE
  8
0
 10
1.539
 11
1.15
 20
-1.709
 21
-1.992
  0
LINE
  8
0
 10
1.15
 11
0.711
 20
-1.992
 21
-2.187
  0
LINE
  8
0
 10
0.711
 11
0.24
 20
-2.187
 21
-2.287
  0
LINE
  8
0
 10
0.24
 11
-0.24
 20
-2.287
 21
-2.287
  0
LINE
  8
0
 10
-0.24
 11
-0.711
 20
-2.287
 21
-2.187
  0
LINE
  8
0
 10
-0.711
 11
-1.15
 20
-2.187
 21
-1.992
  0
LINE
  8
0
 10
-1.15
 11
-1.539
 20
-1.992
 21
-1.709
  0
LINE
  8
0
 10
-1.539
 11
-1.861
 20
-1.709
 21
-1.352
  0
LINE
  8
0
 10
-1.861
 11
-2.101
 20
-1.352
 21
-0.935
  0
LINE
  8
0
 10
-2.101
 11
-2.25
 20
-0.935
 21
-0.478
  0
LINE
  8
0
 10
-2.25
 11
-2.3
 20
-0.478
 21
0
  0
LINE
  8
0
 10
-1.335
 11
-1.324
 20
-8.3
 21
-8.133
  0
LINE
  8
0
 10
-1.324
 11
-1.293
 20
-8.133
 21
-7.968
  0
LINE
  8
0
 10
-1.293
 11
-1.241
 20
-7.968
 21
-7.809
  0
LINE
  8
0
 10
-1.241
 11
-1.17
 20
-7.809
 21
-7.657
  0
LINE
  8
0
 10
-1.17
 11
-1.08
 20
-7.657
 21
-7.515
  0
LINE
  8
0
 10
-1.08
 11
-0.973
 20
-7.515
 21
-7.386
  0
LINE
  8
0
 10
-0.973
 11
-0.851
 20
-7.386
 21
-7.271
  0
LINE
  8
0
 10
-0.851
 11
-0.715
 20
-7.271
 21
-7.173
  0
LINE
  8
0
 10
-0.715
 11
-0.568
 20
-7.173
 21
-7.092
  0
LINE
  8
0
 10
-0.568
 11
-0.413
 20
-7.092
 21
-7.03
  0
LINE
  8
0
 10
-0.413
 11
-0.25
 20
-7.03
 21
-6.989
  0
LINE
  8
0
 10
-0.25
 11
-0.084
 20
-6.989
 21
-6.968
  0
LINE
  8
0
 10
-0.084
 11
0.084
 20
-6.968
 21
-6.968
  0
LINE
  8
0
 10
0.084
 11
0.25
 20
-6.968
 21
-6.989
  0
LINE
  8
0
 10
0.25
 11
0.413
 20
-6.989
 21
-7.03
  0
LINE
  8
0
 10
0.413
 11
0.568
 20
-7.03
 21
-7.092
  0
LINE
  8
0
 10
0.568
 11
0.715
 20
-7.092
 21
-7.173
  0
LINE
  8
0
 10
0.715
 11
0.851
 20
-7.173
 21
-7.271
  0
LINE
  8
0
 10
0.851
 11
0.973
 20
-7.271
 21
-7.386
  0
LINE
  8
0
 10
0.973
 11
1.08
 20
-7.386
 21
-7.515
  0
LINE
  8
0
 10
1.08
 11
1.17
 20
-7.515
 21
-7.657
  0
LINE
  8
0
 10
1.17
 11
1.241
 20
-7.657
 21
-7.809
  0
LINE
  8
0
 10
1.241
 11
1.293
 20
-7.809
 21
-7.968
  0
LINE
  8
0
 10
1.293
 11
1.324
 20
-7.968
 21
-8.133
  0
LINE
  8
0
 10
1.324
 11
1.335
 20
-8.133
 21
-8.3
  0
LINE
  8
0
 10
1.335
 11
1.324
 20
-8.3
 21
-8.467
  0
LINE
  8
0
 10
1.324
 11
1.293
 20
-8.467
 21
-8.632
  0
LINE
  8
0
 10
1.293
 11
1.241
 20
-8.632
 21
-8.791
  0
LINE
  8
0
 10
1.241
 11
1.17
 20
-8.791
 21
-8.943
  0
LINE
  8
0
 10
1.17
 11
1.08
 20
-8.943
 21
-9.085
  0
LINE
  8
0
 10
1.08
 11
0.973
 20
-9.085
 21
-9.214
  0
LINE
  8
0
 10
0.973
 11
0.851
 20
-9.214
 21
-9.329
  0
LINE
  8
0
 10
0.851
 11
0.715
 20
-9.329
 21
-9.427
  0
LINE
  8
0
 10
0.715
 11
0.568
 20
-9.427
 21
-9.508
  0
LINE
  8
0
 10
0.568
 11
0.413
 20
-9.508
 21
-9.57
  0
LINE
  8
0
 10
0.413
 11
0.25
 20
-9.57
 21
-9.611
  0
LINE
  8
0
 10
0.25
 11
0.084
 20
-9.611
 21
-9.632
  0
LINE
  8
0
 10
0.084
 11
-0.084
 20
-9.632
 21
-9.632
  0
LINE
  8
0
 10
-0.084
 11
-0.25
 20
-9.632
 21
-9.611
  0
LINE
  8
0
 10
-0.25
 11
-0.413
 20
-9.611
 21
-9.57
  0
LINE
  8
0
 10
-0.413
 11
-0.568
 20
-9.57
 21
-9.508
  0
LINE
  8
0
 10
-0.568
 11
-0.715
 20
-9.508
 21
-9.427
  0
LINE
  8
0
 10
-0.715
 11
-0.851
 20
-9.427
 21
-9.329
  0
LINE
  8
0
 10
-0.851
 11
-0.973
 20
-9.329
 21
-9.214
  0
LINE
  8
0
 10
-0.973
 11
-1.08
 20
-9.214
 21
-9.085
  0
LINE
  8
0
 10
-1.08
 11
-1.17
 20
-9.085
 21
-8.943
  0
LINE
  8
0
 10
-1.17
 11
-1.241
 20
-8.943
 21
-8.791
  0
LINE
  8
0
 10
-1.241
 11
-1.293
 20
-8.791
 21
-8.632
  0
LINE
  8
0
 10
-1.293
 11
-1.324
 20
-8.632
 21
-8.467
  0
LINE
  8
0
 10
-1.324
 11
-1.335
 20
-8.467
 21
-8.3
  0
LINE
  8
0
 10
5.855
 11
5.871
 20
4.206
 21
4.372
  0
LINE
  8
0
 10
5.871
 11
5.91
 20
4.372
 21
4.536
  0
LINE
  8
0
 10
5.91
 11
5.968
 20
4.536
 21
4.693
  0
LINE
  8
0
 10
5.968
 11
6.046
 20
4.693
 21
4.842
  0
LINE
  8
0
 10
6.046
 11
6.142
 20
4.842
 21
4.979
  0
LINE
  8
0
 10
6.142
 11
6.254
 20
4.979
 21
5.104
  0
LINE
  8
0
 10
6.254
 11
6.381
 20
5.104
 21
5.213
  0
LINE
  8
0
 10
6.381
 11
6.521
 20
5.213
 21
5.306
  0
LINE
  8
0
 10
6.521
 11
6.671
 20
5.306
 21
5.38
  0
LINE
  8
0
 10
6.671
 11
6.829
 20
5.38
 21
5.436
  0
LINE
  8
0
 10
6.829
 11
6.993
 20
5.436
 21
5.47
  0
LINE
  8
0
 10
6.993
 11
7.16
 20
5.47
 21
5.485
  0
LINE
  8
0
 10
7.16
 11
7.328
 20
5.485
 21
5.478
  0
LINE
  8
0
 10
7.328
 11
7.493
 20
5.478
 21
5.45
  0
LINE
  8
0
 10
7.493
 11
7.654
 20
5.45
 21
5.401
  0
LINE
  8
0
 10
7.654
 11
7.807
 20
5.401
 21
5.333
  0
LINE
  8
0
 10
7.807
 11
7.95
 20
5.333
 21
5.246
  0
LINE
  8
0
 10
7.95
 11
8.081
 20
5.246
 21
5.143
  0
LINE
  8
0
 10
8.081
 11
8.198
 20
5.143
 21
5.022
  0
LINE
  8
0
 10
8.198
 11
8.3
 20
5.022
 21
4.889
  0
LINE
  8
0
 10
8.3
 11
8.384
 20
4.889
 21
4.743
  0
LINE
  8
0
 10
8.384
 11
8.448
 20
4.743
 21
4.589
  0
LINE
  8
0
 10
8.448
 11
8.494
 20
4.589
 21
4.427
  0
LINE
  8
0
 10
8.494
 11
8.518
 20
4.427
 21
4.262
  0
LINE
  8
0
 10
8.518
 11
8.522
 20
4.262
 21
4.094
  0
LINE
  8
0
 10
8.522
 11
8.505
 20
4.094
 21
3.928
  0
LINE
  8
0
 10
8.505
 11
8.466
 20
3.928
 21
3.764
  0
LINE
  8
0
 10
8.466
 11
8.408
 20
3.764
 21
3.607
  0
LINE
  8
0
 10
8.408
 11
8.33
 20
3.607
 21
3.458
  0
LINE
  8
0
 10
8.33
 11
8.234
 20
3.458
 21
3.321
  0
LINE
  8
0
 10
8.234
 11
8.122
 20
3.321
 21
3.196
  0
LINE
  8
0
 10
8.122
 11
7.995
 20
3.196
 21
3.087
  0
LINE
  8
0
 10
7.995
 11
7.856
 20
3.087
 21
2.994
  0
LINE
  8
0
 10
7.856
 11
7.705
 20
2.994
 21
2.92
  0
LINE
  8
0
 10
7.705
 11
7.547
 20
2.92
 21
2.864
  0
LINE
  8
0
 10
7.547
 11
7.383
 20
2.864
 21
2.83
  0
LINE
  8
0
 10
7.383
 11
7.216
 20
2.83
 21
2.815
  0
LINE
  8
0
 10
7.216
 11
7.048
 20
2.815
 21
2.822
  0
LINE
  8
0
 10
7.048
 11
6.883
 20
2.822
 21
2.85
  0
LINE
  8
0
 10
6.883
 11
6.722
 20
2.85
 21
2.899
  0
LINE
  8
0
 10
6.722
 11
6.569
 20
2.899
 21
2.967
  0
LINE
  8
0
 10
6.569
 11
6.426
 20
2.967
 21
3.054
  0
LINE
  8
0
 10
6.426
 11
6.295
 20
3.054
 21
3.157
  0
LINE
  8
0
 10
6.295
 11
6.178
 20
3.157
 21
3.278
  0
LINE
  8
0
 10
6.178
 11
6.076
 20
3.278
 21
3.411
  0
LINE
  8
0
 10
6.076
 11
5.992
 20
3.411
 21
3.557
  0
LINE
  8
0
 10
5.992
 11
5.928
 20
3.557
 21
3.711
  0
LINE
  8
0
 10
5.928
 11
5.882
 20
3.711
 21
3.873
  0
LINE
  8
0
 10
5.882
 11
5.858
 20
3.873
 21
4.038
  0
LINE
  8
0
 10
5.858
 11
5.855
 20
4.038
 21
4.206
  0
LINE
  8
0
 10
14
 11
14.568
 20
0
 21
5.406
  0
LINE
  8
0
 10
14.568
 11
16.248
 20
5.406
 21
10.575
  0
LINE
  8
0
 10
16.248
 11
18.966
 20
10.575
 21
15.282
  0
LINE
  8
0
 10
18.966
 11
22.603
 20
15.282
 21
19.322
  0
LINE
  8
0
 10
22.603
 11
27
 20
19.322
 21
22.517
  0
LINE
  8
0
 10
27
 11
31.966
 20
22.517
 21
24.727
  0
LINE
  8
0
 10
31.966
 11
37.282
 20
24.727
 21
25.858
  0
LINE
  8
0
 10
37.282
 11
42.718
 20
25.858
 21
25.858
  0
LINE
  8
0
 10
42.718
 11
48.034
 20
25.858
 21
24.727
  0
LINE
  8
0
 10
48.034
 11
53
 20
24.727
 21
22.517
  0
LINE
  8
0
 10
53
 11
57.397
 20
22.517
 21
19.322
  0
LINE
  8
0
 10
57.397
 11
61.034
 20
19.322
 21
15.282
  0
LINE
  8
0
 10
61.034
 11
63.752
 20
15.282
 21
10.575
  0
LINE
  8
0
 10
63.752
 11
65.432
 20
10.575
 21
5.406
  0
LINE
  8
0
 10
65.432
 11
66
 20
5.406
 21
0
  0
LINE
  8
0
 10
66
 11
65.432
 20
0
 21
-5.406
  0
LINE
  8
0
 10
65.432
 11
63.752
 20
-5.406
 21
-10.575
  0
LINE
  8
0
 10
63.752
 11
61.034
 20
-10.575
 21
-15.282
  0
LINE
  8
0
 10
61.034
 11
58.587
 20
-15.282
 21
-18
  0
LINE
  8
0
 10
58.587
 11
49.3
 20
-18
 21
-18
  0
LINE
  8
0
 10
49.3
 11
52.258
 20
-18
 21
-7.35
  0
LINE
  8
0
 10
52.258
 11
52.531
 20
-7.35
 21
-6.889
  0
LINE
  8
0
 10
52.531
 11
52.939
 20
-6.889
 21
-6.089
  0
LINE
  8
0
 10
52.939
 11
53.296
 20
-6.089
 21
-5.264
  0
LINE
  8
0
 10
53.296
 11
53.6
 20
-5.264
 21
-4.419
  0
LINE
  8
0
 10
53.6
 11
53.851
 20
-4.419
 21
-3.556
  0
LINE
  8
0
 10
53.851
 11
54.047
 20
-3.556
 21
-2.68
  0
LINE
  8
0
 10
54.047
 11
54.187
 20
-2.68
 21
-1.792
  0
LINE
  8
0
 10
54.187
 11
54.272
 20
-1.792
 21
-0.898
  0
LINE
  8
0
 10
54.272
 11
54.3
 20
-0.898
 21
0
  0
LINE
  8
0
 10
54.3
 11
54.272
 20
0
 21
0.898
  0
LINE
  8
0
 10
54.272
 11
54.187
 20
0.898
 21
1.792
  0
LINE
  8
0
 10
54.187
 11
54.047
 20
1.792
 21
2.68
  0
LINE
  8
0
 10
54.047
 11
53.851
 20
2.68
 21
3.556
  0
LINE
  8
0
 10
53.851
 11
53.6
 20
3.556
 21
4.419
  0
LINE
  8
0
 10
53.6
 11
53.296
 20
4.419
 21
5.264
  0
LINE
  8
0
 10
53.296
 11
52.939
 20
5.264
 21
6.089
  0
LINE
  8
0
 10
52.939
 11
52.531
 20
6.089
 21
6.889
  0
LINE
  8
0
 10
52.531
 11
52.074
 20
6.889
 21
7.662
  0
LINE
  8
0
 10
52.074
 11
51.569
 20
7.662
 21
8.405
  0
LINE
  8
0
 10
51.569
 11
51.018
 20
8.405
 21
9.115
  0
LINE
  8
0
 10
51.018
 11
50.424
 20
9.115
 21
9.789
  0
LINE
  8
0
 10
50.424
 11
49.789
 20
9.789
 21
10.424
  0
LINE
  8
0
 10
49.789
 11
49.115
 20
10.424
 21
11.018
  0
LINE
  8
0
 10
49.115
 11
48.405
 20
11.018
 21
11.569
  0
LINE
  8
0
 10
48.405
 11
47.662
 20
11.569
 21
12.074
  0
LINE
  8
0
 10
47.662
 11
46.889
 20
12.074
 21
12.531
  0
LINE
  8
0
 10
46.889
 11
46.089
 20
12.531
 21
12.939
  0
LINE
  8
0
 10
46.089
 11
45.264
 20
12.939
 21
13.296
  0
LINE
  8
0
 10
45.264
 11
44.419
 20
13.296
 21
13.6
  0
LINE
  8
0
 10
44.419
 11
43.556
 20
13.6
 21
13.851
  0
LINE
  8
0
 10
43.556
 11
42.68
 20
13.851
 21
14.047
  0
LINE
  8
0
 10
42.68
 11
41.792
 20
14.047
 21
14.187
  0
LINE
  8
0
 10
41.792
 11
40.898
 20
14.187
 21
14.272
  0
LINE
  8
0
 10
40.898
 11
40
 20
14.272
 21
14.3
  0
LINE
  8
0
 10
40
 11
39.102
 20
14.3
 21
14.272
  0
LINE
  8
0
 10
39.102
 11
38.208
 20
14.272
 21
14.187
  0
LINE
  8
0
 10
38.208
 11
37.32
 20
14.187
 21
14.047
  0
LINE
  8
0
 10
37.32
 11
36.444
 20
14.047
 21
13.851
  0
LINE
  8
0
 10
36.444
 11
35.581
 20
13.851
 21
13.6
  0
LINE
  8
0
 10
35.581
 11
34.736
 20
13.6
 21
13.296
  0
LINE
  8
0
 10
34.736
 11
33.911
 20
13.296
 21
12.939
  0
LINE
  8
0
 10
33.911
 11
33.111
 20
12.939
 21
12.531
  0
LINE
  8
0
 10
33.111
 11
32.338
 20
12.531
 21
12.074
  0
LINE
  8
0
 10
32.338
 11
31.595
 20
12.074
 21
11.569
  0
LINE
  8
0
 10
31.595
 11
30.885
 20
11.569
 21
11.018
  0
LINE
  8
0
 10
30.885
 11
30.211
 20
11.018
 21
10.424
  0
LINE
  8
0
 10
30.211
 11
29.576
 20
10.424
 21
9.789
  0
LINE
  8
0
 10
29.576
 11
28.982
 20
9.789
 21
9.115
  0
LINE
  8
0
 10
28.982
 11
28.431
 20
9.115
 21
8.405
  0
LINE
  8
0
 10
28.431
 11
27.926
 20
8.405
 21
7.662
  0
LINE
  8
0
 10
27.926
 11
27.469
 20
7.662
 21
6.889
  0
LINE
  8
0
 10
27.469
 11
27.061
 20
6.889
 21
6.089
  0
LINE
  8
0
 10
27.061
 11
26.704
 20
6.089
 21
5.264
  0
LINE
  8
0
 10
26.704
 11
26.4
 20
5.264
 21
4.419
  0
LINE
  8
0
 10
26.4
 11
26.149
 20
4.419
 21
3.556
  0
LINE
  8
0
 10
26.149
 11
25.953
 20
3.556
 21
2.68
  0
LINE
  8
0
 10
25.953
 11
25.813
 20
2.68
 21
1.792
  0
LINE
  8
0
 10
25.813
 11
25.728
 20
1.792
 21
0.898
  0
LINE
  8
0
 10
25.728
 11
25.7
 20
0.898
 21
0
  0
LINE
  8
0
 10
25.7
 11
25.728
 20
0
 21
-0.898
  0
LINE
  8
0
 10
25.728
 11
25.813
 20
-0.898
 21
-1.792
  0
LINE
  8
0
 10
25.813
 11
25.953
 20
-1.792
 21
-2.68
  0
LINE
  8
0
 10
25.953
 11
26.149
 20
-2.68
 21
-3.556
  0
LINE
  8
0
 10
26.149
 11
26.4
 20
-3.556
 21
-4.419
  0
LINE
  8
0
 10
26.4
 11
26.704
 20
-4.419
 21
-5.264
  0
LINE
  8
0
 10
26.704
 11
27.061
 20
-5.264
 21
-6.089
  0
LINE
  8
0
 10
27.061
 11
27.469
 20
-6.089
 21
-6.889
  0
LINE
  8
0
 10
27.469
 11
27.742
 20
-6.889
 21
-7.35
  0
LINE
  8
0
 10
27.742
 11
30.7
 20
-7.35
 21
-18
  0
LINE
  8
0
 10
30.7
 11
21.413
 20
-18
 21
-18
  0
LINE
  8
0
 10
21.413
 11
18.966
 20
-18
 21
-15.282
  0
LINE
  8
0
 10
18.966
 11
16.248
 20
-15.282
 21
-10.575
  0
LINE
  8
0
 10
16.248
 11
14.568
 20
-10.575
 21
-5.406
  0
LINE
  8
0
 10
14.568
 11
14
 20
-5.406
 21
0
  0
LINE
  8
0
 10
15.563
 11
15.563
 20
-0.256
 21
0.256
  0
LINE
  8
0
 10
15.563
 11
15.67
 20
0.256
 21
0.757
  0
LINE
  8
0
 10
15.67
 11
15.878
 20
0.757
 21
1.225
  0
LINE
  8
0
 10
15.878
 11
16.179
 20
1.225
 21
1.639
  0
LINE
  8
0
 10
16.179
 11
16.56
 20
1.639
 21
1.982
  0
LINE
  8
0
 10
16.56
 11
17.003
 20
1.982
 21
2.238
  0
LINE
  8
0
 10
17.003
 11
17.491
 20
2.238
 21
2.396
  0
LINE
  8
0
 10
17.491
 11
18
 20
2.396
 21
2.45
  0
LINE
  8
0
 10
18
 11
18.509
 20
2.45
 21
2.396
  0
LINE
  8
0
 10
18.509
 11
18.997
 20
2.396
 21
2.238
  0
LINE
  8
0
 10
18.997
 11
19.44
 20
2.238
 21
1.982
  0
LINE
  8
0
 10
19.44
 11
19.821
 20
1.982
 21
1.639
  0
LINE
  8
0
 10
19.821
 11
20.122
 20
1.639
 21
1.225
  0
LINE
  8
0
 10
20.122
 11
20.33
 20
1.225
 21
0.757
  0
LINE
  8
0
 10
20.33
 11
20.437
 20
0.757
 21
0.256
  0
LINE
  8
0
 10
20.437
 11
20.437
 20
0.256
 21
-0.256
  0
LINE
  8
0
 10
20.437
 11
20.33
 20
-0.256
 21
-0.757
  0
LINE
  8
0
 10
20.33
 11
20.122
 20
-0.757
 21
-1.225
  0
LINE
  8
0
 10
20.122
 11
19.821
 20
-1.225
 21
-1.639
  0
LINE
  8
0
 10
19.821
 11
19.44
 20
-1.639
 21
-1.982
  0
LINE
  8
0
 10
19.44
 11
18.997
 20
-1.982
 21
-2.238
  0
LINE
  8
0
 10
18.997
 11
18.509
 20
-2.238
 21
-2.396
  0
LINE
  8
0
 10
18.509
 11
18
 20
-2.396
 21
-2.45
  0
LINE
  8
0
 10
18
 11
17.491
 20
-2.45
 21
-2.396
  0
LINE
  8
0
 10
17.491
 11
17.003
 20
-2.396
 21
-2.238
  0
LINE
  8
0
 10
17.003
 11
16.56
 20
-2.238
 21
-1.982
  0
LINE
  8
0
 10
16.56
 11
16.179
 20
-1.982
 21
-1.639
  0
LINE
  8
0
 10
16.179
 11
15.878
 20
-1.639
 21
-1.225
  0
LINE
  8
0
 10
15.878
 11
15.67
 20
-1.225
 21
-0.757
  0
LINE
  8
0
 10
15.67
 11
15.563
 20
-0.757
 21
-0.256
  0
LINE
  8
0
 10
25.6
 11
25.631
 20
-13
 21
-12.709
  0
LINE
  8
0
 10
25.631
 11
25.721
 20
-12.709
 21
-12.431
  0
LINE
  8
0
 10
25.721
 11
25.867
 20
-12.431
 21
-12.177
  0
LINE
  8
0
 10
25.867
 11
26.063
 20
-12.177
 21
-11.96
  0
LINE
  8
0
 10
26.063
 11
26.3
 20
-11.96
 21
-11.788
  0
LINE
  8
0
 10
26.3
 11
26.567
 20
-11.788
 21
-11.669
  0
LINE
  8
0
 10
26.567
 11
26.854
 20
-11.669
 21
-11.608
  0
LINE
  8
0
 10
26.854
 11
27.146
 20
-11.608
 21
-11.608
  0
LINE
  8
0
 10
27.146
 11
27.433
 20
-11.608
 21
-11.669
  0
LINE
  8
0
 10
27.433
 11
27.7
 20
-11.669
 21
-11.788
  0
LINE
  8
0
 10
27.7
 11
27.937
 20
-11.788
 21
-11.96
  0
LINE
  8
0
 10
27.937
 11
28.133
 20
-11.96
 21
-12.177
  0
LINE
  8
0
 10
28.133
 11
28.279
 20
-12.177
 21
-12.431
  0
LINE
  8
0
 10
28.279
 11
28.369
 20
-12.431
 21
-12.709
  0
LINE
  8
0
 10
28.369
 11
28.4
 20
-12.709
 21
-13
  0
LINE
  8
0
 10
28.4
 11
28.369
 20
-13
 21
-13.291
  0
LINE
  8
0
 10
28.369
 11
28.279
 20
-13.291
 21
-13.569
  0
LINE
  8
0
 10
28.279
 11
28.133
 20
-13.569
 21
-13.823
  0
LINE
  8
0
 10
28.133
 11
27.937
 20
-13.823
 21
-14.04
  0
LINE
  8
0
 10
27.937
 11
27.7
 20
-14.04
 21
-14.212
  0
LINE
  8
0
 10
27.7
 11
27.433
 20
-14.212
 21
-14.331
  0
LINE
  8
0
 10
27.433
 11
27.146
 20
-14.331
 21
-14.392
  0
LINE
  8
0
 10
27.146
 11
26.854
 20
-14.392
 21
-14.392
  0
LINE
  8
0
 10
26.854
 11
26.567
 20
-14.392
 21
-14.331
  0
LINE
  8
0
 10
26.567
 11
26.3
 20
-14.331
 21
-14.212
  0
LINE
  8
0
 10
26.3
 11
26.063
 20
-14.212
 21
-14.04
  0
LINE
  8
0
 10
26.063
 11
25.867
 20
-14.04
 21
-13.823
  0
LINE
  8
0
 10
25.867
 11
25.721
 20
-13.823
 21
-13.569
  0
LINE
  8
0
 10
25.721
 11
25.631
 20
-13.569
 21
-13.291
  0
LINE
  8
0
 10
25.631
 11
25.6
 20
-13.291
 21
-13
  0
LINE
  8
0
 10
25.6
 11
25.631
 20
13
 21
13.291
  0
LINE
  8
0
 10
25.631
 11
25.721
 20
13.291
 21
13.569
  0
LINE
  8
0
 10
25.721
 11
25.867
 20
13.569
 21
13.823
  0
LINE
  8
0
 10
25.867
 11
26.063
 20
13.823
 21
14.04
  0
LINE
  8
0
 10
26.063
 11
26.3
 20
14.04
 21
14.212
  0
LINE
  8
0
 10
26.3
 11
26.567
 20
14.212
 21
14.331
  0
LINE
  8
0
 10
26.567
 11
26.854
 20
14.331
 21
14.392
  0
LINE
  8
0
 10
26.854
 11
27.146
 20
14.392
 21
14.392
  0
LINE
  8
0
 10
27.146
 11
27.433
 20
14.392
 21
14.331
  0
LINE
  8
0
 10
27.433
 11
27.7
 20
14.331
 21
14.212
  0
LINE
  8
0
 10
27.7
 11
27.937
 20
14.212
 21
14.04
  0
LINE
  8
0
 10
27.937
 11
28.133
 20
14.04
 21
13.823
  0
LINE
  8
0
 10
28.133
 11
28.279
 20
13.823
 21
13.569
  0
LINE
  8
0
 10
28.279
 11
28.369
 20
13.569
 21
13.291
  0
LINE
  8
0
 10
28.369
 11
28.4
 20
13.291
 21
13
  0
LINE
  8
0
 10
28.4
 11
28.369
 20
13
 21
12.709
  0
LINE
  8
0
 10
28.369
 11
28.279
 20
12.709
 21
12.431
  0
LINE
  8
0
 10
28.279
 11
28.133
 20
12.431
 21
12.177
  0
LINE
  8
0
 10
28.133
 11
27.937
 20
12.177
 21
11.96
  0
LINE
  8
0
 10
27.937
 11
27.7
 20
11.96
 21
11.788
  0
LINE
  8
0
 10
27.7
 11
27.433
 20
11.788
 21
11.669
  0
LINE
  8
0
 10
27.433
 11
27.146
 20
11.669
 21
11.608
  0
LINE
  8
0
 10
27.146
 11
26.854
 20
11.608
 21
11.608
  0
LINE
  8
0
 10
26.854
 11
26.567
 20
11.608
 21
11.669
  0
LINE
  8
0
 10
26.567
 11
26.3
 20
11.669
 21
11.788
  0
LINE
  8
0
 10
26.3
 11
26.063
 20
11.788
 21
11.96
  0
LINE
  8
0
 10
26.063
 11
25.867
 20
11.96
 21
12.177
  0
LINE
  8
0
 10
25.867
 11
25.721
 20
12.177
 21
12.431
  0
LINE
  8
0
 10
25.721
 11
25.631
 20
12.431
 21
12.709
  0
LINE
  8
0
 10
25.631
 11
25.6
 20
12.709
 21
13
  0
LINE
  8
0
 10
37.55
 11
37.604
 20
22
 21
22.509
  0
LINE
  8
0
 10
37.604
 11
37.762
 20
22.509
 21
22.997
  0
LINE
  8
0
 10
37.762
 11
38.018
 20
22.997
 21
23.44
  0
LINE
  8
0
 10
38.018
 11
38.361
 20
23.44
 21
23.821
  0
LINE
  8
0
 10
38.361
 11
38.775
 20
23.821
 21
24.122
  0
LINE
  8
0
 10
38.775
 11
39.243
 20
24.122
 21
24.33
  0
LINE
  8
0
 10
39.243
 11
39.744
 20
24.33
 21
24.437
  0
LINE
  8
0
 10
39.744
 11
40.256
 20
24.437
 21
24.437
  0
LINE
  8
0
 10
40.256
 11
40.757
 20
24.437
 21
24.33
  0
LINE
  8
0
 10
40.757
 11
41.225
 20
24.33
 21
24.122
  0
LINE
  8
0
 10
41.225
 11
41.639
 20
24.122
 21
23.821
  0
LINE
  8
0
 10
41.639
 11
41.982
 20
23.821
 21
23.44
  0
LINE
  8
0
 10
41.982
 11
42.238
 20
23.44
 21
22.997
  0
LINE
  8
0
 10
42.238
 11
42.396
 20
22.997
 21
22.509
  0
LINE
  8
0
 10
42.396
 11
42.45
 20
22.509
 21
22
  0
LINE
  8
0
 10
42.45
 11
42.396
 20
22
 21
21.491
  0
LINE
  8
0
 10
42.396
 11
42.238
 20
21.491
 21
21.003
  0
LINE
  8
0
 10
42.238
 11
41.982
 20
21.003
 21
20.56
  0
LINE
  8
0
 10
41.982
 11
41.639
 20
20.56
 21
20.179
  0
LINE
  8
0
 10
41.639
 11
41.225
 20
20.179
 21
19.878
  0
LINE
  8
0
 10
41.225
 11
40.757
 20
19.878
 21
19.67
  0
LINE
  8
0
 10
40.757
 11
40.256
 20
19.67
 21
19.563
  0
LINE
  8
0
 10
40.256
 11
39.744
 20
19.563
 21
19.563
  0
LINE
  8
0
 10
39.744
 11
39.243
 20
19.563
 21
19.67
  0
LINE
  8
0
 10
39.243
 11
38.775
 20
19.67
 21
19.878
  0
LINE
  8
0
 10
38.775
 11
38.361
 20
19.878
 21
20.179
  0
LINE
  8
0
 10
38.361
 11
38.018
 20
20.179
 21
20.56
  0
LINE
  8
0
 10
38.018
 11
37.762
 20
20.56
 21
21.003
  0
LINE
  8
0
 10
37.762
 11
37.604
 20
21.003
 21
21.491
  0
LINE
  8
0
 10
37.604
 11
37.55
 20
21.491
 21
22
  0
LINE
  8
0
 10
51.6
 11
51.631
 20
-13
 21
-12.709
  0
LINE
  8
0
 10
51.631
 11
51.721
 20
-12.709
 21
-12.431
  0
LINE
  8
0
 10
51.721
 11
51.867
 20
-12.431
 21
-12.177
  0
LINE
  8
0
 10
51.867
 11
52.063
 20
-12.177
 21
-11.96
  0
LINE
  8
0
 10
52.063
 11
52.3
 20
-11.96
 21
-11.788
  0
LINE
  8
0
 10
52.3
 11
52.567
 20
-11.788
 21
-11.669
  0
LINE
  8
0
 10
52.567
 11
52.854
 20
-11.669
 21
-11.608
  0
LINE
  8
0
 10
52.854
 11
53.146
 20
-11.608
 21
-11.608
  0
LINE
  8
0
 10
53.146
 11
53.433
 20
-11.608
 21
-11.669
  0
LINE
  8
0
 10
53.433
 11
53.7
 20
-11.669
 21
-11.788
  0
LINE
  8
0
 10
53.7
 11
53.937
 20
-11.788
 21
-11.96
  0
LINE
  8
0
 10
53.937
 11
54.133
 20
-11.96
 21
-12.177
  0
LINE
  8
0
 10
54.133
 11
54.279
 20
-12.177
 21
-12.431
  0
LINE
  8
0
 10
54.279
 11
54.369
 20
-12.431
 21
-12.709
  0
LINE
  8
0
 10
54.369
 11
54.4
 20
-12.709
 21
-13
  0
LINE
  8
0
 10
54.4
 11
54.369
 20
-13
 21
-13.291
  0
LINE
  8
0
 10
54.369
 11
54.279
 20
-13.291
 21
-13.569
  0
LINE
  8
0
 10
54.279
 11
54.133
 20
-13.569
 21
-13.823
  0
LINE
  8
0
 10
54.133
 11
53.937
 20
-13.823
 21
-14.04
  0
LINE
  8
0
 10
53.937
 11
53.7
 20
-14.04
 21
-14.212
  0
LINE
  8
0
 10
53.7
 11
53.433
 20
-14.212
 21
-14.331
  0
LINE
  8
0
 10
53.433
 11
53.146
 20
-14.331
 21
-14.392
  0
LINE
  8
0
 10
53.146
 11
52.854
 20
-14.392
 21
-14.392
  0
LINE
  8
0
 10
52.854
 11
52.567
 20
-14.392
 21
-14.331
  0
LINE
  8
0
 10
52.567
 11
52.3
 20
-14.331
 21
-14.212
  0
LINE
  8
0
 10
52.3
 11
52.063
 20
-14.212
 21
-14.04
  0
LINE
  8
0
 10
52.063
 11
51.867
 20
-14.04
 21
-13.823
  0
LINE
  8
0
 10
51.867
 11
51.721
 20
-13.823
 21
-13.569
  0
LINE
  8
0
 10
51.721
 11
51.631
 20
-13.569
 21
-13.291
  0
LINE
  8
0
 10
51.631
 11
51.6
 20
-13.291
 21
-13
  0
LINE
  8
0
 10
51.6
 11
51.631
 20
13
 21
13.291
  0
LINE
  8
0
 10
51.631
 11
51.721
 20
13.291
 21
13.569
  0
LINE
  8
0
 10
51.721
 11
51.867
 20
13.569
 21
13.823
  0
LINE
  8
0
 10
51.867
 11
52.063
 20
13.823
 21
14.04
  0
LINE
  8
0
 10
52.063
 11
52.3
 20
14.04
 21
14.212
  0
LINE
  8
0
 10
52.3
 11
52.567
 20
14.212
 21
14.331
  0
LINE
  8
0
 10
52.567
 11
52.854
 20
14.331
 21
14.392
  0
LINE
  8
0
 10
52.854
 11
53.146
 20
14.392
 21
14.392
  0
LINE
  8
0
 10
53.146
 11
53.433
 20
14.392
 21
14.331
  0
LINE
  8
0
 10
53.433
 11
53.7
 20
14.331
 21
14.212
  0
LINE
  8
0
 10
53.7
 11
53.937
 20
14.212
 21
14.04
  0
LINE
  8
0
 10
53.937
 11
54.133
 20
14.04
 21
13.823
  0
LINE
  8
0
 10
54.133
 11
54.279
 20
13.823
 21
13.569
  0
LINE
  8
0
 10
54.279
 11
54.369
 20
13.569
 21
13.291
  0
LINE
  8
0
 10
54.369
 11
54.4
 20
13.291
 21
13
  0
LINE
  8
0
 10
54.4
 11
54.369
 20
13
 21
12.709
  0
LINE
  8
0
 10
54.369
 11
54.279
 20
12.709
 21
12.431
  0
LINE
  8
0
 10
54.279
 11
54.133
 20
12.431
 21
12.177
  0
LINE
  8
0
 10
54.133
 11
53.937
 20
12.177
 21
11.96
  0
LINE
  8
0
 10
53.937
 11
53.7
 20
11.96
 21
11.788
  0
LINE
  8
0
 10
53.7
 11
53.433
 20
11.788
 21
11.669
  0
LINE
  8
0
 10
53.433
 11
53.146
 20
11.669
 21
11.608
  0
LINE
  8
0
 10
53.146
 11
52.854
 20
11.608
 21
11.608
  0
LINE
  8
0
 10
52.854
 11
52.567
 20
11.608
 21
11.669
  0
LINE
  8
0
 10
52.567
 11
52.3
 20
11.669
 21
11.788
  0
LINE
  8
0
 10
52.3
 11
52.063
 20
11.788
 21
11.96
  0
LINE
  8
0
 10
52.063
 11
51.867
 20
11.96
 21
12.177
  0
LINE
  8
0
 10
51.867
 11
51.721
 20
12.177
 21
12.431
  0
LINE
  8
0
 10
51.721
 11
51.631
 20
12.431
 21
12.709
  0
LINE
  8
0
 10
51.631
 11
51.6
 20
12.709
 21
13
  0
LINE
  8
0
 10
59.563
 11
59.563
 20
-0.256
 21
0.256
  0
LINE
  8
0
 10
59.563
 11
59.67
 20
0.256
 21
0.757
  0
LINE
  8
0
 10
59.67
 11
59.878
 20
0.757
 21
1.225
  0
LINE
  8
0
 10
59.878
 11
60.179
 20
1.225
 21
1.639
  0
LINE
  8
0
 10
60.179
 11
60.56
 20
1.639
 21
1.982
  0
LINE
  8
0
 10
60.56
 11
61.003
 20
1.982
 21
2.238
  0
LINE
  8
0
 10
61.003
 11
61.491
 20
2.238
 21
2.396
  0
LINE
  8
0
 10
61.491
 11
62
 20
2.396
 21
2.45
  0
LINE
  8
0
 10
62
 11
62.509
 20
2.45
 21
2.396
  0
LINE
  8
0
 10
62.509
 11
62.997
 20
2.396
 21
2.238
  0
LINE
  8
0
 10
62.997
 11
63.44
 20
2.238
 21
1.982
  0
LINE
  8
0
 10
63.44
 11
63.821
 20
1.982
 21
1.639
  0
LINE
  8
0
 10
63.821
 11
64.122
 20
1.639
 21
1.225
  0
LINE
  8
0
 10
64.122
 11
64.33
 20
1.225
 21
0.757
  0
LINE
  8
0
 10
64.33
 11
64.437
 20
0.757
 21
0.256
  0
LINE
  8
0
 10
64.437
 11
64.437
 20
0.256
 21
-0.256
  0
LINE
  8
0
 10
64.437
 11
64.33
 20
-0.256
 21
-0.757
  0
LINE
  8
0
 10
64.33
 11
64.122
 20
-0.757
 21
-1.225
  0
LINE
  8
0
 10
64.122
 11
63.821
 20
-1.225
 21
-1.639
  0
LINE
  8
0
 10
63.821
 11
63.44
 20
-1.639
 21
-1.982
  0
LINE
  8
0
 10
63.44
 11
62.997
 20
-1.982
 21
-2.238
  0
LINE
  8
0
 10
62.997
 11
62.509
 20
-2.238
 21
-2.396
  0
LINE
  8
0
 10
62.509
 11
62
 20
-2.396
 21
-2.45
  0
LINE
  8
0
 10
62
 11
61.491
 20
-2.45
 21
-2.396
  0
LINE
  8
0
 10
61.491
 11
61.003
 20
-2.396
 21
-2.238
  0
LINE
  8
0
 10
61.003
 11
60.56
 20
-2.238
 21
-1.982
  0
LINE
  8
0
 10
60.56
 11
60.179
 20
-1.982
 21
-1.639
  0
LINE
  8
0
 10
60.179
 11
59.878
 20
-1.639
 21
-1.225
  0
LINE
  8
0
 10
59.878
 11
59.67
 20
-1.225
 21
-0.757
  0
LINE
  8
0
 10
59.67
 11
59.563
 20
-0.757
 21
-0.256
  0
LINE
  8
0
 10
69
 11
69.568
 20
0
 21
5.406
  0
LINE
  8
0
 10
69.568
 11
71.248
 20
5.406
 21
10.575
  0
LINE
  8
0
 10
71.248
 11
73.966
 20
10.575
 21
15.282
  0
LINE
  8
0
 10
73.966
 11
77.603
 20
15.282
 21
19.322
  0
LINE
  8
0
 10
77.603
 11
82
 20
19.322
 21
22.517
  0
LINE
  8
0
 10
82
 11
86.966
 20
22.517
 21
24.727
  0
LINE
  8
0
 10
86.966
 11
92.282
 20
24.727
 21
25.858
  0
LINE
  8
0
 10
92.282
 11
97.718
 20
25.858
 21
25.858
  0
LINE
  8
0
 10
97.718
 11
103.034
 20
25.858
 21
24.727
  0
LINE
  8
0
 10
103.034
 11
108
 20
24.727
 21
22.517
  0
LINE
  8
0
 10
108
 11
112.397
 20
22.517
 21
19.322
  0
LINE
  8
0
 10
112.397
 11
116.034
 20
19.322
 21
15.282
  0
LINE
  8
0
 10
116.034
 11
118.752
 20
15.282
 21
10.575
  0
LINE
  8
0
 10
118.752
 11
120.432
 20
10.575
 21
5.406
  0
LINE
  8
0
 10
120.432
 11
121
 20
5.406
 21
0
  0
LINE
  8
0
 10
121
 11
120.432
 20
0
 21
-5.406
  0
LINE
  8
0
 10
120.432
 11
118.752
 20
-5.406
 21
-10.575
  0
LINE
  8
0
 10
118.752
 11
116.034
 20
-10.575
 21
-15.282
  0
LINE
  8
0
 10
116.034
 11
113.587
 20
-15.282
 21
-18
  0
LINE
  8
0
 10
113.587
 11
76.413
 20
-18
 21
-18
  0
LINE
  8
0
 10
76.413
 11
73.966
 20
-18
 21
-15.282
  0
LINE
  8
0
 10
73.966
 11
71.248
 20
-15.282
 21
-10.575
  0
LINE
  8
0
 10
71.248
 11
69.568
 20
-10.575
 21
-5.406
  0
LINE
  8
0
 10
69.568
 11
69
 20
-5.406
 21
0
  0
LINE
  8
0
 10
70.563
 11
70.563
 20
-0.256
 21
0.256
  0
LINE
  8
0
 10
70.563
 11
70.67
 20
0.256
 21
0.757
  0
LINE
  8
0
 10
70.67
 11
70.878
 20
0.757
 21
1.225
  0
LINE
  8
0
 10
70.878
 11
71.179
 20
1.225
 21
1.639
  0
LINE
  8
0
 10
71.179
 11
71.56
 20
1.639
 21
1.982
  0
LINE
  8
0
 10
71.56
 11
72.003
 20
1.982
 21
2.238
  0
LINE
  8
0
 10
72.003
 11
72.491
 20
2.238
 21
2.396
  0
LINE
  8
0
 10
72.491
 11
73
 20
2.396
 21
2.45
  0
LINE
  8
0
 10
73
 11
73.509
 20
2.45
 21
2.396
  0
LINE
  8
0
 10
73.509
 11
73.997
 20
2.396
 21
2.238
  0
LINE
  8
0
 10
73.997
 11
74.44
 20
2.238
 21
1.982
  0
LINE
  8
0
 10
74.44
 11
74.821
 20
1.982
 21
1.639
  0
LINE
  8
0
 10
74.821
 11
75.122
 20
1.639
 21
1.225
  0
LINE
  8
0
 10
75.122
 11
75.33
 20
1.225
 21
0.757
  0
LINE
  8
0
 10
75.33
 11
75.437
 20
0.757
 21
0.256
  0
LINE
  8
0
 10
75.437
 11
75.437
 20
0.256
 21
-0.256
  0
LINE
  8
0
 10
75.437
 11
75.33
 20
-0.256
 21
-0.757
  0
LINE
  8
0
 10
75.33
 11
75.122
 20
-0.757
 21
-1.225
  0
LINE
  8
0
 10
75.122
 11
74.821
 20
-1.225
 21
-1.639
  0
LINE
  8
0
 10
74.821
 11
74.44
 20
-1.639
 21
-1.982
  0
LINE
  8
0
 10
74.44
 11
73.997
 20
-1.982
 21
-2.238
  0
LINE
  8
0
 10
73.997
 11
73.509
 20
-2.238
 21
-2.396
  0
LINE
  8
0
 10
73.509
 11
73
 20
-2.396
 21
-2.45
  0
LINE
  8
0
 10
73
 11
72.491
 20
-2.45
 21
-2.396
  0
LINE
  8
0
 10
72.491
 11
72.003
 20
-2.396
 21
-2.238
  0
LINE
  8
0
 10
72.003
 11
71.56
 20
-2.238
 21
-1.982
  0
LINE
  8
0
 10
71.56
 11
71.179
 20
-1.982
 21
-1.639
  0
LINE
  8
0
 10
71.179
 11
70.878
 20
-1.639
 21
-1.225
  0
LINE
  8
0
 10
70.878
 11
70.67
 20
-1.225
 21
-0.757
  0
LINE
  8
0
 10
70.67
 11
70.563
 20
-0.757
 21
-0.256
  0
LINE
  8
0
 10
80.6
 11
80.631
 20
-13
 21
-12.709
  0
LINE
  8
0
 10
80.631
 11
80.721
 20
-12.709
 21
-12.431
  0
LINE
  8
0
 10
80.721
 11
80.867
 20
-12.431
 21
-12.177
  0
LINE
  8
0
 10
80.867
 11
81.063
 20
-12.177
 21
-11.96
  0
LINE
  8
0
 10
81.063
 11
81.3
 20
-11.96
 21
-11.788
  0
LINE
  8
0
 10
81.3
 11
81.567
 20
-11.788
 21
-11.669
  0
LINE
  8
0
 10
81.567
 11
81.854
 20
-11.669
 21
-11.608
  0
LINE
  8
0
 10
81.854
 11
82.146
 20
-11.608
 21
-11.608
  0
LINE
  8
0
 10
82.146
 11
82.433
 20
-11.608
 21
-11.669
  0
LINE
  8
0
 10
82.433
 11
82.7
 20
-11.669
 21
-11.788
  0
LINE
  8
0
 10
82.7
 11
82.937
 20
-11.788
 21
-11.96
  0
LINE
  8
0
 10
82.937
 11
83.133
 20
-11.96
 21
-12.177
  0
LINE
  8
0
 10
83.133
 11
83.279
 20
-12.177
 21
-12.431
  0
LINE
  8
0
 10
83.279
 11
83.369
 20
-12.431
 21
-12.709
  0
LINE
  8
0
 10
83.369
 11
83.4
 20
-12.709
 21
-13
  0
LINE
  8
0
 10
83.4
 11
83.369
 20
-13
 21
-13.291
  0
LINE
  8
0
 10
83.369
 11
83.279
 20
-13.291
 21
-13.569
  0
LINE
  8
0
 10
83.279
 11
83.133
 20
-13.569
 21
-13.823
  0
LINE
  8
0
 10
83.133
 11
82.937
 20
-13.823
 21
-14.04
  0
LINE
  8
0
 10
82.937
 11
82.7
 20
-14.04
 21
-14.212
  0
LINE
  8
0
 10
82.7
 11
82.433
 20
-14.212
 21
-14.331
  0
LINE
  8
0
 10
82.433
 11
82.146
 20
-14.331
 21
-14.392
  0
LINE
  8
0
 10
82.146
 11
81.854
 20
-14.392
 21
-14.392
  0
LINE
  8
0
 10
81.854
 11
81.567
 20
-14.392
 21
-14.331
  0
LINE
  8
0
 10
81.567
 11
81.3
 20
-14.331
 21
-14.212
  0
LINE
  8
0
 10
81.3
 11
81.063
 20
-14.212
 21
-14.04
  0
LINE
  8
0
 10
81.063
 11
80.867
 20
-14.04
 21
-13.823
  0
LINE
  8
0
 10
80.867
 11
80.721
 20
-13.823
 21
-13.569
  0
LINE
  8
0
 10
80.721
 11
80.631
 20
-13.569
 21
-13.291
  0
LINE
  8
0
 10
80.631
 11
80.6
 20
-13.291
 21
-13
  0
LINE
  8
0
 10
80.6
 11
80.631
 20
13
 21
13.291
  0
LINE
  8
0
 10
80.631
 11
80.721
 20
13.291
 21
13.569
  0
LINE
  8
0
 10
80.721
 11
80.867
 20
13.569
 21
13.823
  0
LINE
  8
0
 10
80.867
 11
81.063
 20
13.823
 21
14.04
  0
LINE
  8
0
 10
81.063
 11
81.3
 20
14.04
 21
14.212
  0
LINE
  8
0
 10
81.3
 11
81.567
 20
14.212
 21
14.331
  0
LINE
  8
0
 10
81.567
 11
81.854
 20
14.331
 21
14.392
  0
LINE
  8
0
 10
81.854
 11
82.146
 20
14.392
 21
14.392
  0
LINE
  8
0
 10
82.146
 11
82.433
 20
14.392
 21
14.331
  0
LINE
  8
0
 10
82.433
 11
82.7
 20
14.331
 21
14.212
  0
LINE
  8
0
 10
82.7
 11
82.937
 20
14.212
 21
14.04
  0
LINE
  8
0
 10
82.937
 11
83.133
 20
14.04
 21
13.823
  0
LINE
  8
0
 10
83.133
 11
83.279
 20
13.823
 21
13.569
  0
LINE
  8
0
 10
83.279
 11
83.369
 20
13.569
 21
13.291
  0
LINE
  8
0
 10
83.369
 11
83.4
 20
13.291
 21
13
  0
LINE
  8
0
 10
83.4
 11
83.369
 20
13
 21
12.709
  0
LINE
  8
0
 10
83.369
 11
83.279
 20
12.709
 21
12.431
  0
LINE
  8
0
 10
83.279
 11
83.133
 20
12.431
 21
12.177
  0
LINE
  8
0
 10
83.133
 11
82.937
 20
12.177
 21
11.96
  0
LINE
  8
0
 10
82.937
 11
82.7
 20
11.96
 21
11.788
  0
LINE
  8
0
 10
82.7
 11
82.433
 20
11.788
 21
11.669
  0
LINE
  8
0
 10
82.433
 11
82.146
 20
11.669
 21
11.608
  0
LINE
  8
0
 10
82.146
 11
81.854
 20
11.608
 21
11.608
  0
LINE
  8
0
 10
81.854
 11
81.567
 20
11.608
 21
11.669
  0
LINE
  8
0
 10
81.567
 11
81.3
 20
11.669
 21
11.788
  0
LINE
  8
0
 10
81.3
 11
81.063
 20
11.788
 21
11.96
  0
LINE
  8
0
 10
81.063
 11
80.867
 20
11.96
 21
12.177
  0
LINE
  8
0
 10
80.867
 11
80.721
 20
12.177
 21
12.431
  0
LINE
  8
0
 10
80.721
 11
80.631
 20
12.431
 21
12.709
  0
LINE
  8
0
 10
80.631
 11
80.6
 20
12.709
 21
13
  0
LINE
  8
0
 10
82.865
 11
82.889
 20
0
 21
0.762
  0
LINE
  8
0
 10
82.889
 11
82.961
 20
0.762
 21
1.521
  0
LINE
  8
0
 10
82.961
 11
83.08
 20
1.521
 21
2.274
  0
LINE
  8
0
 10
83.08
 11
83.246
 20
2.274
 21
3.018
  0
LINE
  8
0
 10
83.246
 11
83.459
 20
3.018
 21
3.75
  0
LINE
  8
0
 10
83.459
 11
83.717
 20
3.75
 21
4.467
  0
LINE
  8
0
 10
83.717
 11
84.02
 20
4.467
 21
5.167
  0
LINE
  8
0
 10
84.02
 11
84.366
 20
5.167
 21
5.846
  0
LINE
  8
0
 10
84.366
 11
84.754
 20
5.846
 21
6.502
  0
LINE
  8
0
 10
84.754
 11
85.183
 20
6.502
 21
7.133
  0
LINE
  8
0
 10
85.183
 11
85.65
 20
7.133
 21
7.735
  0
LINE
  8
0
 10
85.65
 11
86.154
 20
7.735
 21
8.307
  0
LINE
  8
0
 10
86.154
 11
86.693
 20
8.307
 21
8.846
  0
LINE
  8
0
 10
86.693
 11
87.265
 20
8.846
 21
9.35
  0
LINE
  8
0
 10
87.265
 11
87.867
 20
9.35
 21
9.817
  0
LINE
  8
0
 10
87.867
 11
88.498
 20
9.817
 21
10.246
  0
LINE
  8
0
 10
88.498
 11
89.154
 20
10.246
 21
10.634
  0
LINE
  8
0
 10
89.154
 11
89.833
 20
10.634
 21
10.98
  0
LINE
  8
0
 10
89.833
 11
90.533
 20
10.98
 21
11.283
  0
LINE
  8
0
 10
90.533
 11
91.25
 20
11.283
 21
11.541
  0
LINE
  8
0
 10
91.25
 11
91.982
 20
11.541
 21
11.754
  0
LINE
  8
0
 10
91.982
 11
92.726
 20
11.754
 21
11.92
  0
LINE
  8
0
 10
92.726
 11
93.479
 20
11.92
 21
12.039
  0
LINE
  8
0
 10
93.479
 11
94.238
 20
12.039
 21
12.111
  0
LINE
  8
0
 10
94.238
 11
95
 20
12.111
 21
12.135
  0
LINE
  8
0
 10
95
 11
95.762
 20
12.135
 21
12.111
  0
LINE
  8
0
 10
95.762
 11
96.521
 20
12.111
 21
12.039
  0
LINE
  8
0
 10
96.521
 11
97.274
 20
12.039
 21
11.92
  0
LINE
  8
0
 10
97.274
 11
98.018
 20
11.92
 21
11.754
  0
LINE
  8
0
 10
98.018
 11
98.75
 20
11.754
 21
11.541
  0
LINE
  8
0
 10
98.75
 11
99.467
 20
11.541
 21
11.283
  0
LINE
  8
0
 10
99.467
 11
100.167
 20
11.283
 21
10.98
  0
LINE
  8
0
 10
100.167
 11
100.846
 20
10.98
 21
10.634
  0
LINE
  8
0
 10
100.846
 11
101.502
 20
10.634
 21
10.246
  0
LINE
  8
0
 10
101.502
 11
102.133
 20
10.246
 21
9.817
  0
LINE
  8
0
 10
102.133
 11
102.735
 20
9.817
 21
9.35
  0
LINE
  8
0
 10
102.735
 11
103.307
 20
9.35
 21
8.846
  0
LINE
  8
0
 10
103.307
 11
103.846
 20
8.846
 21
8.307
  0
LINE
  8
0
 10
103.846
 11
104.35
 20
8.307
 21
7.735
  0
LINE
  8
0
 10
104.35
 11
104.817
 20
7.735
 21
7.133
  0
LINE
  8
0
 10
104.817
 11
105.246
 20
7.133
 21
6.502
  0
LINE
  8
0
 10
105.246
 11
105.634
 20
6.502
 21
5.846
  0
LINE
  8
0
 10
105.634
 11
105.98
 20
5.846
 21
5.167
  0
LINE
  8
0
 10
105.98
 11
106.283
 20
5.167
 21
4.467
  0
LINE
  8
0
 10
106.283
 11
106.541
 20
4.467
 21
3.75
  0
LINE
  8
0
 10
106.541
 11
106.754
 20
3.75
 21
3.018
  0
LINE
  8
0
 10
106.754
 11
106.92
 20
3.018
 21
2.274
  0
LINE
  8
0
 10
106.92
 11
107.039
 20
2.274
 21
1.521
  0
LINE
  8
0
 10
107.039
 11
107.111
 20
1.521
 21
0.762
  0
LINE
  8
0
 10
107.111
 11
107.135
 20
0.762
 21
0
  0
LINE
  8
0
 10
107.135
 11
107.111
 20
0
 21
-0.762
  0
LINE
  8
0
 10
107.111
 11
107.039
 20
-0.762
 21
-1.521
  0
LINE
  8
0
 10
107.039
 11
106.92
 20
-1.521
 21
-2.274
  0
LINE
  8
0
 10
106.92
 11
106.754
 20
-2.274
 21
-3.018
  0
LINE
  8
0
 10
106.754
 11
106.541
 20
-3.018
 21
-3.75
  0
LINE
  8
0
 10
106.541
 11
106.283
 20
-3.75
 21
-4.467
  0
LINE
  8
0
 10
106.283
 11
105.98
 20
-4.467
 21
-5.167
  0
LINE
  8
0
 10
105.98
 11
105.634
 20
-5.167
 21
-5.846
  0
LINE
  8
0
 10
105.634
 11
105.246
 20
-5.846
 21
-6.502
  0
LINE
  8
0
 10
105.246
 11
104.817
 20
-6.502
 21
-7.133
  0
LINE
  8
0
 10
104.817
 11
104.35
 20
-7.133
 21
-7.735
  0
LINE
  8
0
 10
104.35
 11
103.846
 20
-7.735
 21
-8.307
  0
LINE
  8
0
 10
103.846
 11
103.307
 20
-8.307
 21
-8.846
  0
LINE
  8
0
 10
103.307
 11
102.735
 20
-8.846
 21
-9.35
  0
LINE
  8
0
 10
102.735
 11
102.133
 20
-9.35
 21
-9.817
  0
LINE
  8
0
 10
102.133
 11
101.502
 20
-9.817
 21
-10.246
  0
LINE
  8
0
 10
101.502
 11
100.846
 20
-10.246
 21
-10.634
  0
LINE
  8
0
 10
100.846
 11
100.167
 20
-10.634
 21
-10.98
  0
LINE
  8
0
 10
100.167
 11
99.467
 20
-10.98
 21
-11.283
  0
LINE
  8
0
 10
99.467
 11
98.75
 20
-11.283
 21
-11.541
  0
LINE
  8
0
 10
98.75
 11
98.018
 20
-11.541
 21
-11.754
  0
LINE
  8
0
 10
98.018
 11
97.274
 20
-11.754
 21
-11.92
  0
LINE
  8
0
 10
97.274
 11
96.521
 20
-11.92
 21
-12.039
  0
LINE
  8
0
 10
96.521
 11
95.762
 20
-12.039
 21
-12.111
  0
LINE
  8
0
 10
95.762
 11
95
 20
-12.111
 21
-12.135
  0
LINE
  8
0
 10
95
 11
94.238
 20
-12.135
 21
-12.111
  0
LINE
  8
0
 10
94.238
 11
93.479
 20
-12.111
 21
-12.039
  0
LINE
  8
0
 10
93.479
 11
92.726
 20
-12.039
 21
-11.92
  0
LINE
  8
0
 10
92.726
 11
91.982
 20
-11.92
 21
-11.754
  0
LINE
  8
0
 10
91.982
 11
91.25
 20
-11.754
 21
-11.541
  0
LINE
  8
0
 10
91.25
 11
90.533
 20
-11.541
 21
-11.283
  0
LINE
  8
0
 10
90.533
 11
89.833
 20
-11.283
 21
-10.98
  0
LINE
  8
0
 10
89.833
 11
89.154
 20
-10.98
 21
-10.634
  0
LINE
  8
0
 10
89.154
 11
88.498
 20
-10.634
 21
-10.246
  0
LINE
  8
0
 10
88.498
 11
87.867
 20
-10.246
 21
-9.817
  0
LINE
  8
0
 10
87.867
 11
87.265
 20
-9.817
 21
-9.35
  0
LINE
  8
0
 10
87.265
 11
86.693
 20
-9.35
 21
-8.846
  0
LINE
  8
0
 10
86.693
 11
86.154
 20
-8.846
 21
-8.307
  0
LINE
  8
0
 10
86.154
 11
85.65
 20
-8.307
 21
-7.735
  0
LINE
  8
0
 10
85.65
 11
85.183
 20
-7.735
 21
-7.133
  0
LINE
  8
0
 10
85.183
 11
84.754
 20
-7.133
 21
-6.502
  0
LINE
  8
0
 10
84.754
 11
84.366
 20
-6.502
 21
-5.846
  0
LINE
  8
0
 10
84.366
 11
84.02
 20
-5.846
 21
-5.167
  0
LINE
  8
0
 10
84.02
 11
83.717
 20
-5.167
 21
-4.467
  0
LINE
  8
0
 10
83.717
 11
83.459
 20
-4.467
 21
-3.75
  0
LINE
  8
0
 10
83.459
 11
83.246
 20
-3.75
 21
-3.018
  0
LINE
  8
0
 10
83.246
 11
83.08
 20
-3.018
 21
-2.274
  0
LINE
  8
0
 10
83.08
 11
82.961
 20
-2.274
 21
-1.521
  0
LINE
  8
0
 10
82.961
 11
82.889
 20
-1.521
 21
-0.762
  0
LINE
  8
0
 10
82.889
 11
82.865
 20
-0.762
 21
0
  0
LINE
  8
0
 10
92.55
 11
92.604
 20
22
 21
22.509
  0
LINE
  8
0
 10
92.604
 11
92.762
 20
22.509
 21
22.997
  0
LINE
  8
0
 10
92.762
 11
93.018
 20
22.997
 21
23.44
  0
LINE
  8
0
 10
93.018
 11
93.361
 20
23.44
 21
23.821
  0
LINE
  8
0
 10
93.361
 11
93.775
 20
23.821
 21
24.122
  0
LINE
  8
0
 10
93.775
 11
94.243
 20
24.122
 21
24.33
  0
LINE
  8
0
 10
94.243
 11
94.744
 20
24.33
 21
24.437
  0
LINE
  8
0
 10
94.744
 11
95.256
 20
24.437
 21
24.437
  0
LINE
  8
0
 10
95.256
 11
95.757
 20
24.437
 21
24.33
  0
LINE
  8
0
 10
95.757
 11
96.225
 20
24.33
 21
24.122
  0
LINE
  8
0
 10
96.225
 11
96.639
 20
24.122
 21
23.821
  0
LINE
  8
0
 10
96.639
 11
96.982
 20
23.821
 21
23.44
  0
LINE
  8
0
 10
96.982
 11
97.238
 20
23.44
 21
22.997
  0
LINE
  8
0
 10
97.238
 11
97.396
 20
22.997
 21
22.509
  0
LINE
  8
0
 10
97.396
 11
97.45
 20
22.509
 21
22
  0
LINE
  8
0
 10
97.45
 11
97.396
 20
22
 21
21.491
  0
LINE
  8
0
 10
97.396
 11
97.238
 20
21.491
 21
21.003
  0
LINE
  8
0
 10
97.238
 11
96.982
 20
21.003
 21
20.56
  0
LINE
  8
0
 10
96.982
 11
96.639
 20
20.56
 21
20.179
  0
LINE
  8
0
 10
96.639
 11
96.225
 20
20.179
 21
19.878
  0
LINE
  8
0
 10
96.225
 11
95.757
 20
19.878
 21
19.67
  0
LINE
  8
0
 10
95.757
 11
95.256
 20
19.67
 21
19.563
  0
LINE
  8
0
 10
95.256
 11
94.744
 20
19.563
 21
19.563
  0
LINE
  8
0
 10
94.744
 11
94.243
 20
19.563
 21
19.67
  0
LINE
  8
0
 10
94.243
 11
93.775
 20
19.67
 21
19.878
  0
LINE
  8
0
 10
93.775
 11
93.361
 20
19.878
 21
20.179
  0
LINE
  8
0
 10
93.361
 11
93.018
 20
20.179
 21
20.56
  0
LINE
  8
0
 10
93.018
 11
92.762
 20
20.56
 21
21.003
  0
LINE
  8
0
 10
92.762
 11
92.604
 20
21.003
 21
21.491
  0
LINE
  8
0
 10
92.604
 11
92.55
 20
21.491
 21
22
  0
LINE
  8
0
 10
106.6
 11
106.631
 20
-13
 21
-12.709
  0
LINE
  8
0
 10
106.631
 11
106.721
 20
-12.709
 21
-12.431
  0
LINE
  8
0
 10
106.721
 11
106.867
 20
-12.431
 21
-12.177
  0
LINE
  8
0
 10
106.867
 11
107.063
 20
-12.177
 21
-11.96
  0
LINE
  8
0
 10
107.063
 11
107.3
 20
-11.96
 21
-11.788
  0
LINE
  8
0
 10
107.3
 11
107.567
 20
-11.788
 21
-11.669
  0
LINE
  8
0
 10
107.567
 11
107.854
 20
-11.669
 21
-11.608
  0
LINE
  8
0
 10
107.854
 11
108.146
 20
-11.608
 21
-11.608
  0
LINE
  8
0
 10
108.146
 11
108.433
 20
-11.608
 21
-11.669
  0
LINE
  8
0
 10
108.433
 11
108.7
 20
-11.669
 21
-11.788
  0
LINE
  8
0
 10
108.7
 11
108.937
 20
-11.788
 21
-11.96
  0
LINE
  8
0
 10
108.937
 11
109.133
 20
-11.96
 21
-12.177
  0
LINE
  8
0
 10
109.133
 11
109.279
 20
-12.177
 21
-12.431
  0
LINE
  8
0
 10
109.279
 11
109.369
 20
-12.431
 21
-12.709
  0
LINE
  8
0
 10
109.369
 11
109.4
 20
-12.709
 21
-13
  0
LINE
  8
0
 10
109.4
 11
109.369
 20
-13
 21
-13.291
  0
LINE
  8
0
 10
109.369
 11
109.279
 20
-13.291
 21
-13.569
  0
LINE
  8
0
 10
109.279
 11
109.133
 20
-13.569
 21
-13.823
  0
LINE
  8
0
 10
109.133
 11
108.937
 20
-13.823
 21
-14.04
  0
LINE
  8
0
 10
108.937
 11
108.7
 20
-14.04
 21
-14.212
  0
LINE
  8
0
 10
108.7
 11
108.433
 20
-14.212
 21
-14.331
  0
LINE
  8
0
 10
108.433
 11
108.146
 20
-14.331
 21
-14.392
  0
LINE
  8
0
 10
108.146
 11
107.854
 20
-14.392
 21
-14.392
  0
LINE
  8
0
 10
107.854
 11
107.567
 20
-14.392
 21
-14.331
  0
LINE
  8
0
 10
107.567
 11
107.3
 20
-14.331
 21
-14.212
  0
LINE
  8
0
 10
107.3
 11
107.063
 20
-14.212
 21
-14.04
  0
LINE
  8
0
 10
107.063
 11
106.867
 20
-14.04
 21
-13.823
  0
LINE
  8
0
 10
106.867
 11
106.721
 20
-13.823
 21
-13.569
  0
LINE
  8
0
 10
106.721
 11
106.631
 20
-13.569
 21
-13.291
  0
LINE
  8
0
 10
106.631
 11
106.6
 20
-13.291
 21
-13
  0
LINE
  8
0
 10
106.6
 11
106.631
 20
13
 21
13.291
  0
LINE
  8
0
 10
106.631
 11
106.721
 20
13.291
 21
13.569
  0
LINE
  8
0
 10
106.721
 11
106.867
 20
13.569
 21
13.823
  0
LINE
  8
0
 10
106.867
 11
107.063
 20
13.823
 21
14.04
  0
LINE
  8
0
 10
107.063
 11
107.3
 20
14.04
 21
14.212
  0
LINE
  8
0
 10
107.3
 11
107.567
 20
14.212
 21
14.331
  0
LINE
  8
0
 10
107.567
 11
107.854
 20
14.331
 21
14.392
  0
LINE
  8
0
 10
107.854
 11
108.146
 20
14.392
 21
14.392
  0
LINE
  8
0
 10
108.146
 11
108.433
 20
14.392
 21
14.331
  0
LINE
  8
0
 10
108.433
 11
108.7
 20
14.331
 21
14.212
  0
LINE
  8
0
 10
108.7
 11
108.937
 20
14.212
 21
14.04
  0
LINE
  8
0
 10
108.937
 11
109.133
 20
14.04
 21
13.823
  0
LINE
  8
0
 10
109.133
 11
109.279
 20
13.823
 21
13.569
  0
LINE
  8
0
 10
109.279
 11
109.369
 20
13.569
 21
13.291
  0
LINE
  8
0
 10
109.369
 11
109.4
 20
13.291
 21
13
  0
LINE
  8
0
 10
109.4
 11
109.369
 20
13
 21
12.709
  0
LINE
  8
0
 10
109.369
 11
109.279
 20
12.709
 21
12.431
  0
LINE
  8
0
 10
109.279
 11
109.133
 20
12.431
 21
12.177
  0
LINE
  8
0
 10
109.133
 11
108.937
 20
12.177
 21
11.96
  0
LINE
  8
0
 10
108.937
 11
108.7
 20
11.96
 21
11.788
  0
LINE
  8
0
 10
108.7
 11
108.433
 20
11.788
 21
11.669
  0
LINE
  8
0
 10
108.433
 11
108.146
 20
11.669
 21
11.608
  0
LINE
  8
0
 10
108.146
 11
107.854
 20
11.608
 21
11.608
  0
LINE
  8
0
 10
107.854
 11
107.567
 20
11.608
 21
11.669
  0
LINE
  8
0
 10
107.567
 11
107.3
 20
11.669
 21
11.788
  0
LINE
  8
0
 10
107.3
 11
107.063
 20
11.788
 21
11.96
  0
LINE
  8
0
 10
107.063
 11
106.867
 20
11.96
 21
12.177
  0
LINE
  8
0
 10
106.867
 11
106.721
 20
12.177
 21
12.431
  0
LINE
  8
0
 10
106.721
 11
106.631
 20
12.431
 21
12.709
  0
LINE
  8
0
 10
106.631
 11
106.6
 20
12.709
 21
13
  0
LINE
  8
0
 10
114.563
 11
114.563
 20
-0.256
 21
0.256
  0
LINE
  8
0
 10
114.563
 11
114.67
 20
0.256
 21
0.757
  0
LINE
  8
0
 10
114.67
 11
114.878
 20
0.757
 21
1.225
  0
LINE
  8
0
 10
114.878
 11
115.179
 20
1.225
 21
1.639
  0
LINE
  8
0
 10
115.179
 11
115.56
 20
1.639
 21
1.982
  0
LINE
  8
0
 10
115.56
 11
116.003
 20
1.982
 21
2.238
  0
LINE
  8
0
 10
116.003
 11
116.491
 20
2.238
 21
2.396
  0
LINE
  8
0
 10
116.491
 11
117
 20
2.396
 21
2.45
  0
LINE
  8
0
 10
117
 11
117.509
 20
2.45
 21
2.396
  0
LINE
  8
0
 10
117.509
 11
117.997
 20
2.396
 21
2.238
  0
LINE
  8
0
 10
117.997
 11
118.44
 20
2.238
 21
1.982
  0
LINE
  8
0
 10
118.44
 11
118.821
 20
1.982
 21
1.639
  0
LINE
  8
0
 10
118.821
 11
119.122
 20
1.639
 21
1.225
  0
LINE
  8
0
 10
119.122
 11
119.33
 20
1.225
 21
0.757
  0
LINE
  8
0
 10
119.33
 11
119.437
 20
0.757
 21
0.256
  0
LINE
  8
0
 10
119.437
 11
119.437
 20
0.256
 21
-0.256
  0
LINE
  8
0
 10
119.437
 11
119.33
 20
-0.256
 21
-0.757
  0
LINE
  8
0
 10
119.33
 11
119.122
 20
-0.757
 21
-1.225
  0
LINE
  8
0
 10
119.122
 11
118.821
 20
-1.225
 21
-1.639
  0
LINE
  8
0
 10
118.821
 11
118.44
 20
-1.639
 21
-1.982
  0
LINE
  8
0
 10
118.44
 11
117.997
 20
-1.982
 21
-2.238
  0
LINE
  8
0
 10
117.997
 11
117.509
 20
-2.238
 21
-2.396
  0
LINE
  8
0
 10
117.509
 11
117
 20
-2.396
 21
-2.45
  0
LINE
  8
0
 10
117
 11
116.491
 20
-2.45
 21
-2.396
  0
LINE
  8
0
 10
116.491
 11
116.003
 20
-2.396
 21
-2.238
  0
LINE
  8
0
 10
116.003
 11
115.56
 20
-2.238
 21
-1.982
  0
LINE
  8
0
 10
115.56
 11
115.179
 20
-1.982
 21
-1.639
  0
LINE
  8
0
 10
115.179
 11
114.878
 20
-1.639
 21
-1.225
  0
LINE
  8
0
 10
114.878
 11
114.67
 20
-1.225
 21
-0.757
  0
LINE
  8
0
 10
114.67
 11
114.563
 20
-0.757
 21
-0.256
  0
ENDSEC
  0
SECTION
  2
OBJECTS
  0
DICTIONARY
  0
ENDSEC
  0
EOF
