  0
SECTION
  2
BLOCKS
  0
ENDSEC
  0
SECTION
  2
ENTITIES
  0
LINE
  8
0
 10
-61.15
 11
-60.688
 20
0
 21
4.397
  0
LINE
  8
0
 10
-60.688
 11
-59.321
 20
4.397
 21
8.602
  0
LINE
  8
0
 10
-59.321
 11
-58.2
 20
8.602
 21
10.545
  0
LINE
  8
0
 10
-58.2
 11
-58.2
 20
10.545
 21
18.2
  0
LINE
  8
0
 10
-58.2
 11
-50.735
 20
18.2
 21
18.2
  0
LINE
  8
0
 10
-50.735
 11
-50.575
 20
18.2
 21
18.316
  0
LINE
  8
0
 10
-50.575
 11
-46.536
 20
18.316
 21
20.115
  0
LINE
  8
0
 10
-46.536
 11
-44.45
 20
20.115
 21
20.558
  0
LINE
  8
0
 10
-44.45
 11
-44.45
 20
20.558
 21
30.6
  0
LINE
  8
0
 10
-44.45
 11
-35.55
 20
30.6
 21
30.6
  0
LINE
  8
0
 10
-35.55
 11
-35.55
 20
30.6
 21
20.558
  0
LINE
  8
0
 10
-35.55
 11
-33.464
 20
20.558
 21
20.115
  0
LINE
  8
0
 10
-33.464
 11
-29.425
 20
20.115
 21
18.316
  0
LINE
  8
0
 10
-29.425
 11
-29.265
 20
18.316
 21
18.2
  0
LINE
  8
0
 10
-29.265
 11
-21.8
 20
18.2
 21
18.2
  0
LINE
  8
0
 10
-21.8
 11
-21.8
 20
18.2
 21
10.545
  0
LINE
  8
0
 10
-21.8
 11
-20.679
 20
10.545
 21
8.602
  0
LINE
  8
0
 10
-20.679
 11
-19.312
 20
8.602
 21
4.397
  0
LINE
  8
0
 10
-19.312
 11
-18.85
 20
4.397
 21
0
  0
LINE
  8
0
 10
-18.85
 11
-21.8
 20
0
 21
0
  0
LINE
  8
0
 10
-21.8
 11
-21.8
 20
0
 21
-18.2
  0
LINE
  8
0
 10
-21.8
 11
-58.2
 20
-18.2
 21
-18.2
  0
LINE
  8
0
 10
-58.2
 11
-58.2
 20
-18.2
 21
0
  0
LINE
  8
0
 10
-58.2
 11
-61.15
 20
0
 21
0
  0
LINE
  8
0
 10
-58.867
 11
-58.841
 20
4.272
 21
4.783
  0
LINE
  8
0
 10
-58.841
 11
-58.708
 20
4.783
 21
5.278
  0
LINE
  8
0
 10
-58.708
 11
-58.475
 20
5.278
 21
5.734
  0
LINE
  8
0
 10
-58.475
 11
-58.153
 20
5.734
 21
6.132
  0
LINE
  8
0
 10
-58.153
 11
-57.755
 20
6.132
 21
6.454
  0
LINE
  8
0
 10
-57.755
 11
-57.299
 20
6.454
 21
6.687
  0
LINE
  8
0
 10
-57.299
 11
-56.805
 20
6.687
 21
6.82
  0
LINE
  8
0
 10
-56.805
 11
-56.292
 20
6.82
 21
6.846
  0
LINE
  8
0
 10
-56.292
 11
-55.787
 20
6.846
 21
6.766
  0
LINE
  8
0
 10
-55.787
 11
-55.309
 20
6.766
 21
6.583
  0
LINE
  8
0
 10
-55.309
 11
-54.878
 20
6.583
 21
6.304
  0
LINE
  8
0
 10
-54.878
 11
-54.517
 20
6.304
 21
5.942
  0
LINE
  8
0
 10
-54.517
 11
-54.238
 20
5.942
 21
5.512
  0
LINE
  8
0
 10
-54.238
 11
-54.054
 20
5.512
 21
5.034
  0
LINE
  8
0
 10
-54.054
 11
-53.974
 20
5.034
 21
4.528
  0
LINE
  8
0
 10
-53.974
 11
-54.001
 20
4.528
 21
4.016
  0
LINE
  8
0
 10
-54.001
 11
-54.133
 20
4.016
 21
3.522
  0
LINE
  8
0
 10
-54.133
 11
-54.366
 20
3.522
 21
3.066
  0
LINE
  8
0
 10
-54.366
 11
-54.688
 20
3.066
 21
2.667
  0
LINE
  8
0
 10
-54.688
 11
-55.086
 20
2.667
 21
2.345
  0
LINE
  8
0
 10
-55.086
 11
-55.543
 20
2.345
 21
2.113
  0
LINE
  8
0
 10
-55.543
 11
-56.037
 20
2.113
 21
1.98
  0
LINE
  8
0
 10
-56.037
 11
-56.549
 20
1.98
 21
1.954
  0
LINE
  8
0
 10
-56.549
 11
-57.055
 20
1.954
 21
2.033
  0
LINE
  8
0
 10
-57.055
 11
-57.533
 20
2.033
 21
2.217
  0
LINE
  8
0
 10
-57.533
 11
-57.963
 20
2.217
 21
2.496
  0
LINE
  8
0
 10
-57.963
 11
-58.325
 20
2.496
 21
2.858
  0
LINE
  8
0
 10
-58.325
 11
-58.604
 20
2.858
 21
3.288
  0
LINE
  8
0
 10
-58.604
 11
-58.787
 20
3.288
 21
3.766
  0
LINE
  8
0
 10
-58.787
 11
-58.867
 20
3.766
 21
4.272
  0
LINE
  8
0
 10
-56.9
 11
-56.869
 20
-15.5
 21
-15.209
  0
LINE
  8
0
 10
-56.869
 11
-56.779
 20
-15.209
 21
-14.931
  0
LINE
  8
0
 10
-56.779
 11
-56.633
 20
-14.931
 21
-14.677
  0
LINE
  8
0
 10
-56.633
 11
-56.437
 20
-14.677
 21
-14.46
  0
LINE
  8
0
 10
-56.437
 11
-56.2
 20
-14.46
 21
-14.288
  0
LINE
  8
0
 10
-56.2
 11
-55.933
 20
-14.288
 21
-14.169
  0
LINE
  8
0
 10
-55.933
 11
-55.646
 20
-14.169
 21
-14.108
  0
LINE
  8
0
 10
-55.646
 11
-55.354
 20
-14.108
 21
-14.108
  0
LINE
  8
0
 10
-55.354
 11
-55.067
 20
-14.108
 21
-14.169
  0
LINE
  8
0
 10
-55.067
 11
-54.8
 20
-14.169
 21
-14.288
  0
LINE
  8
0
 10
-54.8
 11
-54.563
 20
-14.288
 21
-14.46
  0
LINE
  8
0
 10
-54.563
 11
-54.367
 20
-14.46
 21
-14.677
  0
LINE
  8
0
 10
-54.367
 11
-54.221
 20
-14.677
 21
-14.931
  0
LINE
  8
0
 10
-54.221
 11
-54.131
 20
-14.931
 21
-15.209
  0
LINE
  8
0
 10
-54.131
 11
-54.1
 20
-15.209
 21
-15.5
  0
LINE
  8
0
 10
-54.1
 11
-54.131
 20
-15.5
 21
-15.791
  0
LINE
  8
0
 10
-54.131
 11
-54.221
 20
-15.791
 21
-16.069
  0
LINE
  8
0
 10
-54.221
 11
-54.367
 20
-16.069
 21
-16.323
  0
LINE
  8
0
 10
-54.367
 11
-54.563
 20
-16.323
 21
-16.54
  0
LINE
  8
0
 10
-54.563
 11
-54.8
 20
-16.54
 21
-16.712
  0
LINE
  8
0
 10
-54.8
 11
-55.067
 20
-16.712
 21
-16.831
  0
LINE
  8
0
 10
-55.067
 11
-55.354
 20
-16.831
 21
-16.892
  0
LINE
  8
0
 10
-55.354
 11
-55.646
 20
-16.892
 21
-16.892
  0
LINE
  8
0
 10
-55.646
 11
-55.933
 20
-16.892
 21
-16.831
  0
LINE
  8
0
 10
-55.933
 11
-56.2
 20
-16.831
 21
-16.712
  0
LINE
  8
0
 10
-56.2
 11
-56.437
 20
-16.712
 21
-16.54
  0
LINE
  8
0
 10
-56.437
 11
-56.633
 20
-16.54
 21
-16.323
  0
LINE
  8
0
 10
-56.633
 11
-56.779
 20
-16.323
 21
-16.069
  0
LINE
  8
0
 10
-56.779
 11
-56.869
 20
-16.069
 21
-15.791
  0
LINE
  8
0
 10
-56.869
 11
-56.9
 20
-15.791
 21
-15.5
  0
LINE
  8
0
 10
-56.9
 11
-56.869
 20
15.5
 21
15.791
  0
LINE
  8
0
 10
-56.869
 11
-56.779
 20
15.791
 21
16.069
  0
LINE
  8
0
 10
-56.779
 11
-56.633
 20
16.069
 21
16.323
  0
LINE
  8
0
 10
-56.633
 11
-56.437
 20
16.323
 21
16.54
  0
LINE
  8
0
 10
-56.437
 11
-56.2
 20
16.54
 21
16.712
  0
LINE
  8
0
 10
-56.2
 11
-55.933
 20
16.712
 21
16.831
  0
LINE
  8
0
 10
-55.933
 11
-55.646
 20
16.831
 21
16.892
  0
LINE
  8
0
 10
-55.646
 11
-55.354
 20
16.892
 21
16.892
  0
LINE
  8
0
 10
-55.354
 11
-55.067
 20
16.892
 21
16.831
  0
LINE
  8
0
 10
-55.067
 11
-54.8
 20
16.831
 21
16.712
  0
LINE
  8
0
 10
-54.8
 11
-54.563
 20
16.712
 21
16.54
  0
LINE
  8
0
 10
-54.563
 11
-54.367
 20
16.54
 21
16.323
  0
LINE
  8
0
 10
-54.367
 11
-54.221
 20
16.323
 21
16.069
  0
LINE
  8
0
 10
-54.221
 11
-54.131
 20
16.069
 21
15.791
  0
LINE
  8
0
 10
-54.131
 11
-54.1
 20
15.791
 21
15.5
  0
LINE
  8
0
 10
-54.1
 11
-54.131
 20
15.5
 21
15.209
  0
LINE
  8
0
 10
-54.131
 11
-54.221
 20
15.209
 21
14.931
  0
LINE
  8
0
 10
-54.221
 11
-54.367
 20
14.931
 21
14.677
  0
LINE
  8
0
 10
-54.367
 11
-54.563
 20
14.677
 21
14.46
  0
LINE
  8
0
 10
-54.563
 11
-54.8
 20
14.46
 21
14.288
  0
LINE
  8
0
 10
-54.8
 11
-55.067
 20
14.288
 21
14.169
  0
LINE
  8
0
 10
-55.067
 11
-55.354
 20
14.169
 21
14.108
  0
LINE
  8
0
 10
-55.354
 11
-55.646
 20
14.108
 21
14.108
  0
LINE
  8
0
 10
-55.646
 11
-55.933
 20
14.108
 21
14.169
  0
LINE
  8
0
 10
-55.933
 11
-56.2
 20
14.169
 21
14.288
  0
LINE
  8
0
 10
-56.2
 11
-56.437
 20
14.288
 21
14.46
  0
LINE
  8
0
 10
-56.437
 11
-56.633
 20
14.46
 21
14.677
  0
LINE
  8
0
 10
-56.633
 11
-56.779
 20
14.677
 21
14.931
  0
LINE
  8
0
 10
-56.779
 11
-56.869
 20
14.931
 21
15.209
  0
LINE
  8
0
 10
-56.869
 11
-56.9
 20
15.209
 21
15.5
  0
LINE
  8
0
 10
-43.884
 11
-43.884
 20
-0.957
 21
0.957
  0
LINE
  8
0
 10
-43.884
 11
-42.994
 20
0.957
 21
2.652
  0
LINE
  8
0
 10
-42.994
 11
-41.418
 20
2.652
 21
3.74
  0
LINE
  8
0
 10
-41.418
 11
-39.518
 20
3.74
 21
3.971
  0
LINE
  8
0
 10
-39.518
 11
-37.728
 20
3.971
 21
3.292
  0
LINE
  8
0
 10
-37.728
 11
-36.458
 20
3.292
 21
1.859
  0
LINE
  8
0
 10
-36.458
 11
-36
 20
1.859
 21
0
  0
LINE
  8
0
 10
-36
 11
-36.458
 20
0
 21
-1.859
  0
LINE
  8
0
 10
-36.458
 11
-37.728
 20
-1.859
 21
-3.292
  0
LINE
  8
0
 10
-37.728
 11
-39.518
 20
-3.292
 21
-3.971
  0
LINE
  8
0
 10
-39.518
 11
-41.418
 20
-3.971
 21
-3.74
  0
LINE
  8
0
 10
-41.418
 11
-42.994
 20
-3.74
 21
-2.652
  0
LINE
  8
0
 10
-42.994
 11
-43.884
 20
-2.652
 21
-0.957
  0
LINE
  8
0
 10
-42.45
 11
-42.396
 20
17
 21
17.509
  0
LINE
  8
0
 10
-42.396
 11
-42.238
 20
17.509
 21
17.997
  0
LINE
  8
0
 10
-42.238
 11
-41.982
 20
17.997
 21
18.44
  0
LINE
  8
0
 10
-41.982
 11
-41.639
 20
18.44
 21
18.821
  0
LINE
  8
0
 10
-41.639
 11
-41.225
 20
18.821
 21
19.122
  0
LINE
  8
0
 10
-41.225
 11
-40.757
 20
19.122
 21
19.33
  0
LINE
  8
0
 10
-40.757
 11
-40.256
 20
19.33
 21
19.437
  0
LINE
  8
0
 10
-40.256
 11
-39.744
 20
19.437
 21
19.437
  0
LINE
  8
0
 10
-39.744
 11
-39.243
 20
19.437
 21
19.33
  0
LINE
  8
0
 10
-39.243
 11
-38.775
 20
19.33
 21
19.122
  0
LINE
  8
0
 10
-38.775
 11
-38.361
 20
19.122
 21
18.821
  0
LINE
  8
0
 10
-38.361
 11
-38.018
 20
18.821
 21
18.44
  0
LINE
  8
0
 10
-38.018
 11
-37.762
 20
18.44
 21
17.997
  0
LINE
  8
0
 10
-37.762
 11
-37.604
 20
17.997
 21
17.509
  0
LINE
  8
0
 10
-37.604
 11
-37.55
 20
17.509
 21
17
  0
LINE
  8
0
 10
-37.55
 11
-37.604
 20
17
 21
16.491
  0
LINE
  8
0
 10
-37.604
 11
-37.762
 20
16.491
 21
16.003
  0
LINE
  8
0
 10
-37.762
 11
-38.018
 20
16.003
 21
15.56
  0
LINE
  8
0
 10
-38.018
 11
-38.361
 20
15.56
 21
15.179
  0
LINE
  8
0
 10
-38.361
 11
-38.775
 20
15.179
 21
14.878
  0
LINE
  8
0
 10
-38.775
 11
-39.243
 20
14.878
 21
14.67
  0
LINE
  8
0
 10
-39.243
 11
-39.744
 20
14.67
 21
14.563
  0
LINE
  8
0
 10
-39.744
 11
-40.256
 20
14.563
 21
14.563
  0
LINE
  8
0
 10
-40.256
 11
-40.757
 20
14.563
 21
14.67
  0
LINE
  8
0
 10
-40.757
 11
-41.225
 20
14.67
 21
14.878
  0
LINE
  8
0
 10
-41.225
 11
-41.639
 20
14.878
 21
15.179
  0
LINE
  8
0
 10
-41.639
 11
-41.982
 20
15.179
 21
15.56
  0
LINE
  8
0
 10
-41.982
 11
-42.238
 20
15.56
 21
16.003
  0
LINE
  8
0
 10
-42.238
 11
-42.396
 20
16.003
 21
16.491
  0
LINE
  8
0
 10
-42.396
 11
-42.45
 20
16.491
 21
17
  0
LINE
  8
0
 10
-42.45
 11
-42.396
 20
26.6
 21
27.109
  0
LINE
  8
0
 10
-42.396
 11
-42.238
 20
27.109
 21
27.597
  0
LINE
  8
0
 10
-42.238
 11
-41.982
 20
27.597
 21
28.04
  0
LINE
  8
0
 10
-41.982
 11
-41.639
 20
28.04
 21
28.421
  0
LINE
  8
0
 10
-41.639
 11
-41.225
 20
28.421
 21
28.722
  0
LINE
  8
0
 10
-41.225
 11
-40.757
 20
28.722
 21
28.93
  0
LINE
  8
0
 10
-40.757
 11
-40.256
 20
28.93
 21
29.037
  0
LINE
  8
0
 10
-40.256
 11
-39.744
 20
29.037
 21
29.037
  0
LINE
  8
0
 10
-39.744
 11
-39.243
 20
29.037
 21
28.93
  0
LINE
  8
0
 10
-39.243
 11
-38.775
 20
28.93
 21
28.722
  0
LINE
  8
0
 10
-38.775
 11
-38.361
 20
28.722
 21
28.421
  0
LINE
  8
0
 10
-38.361
 11
-38.018
 20
28.421
 21
28.04
  0
LINE
  8
0
 10
-38.018
 11
-37.762
 20
28.04
 21
27.597
  0
LINE
  8
0
 10
-37.762
 11
-37.604
 20
27.597
 21
27.109
  0
LINE
  8
0
 10
-37.604
 11
-37.55
 20
27.109
 21
26.6
  0
LINE
  8
0
 10
-37.55
 11
-37.604
 20
26.6
 21
26.091
  0
LINE
  8
0
 10
-37.604
 11
-37.762
 20
26.091
 21
25.603
  0
LINE
  8
0
 10
-37.762
 11
-38.018
 20
25.603
 21
25.16
  0
LINE
  8
0
 10
-38.018
 11
-38.361
 20
25.16
 21
24.779
  0
LINE
  8
0
 10
-38.361
 11
-38.775
 20
24.779
 21
24.478
  0
LINE
  8
0
 10
-38.775
 11
-39.243
 20
24.478
 21
24.27
  0
LINE
  8
0
 10
-39.243
 11
-39.744
 20
24.27
 21
24.163
  0
LINE
  8
0
 10
-39.744
 11
-40.256
 20
24.163
 21
24.163
  0
LINE
  8
0
 10
-40.256
 11
-40.757
 20
24.163
 21
24.27
  0
LINE
  8
0
 10
-40.757
 11
-41.225
 20
24.27
 21
24.478
  0
LINE
  8
0
 10
-41.225
 11
-41.639
 20
24.478
 21
24.779
  0
LINE
  8
0
 10
-41.639
 11
-41.982
 20
24.779
 21
25.16
  0
LINE
  8
0
 10
-41.982
 11
-42.238
 20
25.16
 21
25.603
  0
LINE
  8
0
 10
-42.238
 11
-42.396
 20
25.603
 21
26.091
  0
LINE
  8
0
 10
-42.396
 11
-42.45
 20
26.091
 21
26.6
  0
LINE
  8
0
 10
-26.026
 11
-25.946
 20
4.528
 21
5.034
  0
LINE
  8
0
 10
-25.946
 11
-25.762
 20
5.034
 21
5.512
  0
LINE
  8
0
 10
-25.762
 11
-25.483
 20
5.512
 21
5.942
  0
LINE
  8
0
 10
-25.483
 11
-25.122
 20
5.942
 21
6.304
  0
LINE
  8
0
 10
-25.122
 11
-24.691
 20
6.304
 21
6.583
  0
LINE
  8
0
 10
-24.691
 11
-24.213
 20
6.583
 21
6.766
  0
LINE
  8
0
 10
-24.213
 11
-23.708
 20
6.766
 21
6.846
  0
LINE
  8
0
 10
-23.708
 11
-23.195
 20
6.846
 21
6.82
  0
LINE
  8
0
 10
-23.195
 11
-22.701
 20
6.82
 21
6.687
  0
LINE
  8
0
 10
-22.701
 11
-22.245
 20
6.687
 21
6.454
  0
LINE
  8
0
 10
-22.245
 11
-21.847
 20
6.454
 21
6.132
  0
LINE
  8
0
 10
-21.847
 11
-21.525
 20
6.132
 21
5.734
  0
LINE
  8
0
 10
-21.525
 11
-21.292
 20
5.734
 21
5.278
  0
LINE
  8
0
 10
-21.292
 11
-21.159
 20
5.278
 21
4.783
  0
LINE
  8
0
 10
-21.159
 11
-21.133
 20
4.783
 21
4.272
  0
LINE
  8
0
 10
-21.133
 11
-21.213
 20
4.272
 21
3.766
  0
LINE
  8
0
 10
-21.213
 11
-21.396
 20
3.766
 21
3.288
  0
LINE
  8
0
 10
-21.396
 11
-21.675
 20
3.288
 21
2.858
  0
LINE
  8
0
 10
-21.675
 11
-22.037
 20
2.858
 21
2.496
  0
LINE
  8
0
 10
-22.037
 11
-22.467
 20
2.496
 21
2.217
  0
LINE
  8
0
 10
-22.467
 11
-22.945
 20
2.217
 21
2.033
  0
LINE
  8
0
 10
-22.945
 11
-23.451
 20
2.033
 21
1.954
  0
LINE
  8
0
 10
-23.451
 11
-23.963
 20
1.954
 21
1.98
  0
LINE
  8
0
 10
-23.963
 11
-24.457
 20
1.98
 21
2.113
  0
LINE
  8
0
 10
-24.457
 11
-24.914
 20
2.113
 21
2.345
  0
LINE
  8
0
 10
-24.914
 11
-25.312
 20
2.345
 21
2.667
  0
LINE
  8
0
 10
-25.312
 11
-25.634
 20
2.667
 21
3.066
  0
LINE
  8
0
 10
-25.634
 11
-25.867
 20
3.066
 21
3.522
  0
LINE
  8
0
 10
-25.867
 11
-25.999
 20
3.522
 21
4.016
  0
LINE
  8
0
 10
-25.999
 11
-26.026
 20
4.016
 21
4.528
  0
LINE
  8
0
 10
-25.9
 11
-25.869
 20
-15.5
 21
-15.209
  0
LINE
  8
0
 10
-25.869
 11
-25.779
 20
-15.209
 21
-14.931
  0
LINE
  8
0
 10
-25.779
 11
-25.633
 20
-14.931
 21
-14.677
  0
LINE
  8
0
 10
-25.633
 11
-25.437
 20
-14.677
 21
-14.46
  0
LINE
  8
0
 10
-25.437
 11
-25.2
 20
-14.46
 21
-14.288
  0
LINE
  8
0
 10
-25.2
 11
-24.933
 20
-14.288
 21
-14.169
  0
LINE
  8
0
 10
-24.933
 11
-24.646
 20
-14.169
 21
-14.108
  0
LINE
  8
0
 10
-24.646
 11
-24.354
 20
-14.108
 21
-14.108
  0
LINE
  8
0
 10
-24.354
 11
-24.067
 20
-14.108
 21
-14.169
  0
LINE
  8
0
 10
-24.067
 11
-23.8
 20
-14.169
 21
-14.288
  0
LINE
  8
0
 10
-23.8
 11
-23.563
 20
-14.288
 21
-14.46
  0
LINE
  8
0
 10
-23.563
 11
-23.367
 20
-14.46
 21
-14.677
  0
LINE
  8
0
 10
-23.367
 11
-23.221
 20
-14.677
 21
-14.931
  0
LINE
  8
0
 10
-23.221
 11
-23.131
 20
-14.931
 21
-15.209
  0
LINE
  8
0
 10
-23.131
 11
-23.1
 20
-15.209
 21
-15.5
  0
LINE
  8
0
 10
-23.1
 11
-23.131
 20
-15.5
 21
-15.791
  0
LINE
  8
0
 10
-23.131
 11
-23.221
 20
-15.791
 21
-16.069
  0
LINE
  8
0
 10
-23.221
 11
-23.367
 20
-16.069
 21
-16.323
  0
LINE
  8
0
 10
-23.367
 11
-23.563
 20
-16.323
 21
-16.54
  0
LINE
  8
0
 10
-23.563
 11
-23.8
 20
-16.54
 21
-16.712
  0
LINE
  8
0
 10
-23.8
 11
-24.067
 20
-16.712
 21
-16.831
  0
LINE
  8
0
 10
-24.067
 11
-24.354
 20
-16.831
 21
-16.892
  0
LINE
  8
0
 10
-24.354
 11
-24.646
 20
-16.892
 21
-16.892
  0
LINE
  8
0
 10
-24.646
 11
-24.933
 20
-16.892
 21
-16.831
  0
LINE
  8
0
 10
-24.933
 11
-25.2
 20
-16.831
 21
-16.712
  0
LINE
  8
0
 10
-25.2
 11
-25.437
 20
-16.712
 21
-16.54
  0
LINE
  8
0
 10
-25.437
 11
-25.633
 20
-16.54
 21
-16.323
  0
LINE
  8
0
 10
-25.633
 11
-25.779
 20
-16.323
 21
-16.069
  0
LINE
  8
0
 10
-25.779
 11
-25.869
 20
-16.069
 21
-15.791
  0
LINE
  8
0
 10
-25.869
 11
-25.9
 20
-15.791
 21
-15.5
  0
LINE
  8
0
 10
-25.9
 11
-25.869
 20
15.5
 21
15.791
  0
LINE
  8
0
 10
-25.869
 11
-25.779
 20
15.791
 21
16.069
  0
LINE
  8
0
 10
-25.779
 11
-25.633
 20
16.069
 21
16.323
  0
LINE
  8
0
 10
-25.633
 11
-25.437
 20
16.323
 21
16.54
  0
LINE
  8
0
 10
-25.437
 11
-25.2
 20
16.54
 21
16.712
  0
LINE
  8
0
 10
-25.2
 11
-24.933
 20
16.712
 21
16.831
  0
LINE
  8
0
 10
-24.933
 11
-24.646
 20
16.831
 21
16.892
  0
LINE
  8
0
 10
-24.646
 11
-24.354
 20
16.892
 21
16.892
  0
LINE
  8
0
 10
-24.354
 11
-24.067
 20
16.892
 21
16.831
  0
LINE
  8
0
 10
-24.067
 11
-23.8
 20
16.831
 21
16.712
  0
LINE
  8
0
 10
-23.8
 11
-23.563
 20
16.712
 21
16.54
  0
LINE
  8
0
 10
-23.563
 11
-23.367
 20
16.54
 21
16.323
  0
LINE
  8
0
 10
-23.367
 11
-23.221
 20
16.323
 21
16.069
  0
LINE
  8
0
 10
-23.221
 11
-23.131
 20
16.069
 21
15.791
  0
LINE
  8
0
 10
-23.131
 11
-23.1
 20
15.791
 21
15.5
  0
LINE
  8
0
 10
-23.1
 11
-23.131
 20
15.5
 21
15.209
  0
LINE
  8
0
 10
-23.131
 11
-23.221
 20
15.209
 21
14.931
  0
LINE
  8
0
 10
-23.221
 11
-23.367
 20
14.931
 21
14.677
  0
LINE
  8
0
 10
-23.367
 11
-23.563
 20
14.677
 21
14.46
  0
LINE
  8
0
 10
-23.563
 11
-23.8
 20
14.46
 21
14.288
  0
LINE
  8
0
 10
-23.8
 11
-24.067
 20
14.288
 21
14.169
  0
LINE
  8
0
 10
-24.067
 11
-24.354
 20
14.169
 21
14.108
  0
LINE
  8
0
 10
-24.354
 11
-24.646
 20
14.108
 21
14.108
  0
LINE
  8
0
 10
-24.646
 11
-24.933
 20
14.108
 21
14.169
  0
LINE
  8
0
 10
-24.933
 11
-25.2
 20
14.169
 21
14.288
  0
LINE
  8
0
 10
-25.2
 11
-25.437
 20
14.288
 21
14.46
  0
LINE
  8
0
 10
-25.437
 11
-25.633
 20
14.46
 21
14.677
  0
LINE
  8
0
 10
-25.633
 11
-25.779
 20
14.677
 21
14.931
  0
LINE
  8
0
 10
-25.779
 11
-25.869
 20
14.931
 21
15.209
  0
LINE
  8
0
 10
-25.869
 11
-25.9
 20
15.209
 21
15.5
  0
LINE
  8
0
 10
-9.65
 11
-9.574
 20
0
 21
1.209
  0
LINE
  8
0
 10
-9.574
 11
-9.347
 20
1.209
 21
2.4
  0
LINE
  8
0
 10
-9.347
 11
-8.972
 20
2.4
 21
3.552
  0
LINE
  8
0
 10
-8.972
 11
-8.456
 20
3.552
 21
4.649
  0
LINE
  8
0
 10
-8.456
 11
-7.807
 20
4.649
 21
5.672
  0
LINE
  8
0
 10
-7.807
 11
-7.035
 20
5.672
 21
6.606
  0
LINE
  8
0
 10
-7.035
 11
-6.151
 20
6.606
 21
7.435
  0
LINE
  8
0
 10
-6.151
 11
-5.171
 20
7.435
 21
8.148
  0
LINE
  8
0
 10
-5.171
 11
-4.109
 20
8.148
 21
8.732
  0
LINE
  8
0
 10
-4.109
 11
-2.982
 20
8.732
 21
9.178
  0
LINE
  8
0
 10
-2.982
 11
-1.808
 20
9.178
 21
9.479
  0
LINE
  8
0
 10
-1.808
 11
-0.606
 20
9.479
 21
9.631
  0
LINE
  8
0
 10
-0.606
 11
0.606
 20
9.631
 21
9.631
  0
LINE
  8
0
 10
0.606
 11
1.808
 20
9.631
 21
9.479
  0
LINE
  8
0
 10
1.808
 11
2.982
 20
9.479
 21
9.178
  0
LINE
  8
0
 10
2.982
 11
4.109
 20
9.178
 21
8.732
  0
LINE
  8
0
 10
4.109
 11
5.171
 20
8.732
 21
8.148
  0
LINE
  8
0
 10
5.171
 11
6.151
 20
8.148
 21
7.435
  0
LINE
  8
0
 10
6.151
 11
7.035
 20
7.435
 21
6.606
  0
LINE
  8
0
 10
7.035
 11
7.807
 20
6.606
 21
5.672
  0
LINE
  8
0
 10
7.807
 11
8.456
 20
5.672
 21
4.649
  0
LINE
  8
0
 10
8.456
 11
8.972
 20
4.649
 21
3.552
  0
LINE
  8
0
 10
8.972
 11
9.347
 20
3.552
 21
2.4
  0
LINE
  8
0
 10
9.347
 11
9.574
 20
2.4
 21
1.209
  0
LINE
  8
0
 10
9.574
 11
9.65
 20
1.209
 21
0
  0
LINE
  8
0
 10
9.65
 11
9.574
 20
0
 21
-1.209
  0
LINE
  8
0
 10
9.574
 11
9.347
 20
-1.209
 21
-2.4
  0
LINE
  8
0
 10
9.347
 11
8.972
 20
-2.4
 21
-3.552
  0
LINE
  8
0
 10
8.972
 11
8.456
 20
-3.552
 21
-4.649
  0
LINE
  8
0
 10
8.456
 11
7.807
 20
-4.649
 21
-5.672
  0
LINE
  8
0
 10
7.807
 11
7.035
 20
-5.672
 21
-6.606
  0
LINE
  8
0
 10
7.035
 11
6.151
 20
-6.606
 21
-7.435
  0
LINE
  8
0
 10
6.151
 11
5.171
 20
-7.435
 21
-8.148
  0
LINE
  8
0
 10
5.171
 11
4.109
 20
-8.148
 21
-8.732
  0
LINE
  8
0
 10
4.109
 11
2.982
 20
-8.732
 21
-9.178
  0
LINE
  8
0
 10
2.982
 11
1.808
 20
-9.178
 21
-9.479
  0
LINE
  8
0
 10
1.808
 11
0.606
 20
-9.479
 21
-9.631
  0
LINE
  8
0
 10
0.606
 11
-0.606
 20
-9.631
 21
-9.631
  0
LINE
  8
0
 10
-0.606
 11
-1.808
 20
-9.631
 21
-9.479
  0
LINE
  8
0
 10
-1.808
 11
-2.982
 20
-9.479
 21
-9.178
  0
LINE
  8
0
 10
-2.982
 11
-4.109
 20
-9.178
 21
-8.732
  0
LINE
  8
0
 10
-4.109
 11
-5.171
 20
-8.732
 21
-8.148
  0
LINE
  8
0
 10
-5.171
 11
-6.151
 20
-8.148
 21
-7.435
  0
LINE
  8
0
 10
-6.151
 11
-7.035
 20
-7.435
 21
-6.606
  0
LINE
  8
0
 10
-7.035
 11
-7.807
 20
-6.606
 21
-5.672
  0
LINE
  8
0
 10
-7.807
 11
-8.456
 20
-5.672
 21
-4.649
  0
LINE
  8
0
 10
-8.456
 11
-8.972
 20
-4.649
 21
-3.552
  0
LINE
  8
0
 10
-8.972
 11
-9.347
 20
-3.552
 21
-2.4
  0
LINE
  8
0
 10
-9.347
 11
-9.574
 20
-2.4
 21
-1.209
  0
LINE
  8
0
 10
-9.574
 11
-9.65
 20
-1.209
 21
0
  0
LINE
  8
0
 10
-7.677
 11
-7.674
 20
3.566
 21
3.742
  0
LINE
  8
0
 10
-7.674
 11
-7.648
 20
3.742
 21
3.916
  0
LINE
  8
0
 10
-7.648
 11
-7.6
 20
3.916
 21
4.086
  0
LINE
  8
0
 10
-7.6
 11
-7.533
 20
4.086
 21
4.247
  0
LINE
  8
0
 10
-7.533
 11
-7.445
 20
4.247
 21
4.4
  0
LINE
  8
0
 10
-7.445
 11
-7.338
 20
4.4
 21
4.539
  0
LINE
  8
0
 10
-7.338
 11
-7.215
 20
4.539
 21
4.665
  0
LINE
  8
0
 10
-7.215
 11
-7.078
 20
4.665
 21
4.775
  0
LINE
  8
0
 10
-7.078
 11
-6.927
 20
4.775
 21
4.866
  0
LINE
  8
0
 10
-6.927
 11
-6.767
 20
4.866
 21
4.937
  0
LINE
  8
0
 10
-6.767
 11
-6.598
 20
4.937
 21
4.988
  0
LINE
  8
0
 10
-6.598
 11
-6.425
 20
4.988
 21
5.018
  0
LINE
  8
0
 10
-6.425
 11
-6.249
 20
5.018
 21
5.025
  0
LINE
  8
0
 10
-6.249
 11
-6.074
 20
5.025
 21
5.01
  0
LINE
  8
0
 10
-6.074
 11
-5.902
 20
5.01
 21
4.973
  0
LINE
  8
0
 10
-5.902
 11
-5.736
 20
4.973
 21
4.915
  0
LINE
  8
0
 10
-5.736
 11
-5.579
 20
4.915
 21
4.837
  0
LINE
  8
0
 10
-5.579
 11
-5.433
 20
4.837
 21
4.74
  0
LINE
  8
0
 10
-5.433
 11
-5.299
 20
4.74
 21
4.625
  0
LINE
  8
0
 10
-5.299
 11
-5.182
 20
4.625
 21
4.495
  0
LINE
  8
0
 10
-5.182
 11
-5.081
 20
4.495
 21
4.351
  0
LINE
  8
0
 10
-5.081
 11
-4.999
 20
4.351
 21
4.195
  0
LINE
  8
0
 10
-4.999
 11
-4.939
 20
4.195
 21
4.03
  0
LINE
  8
0
 10
-4.939
 11
-4.898
 20
4.03
 21
3.858
  0
LINE
  8
0
 10
-4.898
 11
-4.88
 20
3.858
 21
3.684
  0
LINE
  8
0
 10
-4.88
 11
-4.883
 20
3.684
 21
3.508
  0
LINE
  8
0
 10
-4.883
 11
-4.91
 20
3.508
 21
3.334
  0
LINE
  8
0
 10
-4.91
 11
-4.957
 20
3.334
 21
3.164
  0
LINE
  8
0
 10
-4.957
 11
-5.025
 20
3.164
 21
3.003
  0
LINE
  8
0
 10
-5.025
 11
-5.113
 20
3.003
 21
2.85
  0
LINE
  8
0
 10
-5.113
 11
-5.219
 20
2.85
 21
2.711
  0
LINE
  8
0
 10
-5.219
 11
-5.343
 20
2.711
 21
2.585
  0
LINE
  8
0
 10
-5.343
 11
-5.479
 20
2.585
 21
2.475
  0
LINE
  8
0
 10
-5.479
 11
-5.63
 20
2.475
 21
2.384
  0
LINE
  8
0
 10
-5.63
 11
-5.79
 20
2.384
 21
2.313
  0
LINE
  8
0
 10
-5.79
 11
-5.96
 20
2.313
 21
2.262
  0
LINE
  8
0
 10
-5.96
 11
-6.132
 20
2.262
 21
2.232
  0
LINE
  8
0
 10
-6.132
 11
-6.308
 20
2.232
 21
2.225
  0
LINE
  8
0
 10
-6.308
 11
-6.484
 20
2.225
 21
2.24
  0
LINE
  8
0
 10
-6.484
 11
-6.655
 20
2.24
 21
2.277
  0
LINE
  8
0
 10
-6.655
 11
-6.822
 20
2.277
 21
2.335
  0
LINE
  8
0
 10
-6.822
 11
-6.979
 20
2.335
 21
2.413
  0
LINE
  8
0
 10
-6.979
 11
-7.125
 20
2.413
 21
2.51
  0
LINE
  8
0
 10
-7.125
 11
-7.258
 20
2.51
 21
2.625
  0
LINE
  8
0
 10
-7.258
 11
-7.376
 20
2.625
 21
2.755
  0
LINE
  8
0
 10
-7.376
 11
-7.476
 20
2.755
 21
2.899
  0
LINE
  8
0
 10
-7.476
 11
-7.558
 20
2.899
 21
3.055
  0
LINE
  8
0
 10
-7.558
 11
-7.619
 20
3.055
 21
3.22
  0
LINE
  8
0
 10
-7.619
 11
-7.659
 20
3.22
 21
3.392
  0
LINE
  8
0
 10
-7.659
 11
-7.677
 20
3.392
 21
3.566
  0
LINE
  8
0
 10
-2.6
 11
-2.543
 20
-15
 21
-14.459
  0
LINE
  8
0
 10
-2.543
 11
-2.375
 20
-14.459
 21
-13.942
  0
LINE
  8
0
 10
-2.375
 11
-2.103
 20
-13.942
 21
-13.472
  0
LINE
  8
0
 10
-2.103
 11
-1.74
 20
-13.472
 21
-13.068
  0
LINE
  8
0
 10
-1.74
 11
-1.3
 20
-13.068
 21
-12.748
  0
LINE
  8
0
 10
-1.3
 11
-0.803
 20
-12.748
 21
-12.527
  0
LINE
  8
0
 10
-0.803
 11
-0.272
 20
-12.527
 21
-12.414
  0
LINE
  8
0
 10
-0.272
 11
0.272
 20
-12.414
 21
-12.414
  0
LINE
  8
0
 10
0.272
 11
0.803
 20
-12.414
 21
-12.527
  0
LINE
  8
0
 10
0.803
 11
1.3
 20
-12.527
 21
-12.748
  0
LINE
  8
0
 10
1.3
 11
1.74
 20
-12.748
 21
-13.068
  0
LINE
  8
0
 10
1.74
 11
2.103
 20
-13.068
 21
-13.472
  0
LINE
  8
0
 10
2.103
 11
2.375
 20
-13.472
 21
-13.942
  0
LINE
  8
0
 10
2.375
 11
2.543
 20
-13.942
 21
-14.459
  0
LINE
  8
0
 10
2.543
 11
2.6
 20
-14.459
 21
-15
  0
LINE
  8
0
 10
2.6
 11
2.543
 20
-15
 21
-15.541
  0
LINE
  8
0
 10
2.543
 11
2.375
 20
-15.541
 21
-16.058
  0
LINE
  8
0
 10
2.375
 11
2.103
 20
-16.058
 21
-16.528
  0
LINE
  8
0
 10
2.103
 11
1.74
 20
-16.528
 21
-16.932
  0
LINE
  8
0
 10
1.74
 11
1.3
 20
-16.932
 21
-17.252
  0
LINE
  8
0
 10
1.3
 11
0.803
 20
-17.252
 21
-17.473
  0
LINE
  8
0
 10
0.803
 11
0.272
 20
-17.473
 21
-17.586
  0
LINE
  8
0
 10
0.272
 11
-0.272
 20
-17.586
 21
-17.586
  0
LINE
  8
0
 10
-0.272
 11
-0.803
 20
-17.586
 21
-17.473
  0
LINE
  8
0
 10
-0.803
 11
-1.3
 20
-17.473
 21
-17.252
  0
LINE
  8
0
 10
-1.3
 11
-1.74
 20
-17.252
 21
-16.932
  0
LINE
  8
0
 10
-1.74
 11
-2.103
 20
-16.932
 21
-16.528
  0
LINE
  8
0
 10
-2.103
 11
-2.375
 20
-16.528
 21
-16.058
  0
LINE
  8
0
 10
-2.375
 11
-2.543
 20
-16.058
 21
-15.541
  0
LINE
  8
0
 10
-2.543
 11
-2.6
 20
-15.541
 21
-15
  0
LINE
  8
0
 10
-2.6
 11
-2.543
 20
15
 21
15.541
  0
LINE
  8
0
 10
-2.543
 11
-2.375
 20
15.541
 21
16.058
  0
LINE
  8
0
 10
-2.375
 11
-2.103
 20
16.058
 21
16.528
  0
LINE
  8
0
 10
-2.103
 11
-1.74
 20
16.528
 21
16.932
  0
LINE
  8
0
 10
-1.74
 11
-1.3
 20
16.932
 21
17.252
  0
LINE
  8
0
 10
-1.3
 11
-0.803
 20
17.252
 21
17.473
  0
LINE
  8
0
 10
-0.803
 11
-0.272
 20
17.473
 21
17.586
  0
LINE
  8
0
 10
-0.272
 11
0.272
 20
17.586
 21
17.586
  0
LINE
  8
0
 10
0.272
 11
0.803
 20
17.586
 21
17.473
  0
LINE
  8
0
 10
0.803
 11
1.3
 20
17.473
 21
17.252
  0
LINE
  8
0
 10
1.3
 11
1.74
 20
17.252
 21
16.932
  0
LINE
  8
0
 10
1.74
 11
2.103
 20
16.932
 21
16.528
  0
LINE
  8
0
 10
2.103
 11
2.375
 20
16.528
 21
16.058
  0
LINE
  8
0
 10
2.375
 11
2.543
 20
16.058
 21
15.541
  0
LINE
  8
0
 10
2.543
 11
2.6
 20
15.541
 21
15
  0
LINE
  8
0
 10
2.6
 11
2.543
 20
15
 21
14.459
  0
LINE
  8
0
 10
2.543
 11
2.375
 20
14.459
 21
13.942
  0
LINE
  8
0
 10
2.375
 11
2.103
 20
13.942
 21
13.472
  0
LINE
  8
0
 10
2.103
 11
1.74
 20
13.472
 21
13.068
  0
LINE
  8
0
 10
1.74
 11
1.3
 20
13.068
 21
12.748
  0
LINE
  8
0
 10
1.3
 11
0.803
 20
12.748
 21
12.527
  0
LINE
  8
0
 10
0.803
 11
0.272
 20
12.527
 21
12.414
  0
LINE
  8
0
 10
0.272
 11
-0.272
 20
12.414
 21
12.414
  0
LINE
  8
0
 10
-0.272
 11
-0.803
 20
12.414
 21
12.527
  0
LINE
  8
0
 10
-0.803
 11
-1.3
 20
12.527
 21
12.748
  0
LINE
  8
0
 10
-1.3
 11
-1.74
 20
12.748
 21
13.068
  0
LINE
  8
0
 10
-1.74
 11
-2.103
 20
13.068
 21
13.472
  0
LINE
  8
0
 10
-2.103
 11
-2.375
 20
13.472
 21
13.942
  0
LINE
  8
0
 10
-2.375
 11
-2.543
 20
13.942
 21
14.459
  0
LINE
  8
0
 10
-2.543
 11
-2.6
 20
14.459
 21
15
  0
LINE
  8
0
 10
-1.4
 11
-1.389
 20
-7.25
 21
-7.075
  0
LINE
  8
0
 10
-1.389
 11
-1.356
 20
-7.075
 21
-6.902
  0
LINE
  8
0
 10
-1.356
 11
-1.302
 20
-6.902
 21
-6.735
  0
LINE
  8
0
 10
-1.302
 11
-1.227
 20
-6.735
 21
-6.576
  0
LINE
  8
0
 10
-1.227
 11
-1.133
 20
-6.576
 21
-6.427
  0
LINE
  8
0
 10
-1.133
 11
-1.021
 20
-6.427
 21
-6.292
  0
LINE
  8
0
 10
-1.021
 11
-0.892
 20
-6.292
 21
-6.171
  0
LINE
  8
0
 10
-0.892
 11
-0.75
 20
-6.171
 21
-6.068
  0
LINE
  8
0
 10
-0.75
 11
-0.596
 20
-6.068
 21
-5.983
  0
LINE
  8
0
 10
-0.596
 11
-0.433
 20
-5.983
 21
-5.919
  0
LINE
  8
0
 10
-0.433
 11
-0.262
 20
-5.919
 21
-5.875
  0
LINE
  8
0
 10
-0.262
 11
-0.088
 20
-5.875
 21
-5.853
  0
LINE
  8
0
 10
-0.088
 11
0.088
 20
-5.853
 21
-5.853
  0
LINE
  8
0
 10
0.088
 11
0.262
 20
-5.853
 21
-5.875
  0
LINE
  8
0
 10
0.262
 11
0.433
 20
-5.875
 21
-5.919
  0
LINE
  8
0
 10
0.433
 11
0.596
 20
-5.919
 21
-5.983
  0
LINE
  8
0
 10
0.596
 11
0.75
 20
-5.983
 21
-6.068
  0
LINE
  8
0
 10
0.75
 11
0.892
 20
-6.068
 21
-6.171
  0
LINE
  8
0
 10
0.892
 11
1.021
 20
-6.171
 21
-6.292
  0
LINE
  8
0
 10
1.021
 11
1.133
 20
-6.292
 21
-6.427
  0
LINE
  8
0
 10
1.133
 11
1.227
 20
-6.427
 21
-6.576
  0
LINE
  8
0
 10
1.227
 11
1.302
 20
-6.576
 21
-6.735
  0
LINE
  8
0
 10
1.302
 11
1.356
 20
-6.735
 21
-6.902
  0
LINE
  8
0
 10
1.356
 11
1.389
 20
-6.902
 21
-7.075
  0
LINE
  8
0
 10
1.389
 11
1.4
 20
-7.075
 21
-7.25
  0
LINE
  8
0
 10
1.4
 11
1.389
 20
-7.25
 21
-7.425
  0
LINE
  8
0
 10
1.389
 11
1.356
 20
-7.425
 21
-7.598
  0
LINE
  8
0
 10
1.356
 11
1.302
 20
-7.598
 21
-7.765
  0
LINE
  8
0
 10
1.302
 11
1.227
 20
-7.765
 21
-7.924
  0
LINE
  8
0
 10
1.227
 11
1.133
 20
-7.924
 21
-8.073
  0
LINE
  8
0
 10
1.133
 11
1.021
 20
-8.073
 21
-8.208
  0
LINE
  8
0
 10
1.021
 11
0.892
 20
-8.208
 21
-8.329
  0
LINE
  8
0
 10
0.892
 11
0.75
 20
-8.329
 21
-8.432
  0
LINE
  8
0
 10
0.75
 11
0.596
 20
-8.432
 21
-8.517
  0
LINE
  8
0
 10
0.596
 11
0.433
 20
-8.517
 21
-8.581
  0
LINE
  8
0
 10
0.433
 11
0.262
 20
-8.581
 21
-8.625
  0
LINE
  8
0
 10
0.262
 11
0.088
 20
-8.625
 21
-8.647
  0
LINE
  8
0
 10
0.088
 11
-0.088
 20
-8.647
 21
-8.647
  0
LINE
  8
0
 10
-0.088
 11
-0.262
 20
-8.647
 21
-8.625
  0
LINE
  8
0
 10
-0.262
 11
-0.433
 20
-8.625
 21
-8.581
  0
LINE
  8
0
 10
-0.433
 11
-0.596
 20
-8.581
 21
-8.517
  0
LINE
  8
0
 10
-0.596
 11
-0.75
 20
-8.517
 21
-8.432
  0
LINE
  8
0
 10
-0.75
 11
-0.892
 20
-8.432
 21
-8.329
  0
LINE
  8
0
 10
-0.892
 11
-1.021
 20
-8.329
 21
-8.208
  0
LINE
  8
0
 10
-1.021
 11
-1.133
 20
-8.208
 21
-8.073
  0
LINE
  8
0
 10
-1.133
 11
-1.227
 20
-8.073
 21
-7.924
  0
LINE
  8
0
 10
-1.227
 11
-1.302
 20
-7.924
 21
-7.765
  0
LINE
  8
0
 10
-1.302
 11
-1.356
 20
-7.765
 21
-7.598
  0
LINE
  8
0
 10
-1.356
 11
-1.389
 20
-7.598
 21
-7.425
  0
LINE
  8
0
 10
-1.389
 11
-1.4
 20
-7.425
 21
-7.25
  0
LINE
  8
0
 10
-1.4
 11
-1.369
 20
15
 21
15.291
  0
LINE
  8
0
 10
-1.369
 11
-1.279
 20
15.291
 21
15.569
  0
LINE
  8
0
 10
-1.279
 11
-1.133
 20
15.569
 21
15.823
  0
LINE
  8
0
 10
-1.133
 11
-0.937
 20
15.823
 21
16.04
  0
LINE
  8
0
 10
-0.937
 11
-0.7
 20
16.04
 21
16.212
  0
LINE
  8
0
 10
-0.7
 11
-0.433
 20
16.212
 21
16.331
  0
LINE
  8
0
 10
-0.433
 11
-0.146
 20
16.331
 21
16.392
  0
LINE
  8
0
 10
-0.146
 11
0.146
 20
16.392
 21
16.392
  0
LINE
  8
0
 10
0.146
 11
0.433
 20
16.392
 21
16.331
  0
LINE
  8
0
 10
0.433
 11
0.7
 20
16.331
 21
16.212
  0
LINE
  8
0
 10
0.7
 11
0.937
 20
16.212
 21
16.04
  0
LINE
  8
0
 10
0.937
 11
1.133
 20
16.04
 21
15.823
  0
LINE
  8
0
 10
1.133
 11
1.279
 20
15.823
 21
15.569
  0
LINE
  8
0
 10
1.279
 11
1.369
 20
15.569
 21
15.291
  0
LINE
  8
0
 10
1.369
 11
1.4
 20
15.291
 21
15
  0
LINE
  8
0
 10
1.4
 11
1.369
 20
15
 21
14.709
  0
LINE
  8
0
 10
1.369
 11
1.279
 20
14.709
 21
14.431
  0
LINE
  8
0
 10
1.279
 11
1.133
 20
14.431
 21
14.177
  0
LINE
  8
0
 10
1.133
 11
0.937
 20
14.177
 21
13.96
  0
LINE
  8
0
 10
0.937
 11
0.7
 20
13.96
 21
13.788
  0
LINE
  8
0
 10
0.7
 11
0.433
 20
13.788
 21
13.669
  0
LINE
  8
0
 10
0.433
 11
0.146
 20
13.669
 21
13.608
  0
LINE
  8
0
 10
0.146
 11
-0.146
 20
13.608
 21
13.608
  0
LINE
  8
0
 10
-0.146
 11
-0.433
 20
13.608
 21
13.669
  0
LINE
  8
0
 10
-0.433
 11
-0.7
 20
13.669
 21
13.788
  0
LINE
  8
0
 10
-0.7
 11
-0.937
 20
13.788
 21
13.96
  0
LINE
  8
0
 10
-0.937
 11
-1.133
 20
13.96
 21
14.177
  0
LINE
  8
0
 10
-1.133
 11
-1.279
 20
14.177
 21
14.431
  0
LINE
  8
0
 10
-1.279
 11
-1.369
 20
14.431
 21
14.709
  0
LINE
  8
0
 10
-1.369
 11
-1.4
 20
14.709
 21
15
  0
LINE
  8
0
 10
-1.25
 11
-0.625
 20
-15
 21
-13.917
  0
LINE
  8
0
 10
-0.625
 11
0.625
 20
-13.917
 21
-13.917
  0
LINE
  8
0
 10
0.625
 11
1.25
 20
-13.917
 21
-15
  0
LINE
  8
0
 10
1.25
 11
0.625
 20
-15
 21
-16.083
  0
LINE
  8
0
 10
0.625
 11
-0.625
 20
-16.083
 21
-16.083
  0
LINE
  8
0
 10
-0.625
 11
-1.25
 20
-16.083
 21
-15
  0
LINE
  8
0
 10
-1.25
 11
-0.625
 20
0
 21
1.083
  0
LINE
  8
0
 10
-0.625
 11
0.625
 20
1.083
 21
1.083
  0
LINE
  8
0
 10
0.625
 11
1.25
 20
1.083
 21
0
  0
LINE
  8
0
 10
1.25
 11
0.625
 20
0
 21
-1.083
  0
LINE
  8
0
 10
0.625
 11
-0.625
 20
-1.083
 21
-1.083
  0
LINE
  8
0
 10
-0.625
 11
-1.25
 20
-1.083
 21
0
  0
LINE
  8
0
 10
4.88
 11
4.898
 20
3.684
 21
3.858
  0
LINE
  8
0
 10
4.898
 11
4.939
 20
3.858
 21
4.03
  0
LINE
  8
0
 10
4.939
 11
4.999
 20
4.03
 21
4.195
  0
LINE
  8
0
 10
4.999
 11
5.081
 20
4.195
 21
4.351
  0
LINE
  8
0
 10
5.081
 11
5.182
 20
4.351
 21
4.495
  0
LINE
  8
0
 10
5.182
 11
5.299
 20
4.495
 21
4.625
  0
LINE
  8
0
 10
5.299
 11
5.433
 20
4.625
 21
4.74
  0
LINE
  8
0
 10
5.433
 11
5.579
 20
4.74
 21
4.837
  0
LINE
  8
0
 10
5.579
 11
5.736
 20
4.837
 21
4.915
  0
LINE
  8
0
 10
5.736
 11
5.902
 20
4.915
 21
4.973
  0
LINE
  8
0
 10
5.902
 11
6.074
 20
4.973
 21
5.01
  0
LINE
  8
0
 10
6.074
 11
6.249
 20
5.01
 21
5.025
  0
LINE
  8
0
 10
6.249
 11
6.425
 20
5.025
 21
5.018
  0
LINE
  8
0
 10
6.425
 11
6.598
 20
5.018
 21
4.988
  0
LINE
  8
0
 10
6.598
 11
6.767
 20
4.988
 21
4.937
  0
LINE
  8
0
 10
6.767
 11
6.927
 20
4.937
 21
4.866
  0
LINE
  8
0
 10
6.927
 11
7.078
 20
4.866
 21
4.775
  0
LINE
  8
0
 10
7.078
 11
7.215
 20
4.775
 21
4.665
  0
LINE
  8
0
 10
7.215
 11
7.338
 20
4.665
 21
4.539
  0
LINE
  8
0
 10
7.338
 11
7.445
 20
4.539
 21
4.4
  0
LINE
  8
0
 10
7.445
 11
7.533
 20
4.4
 21
4.247
  0
LINE
  8
0
 10
7.533
 11
7.6
 20
4.247
 21
4.086
  0
LINE
  8
0
 10
7.6
 11
7.648
 20
4.086
 21
3.916
  0
LINE
  8
0
 10
7.648
 11
7.674
 20
3.916
 21
3.742
  0
LINE
  8
0
 10
7.674
 11
7.677
 20
3.742
 21
3.566
  0
LINE
  8
0
 10
7.677
 11
7.659
 20
3.566
 21
3.392
  0
LINE
  8
0
 10
7.659
 11
7.619
 20
3.392
 21
3.22
  0
LINE
  8
0
 10
7.619
 11
7.558
 20
3.22
 21
3.055
  0
LINE
  8
0
 10
7.558
 11
7.476
 20
3.055
 21
2.899
  0
LINE
  8
0
 10
7.476
 11
7.376
 20
2.899
 21
2.755
  0
LINE
  8
0
 10
7.376
 11
7.258
 20
2.755
 21
2.625
  0
LINE
  8
0
 10
7.258
 11
7.125
 20
2.625
 21
2.51
  0
LINE
  8
0
 10
7.125
 11
6.979
 20
2.51
 21
2.413
  0
LINE
  8
0
 10
6.979
 11
6.822
 20
2.413
 21
2.335
  0
LINE
  8
0
 10
6.822
 11
6.655
 20
2.335
 21
2.277
  0
LINE
  8
0
 10
6.655
 11
6.484
 20
2.277
 21
2.24
  0
LINE
  8
0
 10
6.484
 11
6.308
 20
2.24
 21
2.225
  0
LINE
  8
0
 10
6.308
 11
6.132
 20
2.225
 21
2.232
  0
LINE
  8
0
 10
6.132
 11
5.96
 20
2.232
 21
2.262
  0
LINE
  8
0
 10
5.96
 11
5.79
 20
2.262
 21
2.313
  0
LINE
  8
0
 10
5.79
 11
5.63
 20
2.313
 21
2.384
  0
LINE
  8
0
 10
5.63
 11
5.479
 20
2.384
 21
2.475
  0
LINE
  8
0
 10
5.479
 11
5.343
 20
2.475
 21
2.585
  0
LINE
  8
0
 10
5.343
 11
5.219
 20
2.585
 21
2.711
  0
LINE
  8
0
 10
5.219
 11
5.113
 20
2.711
 21
2.85
  0
LINE
  8
0
 10
5.113
 11
5.025
 20
2.85
 21
3.003
  0
LINE
  8
0
 10
5.025
 11
4.957
 20
3.003
 21
3.164
  0
LINE
  8
0
 10
4.957
 11
4.91
 20
3.164
 21
3.334
  0
LINE
  8
0
 10
4.91
 11
4.883
 20
3.334
 21
3.508
  0
LINE
  8
0
 10
4.883
 11
4.88
 20
3.508
 21
3.684
  0
LINE
  8
0
 10
18.85
 11
18.892
 20
0
 21
1.328
  0
LINE
  8
0
 10
18.892
 11
19.017
 20
1.328
 21
2.651
  0
LINE
  8
0
 10
19.017
 11
19.225
 20
2.651
 21
3.963
  0
LINE
  8
0
 10
19.225
 11
19.514
 20
3.963
 21
5.26
  0
LINE
  8
0
 10
19.514
 11
19.885
 20
5.26
 21
6.536
  0
LINE
  8
0
 10
19.885
 11
20.335
 20
6.536
 21
7.786
  0
LINE
  8
0
 10
20.335
 11
20.863
 20
7.786
 21
9.005
  0
LINE
  8
0
 10
20.863
 11
21.466
 20
9.005
 21
10.189
  0
LINE
  8
0
 10
21.466
 11
22.142
 20
10.189
 21
11.333
  0
LINE
  8
0
 10
22.142
 11
22.889
 20
11.333
 21
12.432
  0
LINE
  8
0
 10
22.889
 11
23.704
 20
12.432
 21
13.482
  0
LINE
  8
0
 10
23.704
 11
24.582
 20
13.482
 21
14.478
  0
LINE
  8
0
 10
24.582
 11
25.522
 20
14.478
 21
15.418
  0
LINE
  8
0
 10
25.522
 11
26.518
 20
15.418
 21
16.296
  0
LINE
  8
0
 10
26.518
 11
27.568
 20
16.296
 21
17.111
  0
LINE
  8
0
 10
27.568
 11
28.667
 20
17.111
 21
17.858
  0
LINE
  8
0
 10
28.667
 11
29.811
 20
17.858
 21
18.534
  0
LINE
  8
0
 10
29.811
 11
30.995
 20
18.534
 21
19.137
  0
LINE
  8
0
 10
30.995
 11
32.214
 20
19.137
 21
19.665
  0
LINE
  8
0
 10
32.214
 11
33.464
 20
19.665
 21
20.115
  0
LINE
  8
0
 10
33.464
 11
34.74
 20
20.115
 21
20.486
  0
LINE
  8
0
 10
34.74
 11
36.037
 20
20.486
 21
20.775
  0
LINE
  8
0
 10
36.037
 11
37.349
 20
20.775
 21
20.983
  0
LINE
  8
0
 10
37.349
 11
38.672
 20
20.983
 21
21.108
  0
LINE
  8
0
 10
38.672
 11
40
 20
21.108
 21
21.15
  0
LINE
  8
0
 10
40
 11
41.328
 20
21.15
 21
21.108
  0
LINE
  8
0
 10
41.328
 11
42.651
 20
21.108
 21
20.983
  0
LINE
  8
0
 10
42.651
 11
43.963
 20
20.983
 21
20.775
  0
LINE
  8
0
 10
43.963
 11
45.26
 20
20.775
 21
20.486
  0
LINE
  8
0
 10
45.26
 11
46.536
 20
20.486
 21
20.115
  0
LINE
  8
0
 10
46.536
 11
47.786
 20
20.115
 21
19.665
  0
LINE
  8
0
 10
47.786
 11
49.005
 20
19.665
 21
19.137
  0
LINE
  8
0
 10
49.005
 11
50.189
 20
19.137
 21
18.534
  0
LINE
  8
0
 10
50.189
 11
51.333
 20
18.534
 21
17.858
  0
LINE
  8
0
 10
51.333
 11
52.432
 20
17.858
 21
17.111
  0
LINE
  8
0
 10
52.432
 11
53.482
 20
17.111
 21
16.296
  0
LINE
  8
0
 10
53.482
 11
54.478
 20
16.296
 21
15.418
  0
LINE
  8
0
 10
54.478
 11
55.418
 20
15.418
 21
14.478
  0
LINE
  8
0
 10
55.418
 11
56.296
 20
14.478
 21
13.482
  0
LINE
  8
0
 10
56.296
 11
57.111
 20
13.482
 21
12.432
  0
LINE
  8
0
 10
57.111
 11
57.858
 20
12.432
 21
11.333
  0
LINE
  8
0
 10
57.858
 11
58.534
 20
11.333
 21
10.189
  0
LINE
  8
0
 10
58.534
 11
59.137
 20
10.189
 21
9.005
  0
LINE
  8
0
 10
59.137
 11
59.665
 20
9.005
 21
7.786
  0
LINE
  8
0
 10
59.665
 11
60.115
 20
7.786
 21
6.536
  0
LINE
  8
0
 10
60.115
 11
60.486
 20
6.536
 21
5.26
  0
LINE
  8
0
 10
60.486
 11
60.775
 20
5.26
 21
3.963
  0
LINE
  8
0
 10
60.775
 11
60.983
 20
3.963
 21
2.651
  0
LINE
  8
0
 10
60.983
 11
61.108
 20
2.651
 21
1.328
  0
LINE
  8
0
 10
61.108
 11
61.15
 20
1.328
 21
0
  0
LINE
  8
0
 10
61.15
 11
54.25
 20
0
 21
0
  0
LINE
  8
0
 10
54.25
 11
54.222
 20
0
 21
0.895
  0
LINE
  8
0
 10
54.222
 11
54.138
 20
0.895
 21
1.786
  0
LINE
  8
0
 10
54.138
 11
53.998
 20
1.786
 21
2.67
  0
LINE
  8
0
 10
53.998
 11
53.802
 20
2.67
 21
3.544
  0
LINE
  8
0
 10
53.802
 11
53.553
 20
3.544
 21
4.403
  0
LINE
  8
0
 10
53.553
 11
53.249
 20
4.403
 21
5.246
  0
LINE
  8
0
 10
53.249
 11
52.894
 20
5.246
 21
6.067
  0
LINE
  8
0
 10
52.894
 11
52.487
 20
6.067
 21
6.865
  0
LINE
  8
0
 10
52.487
 11
52.032
 20
6.865
 21
7.636
  0
LINE
  8
0
 10
52.032
 11
51.528
 20
7.636
 21
8.376
  0
LINE
  8
0
 10
51.528
 11
50.98
 20
8.376
 21
9.083
  0
LINE
  8
0
 10
50.98
 11
50.388
 20
9.083
 21
9.755
  0
LINE
  8
0
 10
50.388
 11
49.755
 20
9.755
 21
10.388
  0
LINE
  8
0
 10
49.755
 11
49.083
 20
10.388
 21
10.98
  0
LINE
  8
0
 10
49.083
 11
48.376
 20
10.98
 21
11.528
  0
LINE
  8
0
 10
48.376
 11
47.636
 20
11.528
 21
12.032
  0
LINE
  8
0
 10
47.636
 11
46.865
 20
12.032
 21
12.487
  0
LINE
  8
0
 10
46.865
 11
46.067
 20
12.487
 21
12.894
  0
LINE
  8
0
 10
46.067
 11
45.246
 20
12.894
 21
13.249
  0
LINE
  8
0
 10
45.246
 11
44.403
 20
13.249
 21
13.553
  0
LINE
  8
0
 10
44.403
 11
43.544
 20
13.553
 21
13.802
  0
LINE
  8
0
 10
43.544
 11
42.67
 20
13.802
 21
13.998
  0
LINE
  8
0
 10
42.67
 11
41.786
 20
13.998
 21
14.138
  0
LINE
  8
0
 10
41.786
 11
40.895
 20
14.138
 21
14.222
  0
LINE
  8
0
 10
40.895
 11
40
 20
14.222
 21
14.25
  0
LINE
  8
0
 10
40
 11
39.105
 20
14.25
 21
14.222
  0
LINE
  8
0
 10
39.105
 11
38.214
 20
14.222
 21
14.138
  0
LINE
  8
0
 10
38.214
 11
37.33
 20
14.138
 21
13.998
  0
LINE
  8
0
 10
37.33
 11
36.456
 20
13.998
 21
13.802
  0
LINE
  8
0
 10
36.456
 11
35.597
 20
13.802
 21
13.553
  0
LINE
  8
0
 10
35.597
 11
34.754
 20
13.553
 21
13.249
  0
LINE
  8
0
 10
34.754
 11
33.933
 20
13.249
 21
12.894
  0
LINE
  8
0
 10
33.933
 11
33.135
 20
12.894
 21
12.487
  0
LINE
  8
0
 10
33.135
 11
32.364
 20
12.487
 21
12.032
  0
LINE
  8
0
 10
32.364
 11
31.624
 20
12.032
 21
11.528
  0
LINE
  8
0
 10
31.624
 11
30.917
 20
11.528
 21
10.98
  0
LINE
  8
0
 10
30.917
 11
30.245
 20
10.98
 21
10.388
  0
LINE
  8
0
 10
30.245
 11
29.612
 20
10.388
 21
9.755
  0
LINE
  8
0
 10
29.612
 11
29.02
 20
9.755
 21
9.083
  0
LINE
  8
0
 10
29.02
 11
28.472
 20
9.083
 21
8.376
  0
LINE
  8
0
 10
28.472
 11
27.968
 20
8.376
 21
7.636
  0
LINE
  8
0
 10
27.968
 11
27.513
 20
7.636
 21
6.865
  0
LINE
  8
0
 10
27.513
 11
27.106
 20
6.865
 21
6.067
  0
LINE
  8
0
 10
27.106
 11
26.751
 20
6.067
 21
5.246
  0
LINE
  8
0
 10
26.751
 11
26.447
 20
5.246
 21
4.403
  0
LINE
  8
0
 10
26.447
 11
26.198
 20
4.403
 21
3.544
  0
LINE
  8
0
 10
26.198
 11
26.002
 20
3.544
 21
2.67
  0
LINE
  8
0
 10
26.002
 11
25.862
 20
2.67
 21
1.786
  0
LINE
  8
0
 10
25.862
 11
25.778
 20
1.786
 21
0.895
  0
LINE
  8
0
 10
25.778
 11
25.75
 20
0.895
 21
0
  0
LINE
  8
0
 10
25.75
 11
18.85
 20
0
 21
0
  0
LINE
  8
0
 10
20.457
 11
20.483
 20
4.453
 21
4.965
  0
LINE
  8
0
 10
20.483
 11
20.615
 20
4.965
 21
5.459
  0
LINE
  8
0
 10
20.615
 11
20.848
 20
5.459
 21
5.915
  0
LINE
  8
0
 10
20.848
 11
21.17
 20
5.915
 21
6.314
  0
LINE
  8
0
 10
21.17
 11
21.568
 20
6.314
 21
6.636
  0
LINE
  8
0
 10
21.568
 11
22.025
 20
6.636
 21
6.868
  0
LINE
  8
0
 10
22.025
 11
22.519
 20
6.868
 21
7.001
  0
LINE
  8
0
 10
22.519
 11
23.032
 20
7.001
 21
7.027
  0
LINE
  8
0
 10
23.032
 11
23.537
 20
7.027
 21
6.948
  0
LINE
  8
0
 10
23.537
 11
24.015
 20
6.948
 21
6.764
  0
LINE
  8
0
 10
24.015
 11
24.445
 20
6.764
 21
6.485
  0
LINE
  8
0
 10
24.445
 11
24.807
 20
6.485
 21
6.123
  0
LINE
  8
0
 10
24.807
 11
25.086
 20
6.123
 21
5.693
  0
LINE
  8
0
 10
25.086
 11
25.27
 20
5.693
 21
5.215
  0
LINE
  8
0
 10
25.27
 11
25.35
 20
5.215
 21
4.709
  0
LINE
  8
0
 10
25.35
 11
25.323
 20
4.709
 21
4.198
  0
LINE
  8
0
 10
25.323
 11
25.191
 20
4.198
 21
3.703
  0
LINE
  8
0
 10
25.191
 11
24.958
 20
3.703
 21
3.247
  0
LINE
  8
0
 10
24.958
 11
24.636
 20
3.247
 21
2.849
  0
LINE
  8
0
 10
24.636
 11
24.238
 20
2.849
 21
2.527
  0
LINE
  8
0
 10
24.238
 11
23.781
 20
2.527
 21
2.294
  0
LINE
  8
0
 10
23.781
 11
23.287
 20
2.294
 21
2.161
  0
LINE
  8
0
 10
23.287
 11
22.775
 20
2.161
 21
2.135
  0
LINE
  8
0
 10
22.775
 11
22.269
 20
2.135
 21
2.215
  0
LINE
  8
0
 10
22.269
 11
21.791
 20
2.215
 21
2.398
  0
LINE
  8
0
 10
21.791
 11
21.361
 20
2.398
 21
2.677
  0
LINE
  8
0
 10
21.361
 11
20.999
 20
2.677
 21
3.039
  0
LINE
  8
0
 10
20.999
 11
20.72
 20
3.039
 21
3.469
  0
LINE
  8
0
 10
20.72
 11
20.536
 20
3.469
 21
3.947
  0
LINE
  8
0
 10
20.536
 11
20.457
 20
3.947
 21
4.453
  0
LINE
  8
0
 10
37.55
 11
37.604
 20
17.7
 21
18.209
  0
LINE
  8
0
 10
37.604
 11
37.762
 20
18.209
 21
18.697
  0
LINE
  8
0
 10
37.762
 11
38.018
 20
18.697
 21
19.14
  0
LINE
  8
0
 10
38.018
 11
38.361
 20
19.14
 21
19.521
  0
LINE
  8
0
 10
38.361
 11
38.775
 20
19.521
 21
19.822
  0
LINE
  8
0
 10
38.775
 11
39.243
 20
19.822
 21
20.03
  0
LINE
  8
0
 10
39.243
 11
39.744
 20
20.03
 21
20.137
  0
LINE
  8
0
 10
39.744
 11
40.256
 20
20.137
 21
20.137
  0
LINE
  8
0
 10
40.256
 11
40.757
 20
20.137
 21
20.03
  0
LINE
  8
0
 10
40.757
 11
41.225
 20
20.03
 21
19.822
  0
LINE
  8
0
 10
41.225
 11
41.639
 20
19.822
 21
19.521
  0
LINE
  8
0
 10
41.639
 11
41.982
 20
19.521
 21
19.14
  0
LINE
  8
0
 10
41.982
 11
42.238
 20
19.14
 21
18.697
  0
LINE
  8
0
 10
42.238
 11
42.396
 20
18.697
 21
18.209
  0
LINE
  8
0
 10
42.396
 11
42.45
 20
18.209
 21
17.7
  0
LINE
  8
0
 10
42.45
 11
42.396
 20
17.7
 21
17.191
  0
LINE
  8
0
 10
42.396
 11
42.238
 20
17.191
 21
16.703
  0
LINE
  8
0
 10
42.238
 11
41.982
 20
16.703
 21
16.26
  0
LINE
  8
0
 10
41.982
 11
41.639
 20
16.26
 21
15.879
  0
LINE
  8
0
 10
41.639
 11
41.225
 20
15.879
 21
15.578
  0
LINE
  8
0
 10
41.225
 11
40.757
 20
15.578
 21
15.37
  0
LINE
  8
0
 10
40.757
 11
40.256
 20
15.37
 21
15.263
  0
LINE
  8
0
 10
40.256
 11
39.744
 20
15.263
 21
15.263
  0
LINE
  8
0
 10
39.744
 11
39.243
 20
15.263
 21
15.37
  0
LINE
  8
0
 10
39.243
 11
38.775
 20
15.37
 21
15.578
  0
LINE
  8
0
 10
38.775
 11
38.361
 20
15.578
 21
15.879
  0
LINE
  8
0
 10
38.361
 11
38.018
 20
15.879
 21
16.26
  0
LINE
  8
0
 10
38.018
 11
37.762
 20
16.26
 21
16.703
  0
LINE
  8
0
 10
37.762
 11
37.604
 20
16.703
 21
17.191
  0
LINE
  8
0
 10
37.604
 11
37.55
 20
17.191
 21
17.7
  0
LINE
  8
0
 10
54.65
 11
54.73
 20
4.709
 21
5.215
  0
LINE
  8
0
 10
54.73
 11
54.914
 20
5.215
 21
5.693
  0
LINE
  8
0
 10
54.914
 11
55.193
 20
5.693
 21
6.123
  0
LINE
  8
0
 10
55.193
 11
55.555
 20
6.123
 21
6.485
  0
LINE
  8
0
 10
55.555
 11
55.985
 20
6.485
 21
6.764
  0
LINE
  8
0
 10
55.985
 11
56.463
 20
6.764
 21
6.948
  0
LINE
  8
0
 10
56.463
 11
56.968
 20
6.948
 21
7.027
  0
LINE
  8
0
 10
56.968
 11
57.481
 20
7.027
 21
7.001
  0
LINE
  8
0
 10
57.481
 11
57.975
 20
7.001
 21
6.868
  0
LINE
  8
0
 10
57.975
 11
58.432
 20
6.868
 21
6.636
  0
LINE
  8
0
 10
58.432
 11
58.83
 20
6.636
 21
6.314
  0
LINE
  8
0
 10
58.83
 11
59.152
 20
6.314
 21
5.915
  0
LINE
  8
0
 10
59.152
 11
59.385
 20
5.915
 21
5.459
  0
LINE
  8
0
 10
59.385
 11
59.517
 20
5.459
 21
4.965
  0
LINE
  8
0
 10
59.517
 11
59.543
 20
4.965
 21
4.453
  0
LINE
  8
0
 10
59.543
 11
59.464
 20
4.453
 21
3.947
  0
LINE
  8
0
 10
59.464
 11
59.28
 20
3.947
 21
3.469
  0
LINE
  8
0
 10
59.28
 11
59.001
 20
3.469
 21
3.039
  0
LINE
  8
0
 10
59.001
 11
58.639
 20
3.039
 21
2.677
  0
LINE
  8
0
 10
58.639
 11
58.209
 20
2.677
 21
2.398
  0
LINE
  8
0
 10
58.209
 11
57.731
 20
2.398
 21
2.215
  0
LINE
  8
0
 10
57.731
 11
57.225
 20
2.215
 21
2.135
  0
LINE
  8
0
 10
57.225
 11
56.713
 20
2.135
 21
2.161
  0
LINE
  8
0
 10
56.713
 11
56.219
 20
2.161
 21
2.294
  0
LINE
  8
0
 10
56.219
 11
55.762
 20
2.294
 21
2.527
  0
LINE
  8
0
 10
55.762
 11
55.364
 20
2.527
 21
2.849
  0
LINE
  8
0
 10
55.364
 11
55.042
 20
2.849
 21
3.247
  0
LINE
  8
0
 10
55.042
 11
54.809
 20
3.247
 21
3.703
  0
LINE
  8
0
 10
54.809
 11
54.677
 20
3.703
 21
4.198
  0
LINE
  8
0
 10
54.677
 11
54.65
 20
4.198
 21
4.709
  0
LINE
  8
0
 10
63.85
 11
63.892
 20
0
 21
1.328
  0
LINE
  8
0
 10
63.892
 11
64.017
 20
1.328
 21
2.651
  0
LINE
  8
0
 10
64.017
 11
64.225
 20
2.651
 21
3.963
  0
LINE
  8
0
 10
64.225
 11
64.514
 20
3.963
 21
5.26
  0
LINE
  8
0
 10
64.514
 11
64.885
 20
5.26
 21
6.536
  0
LINE
  8
0
 10
64.885
 11
65.335
 20
6.536
 21
7.786
  0
LINE
  8
0
 10
65.335
 11
65.863
 20
7.786
 21
9.005
  0
LINE
  8
0
 10
65.863
 11
66.466
 20
9.005
 21
10.189
  0
LINE
  8
0
 10
66.466
 11
67.142
 20
10.189
 21
11.333
  0
LINE
  8
0
 10
67.142
 11
67.889
 20
11.333
 21
12.432
  0
LINE
  8
0
 10
67.889
 11
68.704
 20
12.432
 21
13.482
  0
LINE
  8
0
 10
68.704
 11
69.582
 20
13.482
 21
14.478
  0
LINE
  8
0
 10
69.582
 11
70.522
 20
14.478
 21
15.418
  0
LINE
  8
0
 10
70.522
 11
71.518
 20
15.418
 21
16.296
  0
LINE
  8
0
 10
71.518
 11
72.568
 20
16.296
 21
17.111
  0
LINE
  8
0
 10
72.568
 11
73.667
 20
17.111
 21
17.858
  0
LINE
  8
0
 10
73.667
 11
74.811
 20
17.858
 21
18.534
  0
LINE
  8
0
 10
74.811
 11
75.995
 20
18.534
 21
19.137
  0
LINE
  8
0
 10
75.995
 11
77.214
 20
19.137
 21
19.665
  0
LINE
  8
0
 10
77.214
 11
78.464
 20
19.665
 21
20.115
  0
LINE
  8
0
 10
78.464
 11
79.74
 20
20.115
 21
20.486
  0
LINE
  8
0
 10
79.74
 11
81.037
 20
20.486
 21
20.775
  0
LINE
  8
0
 10
81.037
 11
82.349
 20
20.775
 21
20.983
  0
LINE
  8
0
 10
82.349
 11
83.672
 20
20.983
 21
21.108
  0
LINE
  8
0
 10
83.672
 11
85
 20
21.108
 21
21.15
  0
LINE
  8
0
 10
85
 11
86.328
 20
21.15
 21
21.108
  0
LINE
  8
0
 10
86.328
 11
87.651
 20
21.108
 21
20.983
  0
LINE
  8
0
 10
87.651
 11
88.963
 20
20.983
 21
20.775
  0
LINE
  8
0
 10
88.963
 11
90.26
 20
20.775
 21
20.486
  0
LINE
  8
0
 10
90.26
 11
91.536
 20
20.486
 21
20.115
  0
LINE
  8
0
 10
91.536
 11
92.786
 20
20.115
 21
19.665
  0
LINE
  8
0
 10
92.786
 11
94.005
 20
19.665
 21
19.137
  0
LINE
  8
0
 10
94.005
 11
95.189
 20
19.137
 21
18.534
  0
LINE
  8
0
 10
95.189
 11
96.333
 20
18.534
 21
17.858
  0
LINE
  8
0
 10
96.333
 11
97.432
 20
17.858
 21
17.111
  0
LINE
  8
0
 10
97.432
 11
98.482
 20
17.111
 21
16.296
  0
LINE
  8
0
 10
98.482
 11
99.478
 20
16.296
 21
15.418
  0
LINE
  8
0
 10
99.478
 11
100.418
 20
15.418
 21
14.478
  0
LINE
  8
0
 10
100.418
 11
101.296
 20
14.478
 21
13.482
  0
LINE
  8
0
 10
101.296
 11
102.111
 20
13.482
 21
12.432
  0
LINE
  8
0
 10
102.111
 11
102.858
 20
12.432
 21
11.333
  0
LINE
  8
0
 10
102.858
 11
103.534
 20
11.333
 21
10.189
  0
LINE
  8
0
 10
103.534
 11
104.137
 20
10.189
 21
9.005
  0
LINE
  8
0
 10
104.137
 11
104.665
 20
9.005
 21
7.786
  0
LINE
  8
0
 10
104.665
 11
105.115
 20
7.786
 21
6.536
  0
LINE
  8
0
 10
105.115
 11
105.486
 20
6.536
 21
5.26
  0
LINE
  8
0
 10
105.486
 11
105.775
 20
5.26
 21
3.963
  0
LINE
  8
0
 10
105.775
 11
105.983
 20
3.963
 21
2.651
  0
LINE
  8
0
 10
105.983
 11
106.108
 20
2.651
 21
1.328
  0
LINE
  8
0
 10
106.108
 11
106.15
 20
1.328
 21
0
  0
LINE
  8
0
 10
106.15
 11
96.15
 20
0
 21
0
  0
LINE
  8
0
 10
96.15
 11
96.128
 20
0
 21
0.7
  0
LINE
  8
0
 10
96.128
 11
96.062
 20
0.7
 21
1.397
  0
LINE
  8
0
 10
96.062
 11
95.953
 20
1.397
 21
2.089
  0
LINE
  8
0
 10
95.953
 11
95.8
 20
2.089
 21
2.773
  0
LINE
  8
0
 10
95.8
 11
95.604
 20
2.773
 21
3.446
  0
LINE
  8
0
 10
95.604
 11
95.367
 20
3.446
 21
4.105
  0
LINE
  8
0
 10
95.367
 11
95.089
 20
4.105
 21
4.747
  0
LINE
  8
0
 10
95.089
 11
94.771
 20
4.747
 21
5.372
  0
LINE
  8
0
 10
94.771
 11
94.414
 20
5.372
 21
5.974
  0
LINE
  8
0
 10
94.414
 11
94.021
 20
5.974
 21
6.554
  0
LINE
  8
0
 10
94.021
 11
93.591
 20
6.554
 21
7.107
  0
LINE
  8
0
 10
93.591
 11
93.128
 20
7.107
 21
7.633
  0
LINE
  8
0
 10
93.128
 11
92.633
 20
7.633
 21
8.128
  0
LINE
  8
0
 10
92.633
 11
92.107
 20
8.128
 21
8.591
  0
LINE
  8
0
 10
92.107
 11
91.554
 20
8.591
 21
9.021
  0
LINE
  8
0
 10
91.554
 11
90.974
 20
9.021
 21
9.414
  0
LINE
  8
0
 10
90.974
 11
90.372
 20
9.414
 21
9.771
  0
LINE
  8
0
 10
90.372
 11
89.747
 20
9.771
 21
10.089
  0
LINE
  8
0
 10
89.747
 11
89.105
 20
10.089
 21
10.367
  0
LINE
  8
0
 10
89.105
 11
88.446
 20
10.367
 21
10.604
  0
LINE
  8
0
 10
88.446
 11
87.773
 20
10.604
 21
10.8
  0
LINE
  8
0
 10
87.773
 11
87.089
 20
10.8
 21
10.953
  0
LINE
  8
0
 10
87.089
 11
86.397
 20
10.953
 21
11.062
  0
LINE
  8
0
 10
86.397
 11
85.7
 20
11.062
 21
11.128
  0
LINE
  8
0
 10
85.7
 11
85
 20
11.128
 21
11.15
  0
LINE
  8
0
 10
85
 11
84.3
 20
11.15
 21
11.128
  0
LINE
  8
0
 10
84.3
 11
83.603
 20
11.128
 21
11.062
  0
LINE
  8
0
 10
83.603
 11
82.911
 20
11.062
 21
10.953
  0
LINE
  8
0
 10
82.911
 11
82.227
 20
10.953
 21
10.8
  0
LINE
  8
0
 10
82.227
 11
81.554
 20
10.8
 21
10.604
  0
LINE
  8
0
 10
81.554
 11
80.895
 20
10.604
 21
10.367
  0
LINE
  8
0
 10
80.895
 11
80.253
 20
10.367
 21
10.089
  0
LINE
  8
0
 10
80.253
 11
79.628
 20
10.089
 21
9.771
  0
LINE
  8
0
 10
79.628
 11
79.026
 20
9.771
 21
9.414
  0
LINE
  8
0
 10
79.026
 11
78.446
 20
9.414
 21
9.021
  0
LINE
  8
0
 10
78.446
 11
77.893
 20
9.021
 21
8.591
  0
LINE
  8
0
 10
77.893
 11
77.367
 20
8.591
 21
8.128
  0
LINE
  8
0
 10
77.367
 11
76.872
 20
8.128
 21
7.633
  0
LINE
  8
0
 10
76.872
 11
76.409
 20
7.633
 21
7.107
  0
LINE
  8
0
 10
76.409
 11
75.979
 20
7.107
 21
6.554
  0
LINE
  8
0
 10
75.979
 11
75.586
 20
6.554
 21
5.974
  0
LINE
  8
0
 10
75.586
 11
75.229
 20
5.974
 21
5.372
  0
LINE
  8
0
 10
75.229
 11
74.911
 20
5.372
 21
4.747
  0
LINE
  8
0
 10
74.911
 11
74.633
 20
4.747
 21
4.105
  0
LINE
  8
0
 10
74.633
 11
74.396
 20
4.105
 21
3.446
  0
LINE
  8
0
 10
74.396
 11
74.2
 20
3.446
 21
2.773
  0
LINE
  8
0
 10
74.2
 11
74.047
 20
2.773
 21
2.089
  0
LINE
  8
0
 10
74.047
 11
73.938
 20
2.089
 21
1.397
  0
LINE
  8
0
 10
73.938
 11
73.872
 20
1.397
 21
0.7
  0
LINE
  8
0
 10
73.872
 11
73.85
 20
0.7
 21
0
  0
LINE
  8
0
 10
73.85
 11
63.85
 20
0
 21
0
  0
LINE
  8
0
 10
65.457
 11
65.483
 20
4.453
 21
4.965
  0
LINE
  8
0
 10
65.483
 11
65.615
 20
4.965
 21
5.459
  0
LINE
  8
0
 10
65.615
 11
65.848
 20
5.459
 21
5.915
  0
LINE
  8
0
 10
65.848
 11
66.17
 20
5.915
 21
6.314
  0
LINE
  8
0
 10
66.17
 11
66.568
 20
6.314
 21
6.636
  0
LINE
  8
0
 10
66.568
 11
67.025
 20
6.636
 21
6.868
  0
LINE
  8
0
 10
67.025
 11
67.519
 20
6.868
 21
7.001
  0
LINE
  8
0
 10
67.519
 11
68.032
 20
7.001
 21
7.027
  0
LINE
  8
0
 10
68.032
 11
68.537
 20
7.027
 21
6.948
  0
LINE
  8
0
 10
68.537
 11
69.015
 20
6.948
 21
6.764
  0
LINE
  8
0
 10
69.015
 11
69.445
 20
6.764
 21
6.485
  0
LINE
  8
0
 10
69.445
 11
69.807
 20
6.485
 21
6.123
  0
LINE
  8
0
 10
69.807
 11
70.086
 20
6.123
 21
5.693
  0
LINE
  8
0
 10
70.086
 11
70.27
 20
5.693
 21
5.215
  0
LINE
  8
0
 10
70.27
 11
70.35
 20
5.215
 21
4.709
  0
LINE
  8
0
 10
70.35
 11
70.323
 20
4.709
 21
4.198
  0
LINE
  8
0
 10
70.323
 11
70.191
 20
4.198
 21
3.703
  0
LINE
  8
0
 10
70.191
 11
69.958
 20
3.703
 21
3.247
  0
LINE
  8
0
 10
69.958
 11
69.636
 20
3.247
 21
2.849
  0
LINE
  8
0
 10
69.636
 11
69.238
 20
2.849
 21
2.527
  0
LINE
  8
0
 10
69.238
 11
68.781
 20
2.527
 21
2.294
  0
LINE
  8
0
 10
68.781
 11
68.287
 20
2.294
 21
2.161
  0
LINE
  8
0
 10
68.287
 11
67.775
 20
2.161
 21
2.135
  0
LINE
  8
0
 10
67.775
 11
67.269
 20
2.135
 21
2.215
  0
LINE
  8
0
 10
67.269
 11
66.791
 20
2.215
 21
2.398
  0
LINE
  8
0
 10
66.791
 11
66.361
 20
2.398
 21
2.677
  0
LINE
  8
0
 10
66.361
 11
65.999
 20
2.677
 21
3.039
  0
LINE
  8
0
 10
65.999
 11
65.72
 20
3.039
 21
3.469
  0
LINE
  8
0
 10
65.72
 11
65.536
 20
3.469
 21
3.947
  0
LINE
  8
0
 10
65.536
 11
65.457
 20
3.947
 21
4.453
  0
LINE
  8
0
 10
82.55
 11
82.604
 20
17.7
 21
18.209
  0
LINE
  8
0
 10
82.604
 11
82.762
 20
18.209
 21
18.697
  0
LINE
  8
0
 10
82.762
 11
83.018
 20
18.697
 21
19.14
  0
LINE
  8
0
 10
83.018
 11
83.361
 20
19.14
 21
19.521
  0
LINE
  8
0
 10
83.361
 11
83.775
 20
19.521
 21
19.822
  0
LINE
  8
0
 10
83.775
 11
84.243
 20
19.822
 21
20.03
  0
LINE
  8
0
 10
84.243
 11
84.744
 20
20.03
 21
20.137
  0
LINE
  8
0
 10
84.744
 11
85.256
 20
20.137
 21
20.137
  0
LINE
  8
0
 10
85.256
 11
85.757
 20
20.137
 21
20.03
  0
LINE
  8
0
 10
85.757
 11
86.225
 20
20.03
 21
19.822
  0
LINE
  8
0
 10
86.225
 11
86.639
 20
19.822
 21
19.521
  0
LINE
  8
0
 10
86.639
 11
86.982
 20
19.521
 21
19.14
  0
LINE
  8
0
 10
86.982
 11
87.238
 20
19.14
 21
18.697
  0
LINE
  8
0
 10
87.238
 11
87.396
 20
18.697
 21
18.209
  0
LINE
  8
0
 10
87.396
 11
87.45
 20
18.209
 21
17.7
  0
LINE
  8
0
 10
87.45
 11
87.396
 20
17.7
 21
17.191
  0
LINE
  8
0
 10
87.396
 11
87.238
 20
17.191
 21
16.703
  0
LINE
  8
0
 10
87.238
 11
86.982
 20
16.703
 21
16.26
  0
LINE
  8
0
 10
86.982
 11
86.639
 20
16.26
 21
15.879
  0
LINE
  8
0
 10
86.639
 11
86.225
 20
15.879
 21
15.578
  0
LINE
  8
0
 10
86.225
 11
85.757
 20
15.578
 21
15.37
  0
LINE
  8
0
 10
85.757
 11
85.256
 20
15.37
 21
15.263
  0
LINE
  8
0
 10
85.256
 11
84.744
 20
15.263
 21
15.263
  0
LINE
  8
0
 10
84.744
 11
84.243
 20
15.263
 21
15.37
  0
LINE
  8
0
 10
84.243
 11
83.775
 20
15.37
 21
15.578
  0
LINE
  8
0
 10
83.775
 11
83.361
 20
15.578
 21
15.879
  0
LINE
  8
0
 10
83.361
 11
83.018
 20
15.879
 21
16.26
  0
LINE
  8
0
 10
83.018
 11
82.762
 20
16.26
 21
16.703
  0
LINE
  8
0
 10
82.762
 11
82.604
 20
16.703
 21
17.191
  0
LINE
  8
0
 10
82.604
 11
82.55
 20
17.191
 21
17.7
  0
LINE
  8
0
 10
99.65
 11
99.73
 20
4.709
 21
5.215
  0
LINE
  8
0
 10
99.73
 11
99.914
 20
5.215
 21
5.693
  0
LINE
  8
0
 10
99.914
 11
100.193
 20
5.693
 21
6.123
  0
LINE
  8
0
 10
100.193
 11
100.555
 20
6.123
 21
6.485
  0
LINE
  8
0
 10
100.555
 11
100.985
 20
6.485
 21
6.764
  0
LINE
  8
0
 10
100.985
 11
101.463
 20
6.764
 21
6.948
  0
LINE
  8
0
 10
101.463
 11
101.968
 20
6.948
 21
7.027
  0
LINE
  8
0
 10
101.968
 11
102.481
 20
7.027
 21
7.001
  0
LINE
  8
0
 10
102.481
 11
102.975
 20
7.001
 21
6.868
  0
LINE
  8
0
 10
102.975
 11
103.432
 20
6.868
 21
6.636
  0
LINE
  8
0
 10
103.432
 11
103.83
 20
6.636
 21
6.314
  0
LINE
  8
0
 10
103.83
 11
104.152
 20
6.314
 21
5.915
  0
LINE
  8
0
 10
104.152
 11
104.385
 20
5.915
 21
5.459
  0
LINE
  8
0
 10
104.385
 11
104.517
 20
5.459
 21
4.965
  0
LINE
  8
0
 10
104.517
 11
104.543
 20
4.965
 21
4.453
  0
LINE
  8
0
 10
104.543
 11
104.464
 20
4.453
 21
3.947
  0
LINE
  8
0
 10
104.464
 11
104.28
 20
3.947
 21
3.469
  0
LINE
  8
0
 10
104.28
 11
104.001
 20
3.469
 21
3.039
  0
LINE
  8
0
 10
104.001
 11
103.639
 20
3.039
 21
2.677
  0
LINE
  8
0
 10
103.639
 11
103.209
 20
2.677
 21
2.398
  0
LINE
  8
0
 10
103.209
 11
102.731
 20
2.398
 21
2.215
  0
LINE
  8
0
 10
102.731
 11
102.225
 20
2.215
 21
2.135
  0
LINE
  8
0
 10
102.225
 11
101.713
 20
2.135
 21
2.161
  0
LINE
  8
0
 10
101.713
 11
101.219
 20
2.161
 21
2.294
  0
LINE
  8
0
 10
101.219
 11
100.762
 20
2.294
 21
2.527
  0
LINE
  8
0
 10
100.762
 11
100.364
 20
2.527
 21
2.849
  0
LINE
  8
0
 10
100.364
 11
100.042
 20
2.849
 21
3.247
  0
LINE
  8
0
 10
100.042
 11
99.809
 20
3.247
 21
3.703
  0
LINE
  8
0
 10
99.809
 11
99.677
 20
3.703
 21
4.198
  0
LINE
  8
0
 10
99.677
 11
99.65
 20
4.198
 21
4.709
  0
LINE
  8
0
 10
108.85
 11
108.892
 20
0
 21
1.328
  0
LINE
  8
0
 10
108.892
 11
109.017
 20
1.328
 21
2.651
  0
LINE
  8
0
 10
109.017
 11
109.225
 20
2.651
 21
3.963
  0
LINE
  8
0
 10
109.225
 11
109.514
 20
3.963
 21
5.26
  0
LINE
  8
0
 10
109.514
 11
109.885
 20
5.26
 21
6.536
  0
LINE
  8
0
 10
109.885
 11
110.335
 20
6.536
 21
7.786
  0
LINE
  8
0
 10
110.335
 11
110.863
 20
7.786
 21
9.005
  0
LINE
  8
0
 10
110.863
 11
111.466
 20
9.005
 21
10.189
  0
LINE
  8
0
 10
111.466
 11
112.142
 20
10.189
 21
11.333
  0
LINE
  8
0
 10
112.142
 11
112.889
 20
11.333
 21
12.432
  0
LINE
  8
0
 10
112.889
 11
113.704
 20
12.432
 21
13.482
  0
LINE
  8
0
 10
113.704
 11
114.582
 20
13.482
 21
14.478
  0
LINE
  8
0
 10
114.582
 11
115.522
 20
14.478
 21
15.418
  0
LINE
  8
0
 10
115.522
 11
116.518
 20
15.418
 21
16.296
  0
LINE
  8
0
 10
116.518
 11
117.568
 20
16.296
 21
17.111
  0
LINE
  8
0
 10
117.568
 11
118.667
 20
17.111
 21
17.858
  0
LINE
  8
0
 10
118.667
 11
119.811
 20
17.858
 21
18.534
  0
LINE
  8
0
 10
119.811
 11
120.995
 20
18.534
 21
19.137
  0
LINE
  8
0
 10
120.995
 11
122.214
 20
19.137
 21
19.665
  0
LINE
  8
0
 10
122.214
 11
123.464
 20
19.665
 21
20.115
  0
LINE
  8
0
 10
123.464
 11
124.74
 20
20.115
 21
20.486
  0
LINE
  8
0
 10
124.74
 11
125.55
 20
20.486
 21
20.666
  0
LINE
  8
0
 10
125.55
 11
125.55
 20
20.666
 21
30.6
  0
LINE
  8
0
 10
125.55
 11
134.45
 20
30.6
 21
30.6
  0
LINE
  8
0
 10
134.45
 11
134.45
 20
30.6
 21
20.666
  0
LINE
  8
0
 10
134.45
 11
135.26
 20
20.666
 21
20.486
  0
LINE
  8
0
 10
135.26
 11
136.536
 20
20.486
 21
20.115
  0
LINE
  8
0
 10
136.536
 11
137.786
 20
20.115
 21
19.665
  0
LINE
  8
0
 10
137.786
 11
139.005
 20
19.665
 21
19.137
  0
LINE
  8
0
 10
139.005
 11
140.189
 20
19.137
 21
18.534
  0
LINE
  8
0
 10
140.189
 11
141.333
 20
18.534
 21
17.858
  0
LINE
  8
0
 10
141.333
 11
142.432
 20
17.858
 21
17.111
  0
LINE
  8
0
 10
142.432
 11
143.482
 20
17.111
 21
16.296
  0
LINE
  8
0
 10
143.482
 11
144.478
 20
16.296
 21
15.418
  0
LINE
  8
0
 10
144.478
 11
145.418
 20
15.418
 21
14.478
  0
LINE
  8
0
 10
145.418
 11
146.296
 20
14.478
 21
13.482
  0
LINE
  8
0
 10
146.296
 11
147.111
 20
13.482
 21
12.432
  0
LINE
  8
0
 10
147.111
 11
147.858
 20
12.432
 21
11.333
  0
LINE
  8
0
 10
147.858
 11
148.534
 20
11.333
 21
10.189
  0
LINE
  8
0
 10
148.534
 11
149.137
 20
10.189
 21
9.005
  0
LINE
  8
0
 10
149.137
 11
149.665
 20
9.005
 21
7.786
  0
LINE
  8
0
 10
149.665
 11
150.115
 20
7.786
 21
6.536
  0
LINE
  8
0
 10
150.115
 11
150.486
 20
6.536
 21
5.26
  0
LINE
  8
0
 10
150.486
 11
150.775
 20
5.26
 21
3.963
  0
LINE
  8
0
 10
150.775
 11
150.983
 20
3.963
 21
2.651
  0
LINE
  8
0
 10
150.983
 11
151.108
 20
2.651
 21
1.328
  0
LINE
  8
0
 10
151.108
 11
151.15
 20
1.328
 21
0
  0
LINE
  8
0
 10
151.15
 11
151.108
 20
0
 21
-1.328
  0
LINE
  8
0
 10
151.108
 11
150.983
 20
-1.328
 21
-2.651
  0
LINE
  8
0
 10
150.983
 11
150.775
 20
-2.651
 21
-3.963
  0
LINE
  8
0
 10
150.775
 11
150.544
 20
-3.963
 21
-5
  0
LINE
  8
0
 10
150.544
 11
137.434
 20
-5
 21
-5
  0
LINE
  8
0
 10
137.434
 11
138.168
 20
-5
 21
-3.779
  0
LINE
  8
0
 10
138.168
 11
138.79
 20
-3.779
 21
-1.935
  0
LINE
  8
0
 10
138.79
 11
139
 20
-1.935
 21
0
  0
LINE
  8
0
 10
139
 11
138.79
 20
0
 21
1.935
  0
LINE
  8
0
 10
138.79
 11
138.168
 20
1.935
 21
3.779
  0
LINE
  8
0
 10
138.168
 11
137.165
 20
3.779
 21
5.447
  0
LINE
  8
0
 10
137.165
 11
135.826
 20
5.447
 21
6.859
  0
LINE
  8
0
 10
135.826
 11
135
 20
6.859
 21
7.42
  0
LINE
  8
0
 10
135
 11
135
 20
7.42
 21
7.068
  0
LINE
  8
0
 10
135
 11
135.424
 20
7.068
 21
6.802
  0
LINE
  8
0
 10
135.424
 11
136.802
 20
6.802
 21
5.424
  0
LINE
  8
0
 10
136.802
 11
137.838
 20
5.424
 21
3.775
  0
LINE
  8
0
 10
137.838
 11
138.482
 20
3.775
 21
1.936
  0
LINE
  8
0
 10
138.482
 11
138.7
 20
1.936
 21
0
  0
LINE
  8
0
 10
138.7
 11
138.482
 20
0
 21
-1.936
  0
LINE
  8
0
 10
138.482
 11
137.838
 20
-1.936
 21
-3.775
  0
LINE
  8
0
 10
137.838
 11
137.068
 20
-3.775
 21
-5
  0
LINE
  8
0
 10
137.068
 11
122.932
 20
-5
 21
-5
  0
LINE
  8
0
 10
122.932
 11
122.162
 20
-5
 21
-3.775
  0
LINE
  8
0
 10
122.162
 11
121.518
 20
-3.775
 21
-1.936
  0
LINE
  8
0
 10
121.518
 11
121.3
 20
-1.936
 21
0
  0
LINE
  8
0
 10
121.3
 11
121.518
 20
0
 21
1.936
  0
LINE
  8
0
 10
121.518
 11
122.162
 20
1.936
 21
3.775
  0
LINE
  8
0
 10
122.162
 11
123.198
 20
3.775
 21
5.424
  0
LINE
  8
0
 10
123.198
 11
124.576
 20
5.424
 21
6.802
  0
LINE
  8
0
 10
124.576
 11
125
 20
6.802
 21
7.068
  0
LINE
  8
0
 10
125
 11
125
 20
7.068
 21
7.476
  0
LINE
  8
0
 10
125
 11
124.949
 20
7.476
 21
7.449
  0
LINE
  8
0
 10
124.949
 11
123.466
 20
7.449
 21
6.189
  0
LINE
  8
0
 10
123.466
 11
122.288
 20
6.189
 21
4.64
  0
LINE
  8
0
 10
122.288
 11
121.471
 20
4.64
 21
2.874
  0
LINE
  8
0
 10
121.471
 11
121.053
 20
2.874
 21
0.973
  0
LINE
  8
0
 10
121.053
 11
121.053
 20
0.973
 21
-0.973
  0
LINE
  8
0
 10
121.053
 11
121.471
 20
-0.973
 21
-2.874
  0
LINE
  8
0
 10
121.471
 11
122.288
 20
-2.874
 21
-4.64
  0
LINE
  8
0
 10
122.288
 11
122.562
 20
-4.64
 21
-5
  0
LINE
  8
0
 10
122.562
 11
109.456
 20
-5
 21
-5
  0
LINE
  8
0
 10
109.456
 11
109.225
 20
-5
 21
-3.963
  0
LINE
  8
0
 10
109.225
 11
109.017
 20
-3.963
 21
-2.651
  0
LINE
  8
0
 10
109.017
 11
108.892
 20
-2.651
 21
-1.328
  0
LINE
  8
0
 10
108.892
 11
108.85
 20
-1.328
 21
0
  0
LINE
  8
0
 10
110.457
 11
110.483
 20
4.453
 21
4.965
  0
LINE
  8
0
 10
110.483
 11
110.615
 20
4.965
 21
5.459
  0
LINE
  8
0
 10
110.615
 11
110.848
 20
5.459
 21
5.915
  0
LINE
  8
0
 10
110.848
 11
111.17
 20
5.915
 21
6.314
  0
LINE
  8
0
 10
111.17
 11
111.568
 20
6.314
 21
6.636
  0
LINE
  8
0
 10
111.568
 11
112.025
 20
6.636
 21
6.868
  0
LINE
  8
0
 10
112.025
 11
112.519
 20
6.868
 21
7.001
  0
LINE
  8
0
 10
112.519
 11
113.032
 20
7.001
 21
7.027
  0
LINE
  8
0
 10
113.032
 11
113.537
 20
7.027
 21
6.948
  0
LINE
  8
0
 10
113.537
 11
114.015
 20
6.948
 21
6.764
  0
LINE
  8
0
 10
114.015
 11
114.445
 20
6.764
 21
6.485
  0
LINE
  8
0
 10
114.445
 11
114.807
 20
6.485
 21
6.123
  0
LINE
  8
0
 10
114.807
 11
115.086
 20
6.123
 21
5.693
  0
LINE
  8
0
 10
115.086
 11
115.27
 20
5.693
 21
5.215
  0
LINE
  8
0
 10
115.27
 11
115.35
 20
5.215
 21
4.709
  0
LINE
  8
0
 10
115.35
 11
115.323
 20
4.709
 21
4.198
  0
LINE
  8
0
 10
115.323
 11
115.191
 20
4.198
 21
3.703
  0
LINE
  8
0
 10
115.191
 11
114.958
 20
3.703
 21
3.247
  0
LINE
  8
0
 10
114.958
 11
114.636
 20
3.247
 21
2.849
  0
LINE
  8
0
 10
114.636
 11
114.238
 20
2.849
 21
2.527
  0
LINE
  8
0
 10
114.238
 11
113.781
 20
2.527
 21
2.294
  0
LINE
  8
0
 10
113.781
 11
113.287
 20
2.294
 21
2.161
  0
LINE
  8
0
 10
113.287
 11
112.775
 20
2.161
 21
2.135
  0
LINE
  8
0
 10
112.775
 11
112.269
 20
2.135
 21
2.215
  0
LINE
  8
0
 10
112.269
 11
111.791
 20
2.215
 21
2.398
  0
LINE
  8
0
 10
111.791
 11
111.361
 20
2.398
 21
2.677
  0
LINE
  8
0
 10
111.361
 11
110.999
 20
2.677
 21
3.039
  0
LINE
  8
0
 10
110.999
 11
110.72
 20
3.039
 21
3.469
  0
LINE
  8
0
 10
110.72
 11
110.536
 20
3.469
 21
3.947
  0
LINE
  8
0
 10
110.536
 11
110.457
 20
3.947
 21
4.453
  0
LINE
  8
0
 10
125.2
 11
125.209
 20
0
 21
0.301
  0
LINE
  8
0
 10
125.209
 11
125.238
 20
0.301
 21
0.602
  0
LINE
  8
0
 10
125.238
 11
125.285
 20
0.602
 21
0.899
  0
LINE
  8
0
 10
125.285
 11
125.351
 20
0.899
 21
1.194
  0
LINE
  8
0
 10
125.351
 11
125.435
 20
1.194
 21
1.483
  0
LINE
  8
0
 10
125.435
 11
125.537
 20
1.483
 21
1.767
  0
LINE
  8
0
 10
125.537
 11
125.657
 20
1.767
 21
2.044
  0
LINE
  8
0
 10
125.657
 11
125.794
 20
2.044
 21
2.312
  0
LINE
  8
0
 10
125.794
 11
125.947
 20
2.312
 21
2.572
  0
LINE
  8
0
 10
125.947
 11
126.117
 20
2.572
 21
2.821
  0
LINE
  8
0
 10
126.117
 11
126.302
 20
2.821
 21
3.06
  0
LINE
  8
0
 10
126.302
 11
126.501
 20
3.06
 21
3.286
  0
LINE
  8
0
 10
126.501
 11
126.714
 20
3.286
 21
3.499
  0
LINE
  8
0
 10
126.714
 11
126.94
 20
3.499
 21
3.698
  0
LINE
  8
0
 10
126.94
 11
127.179
 20
3.698
 21
3.883
  0
LINE
  8
0
 10
127.179
 11
127.428
 20
3.883
 21
4.053
  0
LINE
  8
0
 10
127.428
 11
127.688
 20
4.053
 21
4.206
  0
LINE
  8
0
 10
127.688
 11
127.956
 20
4.206
 21
4.343
  0
LINE
  8
0
 10
127.956
 11
128.233
 20
4.343
 21
4.463
  0
LINE
  8
0
 10
128.233
 11
128.517
 20
4.463
 21
4.565
  0
LINE
  8
0
 10
128.517
 11
128.806
 20
4.565
 21
4.649
  0
LINE
  8
0
 10
128.806
 11
129.101
 20
4.649
 21
4.715
  0
LINE
  8
0
 10
129.101
 11
129.398
 20
4.715
 21
4.762
  0
LINE
  8
0
 10
129.398
 11
129.699
 20
4.762
 21
4.791
  0
LINE
  8
0
 10
129.699
 11
130
 20
4.791
 21
4.8
  0
LINE
  8
0
 10
130
 11
130.301
 20
4.8
 21
4.791
  0
LINE
  8
0
 10
130.301
 11
130.602
 20
4.791
 21
4.762
  0
LINE
  8
0
 10
130.602
 11
130.899
 20
4.762
 21
4.715
  0
LINE
  8
0
 10
130.899
 11
131.194
 20
4.715
 21
4.649
  0
LINE
  8
0
 10
131.194
 11
131.483
 20
4.649
 21
4.565
  0
LINE
  8
0
 10
131.483
 11
131.767
 20
4.565
 21
4.463
  0
LINE
  8
0
 10
131.767
 11
132.044
 20
4.463
 21
4.343
  0
LINE
  8
0
 10
132.044
 11
132.312
 20
4.343
 21
4.206
  0
LINE
  8
0
 10
132.312
 11
132.572
 20
4.206
 21
4.053
  0
LINE
  8
0
 10
132.572
 11
132.821
 20
4.053
 21
3.883
  0
LINE
  8
0
 10
132.821
 11
133.06
 20
3.883
 21
3.698
  0
LINE
  8
0
 10
133.06
 11
133.286
 20
3.698
 21
3.499
  0
LINE
  8
0
 10
133.286
 11
133.499
 20
3.499
 21
3.286
  0
LINE
  8
0
 10
133.499
 11
133.698
 20
3.286
 21
3.06
  0
LINE
  8
0
 10
133.698
 11
133.883
 20
3.06
 21
2.821
  0
LINE
  8
0
 10
133.883
 11
134.053
 20
2.821
 21
2.572
  0
LINE
  8
0
 10
134.053
 11
134.206
 20
2.572
 21
2.312
  0
LINE
  8
0
 10
134.206
 11
134.343
 20
2.312
 21
2.044
  0
LINE
  8
0
 10
134.343
 11
134.463
 20
2.044
 21
1.767
  0
LINE
  8
0
 10
134.463
 11
134.565
 20
1.767
 21
1.483
  0
LINE
  8
0
 10
134.565
 11
134.649
 20
1.483
 21
1.194
  0
LINE
  8
0
 10
134.649
 11
134.715
 20
1.194
 21
0.899
  0
LINE
  8
0
 10
134.715
 11
134.762
 20
0.899
 21
0.602
  0
LINE
  8
0
 10
134.762
 11
134.791
 20
0.602
 21
0.301
  0
LINE
  8
0
 10
134.791
 11
134.8
 20
0.301
 21
0
  0
LINE
  8
0
 10
134.8
 11
134.791
 20
0
 21
-0.301
  0
LINE
  8
0
 10
134.791
 11
134.762
 20
-0.301
 21
-0.602
  0
LINE
  8
0
 10
134.762
 11
134.715
 20
-0.602
 21
-0.899
  0
LINE
  8
0
 10
134.715
 11
134.649
 20
-0.899
 21
-1.194
  0
LINE
  8
0
 10
134.649
 11
134.565
 20
-1.194
 21
-1.483
  0
LINE
  8
0
 10
134.565
 11
134.463
 20
-1.483
 21
-1.767
  0
LINE
  8
0
 10
134.463
 11
134.343
 20
-1.767
 21
-2.044
  0
LINE
  8
0
 10
134.343
 11
134.206
 20
-2.044
 21
-2.312
  0
LINE
  8
0
 10
134.206
 11
134.053
 20
-2.312
 21
-2.572
  0
LINE
  8
0
 10
134.053
 11
133.883
 20
-2.572
 21
-2.821
  0
LINE
  8
0
 10
133.883
 11
133.698
 20
-2.821
 21
-3.06
  0
LINE
  8
0
 10
133.698
 11
133.499
 20
-3.06
 21
-3.286
  0
LINE
  8
0
 10
133.499
 11
133.286
 20
-3.286
 21
-3.499
  0
LINE
  8
0
 10
133.286
 11
133.06
 20
-3.499
 21
-3.698
  0
LINE
  8
0
 10
133.06
 11
132.821
 20
-3.698
 21
-3.883
  0
LINE
  8
0
 10
132.821
 11
132.572
 20
-3.883
 21
-4.053
  0
LINE
  8
0
 10
132.572
 11
132.312
 20
-4.053
 21
-4.206
  0
LINE
  8
0
 10
132.312
 11
132.044
 20
-4.206
 21
-4.343
  0
LINE
  8
0
 10
132.044
 11
131.767
 20
-4.343
 21
-4.463
  0
LINE
  8
0
 10
131.767
 11
131.483
 20
-4.463
 21
-4.565
  0
LINE
  8
0
 10
131.483
 11
131.194
 20
-4.565
 21
-4.649
  0
LINE
  8
0
 10
131.194
 11
130.899
 20
-4.649
 21
-4.715
  0
LINE
  8
0
 10
130.899
 11
130.602
 20
-4.715
 21
-4.762
  0
LINE
  8
0
 10
130.602
 11
130.301
 20
-4.762
 21
-4.791
  0
LINE
  8
0
 10
130.301
 11
130
 20
-4.791
 21
-4.8
  0
LINE
  8
0
 10
130
 11
129.699
 20
-4.8
 21
-4.791
  0
LINE
  8
0
 10
129.699
 11
129.398
 20
-4.791
 21
-4.762
  0
LINE
  8
0
 10
129.398
 11
129.101
 20
-4.762
 21
-4.715
  0
LINE
  8
0
 10
129.101
 11
128.806
 20
-4.715
 21
-4.649
  0
LINE
  8
0
 10
128.806
 11
128.517
 20
-4.649
 21
-4.565
  0
LINE
  8
0
 10
128.517
 11
128.233
 20
-4.565
 21
-4.463
  0
LINE
  8
0
 10
128.233
 11
127.956
 20
-4.463
 21
-4.343
  0
LINE
  8
0
 10
127.956
 11
127.688
 20
-4.343
 21
-4.206
  0
LINE
  8
0
 10
127.688
 11
127.428
 20
-4.206
 21
-4.053
  0
LINE
  8
0
 10
127.428
 11
127.179
 20
-4.053
 21
-3.883
  0
LINE
  8
0
 10
127.179
 11
126.94
 20
-3.883
 21
-3.698
  0
LINE
  8
0
 10
126.94
 11
126.714
 20
-3.698
 21
-3.499
  0
LINE
  8
0
 10
126.714
 11
126.501
 20
-3.499
 21
-3.286
  0
LINE
  8
0
 10
126.501
 11
126.302
 20
-3.286
 21
-3.06
  0
LINE
  8
0
 10
126.302
 11
126.117
 20
-3.06
 21
-2.821
  0
LINE
  8
0
 10
126.117
 11
125.947
 20
-2.821
 21
-2.572
  0
LINE
  8
0
 10
125.947
 11
125.794
 20
-2.572
 21
-2.312
  0
LINE
  8
0
 10
125.794
 11
125.657
 20
-2.312
 21
-2.044
  0
LINE
  8
0
 10
125.657
 11
125.537
 20
-2.044
 21
-1.767
  0
LINE
  8
0
 10
125.537
 11
125.435
 20
-1.767
 21
-1.483
  0
LINE
  8
0
 10
125.435
 11
125.351
 20
-1.483
 21
-1.194
  0
LINE
  8
0
 10
125.351
 11
125.285
 20
-1.194
 21
-0.899
  0
LINE
  8
0
 10
125.285
 11
125.238
 20
-0.899
 21
-0.602
  0
LINE
  8
0
 10
125.238
 11
125.209
 20
-0.602
 21
-0.301
  0
LINE
  8
0
 10
125.209
 11
125.2
 20
-0.301
 21
0
  0
LINE
  8
0
 10
127.55
 11
127.604
 20
17.7
 21
18.209
  0
LINE
  8
0
 10
127.604
 11
127.762
 20
18.209
 21
18.697
  0
LINE
  8
0
 10
127.762
 11
128.018
 20
18.697
 21
19.14
  0
LINE
  8
0
 10
128.018
 11
128.361
 20
19.14
 21
19.521
  0
LINE
  8
0
 10
128.361
 11
128.775
 20
19.521
 21
19.822
  0
LINE
  8
0
 10
128.775
 11
129.243
 20
19.822
 21
20.03
  0
LINE
  8
0
 10
129.243
 11
129.744
 20
20.03
 21
20.137
  0
LINE
  8
0
 10
129.744
 11
130.256
 20
20.137
 21
20.137
  0
LINE
  8
0
 10
130.256
 11
130.757
 20
20.137
 21
20.03
  0
LINE
  8
0
 10
130.757
 11
131.225
 20
20.03
 21
19.822
  0
LINE
  8
0
 10
131.225
 11
131.639
 20
19.822
 21
19.521
  0
LINE
  8
0
 10
131.639
 11
131.982
 20
19.521
 21
19.14
  0
LINE
  8
0
 10
131.982
 11
132.238
 20
19.14
 21
18.697
  0
LINE
  8
0
 10
132.238
 11
132.396
 20
18.697
 21
18.209
  0
LINE
  8
0
 10
132.396
 11
132.45
 20
18.209
 21
17.7
  0
LINE
  8
0
 10
132.45
 11
132.396
 20
17.7
 21
17.191
  0
LINE
  8
0
 10
132.396
 11
132.238
 20
17.191
 21
16.703
  0
LINE
  8
0
 10
132.238
 11
131.982
 20
16.703
 21
16.26
  0
LINE
  8
0
 10
131.982
 11
131.639
 20
16.26
 21
15.879
  0
LINE
  8
0
 10
131.639
 11
131.225
 20
15.879
 21
15.578
  0
LINE
  8
0
 10
131.225
 11
130.757
 20
15.578
 21
15.37
  0
LINE
  8
0
 10
130.757
 11
130.256
 20
15.37
 21
15.263
  0
LINE
  8
0
 10
130.256
 11
129.744
 20
15.263
 21
15.263
  0
LINE
  8
0
 10
129.744
 11
129.243
 20
15.263
 21
15.37
  0
LINE
  8
0
 10
129.243
 11
128.775
 20
15.37
 21
15.578
  0
LINE
  8
0
 10
128.775
 11
128.361
 20
15.578
 21
15.879
  0
LINE
  8
0
 10
128.361
 11
128.018
 20
15.879
 21
16.26
  0
LINE
  8
0
 10
128.018
 11
127.762
 20
16.26
 21
16.703
  0
LINE
  8
0
 10
127.762
 11
127.604
 20
16.703
 21
17.191
  0
LINE
  8
0
 10
127.604
 11
127.55
 20
17.191
 21
17.7
  0
LINE
  8
0
 10
127.55
 11
127.604
 20
26.6
 21
27.109
  0
LINE
  8
0
 10
127.604
 11
127.762
 20
27.109
 21
27.597
  0
LINE
  8
0
 10
127.762
 11
128.018
 20
27.597
 21
28.04
  0
LINE
  8
0
 10
128.018
 11
128.361
 20
28.04
 21
28.421
  0
LINE
  8
0
 10
128.361
 11
128.775
 20
28.421
 21
28.722
  0
LINE
  8
0
 10
128.775
 11
129.243
 20
28.722
 21
28.93
  0
LINE
  8
0
 10
129.243
 11
129.744
 20
28.93
 21
29.037
  0
LINE
  8
0
 10
129.744
 11
130.256
 20
29.037
 21
29.037
  0
LINE
  8
0
 10
130.256
 11
130.757
 20
29.037
 21
28.93
  0
LINE
  8
0
 10
130.757
 11
131.225
 20
28.93
 21
28.722
  0
LINE
  8
0
 10
131.225
 11
131.639
 20
28.722
 21
28.421
  0
LINE
  8
0
 10
131.639
 11
131.982
 20
28.421
 21
28.04
  0
LINE
  8
0
 10
131.982
 11
132.238
 20
28.04
 21
27.597
  0
LINE
  8
0
 10
132.238
 11
132.396
 20
27.597
 21
27.109
  0
LINE
  8
0
 10
132.396
 11
132.45
 20
27.109
 21
26.6
  0
LINE
  8
0
 10
132.45
 11
132.396
 20
26.6
 21
26.091
  0
LINE
  8
0
 10
132.396
 11
132.238
 20
26.091
 21
25.603
  0
LINE
  8
0
 10
132.238
 11
131.982
 20
25.603
 21
25.16
  0
LINE
  8
0
 10
131.982
 11
131.639
 20
25.16
 21
24.779
  0
LINE
  8
0
 10
131.639
 11
131.225
 20
24.779
 21
24.478
  0
LINE
  8
0
 10
131.225
 11
130.757
 20
24.478
 21
24.27
  0
LINE
  8
0
 10
130.757
 11
130.256
 20
24.27
 21
24.163
  0
LINE
  8
0
 10
130.256
 11
129.744
 20
24.163
 21
24.163
  0
LINE
  8
0
 10
129.744
 11
129.243
 20
24.163
 21
24.27
  0
LINE
  8
0
 10
129.243
 11
128.775
 20
24.27
 21
24.478
  0
LINE
  8
0
 10
128.775
 11
128.361
 20
24.478
 21
24.779
  0
LINE
  8
0
 10
128.361
 11
128.018
 20
24.779
 21
25.16
  0
LINE
  8
0
 10
128.018
 11
127.762
 20
25.16
 21
25.603
  0
LINE
  8
0
 10
127.762
 11
127.604
 20
25.603
 21
26.091
  0
LINE
  8
0
 10
127.604
 11
127.55
 20
26.091
 21
26.6
  0
LINE
  8
0
 10
144.65
 11
144.73
 20
4.709
 21
5.215
  0
LINE
  8
0
 10
144.73
 11
144.914
 20
5.215
 21
5.693
  0
LINE
  8
0
 10
144.914
 11
145.193
 20
5.693
 21
6.123
  0
LINE
  8
0
 10
145.193
 11
145.555
 20
6.123
 21
6.485
  0
LINE
  8
0
 10
145.555
 11
145.985
 20
6.485
 21
6.764
  0
LINE
  8
0
 10
145.985
 11
146.463
 20
6.764
 21
6.948
  0
LINE
  8
0
 10
146.463
 11
146.968
 20
6.948
 21
7.027
  0
LINE
  8
0
 10
146.968
 11
147.481
 20
7.027
 21
7.001
  0
LINE
  8
0
 10
147.481
 11
147.975
 20
7.001
 21
6.868
  0
LINE
  8
0
 10
147.975
 11
148.432
 20
6.868
 21
6.636
  0
LINE
  8
0
 10
148.432
 11
148.83
 20
6.636
 21
6.314
  0
LINE
  8
0
 10
148.83
 11
149.152
 20
6.314
 21
5.915
  0
LINE
  8
0
 10
149.152
 11
149.385
 20
5.915
 21
5.459
  0
LINE
  8
0
 10
149.385
 11
149.517
 20
5.459
 21
4.965
  0
LINE
  8
0
 10
149.517
 11
149.543
 20
4.965
 21
4.453
  0
LINE
  8
0
 10
149.543
 11
149.464
 20
4.453
 21
3.947
  0
LINE
  8
0
 10
149.464
 11
149.28
 20
3.947
 21
3.469
  0
LINE
  8
0
 10
149.28
 11
149.001
 20
3.469
 21
3.039
  0
LINE
  8
0
 10
149.001
 11
148.639
 20
3.039
 21
2.677
  0
LINE
  8
0
 10
148.639
 11
148.209
 20
2.677
 21
2.398
  0
LINE
  8
0
 10
148.209
 11
147.731
 20
2.398
 21
2.215
  0
LINE
  8
0
 10
147.731
 11
147.225
 20
2.215
 21
2.135
  0
LINE
  8
0
 10
147.225
 11
146.713
 20
2.135
 21
2.161
  0
LINE
  8
0
 10
146.713
 11
146.219
 20
2.161
 21
2.294
  0
LINE
  8
0
 10
146.219
 11
145.762
 20
2.294
 21
2.527
  0
LINE
  8
0
 10
145.762
 11
145.364
 20
2.527
 21
2.849
  0
LINE
  8
0
 10
145.364
 11
145.042
 20
2.849
 21
3.247
  0
LINE
  8
0
 10
145.042
 11
144.809
 20
3.247
 21
3.703
  0
LINE
  8
0
 10
144.809
 11
144.677
 20
3.703
 21
4.198
  0
LINE
  8
0
 10
144.677
 11
144.65
 20
4.198
 21
4.709
  0
LINE
  8
0
 10
158.85
 11
158.892
 20
0
 21
1.328
  0
LINE
  8
0
 10
158.892
 11
159.017
 20
1.328
 21
2.651
  0
LINE
  8
0
 10
159.017
 11
159.225
 20
2.651
 21
3.963
  0
LINE
  8
0
 10
159.225
 11
159.514
 20
3.963
 21
5.26
  0
LINE
  8
0
 10
159.514
 11
159.885
 20
5.26
 21
6.536
  0
LINE
  8
0
 10
159.885
 11
160.335
 20
6.536
 21
7.786
  0
LINE
  8
0
 10
160.335
 11
160.863
 20
7.786
 21
9.005
  0
LINE
  8
0
 10
160.863
 11
161.466
 20
9.005
 21
10.189
  0
LINE
  8
0
 10
161.466
 11
162.142
 20
10.189
 21
11.333
  0
LINE
  8
0
 10
162.142
 11
162.889
 20
11.333
 21
12.432
  0
LINE
  8
0
 10
162.889
 11
163.704
 20
12.432
 21
13.482
  0
LINE
  8
0
 10
163.704
 11
164.582
 20
13.482
 21
14.478
  0
LINE
  8
0
 10
164.582
 11
165.522
 20
14.478
 21
15.418
  0
LINE
  8
0
 10
165.522
 11
166.518
 20
15.418
 21
16.296
  0
LINE
  8
0
 10
166.518
 11
167.568
 20
16.296
 21
17.111
  0
LINE
  8
0
 10
167.568
 11
168.667
 20
17.111
 21
17.858
  0
LINE
  8
0
 10
168.667
 11
169.811
 20
17.858
 21
18.534
  0
LINE
  8
0
 10
169.811
 11
170.995
 20
18.534
 21
19.137
  0
LINE
  8
0
 10
170.995
 11
172.214
 20
19.137
 21
19.665
  0
LINE
  8
0
 10
172.214
 11
173.464
 20
19.665
 21
20.115
  0
LINE
  8
0
 10
173.464
 11
174.74
 20
20.115
 21
20.486
  0
LINE
  8
0
 10
174.74
 11
176.037
 20
20.486
 21
20.775
  0
LINE
  8
0
 10
176.037
 11
177.349
 20
20.775
 21
20.983
  0
LINE
  8
0
 10
177.349
 11
178.672
 20
20.983
 21
21.108
  0
LINE
  8
0
 10
178.672
 11
180
 20
21.108
 21
21.15
  0
LINE
  8
0
 10
180
 11
181.328
 20
21.15
 21
21.108
  0
LINE
  8
0
 10
181.328
 11
182.651
 20
21.108
 21
20.983
  0
LINE
  8
0
 10
182.651
 11
183.963
 20
20.983
 21
20.775
  0
LINE
  8
0
 10
183.963
 11
185.26
 20
20.775
 21
20.486
  0
LINE
  8
0
 10
185.26
 11
186.536
 20
20.486
 21
20.115
  0
LINE
  8
0
 10
186.536
 11
187.786
 20
20.115
 21
19.665
  0
LINE
  8
0
 10
187.786
 11
189.005
 20
19.665
 21
19.137
  0
LINE
  8
0
 10
189.005
 11
190.189
 20
19.137
 21
18.534
  0
LINE
  8
0
 10
190.189
 11
191.333
 20
18.534
 21
17.858
  0
LINE
  8
0
 10
191.333
 11
192.432
 20
17.858
 21
17.111
  0
LINE
  8
0
 10
192.432
 11
193.482
 20
17.111
 21
16.296
  0
LINE
  8
0
 10
193.482
 11
194.478
 20
16.296
 21
15.418
  0
LINE
  8
0
 10
194.478
 11
195.418
 20
15.418
 21
14.478
  0
LINE
  8
0
 10
195.418
 11
196.296
 20
14.478
 21
13.482
  0
LINE
  8
0
 10
196.296
 11
197.111
 20
13.482
 21
12.432
  0
LINE
  8
0
 10
197.111
 11
197.858
 20
12.432
 21
11.333
  0
LINE
  8
0
 10
197.858
 11
198.534
 20
11.333
 21
10.189
  0
LINE
  8
0
 10
198.534
 11
199.137
 20
10.189
 21
9.005
  0
LINE
  8
0
 10
199.137
 11
199.665
 20
9.005
 21
7.786
  0
LINE
  8
0
 10
199.665
 11
200.115
 20
7.786
 21
6.536
  0
LINE
  8
0
 10
200.115
 11
200.486
 20
6.536
 21
5.26
  0
LINE
  8
0
 10
200.486
 11
200.775
 20
5.26
 21
3.963
  0
LINE
  8
0
 10
200.775
 11
200.983
 20
3.963
 21
2.651
  0
LINE
  8
0
 10
200.983
 11
201.108
 20
2.651
 21
1.328
  0
LINE
  8
0
 10
201.108
 11
201.15
 20
1.328
 21
0
  0
LINE
  8
0
 10
201.15
 11
201.108
 20
0
 21
-1.328
  0
LINE
  8
0
 10
201.108
 11
200.983
 20
-1.328
 21
-2.651
  0
LINE
  8
0
 10
200.983
 11
200.775
 20
-2.651
 21
-3.963
  0
LINE
  8
0
 10
200.775
 11
200.544
 20
-3.963
 21
-5
  0
LINE
  8
0
 10
200.544
 11
187.434
 20
-5
 21
-5
  0
LINE
  8
0
 10
187.434
 11
188.168
 20
-5
 21
-3.779
  0
LINE
  8
0
 10
188.168
 11
188.79
 20
-3.779
 21
-1.935
  0
LINE
  8
0
 10
188.79
 11
189
 20
-1.935
 21
0
  0
LINE
  8
0
 10
189
 11
188.79
 20
0
 21
1.935
  0
LINE
  8
0
 10
188.79
 11
188.168
 20
1.935
 21
3.779
  0
LINE
  8
0
 10
188.168
 11
187.165
 20
3.779
 21
5.447
  0
LINE
  8
0
 10
187.165
 11
185.826
 20
5.447
 21
6.859
  0
LINE
  8
0
 10
185.826
 11
185
 20
6.859
 21
7.42
  0
LINE
  8
0
 10
185
 11
185
 20
7.42
 21
7.068
  0
LINE
  8
0
 10
185
 11
185.424
 20
7.068
 21
6.802
  0
LINE
  8
0
 10
185.424
 11
186.802
 20
6.802
 21
5.424
  0
LINE
  8
0
 10
186.802
 11
187.838
 20
5.424
 21
3.775
  0
LINE
  8
0
 10
187.838
 11
188.482
 20
3.775
 21
1.936
  0
LINE
  8
0
 10
188.482
 11
188.7
 20
1.936
 21
0
  0
LINE
  8
0
 10
188.7
 11
188.482
 20
0
 21
-1.936
  0
LINE
  8
0
 10
188.482
 11
187.838
 20
-1.936
 21
-3.775
  0
LINE
  8
0
 10
187.838
 11
187.068
 20
-3.775
 21
-5
  0
LINE
  8
0
 10
187.068
 11
172.932
 20
-5
 21
-5
  0
LINE
  8
0
 10
172.932
 11
172.162
 20
-5
 21
-3.775
  0
LINE
  8
0
 10
172.162
 11
171.518
 20
-3.775
 21
-1.936
  0
LINE
  8
0
 10
171.518
 11
171.3
 20
-1.936
 21
0
  0
LINE
  8
0
 10
171.3
 11
171.518
 20
0
 21
1.936
  0
LINE
  8
0
 10
171.518
 11
172.162
 20
1.936
 21
3.775
  0
LINE
  8
0
 10
172.162
 11
173.198
 20
3.775
 21
5.424
  0
LINE
  8
0
 10
173.198
 11
174.576
 20
5.424
 21
6.802
  0
LINE
  8
0
 10
174.576
 11
175
 20
6.802
 21
7.068
  0
LINE
  8
0
 10
175
 11
175
 20
7.068
 21
7.476
  0
LINE
  8
0
 10
175
 11
174.949
 20
7.476
 21
7.449
  0
LINE
  8
0
 10
174.949
 11
173.466
 20
7.449
 21
6.189
  0
LINE
  8
0
 10
173.466
 11
172.288
 20
6.189
 21
4.64
  0
LINE
  8
0
 10
172.288
 11
171.471
 20
4.64
 21
2.874
  0
LINE
  8
0
 10
171.471
 11
171.053
 20
2.874
 21
0.973
  0
LINE
  8
0
 10
171.053
 11
171.053
 20
0.973
 21
-0.973
  0
LINE
  8
0
 10
171.053
 11
171.471
 20
-0.973
 21
-2.874
  0
LINE
  8
0
 10
171.471
 11
172.288
 20
-2.874
 21
-4.64
  0
LINE
  8
0
 10
172.288
 11
172.562
 20
-4.64
 21
-5
  0
LINE
  8
0
 10
172.562
 11
159.456
 20
-5
 21
-5
  0
LINE
  8
0
 10
159.456
 11
159.225
 20
-5
 21
-3.963
  0
LINE
  8
0
 10
159.225
 11
159.017
 20
-3.963
 21
-2.651
  0
LINE
  8
0
 10
159.017
 11
158.892
 20
-2.651
 21
-1.328
  0
LINE
  8
0
 10
158.892
 11
158.85
 20
-1.328
 21
0
  0
LINE
  8
0
 10
160.457
 11
160.483
 20
4.453
 21
4.965
  0
LINE
  8
0
 10
160.483
 11
160.615
 20
4.965
 21
5.459
  0
LINE
  8
0
 10
160.615
 11
160.848
 20
5.459
 21
5.915
  0
LINE
  8
0
 10
160.848
 11
161.17
 20
5.915
 21
6.314
  0
LINE
  8
0
 10
161.17
 11
161.568
 20
6.314
 21
6.636
  0
LINE
  8
0
 10
161.568
 11
162.025
 20
6.636
 21
6.868
  0
LINE
  8
0
 10
162.025
 11
162.519
 20
6.868
 21
7.001
  0
LINE
  8
0
 10
162.519
 11
163.032
 20
7.001
 21
7.027
  0
LINE
  8
0
 10
163.032
 11
163.537
 20
7.027
 21
6.948
  0
LINE
  8
0
 10
163.537
 11
164.015
 20
6.948
 21
6.764
  0
LINE
  8
0
 10
164.015
 11
164.445
 20
6.764
 21
6.485
  0
LINE
  8
0
 10
164.445
 11
164.807
 20
6.485
 21
6.123
  0
LINE
  8
0
 10
164.807
 11
165.086
 20
6.123
 21
5.693
  0
LINE
  8
0
 10
165.086
 11
165.27
 20
5.693
 21
5.215
  0
LINE
  8
0
 10
165.27
 11
165.35
 20
5.215
 21
4.709
  0
LINE
  8
0
 10
165.35
 11
165.323
 20
4.709
 21
4.198
  0
LINE
  8
0
 10
165.323
 11
165.191
 20
4.198
 21
3.703
  0
LINE
  8
0
 10
165.191
 11
164.958
 20
3.703
 21
3.247
  0
LINE
  8
0
 10
164.958
 11
164.636
 20
3.247
 21
2.849
  0
LINE
  8
0
 10
164.636
 11
164.238
 20
2.849
 21
2.527
  0
LINE
  8
0
 10
164.238
 11
163.781
 20
2.527
 21
2.294
  0
LINE
  8
0
 10
163.781
 11
163.287
 20
2.294
 21
2.161
  0
LINE
  8
0
 10
163.287
 11
162.775
 20
2.161
 21
2.135
  0
LINE
  8
0
 10
162.775
 11
162.269
 20
2.135
 21
2.215
  0
LINE
  8
0
 10
162.269
 11
161.791
 20
2.215
 21
2.398
  0
LINE
  8
0
 10
161.791
 11
161.361
 20
2.398
 21
2.677
  0
LINE
  8
0
 10
161.361
 11
160.999
 20
2.677
 21
3.039
  0
LINE
  8
0
 10
160.999
 11
160.72
 20
3.039
 21
3.469
  0
LINE
  8
0
 10
160.72
 11
160.536
 20
3.469
 21
3.947
  0
LINE
  8
0
 10
160.536
 11
160.457
 20
3.947
 21
4.453
  0
LINE
  8
0
 10
175.2
 11
175.209
 20
0
 21
0.301
  0
LINE
  8
0
 10
175.209
 11
175.238
 20
0.301
 21
0.602
  0
LINE
  8
0
 10
175.238
 11
175.285
 20
0.602
 21
0.899
  0
LINE
  8
0
 10
175.285
 11
175.351
 20
0.899
 21
1.194
  0
LINE
  8
0
 10
175.351
 11
175.435
 20
1.194
 21
1.483
  0
LINE
  8
0
 10
175.435
 11
175.537
 20
1.483
 21
1.767
  0
LINE
  8
0
 10
175.537
 11
175.657
 20
1.767
 21
2.044
  0
LINE
  8
0
 10
175.657
 11
175.794
 20
2.044
 21
2.312
  0
LINE
  8
0
 10
175.794
 11
175.947
 20
2.312
 21
2.572
  0
LINE
  8
0
 10
175.947
 11
176.117
 20
2.572
 21
2.821
  0
LINE
  8
0
 10
176.117
 11
176.302
 20
2.821
 21
3.06
  0
LINE
  8
0
 10
176.302
 11
176.501
 20
3.06
 21
3.286
  0
LINE
  8
0
 10
176.501
 11
176.714
 20
3.286
 21
3.499
  0
LINE
  8
0
 10
176.714
 11
176.94
 20
3.499
 21
3.698
  0
LINE
  8
0
 10
176.94
 11
177.179
 20
3.698
 21
3.883
  0
LINE
  8
0
 10
177.179
 11
177.428
 20
3.883
 21
4.053
  0
LINE
  8
0
 10
177.428
 11
177.688
 20
4.053
 21
4.206
  0
LINE
  8
0
 10
177.688
 11
177.956
 20
4.206
 21
4.343
  0
LINE
  8
0
 10
177.956
 11
178.233
 20
4.343
 21
4.463
  0
LINE
  8
0
 10
178.233
 11
178.517
 20
4.463
 21
4.565
  0
LINE
  8
0
 10
178.517
 11
178.806
 20
4.565
 21
4.649
  0
LINE
  8
0
 10
178.806
 11
179.101
 20
4.649
 21
4.715
  0
LINE
  8
0
 10
179.101
 11
179.398
 20
4.715
 21
4.762
  0
LINE
  8
0
 10
179.398
 11
179.699
 20
4.762
 21
4.791
  0
LINE
  8
0
 10
179.699
 11
180
 20
4.791
 21
4.8
  0
LINE
  8
0
 10
180
 11
180.301
 20
4.8
 21
4.791
  0
LINE
  8
0
 10
180.301
 11
180.602
 20
4.791
 21
4.762
  0
LINE
  8
0
 10
180.602
 11
180.899
 20
4.762
 21
4.715
  0
LINE
  8
0
 10
180.899
 11
181.194
 20
4.715
 21
4.649
  0
LINE
  8
0
 10
181.194
 11
181.483
 20
4.649
 21
4.565
  0
LINE
  8
0
 10
181.483
 11
181.767
 20
4.565
 21
4.463
  0
LINE
  8
0
 10
181.767
 11
182.044
 20
4.463
 21
4.343
  0
LINE
  8
0
 10
182.044
 11
182.312
 20
4.343
 21
4.206
  0
LINE
  8
0
 10
182.312
 11
182.572
 20
4.206
 21
4.053
  0
LINE
  8
0
 10
182.572
 11
182.821
 20
4.053
 21
3.883
  0
LINE
  8
0
 10
182.821
 11
183.06
 20
3.883
 21
3.698
  0
LINE
  8
0
 10
183.06
 11
183.286
 20
3.698
 21
3.499
  0
LINE
  8
0
 10
183.286
 11
183.499
 20
3.499
 21
3.286
  0
LINE
  8
0
 10
183.499
 11
183.698
 20
3.286
 21
3.06
  0
LINE
  8
0
 10
183.698
 11
183.883
 20
3.06
 21
2.821
  0
LINE
  8
0
 10
183.883
 11
184.053
 20
2.821
 21
2.572
  0
LINE
  8
0
 10
184.053
 11
184.206
 20
2.572
 21
2.312
  0
LINE
  8
0
 10
184.206
 11
184.343
 20
2.312
 21
2.044
  0
LINE
  8
0
 10
184.343
 11
184.463
 20
2.044
 21
1.767
  0
LINE
  8
0
 10
184.463
 11
184.565
 20
1.767
 21
1.483
  0
LINE
  8
0
 10
184.565
 11
184.649
 20
1.483
 21
1.194
  0
LINE
  8
0
 10
184.649
 11
184.715
 20
1.194
 21
0.899
  0
LINE
  8
0
 10
184.715
 11
184.762
 20
0.899
 21
0.602
  0
LINE
  8
0
 10
184.762
 11
184.791
 20
0.602
 21
0.301
  0
LINE
  8
0
 10
184.791
 11
184.8
 20
0.301
 21
0
  0
LINE
  8
0
 10
184.8
 11
184.791
 20
0
 21
-0.301
  0
LINE
  8
0
 10
184.791
 11
184.762
 20
-0.301
 21
-0.602
  0
LINE
  8
0
 10
184.762
 11
184.715
 20
-0.602
 21
-0.899
  0
LINE
  8
0
 10
184.715
 11
184.649
 20
-0.899
 21
-1.194
  0
LINE
  8
0
 10
184.649
 11
184.565
 20
-1.194
 21
-1.483
  0
LINE
  8
0
 10
184.565
 11
184.463
 20
-1.483
 21
-1.767
  0
LINE
  8
0
 10
184.463
 11
184.343
 20
-1.767
 21
-2.044
  0
LINE
  8
0
 10
184.343
 11
184.206
 20
-2.044
 21
-2.312
  0
LINE
  8
0
 10
184.206
 11
184.053
 20
-2.312
 21
-2.572
  0
LINE
  8
0
 10
184.053
 11
183.883
 20
-2.572
 21
-2.821
  0
LINE
  8
0
 10
183.883
 11
183.698
 20
-2.821
 21
-3.06
  0
LINE
  8
0
 10
183.698
 11
183.499
 20
-3.06
 21
-3.286
  0
LINE
  8
0
 10
183.499
 11
183.286
 20
-3.286
 21
-3.499
  0
LINE
  8
0
 10
183.286
 11
183.06
 20
-3.499
 21
-3.698
  0
LINE
  8
0
 10
183.06
 11
182.821
 20
-3.698
 21
-3.883
  0
LINE
  8
0
 10
182.821
 11
182.572
 20
-3.883
 21
-4.053
  0
LINE
  8
0
 10
182.572
 11
182.312
 20
-4.053
 21
-4.206
  0
LINE
  8
0
 10
182.312
 11
182.044
 20
-4.206
 21
-4.343
  0
LINE
  8
0
 10
182.044
 11
181.767
 20
-4.343
 21
-4.463
  0
LINE
  8
0
 10
181.767
 11
181.483
 20
-4.463
 21
-4.565
  0
LINE
  8
0
 10
181.483
 11
181.194
 20
-4.565
 21
-4.649
  0
LINE
  8
0
 10
181.194
 11
180.899
 20
-4.649
 21
-4.715
  0
LINE
  8
0
 10
180.899
 11
180.602
 20
-4.715
 21
-4.762
  0
LINE
  8
0
 10
180.602
 11
180.301
 20
-4.762
 21
-4.791
  0
LINE
  8
0
 10
180.301
 11
180
 20
-4.791
 21
-4.8
  0
LINE
  8
0
 10
180
 11
179.699
 20
-4.8
 21
-4.791
  0
LINE
  8
0
 10
179.699
 11
179.398
 20
-4.791
 21
-4.762
  0
LINE
  8
0
 10
179.398
 11
179.101
 20
-4.762
 21
-4.715
  0
LINE
  8
0
 10
179.101
 11
178.806
 20
-4.715
 21
-4.649
  0
LINE
  8
0
 10
178.806
 11
178.517
 20
-4.649
 21
-4.565
  0
LINE
  8
0
 10
178.517
 11
178.233
 20
-4.565
 21
-4.463
  0
LINE
  8
0
 10
178.233
 11
177.956
 20
-4.463
 21
-4.343
  0
LINE
  8
0
 10
177.956
 11
177.688
 20
-4.343
 21
-4.206
  0
LINE
  8
0
 10
177.688
 11
177.428
 20
-4.206
 21
-4.053
  0
LINE
  8
0
 10
177.428
 11
177.179
 20
-4.053
 21
-3.883
  0
LINE
  8
0
 10
177.179
 11
176.94
 20
-3.883
 21
-3.698
  0
LINE
  8
0
 10
176.94
 11
176.714
 20
-3.698
 21
-3.499
  0
LINE
  8
0
 10
176.714
 11
176.501
 20
-3.499
 21
-3.286
  0
LINE
  8
0
 10
176.501
 11
176.302
 20
-3.286
 21
-3.06
  0
LINE
  8
0
 10
176.302
 11
176.117
 20
-3.06
 21
-2.821
  0
LINE
  8
0
 10
176.117
 11
175.947
 20
-2.821
 21
-2.572
  0
LINE
  8
0
 10
175.947
 11
175.794
 20
-2.572
 21
-2.312
  0
LINE
  8
0
 10
175.794
 11
175.657
 20
-2.312
 21
-2.044
  0
LINE
  8
0
 10
175.657
 11
175.537
 20
-2.044
 21
-1.767
  0
LINE
  8
0
 10
175.537
 11
175.435
 20
-1.767
 21
-1.483
  0
LINE
  8
0
 10
175.435
 11
175.351
 20
-1.483
 21
-1.194
  0
LINE
  8
0
 10
175.351
 11
175.285
 20
-1.194
 21
-0.899
  0
LINE
  8
0
 10
175.285
 11
175.238
 20
-0.899
 21
-0.602
  0
LINE
  8
0
 10
175.238
 11
175.209
 20
-0.602
 21
-0.301
  0
LINE
  8
0
 10
175.209
 11
175.2
 20
-0.301
 21
0
  0
LINE
  8
0
 10
177.55
 11
177.604
 20
17.7
 21
18.209
  0
LINE
  8
0
 10
177.604
 11
177.762
 20
18.209
 21
18.697
  0
LINE
  8
0
 10
177.762
 11
178.018
 20
18.697
 21
19.14
  0
LINE
  8
0
 10
178.018
 11
178.361
 20
19.14
 21
19.521
  0
LINE
  8
0
 10
178.361
 11
178.775
 20
19.521
 21
19.822
  0
LINE
  8
0
 10
178.775
 11
179.243
 20
19.822
 21
20.03
  0
LINE
  8
0
 10
179.243
 11
179.744
 20
20.03
 21
20.137
  0
LINE
  8
0
 10
179.744
 11
180.256
 20
20.137
 21
20.137
  0
LINE
  8
0
 10
180.256
 11
180.757
 20
20.137
 21
20.03
  0
LINE
  8
0
 10
180.757
 11
181.225
 20
20.03
 21
19.822
  0
LINE
  8
0
 10
181.225
 11
181.639
 20
19.822
 21
19.521
  0
LINE
  8
0
 10
181.639
 11
181.982
 20
19.521
 21
19.14
  0
LINE
  8
0
 10
181.982
 11
182.238
 20
19.14
 21
18.697
  0
LINE
  8
0
 10
182.238
 11
182.396
 20
18.697
 21
18.209
  0
LINE
  8
0
 10
182.396
 11
182.45
 20
18.209
 21
17.7
  0
LINE
  8
0
 10
182.45
 11
182.396
 20
17.7
 21
17.191
  0
LINE
  8
0
 10
182.396
 11
182.238
 20
17.191
 21
16.703
  0
LINE
  8
0
 10
182.238
 11
181.982
 20
16.703
 21
16.26
  0
LINE
  8
0
 10
181.982
 11
181.639
 20
16.26
 21
15.879
  0
LINE
  8
0
 10
181.639
 11
181.225
 20
15.879
 21
15.578
  0
LINE
  8
0
 10
181.225
 11
180.757
 20
15.578
 21
15.37
  0
LINE
  8
0
 10
180.757
 11
180.256
 20
15.37
 21
15.263
  0
LINE
  8
0
 10
180.256
 11
179.744
 20
15.263
 21
15.263
  0
LINE
  8
0
 10
179.744
 11
179.243
 20
15.263
 21
15.37
  0
LINE
  8
0
 10
179.243
 11
178.775
 20
15.37
 21
15.578
  0
LINE
  8
0
 10
178.775
 11
178.361
 20
15.578
 21
15.879
  0
LINE
  8
0
 10
178.361
 11
178.018
 20
15.879
 21
16.26
  0
LINE
  8
0
 10
178.018
 11
177.762
 20
16.26
 21
16.703
  0
LINE
  8
0
 10
177.762
 11
177.604
 20
16.703
 21
17.191
  0
LINE
  8
0
 10
177.604
 11
177.55
 20
17.191
 21
17.7
  0
LINE
  8
0
 10
194.65
 11
194.73
 20
4.709
 21
5.215
  0
LINE
  8
0
 10
194.73
 11
194.914
 20
5.215
 21
5.693
  0
LINE
  8
0
 10
194.914
 11
195.193
 20
5.693
 21
6.123
  0
LINE
  8
0
 10
195.193
 11
195.555
 20
6.123
 21
6.485
  0
LINE
  8
0
 10
195.555
 11
195.985
 20
6.485
 21
6.764
  0
LINE
  8
0
 10
195.985
 11
196.463
 20
6.764
 21
6.948
  0
LINE
  8
0
 10
196.463
 11
196.968
 20
6.948
 21
7.027
  0
LINE
  8
0
 10
196.968
 11
197.481
 20
7.027
 21
7.001
  0
LINE
  8
0
 10
197.481
 11
197.975
 20
7.001
 21
6.868
  0
LINE
  8
0
 10
197.975
 11
198.432
 20
6.868
 21
6.636
  0
LINE
  8
0
 10
198.432
 11
198.83
 20
6.636
 21
6.314
  0
LINE
  8
0
 10
198.83
 11
199.152
 20
6.314
 21
5.915
  0
LINE
  8
0
 10
199.152
 11
199.385
 20
5.915
 21
5.459
  0
LINE
  8
0
 10
199.385
 11
199.517
 20
5.459
 21
4.965
  0
LINE
  8
0
 10
199.517
 11
199.543
 20
4.965
 21
4.453
  0
LINE
  8
0
 10
199.543
 11
199.464
 20
4.453
 21
3.947
  0
LINE
  8
0
 10
199.464
 11
199.28
 20
3.947
 21
3.469
  0
LINE
  8
0
 10
199.28
 11
199.001
 20
3.469
 21
3.039
  0
LINE
  8
0
 10
199.001
 11
198.639
 20
3.039
 21
2.677
  0
LINE
  8
0
 10
198.639
 11
198.209
 20
2.677
 21
2.398
  0
LINE
  8
0
 10
198.209
 11
197.731
 20
2.398
 21
2.215
  0
LINE
  8
0
 10
197.731
 11
197.225
 20
2.215
 21
2.135
  0
LINE
  8
0
 10
197.225
 11
196.713
 20
2.135
 21
2.161
  0
LINE
  8
0
 10
196.713
 11
196.219
 20
2.161
 21
2.294
  0
LINE
  8
0
 10
196.219
 11
195.762
 20
2.294
 21
2.527
  0
LINE
  8
0
 10
195.762
 11
195.364
 20
2.527
 21
2.849
  0
LINE
  8
0
 10
195.364
 11
195.042
 20
2.849
 21
3.247
  0
LINE
  8
0
 10
195.042
 11
194.809
 20
3.247
 21
3.703
  0
LINE
  8
0
 10
194.809
 11
194.677
 20
3.703
 21
4.198
  0
LINE
  8
0
 10
194.677
 11
194.65
 20
4.198
 21
4.709
  0
ENDSEC
  0
SECTION
  2
OBJECTS
  0
DICTIONARY
  0
ENDSEC
  0
EOF
