  0
SECTION
  2
BLOCKS
  0
ENDSEC
  0
SECTION
  2
ENTITIES
  0
LINE
  8
0
 10
0
 11
0
 20
0
 21
10
  0
LINE
  8
0
 10
0
 11
30
 20
10
 21
10
  0
LINE
  8
0
 10
30
 11
30
 20
10
 21
0
  0
LINE
  8
0
 10
30
 11
0
 20
0
 21
0
  0
LINE
  8
0
 10
0
 11
0
 20
15
 21
17
  0
LINE
  8
0
 10
0
 11
13
 20
17
 21
17
  0
LINE
  8
0
 10
13
 11
13
 20
17
 21
15
  0
LINE
  8
0
 10
13
 11
0
 20
15
 21
15
  0
LINE
  8
0
 10
1.6
 11
1.6
 20
3.6
 21
6.4
  0
LINE
  8
0
 10
1.6
 11
7.6
 20
6.4
 21
6.4
  0
LINE
  8
0
 10
7.6
 11
7.6
 20
6.4
 21
3.6
  0
LINE
  8
0
 10
7.6
 11
1.6
 20
3.6
 21
3.6
  0
LINE
  8
0
 10
23.6
 11
23.669
 20
5
 21
5.433
  0
LINE
  8
0
 10
23.669
 11
23.867
 20
5.433
 21
5.823
  0
LINE
  8
0
 10
23.867
 11
24.177
 20
5.823
 21
6.133
  0
LINE
  8
0
 10
24.177
 11
24.567
 20
6.133
 21
6.331
  0
LINE
  8
0
 10
24.567
 11
25
 20
6.331
 21
6.4
  0
LINE
  8
0
 10
25
 11
25.433
 20
6.4
 21
6.331
  0
LINE
  8
0
 10
25.433
 11
25.823
 20
6.331
 21
6.133
  0
LINE
  8
0
 10
25.823
 11
26.133
 20
6.133
 21
5.823
  0
LINE
  8
0
 10
26.133
 11
26.331
 20
5.823
 21
5.433
  0
LINE
  8
0
 10
26.331
 11
26.4
 20
5.433
 21
5
  0
LINE
  8
0
 10
26.4
 11
26.331
 20
5
 21
4.567
  0
LINE
  8
0
 10
26.331
 11
26.133
 20
4.567
 21
4.177
  0
LINE
  8
0
 10
26.133
 11
25.823
 20
4.177
 21
3.867
  0
LINE
  8
0
 10
25.823
 11
25.433
 20
3.867
 21
3.669
  0
LINE
  8
0
 10
25.433
 11
25
 20
3.669
 21
3.6
  0
LINE
  8
0
 10
25
 11
24.567
 20
3.6
 21
3.669
  0
LINE
  8
0
 10
24.567
 11
24.177
 20
3.669
 21
3.867
  0
LINE
  8
0
 10
24.177
 11
23.867
 20
3.867
 21
4.177
  0
LINE
  8
0
 10
23.867
 11
23.669
 20
4.177
 21
4.567
  0
LINE
  8
0
 10
23.669
 11
23.6
 20
4.567
 21
5
  0
ENDSEC
  0
SECTION
  2
OBJECTS
  0
DICTIONARY
  0
ENDSEC
  0
EOF
